<svg xmlns="http://www.w3.org/2000/svg" width="16" height="24" viewBox="0 0 16 24">
  <g fill="none" fill-rule="evenodd" transform="translate(-4)">
    <g stroke="#58595B" stroke-linecap="round" stroke-linejoin="round" transform="translate(4)">
      <polygon points="14.5 9.5 1.5 9.5 3.5 23.5 12.5 23.5"/>
      <polygon points="14.5 6.5 1.5 6.5 .5 9.5 15.5 9.5"/>
      <path d="M2.7 18.1L14.2 11.9M3.3 21.9L13.5 16.3"/>
      <polyline points="4.5 4.5 5.5 3.5 3.5 1.5 4.5 .5"/>
      <polyline points="8 4.5 9 3.5 7 1.5 8 .5"/>
      <polyline points="11.5 4.5 12.5 3.5 10.5 1.5 11.5 .5"/>
    </g>
    <g transform="translate(4)">
      <polygon fill="#FFFAE4" fill-rule="nonzero" points="1 8 .5 9.5 15.5 9.5 15 8"/>
      <polygon fill="#FFFAE4" fill-rule="nonzero" points="14.2 11.9 14.5 9.5 8 9.5 8 15.3"/>
      <polygon fill="#FFFAE4" fill-rule="nonzero" points="13.5 16.3 8 19.3 8 23.5 12.5 23.5"/>
      <polygon stroke="#FED52E" stroke-linecap="round" stroke-linejoin="round" points="14.5 9.5 1.5 9.5 3.5 23.5 12.5 23.5"/>
      <polygon stroke="#FED52E" stroke-linecap="round" stroke-linejoin="round" points="14.5 6.5 1.5 6.5 .5 9.5 15.5 9.5"/>
      <path stroke="#FED52E" stroke-linecap="round" stroke-linejoin="round" d="M2.7 18.1L14.2 11.9M3.3 21.9L13.5 16.3"/>
      <polyline stroke="#FED52E" stroke-linecap="round" stroke-linejoin="round" points="4.5 4.5 5.5 3.5 3.5 1.5 4.5 .5"/>
      <polyline stroke="#FED52E" stroke-linecap="round" stroke-linejoin="round" points="8 4.5 9 3.5 7 1.5 8 .5"/>
      <polyline stroke="#FED52E" stroke-linecap="round" stroke-linejoin="round" points="11.5 4.5 12.5 3.5 10.5 1.5 11.5 .5"/>
    </g>
    <rect width="24" height="24"/>
  </g>
</svg>
