<?xml version="1.0" encoding="UTF-8" standalone="no"?>
<svg width="75px" height="75px" viewBox="0 0 75 75" version="1.1" xmlns="http://www.w3.org/2000/svg" xmlns:xlink="http://www.w3.org/1999/xlink">
    <!-- Generator: Sketch 41.2 (35397) - http://www.bohemiancoding.com/sketch -->
    <title>Icon</title>
    <desc>Created with Sketch.</desc>
    <defs>
        <circle id="path-1" cx="37.5" cy="37.5" r="37.5"></circle>
        <mask id="mask-2" maskContentUnits="userSpaceOnUse" maskUnits="objectBoundingBox" x="0" y="0" width="75" height="75" fill="white">
            <use xlink:href="#path-1"></use>
        </mask>
    </defs>
    <g id="Templates" stroke="none" stroke-width="1" fill="none" fill-rule="evenodd">
        <g id="icon-001">
            <g id="Icon">
                <use id="Oval" stroke="#F6A623" mask="url(#mask-2)" stroke-width="4" xlink:href="#path-1"></use>
                <g id="Bulb" transform="translate(21.000000, 15.000000)" fill="#F6A623">
                    <path d="M27.231,28.088 C25.816,29.58 25.247,31.519 25.021,32.889 L24.882,33.72 L9.118,33.711 L8.979,32.883 C8.752,31.526 8.186,29.598 6.783,28.114 L6.718,28.039 C3.066,24.974 0.999,20.561 0.999,15.88 C0.999,7.125 8.175,0.002 16.995,0.002 C25.821,0.002 33.001,7.125 33.001,15.88 C33.001,20.58 30.899,25.026 27.231,28.088 L27.231,28.088 Z M16.995,1.986 C9.277,1.986 2.998,8.219 2.998,15.88 C2.998,20.004 4.832,23.892 8.031,26.546 C8.125,26.613 8.211,26.71 8.278,26.797 C9.72,28.341 10.433,30.212 10.785,31.729 L23.213,31.735 C23.572,30.176 24.311,28.249 25.824,26.678 L25.905,26.602 C29.144,23.918 31.002,20.01 31.002,15.88 C31.002,8.219 24.719,1.986 16.995,1.986 L16.995,1.986 Z M10.004,37.25 L23.996,37.25 C24.548,37.25 24.995,37.694 24.995,38.242 C24.995,38.789 24.548,39.233 23.996,39.233 L10.004,39.233 C9.453,39.233 9.005,38.789 9.005,38.242 C9.005,37.694 9.453,37.25 10.004,37.25 L10.004,37.25 Z M12.37,43.035 L21.63,43.035 C22.182,43.035 22.629,43.479 22.629,44.027 C22.629,44.575 22.182,45.019 21.63,45.019 L12.37,45.019 C11.819,45.019 11.371,44.575 11.371,44.027 C11.371,43.479 11.819,43.035 12.37,43.035 L12.37,43.035 Z" id="Shape"></path>
                </g>
            </g>
        </g>
    </g>
</svg>