<svg xmlns="http://www.w3.org/2000/svg" width="24" height="24" viewBox="0 0 24 24">
  <g fill="none" fill-rule="evenodd">
    <polygon fill="#212121" fill-rule="nonzero" points="13.547 13.844 22.357 13.844 22.357 20.656 20.176 22.855 13.547 22.855"/>
    <path fill="#FFF" fill-rule="nonzero" d="M22.9333333,23.1872727 C22.9333333,23.3439208 22.809167,23.4709091 22.656,23.4709091 C22.5815269,23.4723741 22.5096082,23.4431391 22.4564388,23.3897873 C22.4032695,23.3364356 22.3733196,23.2634524 22.3733333,23.1872727 C22.3733333,23.0276122 22.4998875,22.8981818 22.656,22.8981818 C22.7304868,22.8981677 22.8018481,22.9287984 22.8540142,22.9831761 C22.9061804,23.0375538 22.9347658,23.1111071 22.9333333,23.1872727 L22.9333333,23.1872727 Z"/>
    <polygon fill="#4A47D4" fill-rule="nonzero" points=".533 13.844 9.344 13.844 9.344 20.656 7.157 22.855 .533 22.855"/>
    <path fill="#FFF" fill-rule="nonzero" d="M9.91466667,23.1872727 C9.94699698,23.3030237 9.90436239,23.4270378 9.80831497,23.4966251 C9.71226755,23.5662124 9.58373245,23.5662124 9.48768503,23.4966251 C9.39163761,23.4270378 9.34900302,23.3030237 9.38133333,23.1872727 C9.34900302,23.0715218 9.39163761,22.9475076 9.48768503,22.8779203 C9.58373245,22.808333 9.71226755,22.808333 9.80831497,22.8779203 C9.90436239,22.9475076 9.94699698,23.0715218 9.91466667,23.1872727 L9.91466667,23.1872727 Z"/>
    <polygon fill="#5C6FFD" fill-rule="nonzero" points="13.547 .529 22.357 .529 22.357 7.342 20.176 9.54 13.547 9.54"/>
    <path fill="#FFF" fill-rule="nonzero" d="M22.9333333,9.87272727 C22.9333333,10.0293753 22.809167,10.1563636 22.656,10.1563636 C22.5428213,10.1894287 22.421563,10.1458252 22.3535221,10.0475949 C22.2854812,9.94936454 22.2854812,9.81790819 22.3535221,9.71967787 C22.421563,9.62144756 22.5428213,9.577844 22.656,9.61090909 C22.8012084,9.61046911 22.922164,9.72465805 22.9333333,9.87272727 Z"/>
    <polygon fill="#FED52E" fill-rule="nonzero" points=".533 .529 9.344 .529 9.344 7.342 7.157 9.54 .533 9.54"/>
    <path d="M9.91466667,9.87272727 C9.91466667,9.98744747 9.84709657,10.0908716 9.74346421,10.1347731 C9.63983184,10.1786746 9.52054583,10.1544079 9.44122905,10.0732885 C9.36191228,9.99216904 9.33818481,9.87017198 9.38111074,9.76418434 C9.42403667,9.65819669 9.52516247,9.58909091 9.63733333,9.58909091 C9.7905003,9.58909091 9.91466667,9.71607923 9.91466667,9.87272727 L9.91466667,9.87272727 Z"/>
    <path fill="#FFF" fill-rule="nonzero" d="M20.176 23.4L13.5466667 23.4C13.2521148 23.4 13.0133333 23.1557917 13.0133333 22.8545455L13.0133333 13.8436364C13.0133333 13.5423901 13.2521148 13.2981818 13.5466667 13.2981818L22.3573333 13.2981818C22.6518852 13.2981818 22.8906756 13.5423901 22.8906756 13.8436364L22.8906756 20.6563636C22.8914863 20.8013471 22.8358328 20.9406988 22.736 21.0436364L20.5493333 23.2254545C20.4526427 23.3322471 20.3182302 23.3950893 20.176 23.4L20.176 23.4zM14.08 22.3090909L19.9466667 22.3090909 21.8133333 20.4272727 21.8133333 14.3890909 14.08 14.3890909 14.08 22.3090909zM22.656 24.0000161C22.3235635 24.0021062 22.0231128 23.797745 21.8964719 23.4833827 21.769831 23.1690203 21.8423215 22.807513 22.0797252 22.5695059 22.3171289 22.3314987 22.6719774 22.2645808 22.9767686 22.40034 23.2815599 22.5360991 23.4753516 22.8473904 23.4666667 23.1872727 23.4551614 23.6375265 23.09639 23.9972099 22.656 24.0000161zM22.656 22.9090909C22.5519997 22.9068745 22.4570285 22.96924 22.4157187 23.0668784 22.3744089 23.1645167 22.394975 23.2780121 22.467752 23.3540268 22.540529 23.4300414 22.6510448 23.4534594 22.7473618 23.4132754 22.8436788 23.3730914 22.9066441 23.2772961 22.9066667 23.1709091 22.908101 23.1019771 22.8823262 23.0353599 22.8351607 22.9860962 22.7879952 22.9368324 22.7234154 22.9090753 22.656 22.9090909L22.656 22.9090909zM7.15733333 23.4L.533333333 23.4C.238781467 23.4 0 23.1557917 0 22.8545455L0 13.8436364C0 13.5423901.238781467 13.2981818.533333333 13.2981818L9.344 13.2981818C9.63855187 13.2981818 9.87733333 13.5423901 9.87733333 13.8436364L9.87733333 20.6563636C9.87674164 20.8021341 9.81912301 20.9415974 9.71733333 21.0436364L7.53066667 23.2254545C7.43397604 23.3322471 7.29956357 23.3950893 7.15733333 23.4L7.15733333 23.4zM1.06666667 22.3090909L6.93333333 22.3090909 8.80533333 20.4272727 8.80533333 14.3890909 1.06666667 14.3890909 1.06666667 22.3090909zM9.63733333 24C9.30633139 24.0022054 9.00681992 23.7996878 8.8791528 23.4873488 8.75148567 23.1750097 8.8209595 22.8147377 9.05501818 22.5753595 9.28907687 22.3359813 9.64134286 22.2649285 9.94674103 22.3954972 10.2521392 22.5260658 10.4501564 22.8323844 10.448 23.1709091 10.448 23.6288034 10.0850522 24 9.63733333 24zM9.63733333 22.9090909C9.49594844 22.9090909 9.38133333 23.0263109 9.38133333 23.1709091 9.38133333 23.3155073 9.49594844 23.4327273 9.63733333 23.4327273 9.77871823 23.4327273 9.89333333 23.3155073 9.89333333 23.1709091 9.89333333 23.1014706 9.86636198 23.0348761 9.81835267 22.9857757 9.77034336 22.9366752 9.70522875 22.9090909 9.63733333 22.9090909L9.63733333 22.9090909zM20.176 10.0854545L13.5466667 10.0854545C13.2521148 10.0854545 13.0133333 9.84124623 13.0133333 9.54L13.0133333.545454545C13.0133333.244208318 13.2521148 0 13.5466667 0L22.3573333 0C22.6518852 0 22.8907323.244208318 22.8907323.545454545L22.8907323 7.34181818C22.8929179 7.48868578 22.8371563 7.63027469 22.736 7.73454545L20.5493333 9.91636364C20.4517464 10.0211428 20.3174487 10.0819692 20.176 10.0854545zM14.08 8.99454545L19.9466667 8.99454545 21.8133333 7.11818182 21.8133333 1.09090909 14.08 1.09090909 14.08 8.99454545zM22.656 10.7018182C22.2082812 10.7018182 21.8453333 10.3306215 21.8453333 9.87272727 21.8453333 9.41483301 22.2082812 9.04363636 22.656 9.04363636 23.1037188 9.04363636 23.4666667 9.41483301 23.4666667 9.87272727 23.4637577 10.3293836 23.1025084 10.6988431 22.656 10.7018182zM22.656 9.61090909C22.5519997 9.6086927 22.4570285 9.67105821 22.4157187 9.76869654 22.3744089 9.86633487 22.394975 9.97983032 22.467752 10.0558449 22.540529 10.1318596 22.6510448 10.1552776 22.7473618 10.1150936 22.8436788 10.0749096 22.9066441 9.97911427 22.9066667 9.87272727 22.9066969 9.73023271 22.7952978 9.61387772 22.656 9.61090909L22.656 9.61090909zM7.15733333 10.0854545L.533333333 10.0854545C.238781467 10.0854545 0 9.84124623 0 9.54L0 .545454545C0 .244208318.238781467 0 .533333333 0L9.344 0C9.63855187 0 9.87734244.244208318 9.87734244.545454545L9.87734244 7.34181818C9.87817659 7.48948027 9.82044595 7.63118275 9.71733333 7.73454545L7.53066667 9.91636364C7.43307977 10.0211428 7.29878205 10.0819692 7.15733333 10.0854545L7.15733333 10.0854545zM1.06666667 8.99454545L6.93333333 8.99454545 8.80533333 7.11818182 8.80533333 1.09090909 1.06666667 1.09090909 1.06666667 8.99454545zM9.91466667 9.87272727C9.91466667 9.98744747 9.84709657 10.0908716 9.74346421 10.1347731 9.63983184 10.1786746 9.52054583 10.1544079 9.44122905 10.0732885 9.36191228 9.99216904 9.33818481 9.87017198 9.38111074 9.76418434 9.42403667 9.65819669 9.52516247 9.58909091 9.63733333 9.58909091 9.7905003 9.58909091 9.91466667 9.71607923 9.91466667 9.87272727L9.91466667 9.87272727z"/>
    <path fill="#FFF" fill-rule="nonzero" d="M9.63733333,10.7018182 C9.1896145,10.7018182 8.82666667,10.3306215 8.82666667,9.87272727 C8.82666667,9.41483301 9.1896145,9.04363636 9.63733333,9.04363636 C10.0850522,9.04363636 10.448,9.41483301 10.448,9.87272727 C10.448,10.3306215 10.0850522,10.7018182 9.63733333,10.7018182 Z M9.63733333,9.61090909 C9.49594844,9.61090909 9.38133333,9.72812908 9.38133333,9.87272727 C9.38133333,10.0173255 9.49594844,10.1345455 9.63733333,10.1345455 C9.77871823,10.1345455 9.89333333,10.0173255 9.89333333,9.87272727 C9.89050026,9.7293464 9.77752796,9.61380656 9.63733333,9.61090909 Z"/>
  </g>
</svg>
