<?xml version="1.0" encoding="UTF-8"?>
<svg width="200px" height="50px" viewBox="0 0 200 50" version="1.1" xmlns="http://www.w3.org/2000/svg" xmlns:xlink="http://www.w3.org/1999/xlink">
    <!-- Generator: Sketch 48.1 (47250) - http://www.bohemiancoding.com/sketch -->
    <title>costa_portfolio</title>
    <desc>Created with Sketch.</desc>
    <defs></defs>
    <g id="Page-1" stroke="none" stroke-width="1" fill="none" fill-rule="evenodd">
        <g id="costa_portfolio" fill="#980A2B" fill-rule="nonzero">
            <path d="M116.1074,37.7627164 C117.199648,33.3090036 115.862361,29.1648473 112.466356,24.0203333 C109.224152,19.1299818 107.824954,16.6105115 107.982013,12.7355079 C108.185995,7.60272364 111.496628,3.48333333 116.503633,0.361041212 C114.145133,0.361041212 100.669295,0.381243636 100.669295,0.381243636 C94.869823,4.63944727 92.6840242,10.7035091 92.7322497,14.9141382 C92.7980715,18.7637261 94.0011079,21.6031806 96.5583758,25.2702921 C98.6627127,28.2713673 100.727297,30.9061879 100.816579,34.4566461 C100.905862,38.9409891 97.53788,42.7136764 93.1578085,45.6196036 L106.563915,49.2958388 C110.653981,46.8128642 114.963016,42.3076679 116.1074,37.7627164 Z M125.203819,11.7260255 L133.685034,11.7260255 L133.685034,41.6025285 L146.058848,41.6025285 L146.058848,11.7260255 L154.557007,11.7260255 L154.557007,0.975593939 L125.203819,0.975593939 L125.203819,11.7260255 Z M36.5303528,36.4984194 L28.0419695,28.0119915 C26.3169213,29.7135782 23.9988269,30.7491285 21.3933331,30.7491285 C16.2234025,30.7491285 12.0186385,26.5639152 12.0186385,21.3692206 C12.0186385,16.204503 16.2234025,11.9990873 21.3933331,11.9990873 C24.0086024,11.9990873 26.4042491,13.0704812 28.1175665,14.8026982 L36.6085567,6.32278667 C32.7185635,2.40737697 27.3459545,0 21.3933331,0 C9.57606958,0 0,9.56108 0,21.3692206 C0,33.191697 9.57606958,42.7599467 21.3933331,42.7599467 C27.2996839,42.7599467 32.6579556,40.3727721 36.5303528,36.4984194 Z M176.115873,25.3002703 L179.183421,12.5530315 L179.315064,12.5530315 L182.316139,25.3002703 L176.115873,25.3002703 Z M186.842192,0.975593939 L171.91567,0.975593939 L159.047216,41.6025285 L172.258464,41.6025285 L173.954838,34.9903879 L184.672684,34.9903879 L186.346247,41.6025285 L200,41.6025285 L186.842192,0.975593939 Z M62.6817428,30.7393527 C57.5072502,30.7393527 53.2914073,26.533937 53.2914073,21.3640061 C53.2914073,16.188863 57.5072502,11.9893127 62.6817428,11.9893127 C67.8712242,11.9893127 72.0720776,16.188863 72.0720776,21.3640061 C72.0720776,26.533937 67.8712242,30.7393527 62.6817428,30.7393527 Z M62.6817428,0 C50.8638274,0 41.2962299,9.56108 41.2962299,21.3692206 C41.2962299,33.191697 50.8638274,42.7599467 62.6817428,42.7599467 C74.51204,42.7599467 84.0783345,33.191697 84.0783345,21.3692206 C84.0783345,9.56108 74.51204,0 62.6817428,0 Z" id="Fill-1"></path>
        </g>
    </g>
</svg>