<?xml version="1.0" encoding="UTF-8"?>
<svg width="145px" height="145px" viewBox="0 0 145 145" version="1.1" xmlns="http://www.w3.org/2000/svg" xmlns:xlink="http://www.w3.org/1999/xlink">
    <!-- Generator: Sketch 48.2 (47327) - http://www.bohemiancoding.com/sketch -->
    <title>default slice size</title>
    <desc>Created with Sketch.</desc>
    <defs></defs>
    <g id="Artboard" stroke="none" stroke-width="1" fill="none" fill-rule="evenodd">
        <g id="logo-template" transform="translate(-2.000000, 0.000000)" fill="#980A2B" fill-rule="nonzero">
            <path d="M83.2254926,77.5877109 C83.7920472,75.2775477 83.0983897,73.1279531 81.3368648,70.4594676 C79.6551172,67.9228176 78.929346,66.6159561 79.0108135,64.605972 C79.11662,61.9435712 80.8338618,59.8068223 83.4310207,58.187274 C82.207655,58.187274 75.21767,58.1977532 75.21767,58.1977532 C72.2094546,60.4065047 71.0756695,63.5519642 71.1006844,65.7360388 C71.1348264,67.7328393 71.7588477,69.2056783 73.0853155,71.1078278 C74.1768457,72.6645006 75.2477556,74.0311952 75.2940669,75.8728355 C75.3403784,78.1988868 73.5933891,80.1557987 71.3214243,81.6631177 L78.2752392,83.5699997 C80.3967764,82.2820684 82.631895,79.9451999 83.2254926,77.5877109 L83.2254926,77.5877109 Z M87.9438509,64.0823485 L92.3430997,64.0823485 L92.3430997,79.5794409 L98.7614597,79.5794409 L98.7614597,64.0823485 L103.169497,64.0823485 L103.169497,58.5060454 L87.9438509,58.5060454 L87.9438509,64.0823485 Z M41.9484779,76.9319139 L37.5455107,72.5299608 C36.6507195,73.4125824 35.4483123,73.9497277 34.0968295,73.9497277 C31.4151605,73.9497277 29.2341283,71.7788366 29.2341283,69.0843221 C29.2341283,66.4053574 31.4151605,64.2239871 34.0968295,64.2239871 C35.4533829,64.2239871 36.6960169,64.7797244 37.5847233,65.678234 L41.9890426,61.2796613 C39.9712836,59.2487187 37.1844842,58 34.0968295,58 C27.9671555,58 23,62.9593806 23,69.0843221 C23,75.2167005 27.9671555,80.1797994 34.0968295,80.1797994 C37.1604834,80.1797994 39.9398459,78.94156 41.9484779,76.9319139 L41.9484779,76.9319139 Z M114.352189,71.1233776 L115.943342,64.5113209 L116.011626,64.5113209 L117.568299,71.1233776 L114.352189,71.1233776 Z M119.915985,58.5060454 L112.173523,58.5060454 L105.498591,79.5794409 L112.351332,79.5794409 L113.231249,76.1496901 L118.790651,76.1496901 L119.658736,79.5794409 L126.741006,79.5794409 L119.915985,58.5060454 Z M55.5133354,73.944657 C52.8293001,73.944657 50.6425211,71.7632868 50.6425211,69.0816178 C50.6425211,66.3972444 52.8293001,64.2189165 55.5133354,64.2189165 C58.2051456,64.2189165 60.3841495,66.3972444 60.3841495,69.0816178 C60.3841495,71.7632868 58.2051456,73.944657 55.5133354,73.944657 L55.5133354,73.944657 Z M55.5133354,58 C49.3833233,58 44.4205623,62.9593806 44.4205623,69.0843221 C44.4205623,75.2167005 49.3833233,80.1797994 55.5133354,80.1797994 C61.6497702,80.1797994 66.6118551,75.2167005 66.6118551,69.0843221 C66.6118551,62.9593806 61.6497702,58 55.5133354,58 L55.5133354,58 Z" id="Fill-1"></path>
        </g>
    </g>
</svg>