<?xml version="1.0" encoding="UTF-8"?>
<svg width="251px" height="103px" viewBox="0 0 251 103" version="1.1" xmlns="http://www.w3.org/2000/svg" xmlns:xlink="http://www.w3.org/1999/xlink">
    <!-- Generator: Sketch 48.2 (47327) - http://www.bohemiancoding.com/sketch -->
    <title>evening_standard_portfolio</title>
    <desc>Created with Sketch.</desc>
    <defs></defs>
    <g id="Page-1" stroke="none" stroke-width="1" fill="none" fill-rule="evenodd">
        <g id="evening_standard_portfolio" fill="#231F20" fill-rule="nonzero">
            <path d="M201.155767,42.107305 C199.016142,42.107305 198.321192,40.7201125 198.321192,33.9537875 C198.321192,27.18746 198.901243,25.97264 201.155767,25.97264 C203.237917,25.97264 203.990342,27.18746 203.990342,34.12616 C203.990342,40.8350275 203.410292,42.107305 201.155767,42.107305 M200.923192,65.8044975 C195.719167,65.8044975 194.099417,63.77159 194.099417,60.5895275 C194.099417,58.3349975 194.504342,56.794585 195.139117,56.1023575 L205.205167,56.1023575 C208.907067,56.1023575 210.644492,57.199525 210.644492,60.0915625 C210.644492,63.6758275 207.462417,65.8044975 200.923192,65.8044975 M199.593467,67.481715 C209.889342,67.481715 217.468267,62.636115 217.468267,54.540055 C217.468267,48.29632 213.013942,46.50145 207.344767,46.50145 L195.544067,46.50145 C193.634267,46.50145 193.056967,45.86668 193.056967,44.941885 C193.056967,43.84198 193.576818,42.9746425 193.924292,42.512245 C195.661717,43.20721 198.493567,43.727065 201.155767,43.727065 C208.674517,43.727065 214.286217,40.0826075 214.286217,33.606305 C214.286217,30.77446 212.318967,28.517195 210.064442,27.0150875 L210.064442,26.9001725 C211.451642,25.9151825 213.071393,25.452785 213.708892,27.2476525 C214.226018,28.692305 214.691143,29.502185 216.598192,29.502185 C218.855467,29.502185 219.668093,27.9398825 219.668093,26.262665 C219.668093,23.833025 217.988117,22.73312 215.791067,22.73312 C213.131593,22.73312 210.816868,24.3556175 209.021993,26.0902925 C207.057493,25.1053025 204.222917,24.3556175 201.155768,24.3556175 C193.634268,24.3556175 188.025318,28.0547975 188.025318,34.4763775 C188.025318,37.9429925 189.759993,40.3151725 192.766943,41.877475 L192.766943,41.989545 C190.627318,43.2618225 188.082768,45.8091125 188.082768,49.2784625 C188.082768,52.4577875 189.759993,54.5974025 193.866843,55.63985 L193.866843,55.754765 C188.835193,56.3320775 186.233193,58.7398275 186.233193,61.51695 C186.233193,65.5636125 190.512418,67.481605 199.593468,67.481605" id="path5349"></path>
            <path d="M150.505443,55.5223075 L168.320067,55.5223075 L168.320067,54.540055 L167.452718,54.310225 C165.488218,53.7876325 165.370567,53.73291 165.370567,50.78068 L165.370567,30.65681 C166.355568,30.42698 167.567642,30.3120625 169.187392,30.3120625 C171.329743,30.3120625 172.602017,31.176665 172.602017,34.3012675 L172.602017,50.78068 C172.602017,53.6727175 172.544467,53.7876325 170.517142,54.310225 L169.649792,54.540055 L169.649792,55.5223075 L187.527342,55.5223075 L187.527342,54.540055 L186.482168,54.25003 C184.170167,53.61526 183.997793,53.500345 183.997793,50.78068 L183.997793,32.104195 C183.997793,26.95763 180.933393,24.3556175 176.533768,24.3556175 C171.967267,24.3556175 168.437718,26.667605 165.313118,29.097245 L165.140618,29.097245 L165.140618,24.7003625 L164.678243,24.3556175 L150.272767,25.857725 L150.272767,26.4350375 L152.122367,27.7647725 C153.917217,29.039785 153.974693,29.2696175 153.974693,31.8141725 L153.974693,50.78068 C153.974693,53.4428875 153.859767,53.61526 151.545043,54.25003 L150.505343,54.540055 L150.505343,55.5223075 L150.505443,55.5223075 Z" id="path5351"></path>
            <path d="M140.138442,22.4731925 C143.479193,22.4731925 146.031943,20.4074525 146.031943,17.069435 C146.031943,13.788875 143.479193,11.6656775 140.138442,11.6656775 C136.860617,11.6656775 134.247667,13.788875 134.247667,17.069435 C134.247667,20.4074525 136.860617,22.4731925 140.138442,22.4731925" id="path5353"></path>
            <path d="M131.068342,55.5223075 L149.405542,55.5223075 L149.405542,54.540055 L148.365842,54.25003 C146.051117,53.61526 145.936193,53.4428875 145.936193,50.78068 L145.936193,32.104195 C145.936193,29.5596425 145.993767,27.5349425 146.166018,24.7003625 L145.703618,24.3556175 L130.720843,25.857725 L130.720843,26.37758 L132.573168,27.707315 C134.365318,28.9795925 134.537692,29.21216 134.537692,31.7539775 L134.537692,50.78068 C134.537692,53.4428875 134.422767,53.61526 132.108043,54.25003 L131.068343,54.540055 L131.068343,55.5223075 L131.068342,55.5223075 Z" id="path5355"></path>
            <path d="M93.0067175,55.5223075 L110.824067,55.5223075 L110.824067,54.540055 L109.956742,54.310225 C107.989492,53.7876325 107.874567,53.73291 107.874567,50.78068 L107.874567,30.65681 C108.856842,30.42698 110.071642,30.3120625 111.691417,30.3120625 C113.831017,30.3120625 115.106042,31.176665 115.106042,34.3012675 L115.106042,50.78068 C115.106042,53.6727175 115.045842,53.7876325 113.023892,54.310225 L112.153817,54.540055 L112.153817,55.5223075 L130.028617,55.5223075 L130.028617,54.540055 L128.986167,54.25003 C126.671442,53.61526 126.499067,53.500345 126.499067,50.78068 L126.499067,32.104195 C126.499067,26.95763 123.434667,24.3556175 119.037792,24.3556175 C114.468542,24.3556175 110.938992,26.667605 107.817117,29.097245 L107.642017,29.097245 L107.642017,24.7003625 L107.179617,24.3556175 L92.7741425,25.857725 L92.7741425,26.4350375 L94.6264675,27.7647725 C96.4186175,29.039785 96.4787925,29.2696175 96.4787925,31.8141725 L96.4787925,50.78068 C96.4787925,53.4428875 96.3612675,53.61526 94.0491675,54.25003 L93.0067175,54.540055 L93.0067175,55.5223075 Z" id="path5357"></path>
            <path d="M79.2414925,25.97264 C82.0158925,25.97264 82.7683175,28.11499 82.7683175,36.3259675 L75.0169925,36.90328 C75.0771925,28.0547975 76.8693175,25.97264 79.2414925,25.97264 M79.4713175,56.2172725 C86.0652925,56.2172725 90.6345425,52.5728125 92.6017675,49.7984275 L92.6017675,48.6985225 C90.9874925,49.89419 88.1857425,50.7232225 85.0611425,50.7232225 C78.8721175,50.7232225 75.1920925,48.52615 75.0169925,38.4655825 L93.8165925,38.4655825 C93.5293175,28.40228 88.2048925,24.3556175 79.7038925,24.3556175 C72.0674925,24.3556175 63.7963175,29.30245 63.7963175,40.230355 C63.7963175,50.2936575 69.0578175,56.2172725 79.4713175,56.2172725" id="path5359"></path>
            <path d="M48.6986425,55.5223075 L54.0777675,55.5223075 L63.2162675,31.986545 C64.7785675,27.9398825 65.5884675,27.0150875 67.2656675,26.37758 L68.0180925,26.0902925 L68.0180925,25.1053025 L57.8371425,25.1053025 L57.8371425,26.0902925 L59.1094175,26.4952325 C60.5540675,26.95763 61.3666925,27.595135 61.3666925,28.747025 C61.3666925,29.732015 60.9617425,31.2943175 60.3242425,33.08645 L56.2173925,45.1142575 L56.0422675,45.1142575 L51.2431925,32.3340275 C50.7233425,31.0042925 50.4305675,30.02204 50.4305675,28.922135 C50.4305675,27.477485 51.1282675,26.95763 52.6878425,26.4952325 L54.0175675,26.0902925 L54.0175675,25.1053025 L33.8882425,25.1053025 L33.8882425,26.0902925 L34.7555675,26.37758 C36.2604175,26.9001725 36.7802675,27.5349425 38.4000175,31.351775 L48.6986425,55.5223075 Z" id="path5361"></path>
            <path d="M0.125,55.5223075 L33.9073925,55.5223075 L34.7172675,40.140065 L33.5598925,40.140065 C31.8826925,44.4192925 30.6678675,46.90639 28.9906425,49.6835125 C27.0808675,52.7479225 26.2709825,53.5578025 21.8741025,53.5578025 C17.767245,53.5578025 17.4197625,52.80538 17.4197625,49.6835125 L17.4197625,35.6884625 L18.9246075,35.6884625 C22.744175,35.6884625 23.3789475,36.15086 24.07391,37.480595 C24.9412475,39.21527 25.57602,41.2399675 25.98096,43.0321 L27.0234175,43.0321 L27.0234175,26.78252 L25.98096,26.78252 C25.51856,28.692305 24.88379,30.541895 24.07391,32.104195 C23.436405,33.319015 22.85909,33.83887 18.982065,33.83887 L17.4197625,33.83887 L17.4197625,17.7616625 C18.05727,17.58918 19.0614125,17.4169175 21.376135,17.4169175 C24.73057,17.4169175 26.235415,18.109145 27.9700925,20.88353 C29.2423675,22.90823 30.3422675,25.047845 31.8443675,28.5773875 L32.9442925,28.5773875 L32.4244175,15.449675 L0.125,15.449675 L0.125,16.4319275 L1.6873025,16.8368675 C3.8269175,17.4169175 4.2318575,17.5318325 4.2318575,21.5210375 L4.2318575,49.4536825 C4.2318575,53.4428875 3.8269175,53.5578025 1.6873025,54.135115 L0.125,54.540055 L0.125,55.5223075 Z" id="path5363"></path>
            <path d="M232.092668,96.9438275 C227.868117,96.9438275 225.807842,93.9943325 225.807842,84.97074 C225.807842,74.8581875 228.122568,71.9114275 231.359393,71.9114275 C233.326518,71.9114275 234.251318,72.89368 235.064043,74.39579 L235.064043,96.2515975 C234.369093,96.5416225 233.249918,96.9438275 232.092668,96.9438275 M225.865293,102.09313 C229.857242,102.09313 232.691768,100.128625 235.006493,97.928815 L235.179393,97.928815 L235.179393,101.573275 L235.931943,102.09313 L249.874993,100.06843 L249.874993,99.3160075 L248.485068,98.7961525 C246.575292,98.10119 246.517718,97.7564425 246.517718,94.6892975 L246.517718,64.9727275 C246.517718,61.09844 246.747543,57.9765725 246.747543,57.9765725 L246.285268,57.62909 L230.840043,58.958825 L230.840043,59.768705 L233.152068,61.0409825 C234.832043,61.9657775 235.064718,62.1956075 235.064718,65.0301875 L235.064718,70.81426 C233.967418,70.4667775 233.040018,70.2369475 231.302493,70.2369475 C222.049118,70.2369475 214.180168,75.1482125 214.180168,87.8655125 C214.180168,97.523875 219.214543,102.09313 225.865968,102.09313" id="path5365"></path>
            <path d="M187.655942,101.398165 L206.225717,101.398165 L206.225717,100.358455 L204.953442,100.128625 C202.811092,99.723685 202.523793,99.548575 202.523793,96.6565375 L202.523793,76.995065 C203.101117,76.4779475 204.086118,76.1879225 204.895993,76.1879225 C205.588218,76.1879225 205.878243,76.4779475 206.283168,77.345285 C207.093068,79.13468 208.135493,80.4042225 210.909893,80.4042225 C213.744468,80.4042225 215.769168,78.4971725 215.769168,75.1482125 C215.769168,71.9114275 213.801918,70.29167 211.027543,70.29167 C207.265443,70.29167 204.143568,73.1235125 202.466343,75.20567 L202.291243,75.20567 L202.291243,70.5816925 L201.828843,70.2369475 L187.426118,71.73632 L187.426118,72.3163675 L189.275693,73.6433675 C191.070568,74.915645 191.128018,75.1482125 191.128018,77.6325725 L191.128018,96.6565375 C191.128018,99.3160075 191.010493,99.4911175 188.698393,100.128625 L187.655943,100.415913 L187.655943,101.398165 L187.655942,101.398165 Z" id="path5367"></path>
            <path d="M138.756717,96.9438275 C134.532218,96.9438275 132.471942,93.9943325 132.471942,84.97074 C132.471942,74.8581875 134.786667,71.9114275 138.026192,71.9114275 C139.990692,71.9114275 140.918217,72.89368 141.728093,74.39579 L141.728093,96.2515975 C141.033142,96.5416225 139.911342,96.9438275 138.756717,96.9438275 M132.529393,102.09313 C136.521342,102.09313 139.355918,100.128625 141.667918,97.928815 L141.845643,97.928815 L141.845643,101.573275 L142.595318,102.09313 L156.535668,100.06843 L156.535668,99.3160075 L155.148468,98.7961525 C153.238668,98.10119 153.181218,97.7564425 153.181218,94.6892975 L153.181218,64.9727275 C153.181218,61.09844 153.411043,57.9765725 153.411043,57.9765725 L152.951393,57.62909 L137.503493,58.958825 L137.503493,59.768705 L139.818218,61.0409825 C141.495418,61.9657775 141.727993,62.1956075 141.727993,65.0301875 L141.727993,70.81426 C140.628093,70.4667775 139.703293,70.2369475 137.968618,70.2369475 C128.712468,70.2369475 120.843493,75.1482125 120.843493,87.8655125 C120.843493,97.523875 125.877868,102.09313 132.529293,102.09313" id="path5369"></path>
            <path d="M84.0980425,101.398165 L101.915393,101.398165 L101.915393,100.415913 L101.048068,100.183345 C99.0780675,99.66349 98.9658925,99.6060325 98.9658925,96.6565375 L98.9658925,76.5326675 C99.9481425,76.3028375 101.162968,76.1879225 102.782743,76.1879225 C104.922342,76.1879225 106.194618,77.05526 106.194618,80.17439 L106.194618,96.6565375 C106.194618,99.548575 106.137068,99.66349 104.112468,100.183345 L103.245143,100.415913 L103.245143,101.398165 L121.119943,101.398165 L121.119943,100.415913 L120.077493,100.128625 C117.765518,99.4911175 117.590393,99.3762025 117.590393,96.6565375 L117.590393,77.980055 C117.590393,72.8362225 114.525993,70.2369475 110.129118,70.2369475 C105.559843,70.2369475 102.030318,72.5462 98.9057175,74.9731025 L98.7334425,74.9731025 L98.7334425,70.5816925 L98.2710425,70.2369475 L83.8683175,71.73632 L83.8683175,72.3163675 L85.7179175,73.6433675 C87.5100425,74.915645 87.5702425,75.1482125 87.5702425,77.69003 L87.5702425,96.6565375 C87.5702425,99.3160075 87.4526925,99.4911175 85.1405925,100.128625 L84.0981425,100.415913 L84.0981425,101.398165 L84.0980425,101.398165 Z" id="path5371"></path>
            <path d="M67.0331175,97.7564425 C65.4708175,97.7564425 64.1985175,96.5416225 64.1985175,92.5496825 C64.1985175,88.50302 65.2409675,87.3456575 67.8429925,87.1705475 L69.1754675,87.0556325 L69.1754675,96.713995 C68.7705175,97.40896 68.0180925,97.7564425 67.0331175,97.7564425 M61.4815925,102.09313 C65.8182925,102.09313 68.0180925,100.183345 69.5803925,98.333755 L69.8102175,98.333755 C70.6775675,100.763395 72.9922925,102.09313 76.6367425,102.09313 C80.8010675,102.09313 83.2252425,100.6348 84.4455175,99.395355 L84.4455175,98.5307525 C83.9256675,98.5307525 82.5959425,98.3528 81.8435175,97.950705 C80.7436175,97.3733925 80.5712425,96.560775 80.5712425,94.01622 L80.5712425,78.4971725 C80.5712425,72.373825 75.7694175,70.2369475 68.3628425,70.2369475 C58.4719175,70.2369475 54.2501425,72.89368 54.2501425,76.8226925 C54.2501425,79.249595 55.8124425,80.57933 58.9370425,80.57933 C62.4063925,80.57933 63.6212175,79.3070525 63.9112425,74.3383325 C64.0261675,72.25891 64.7785675,71.968885 66.2232175,71.968885 C68.5954175,71.968885 69.1754675,73.8184775 69.1754675,79.13468 L69.1754675,84.68345 L62.5787675,86.4755825 C57.6620425,87.808055 53.0927675,89.3101625 53.0927675,94.86167 C53.0927675,99.3762025 56.3322925,102.09313 61.4815925,102.09313" id="path5373"></path>
            <path d="M170.591018,97.7564425 C169.028718,97.7564425 167.759168,96.5416225 167.759168,92.5496825 C167.759168,88.50302 168.798868,87.3456575 171.403618,87.1705475 L172.733368,87.0556325 L172.733368,96.713995 C172.325693,97.40896 171.575993,97.7564425 170.591018,97.7564425 M165.039492,102.09313 C169.378918,102.09313 171.575992,100.183345 173.138292,98.333755 L173.368142,98.333755 C174.235467,100.763395 176.550192,102.09313 180.194642,102.09313 C184.358968,102.09313 186.783142,100.6348 188.003418,99.395355 L188.003418,98.5307525 C187.483567,98.5307525 186.153842,98.3528 185.401418,97.950705 C184.301518,97.3733925 184.129143,96.560775 184.129143,94.01622 L184.129143,78.4971725 C184.129143,72.373825 179.327318,70.2369475 171.923493,70.2369475 C162.032543,70.2369475 157.808043,72.89368 157.808043,76.8226925 C157.808043,79.249595 159.370343,80.57933 162.494943,80.57933 C165.964293,80.57933 167.179118,79.3070525 167.469143,74.3383325 C167.584068,72.25891 168.336493,71.968885 169.781143,71.968885 C172.153318,71.968885 172.733368,73.8184775 172.733368,79.13468 L172.733368,84.68345 L166.136668,86.4755825 C161.222668,87.808055 156.650693,89.3101625 156.650693,94.86167 C156.650693,99.3762025 159.890193,102.09313 165.039493,102.09313" id="path5375"></path>
            <path d="M42.7394425,102.09313 C48.1760425,102.09313 50.9531675,99.6060325 52.5154675,97.7564425 L52.5154675,96.771455 C51.6481175,97.00402 50.0858175,97.2338525 48.7533675,97.2338525 C45.6314925,97.2338525 44.9939925,96.366515 44.9939925,92.9546225 L44.9939925,74.105765 L51.9354175,74.105765 L52.3978175,70.9866325 L44.9939925,70.9866325 L44.9939925,62.8905725 L42.1019425,62.8905725 C40.1921675,67.1698 35.6119675,70.91276 30.5803175,72.76235 L30.5803175,74.105765 L33.5982175,74.105765 L33.5982175,92.897165 C33.5982175,99.3762025 36.2604175,102.09313 42.7394425,102.09313" id="path5377"></path>
            <path d="M14.2541175,102.09313 C24.4350725,102.09313 30.6158675,95.6387175 30.6158675,88.0050525 C30.6158675,81.7011225 26.6184675,77.8624025 17.4197625,74.6858125 C11.23075,72.48874 9.61099,70.6966075 9.61099,67.6321975 C9.61099,64.3352225 11.91477,62.3132575 15.38412,62.3132575 C17.641385,62.3132575 19.4417275,62.833115 21.5813425,65.1451025 C23.6634975,67.4023675 24.8153875,70.406585 26.2025825,73.4135375 L27.4173925,73.4135375 L26.8400925,62.428175 C24.75793,61.44592 21.1134725,60.6360425 16.31165,60.6360425 C7.11295,60.6360425 0.644855,65.97687 0.644855,73.6077975 C0.644855,80.02117 3.3070625,83.8735725 11.8682575,86.7656075 C18.05727,88.847765 21.4335925,89.86285 21.4335925,95.06414 C21.4335925,98.648405 18.5935425,100.415912 14.891625,100.415912 C11.709565,100.415912 9.091135,99.2010925 6.95152,96.5416225 C5.1566525,94.2843575 3.6518075,91.56743 1.859675,87.92297 L0.644855,87.92297 L1.3972775,100.300997 C4.1579825,101.190223 8.470045,102.09313 14.2541175,102.09313" id="path5379"></path>
            <path d="M111.450643,19.2063125 L119.215643,19.2063125 L119.215643,18.61532 L118.838043,18.514195 C117.981668,18.2871 117.929668,18.262475 117.929668,16.9765175 L117.929668,8.36881 C118.359243,8.2676825 118.887293,8.2155875 119.593218,8.2155875 C120.526218,8.2155875 121.081643,8.5931675 121.081643,9.955735 L121.081643,16.9765175 C121.081643,18.235115 121.056893,18.2871 120.173268,18.514195 L119.792943,18.61532 L119.792943,19.2063125 L127.588043,19.2063125 L127.588043,18.61532 L127.133843,18.48946 C126.124243,18.21038 126.050368,18.16113 126.050368,16.9764075 L126.050368,8.9979975 C126.050368,6.7544125 124.712418,5.61894 122.797168,5.61894 C120.802568,5.61894 119.264892,6.6285525 117.905042,7.687415 L117.828443,7.687415 L117.828443,5.77216 L117.628592,5.61894 L111.349293,6.2755975 L111.349293,6.6914825 L112.156442,7.2715325 C112.936217,7.82422 112.963567,7.925455 112.963567,9.0363025 L112.963567,16.9764075 C112.963567,18.1365075 112.911492,18.21038 111.904717,18.48946 L111.450517,18.61532 L111.450517,19.2063125 L111.450643,19.2063125 Z" id="path5381"></path>
            <path d="M104.345042,18.61532 C102.883967,18.61532 102.251942,18.07084 102.251942,12.2758225 C102.251942,7.2086025 103.034443,6.5136375 104.219167,6.5136375 C105.480517,6.5136375 106.336892,6.9815075 106.336892,12.727275 C106.336892,18.1967 105.658343,18.61532 104.345042,18.61532 M104.295793,19.5072825 C107.899193,19.5072825 111.480743,17.61665 111.480743,12.5275425 C111.480743,7.813275 108.000443,5.61894 104.295793,5.61894 C100.763517,5.61894 97.1080925,7.50957 97.1080925,12.62604 C97.1080925,17.3156825 100.563767,19.5072825 104.295793,19.5072825" id="path5383"></path>
            <path d="M89.1707425,17.2664325 C87.3320925,17.2664325 86.5769175,15.980475 86.5769175,12.0487275 C86.5769175,7.63543 87.5838175,6.5136375 88.9956175,6.5136375 C89.8520175,6.5136375 90.2569675,6.9432025 90.6099175,7.597125 L90.6099175,16.9627275 C90.3062175,17.0885875 89.6769175,17.2664325 89.1707425,17.2664325 M86.6015425,19.5072825 C88.3389675,19.5072825 89.5756675,18.65089 90.5852925,17.69326 L90.6590425,17.69326 L90.6590425,19.282925 L90.9873925,19.5072825 L97.0642175,18.626265 L97.0642175,18.1365075 L96.4595425,17.9094125 C95.6277675,17.6084425 95.6031425,17.4552225 95.6031425,16.120015 L95.6031425,3.3261025 C95.6031425,1.6379425 95.7016425,0.275375 95.7016425,0.275375 L95.5017925,0.125 L88.7683175,0.7050475 L88.7683175,1.2194325 L89.7779175,1.774855 C90.5084675,2.179795 90.6096925,2.278295 90.6096925,3.5150025 L90.6096925,5.8707675 C90.1308675,5.72302 89.7259425,5.6190475 88.9707925,5.6190475 C84.9377925,5.6190475 81.5067425,7.7614 81.5067425,13.307435 C81.5067425,17.5182625 83.7010925,19.5073925 86.6013425,19.5073925" id="path5385"></path>
            <path d="M65.2738175,19.2063125 L73.0415425,19.2063125 L73.0415425,18.61532 L72.6639675,18.514195 C71.8048425,18.2871 71.7555925,18.262475 71.7555925,16.9765175 L71.7555925,8.36881 C72.1851425,8.2676825 72.7132175,8.2155875 73.4191175,8.2155875 C74.3521175,8.2155875 74.9075425,8.5931675 74.9075425,9.955735 L74.9075425,16.9765175 C74.9075425,18.235115 74.8801925,18.2871 73.9991675,18.514195 L73.6215925,18.61532 L73.6215925,19.2063125 L81.4112175,19.2063125 L81.4112175,18.61532 L80.9597675,18.48946 C79.9501425,18.21038 79.8735425,18.16113 79.8735425,16.9764075 L79.8735425,8.9979975 C79.8735425,6.7544125 78.5383175,5.61894 76.6203425,5.61894 C74.6311925,5.61894 73.0907925,6.6285525 71.7309675,7.687415 L71.6543425,7.687415 L71.6543425,5.77216 L71.4518675,5.61894 L65.1725675,6.2755975 L65.1725675,6.6914825 L65.9824425,7.2715325 C66.7622425,7.82422 66.7868675,7.925455 66.7868675,9.0363025 L66.7868675,16.9764075 C66.7868675,18.1365075 66.7376175,18.21038 65.7279925,18.48946 L65.2738175,18.61532 L65.2738175,19.2063125 Z" id="path5387"></path>
            <path d="M58.0943425,18.61532 C56.6332675,18.61532 56.0012425,18.07084 56.0012425,12.2758225 C56.0012425,7.2086025 56.7837425,6.5136375 57.9684675,6.5136375 C59.2298175,6.5136375 60.0861925,6.9815075 60.0861925,12.727275 C60.0861925,18.1967 59.4049175,18.61532 58.0943425,18.61532 M58.0450925,19.5072825 C61.6512425,19.5072825 65.2300425,17.61665 65.2300425,12.5275425 C65.2300425,7.813275 61.7497425,5.61894 58.0450925,5.61894 C54.5155425,5.61894 50.8573925,7.50957 50.8573925,12.62604 C50.8573925,17.3156825 54.3130675,19.5072825 58.0450925,19.5072825" id="path5389"></path>
            <path d="M35.1906175,19.2063125 L49.5878675,19.2063125 L50.0912925,12.1745875 L49.4264425,12.1745875 C48.6685425,14.0898425 47.9352675,15.75338 47.3333175,16.7602575 C46.4988175,18.14745 46.3866425,18.37181 44.4932675,18.37181 C42.9063425,18.37181 42.7285175,18.07084 42.7285175,16.7356325 L42.7285175,4.546395 C42.7285175,2.808985 42.8543675,2.70775 43.8393425,2.50528 L44.6711175,2.33017 L44.6711175,1.7391775 L35.1906175,1.7391775 L35.1906175,2.33017 L35.8691425,2.50528 C36.8048925,2.757 36.9799925,2.808985 36.9799925,4.546395 L36.9799925,16.39636 C36.9799925,18.1365075 36.8048925,18.185755 35.8691425,18.44021 L35.1906175,18.61532 L35.1906175,19.2063125 Z" id="path5391"></path>
        </g>
    </g>
</svg>