<?xml version="1.0" encoding="UTF-8"?>
<svg width="15px" height="15px" viewBox="0 0 15 15" version="1.1" xmlns="http://www.w3.org/2000/svg" xmlns:xlink="http://www.w3.org/1999/xlink">
    <!-- Generator: Sketch 42 (36781) - http://www.bohemiancoding.com/sketch -->
    <title>social</title>
    <desc>Created with Sketch.</desc>
    <defs>
        <path d="M7.50114256,15 C3.36658214,15 0.002,11.635538 0.002,7.49957162 C0.002,3.36531871 3.36658214,0 7.50114256,0 C11.6369891,0 15.002,3.36531871 15.002,7.49957162 C15.002,11.635538 11.6369891,15 7.50114256,15 L7.50114256,15 Z" id="path-1"></path>
        <mask id="mask-2" maskContentUnits="userSpaceOnUse" maskUnits="objectBoundingBox" x="0" y="0" width="15" height="15" fill="white">
            <use xlink:href="#path-1"></use>
        </mask>
    </defs>
    <g id="Templates" stroke="none" stroke-width="1" fill="none" fill-rule="evenodd">
        <g id="social">
            <g id="GitHub">
                <use id="Path" stroke="#F6A623" mask="url(#mask-2)" stroke-width="2" xlink:href="#path-1"></use>
                <path d="M7.61345758,3 C5.06597247,3 3,5.06568923 3,7.61402406 C3,9.65252198 4.32189382,11.3817188 6.15532401,11.9918237 C6.38616683,12.0343101 6.47028992,11.891839 6.47028992,11.7694781 C6.47028992,11.6601465 6.46632452,11.3698227 6.46405858,10.9848958 C5.18068577,11.2636066 4.90990572,10.3662937 4.90990572,10.3662937 C4.70002286,9.83323085 4.39751963,9.69132624 4.39751963,9.69132624 C3.97860363,9.40525108 4.42924281,9.41091594 4.42924281,9.41091594 C4.89234467,9.44348885 5.13593342,9.88648048 5.13593342,9.88648048 C5.54748511,10.5914716 6.21593795,10.3878201 6.4787872,10.2697079 C6.52070713,9.97173654 6.63995231,9.76836826 6.77166018,9.65308847 C5.74717123,9.53667571 4.66999913,9.14070237 4.66999913,7.37270126 C4.66999913,6.86909568 4.84985827,6.45697751 5.14499719,6.13464729 C5.09741241,6.01795128 4.93907973,5.54861808 5.19031603,4.91358788 C5.19031603,4.91358788 5.57750884,4.78952756 6.45896021,5.38660324 C6.82689252,5.28406937 7.22173288,5.23308568 7.61402406,5.23110298 C8.006032,5.23308568 8.40058912,5.28406937 8.76908791,5.38660324 C9.6499728,4.78952756 10.0365991,4.91358788 10.0365991,4.91358788 C10.2884019,5.54861808 10.1300692,6.01795128 10.0827677,6.13464729 C10.3784731,6.45697751 10.556916,6.86909568 10.556916,7.37270126 C10.556916,9.14523426 9.47804446,9.53525949 8.45043984,9.64940631 C8.6158536,9.79187741 8.76342306,10.0734207 8.76342306,10.5039496 C8.76342306,11.1205691 8.7577582,11.6182265 8.7577582,11.7694781 C8.7577582,11.892972 8.84103156,12.036576 9.07499006,11.9915404 C10.907004,11.3800194 12.2277649,9.6519555 12.2277649,7.61402406 C12.2277649,5.06568923 10.1617924,3 7.61345758,3" id="Fill-3" fill="#F6A623"></path>
            </g>
        </g>
    </g>
</svg>