<svg xmlns="http://www.w3.org/2000/svg" xmlns:xlink="http://www.w3.org/1999/xlink" width="557" height="565" viewBox="0 0 557 565">
  <defs>
    <polygon id="illustration-a" points=".041 187.3 255.031 187.3 255.031 .02 .041 .02"/>
  </defs>
  <g fill="none" fill-rule="evenodd" transform="rotate(-180 278.671 283)">
    <path fill="#F8DDDC" fill-rule="nonzero" d="M7.9999998,2.6666666 C7.9999998,2.6666666 14.917333,6.94399983 17.1693329,13.921333 C19.4199995,20.8999995 18.3973329,29.8639993 13.6186663,29.7719993 C8.83999978,29.6786659 1.18799997,2.6666666 1.18799997,2.6666666 L3.9079999,0.530666653 L7.9999998,2.6666666 Z" transform="translate(280.93 383.617)"/>
    <path fill="#5C6FFD" fill-rule="nonzero" d="M126.666664,431.999989 C126.666664,431.999989 44.3066656,414.69599 11.5679997,327.625325 C-26.2479993,227.051994 27.774666,0.371999991 273.579993,0.371999991 C519.383987,0.371999991 505.427987,175.239996 505.427987,175.239996 C505.427987,175.239996 524.34932,336.230658 279.43866,327.625325 C279.43866,327.625325 222.858661,445.241322 126.666663,431.999989" transform="translate(.231 1.173)"/>
    <path fill="#5268EA" fill-rule="nonzero" d="M359.999991,47.9999988 C111.209331,26.390666 4.27466656,217.013328 27.922666,360.682658 C21.7213328,351.049325 16.1333329,340.181325 11.5279997,327.931992 C-26.2879993,227.359994 27.734666,0.679999983 273.53866,0.679999983 C399.741323,0.679999983 457.465322,46.7759988 483.763988,91.6346644 C447.430655,76.3013314 421.969323,53.381332 359.999991,47.9999988" transform="translate(.271 .866)"/>
    <polygon fill="#F8DDDC" fill-rule="nonzero" points="0 46.667 20.628 8.276 42.797 .281 48.105 20.215 27.077 59.617" transform="translate(455.506 62.58)"/>
    <path fill="#FECB29" fill-rule="nonzero" d="M1.3333333,119.999997 C1.3333333,119.999997 24.6653327,116.454664 46.2746655,70.5359982 C46.2746655,70.5359982 56.7786652,50.2773321 66.8333317,45.3253322 C66.8333317,45.3253322 77.7879981,64.682665 81.8386646,78.1893314 C81.8386646,78.1893314 91.6879977,82.9666646 106.149331,75.9386648 C106.149331,75.9386648 100.297331,26.0173327 82.7399979,5.50799986 C65.182665,-15.001333 -9.3933331,41.159999 1.3333333,119.999997" transform="translate(186.602 307.37)"/>
    <g transform="translate(384.45 38.923)">
      <path fill="#000" fill-rule="nonzero" d="M90.3333333,32.9999993 C90.3333333,32.9999993 109.350666,26.6333328 119.222666,45.0386657 C119.222666,45.0386657 150.298665,44.6746657 169.999998,51.2373322 C169.999998,51.2373322 183.007998,42.8186657 146.919999,20.4879996 C116.019999,1.36800009 96.8946665,6.00133331 96.8946665,6.00133331 C96.8946665,6.00133331 88.104,10.7759999 90.3333333,32.9999993"/>
      <path stroke="#FECB29" stroke-dasharray="3 4" stroke-linecap="round" d="M170.45401,45.1061018 C153.983254,22.6977423 129.649921,10.3644089 97.4540104,8.10610177"/>
      <path stroke="#FECB29" stroke-dasharray="3" d="M77.1385807,-9.09494702e-13 C35.5674172,7.75920557 10.1157071,17.2166906 0.78345029,28.3724551"/>
    </g>
    <path fill="#F8DDDC" fill-rule="nonzero" d="M0,53.333332 L2.33466661,10.9879997 L8.14266646,4.45199989 C14.3586663,-2.54133327 25.690666,-0.94533331 29.7333326,7.49199981 L32.3466659,12.9479997 L33.1479992,57.1933319 L0,53.333332 Z" transform="translate(393.41 73.68)"/>
    <g transform="translate(384.079 35.335)">
      <path fill="#000" fill-rule="nonzero" d="M11.6666664,49.3333321 C11.6666664,49.3333321 24.0799994,31.6426659 41.6786656,51.2933321 C41.6786656,51.2933321 71.6653316,19.9453328 80.4426647,12.5986664 C89.2199978,5.25066654 78.0759981,-14.3879996 6.84933319,21.0639995 C-8.33999977,28.6239993 11.6666664,49.3333321 11.6666664,49.3333321"/>
      <path stroke="#FECB29" stroke-dasharray="3 4" d="M72.5103118,3.5 C40.3677596,8.83019933 16.3677596,17.1635327 0.510311841,28.5" transform="rotate(-2 36.51 16)"/>
    </g>
    <path fill="#FED52E" fill-rule="nonzero" d="M41.3333323,234.666667 C41.3333323,234.666667 -5.61599986,214.858661 1.80266662,179.443996 C9.21999977,144.027996 44.0346656,11.3706664 93.8559977,1.16666664 C93.8559977,1.16666664 140.675996,92.6066644 179.091996,114.415997 C179.091996,114.415997 173.489329,120.907997 167.442662,125.41333 C160.694663,130.439997 155.591996,137.351997 152.446663,145.155996 C142.44133,169.979996 123.502664,216.526661 119.366664,223.561328 C116.370664,228.658661 96.2573309,244.870661 41.3333323,234.666667" transform="translate(74.343 198.462)"/>
    <path fill="#000" fill-rule="nonzero" d="M0.3333333,99.9999975 C0.3333333,99.9999975 46.5533321,54.081332 157.299996,99.9999975 L205.919995,117.107997 L285.15466,0.0586666652 L321.789325,22.5679994 L249.13866,187.337329 L48.6773321,177.187996 C48.6773321,177.187996 -4.46933325,119.807997 0.3333333,99.9999975" transform="translate(167.866 99.629)"/>
    <path fill="#F1F2F2" fill-rule="nonzero" d="M42.6666656,5.3333332 C42.6666656,2.7146666 35.7053324,0.599999985 27.134666,0.599999985 C18.5479995,0.599999985 11.601333,2.7146666 11.601333,5.3333332 C0.817333313,12.9946663 0.647999984,34.2839991 0.647999984,35.6133324 C0.718666649,33.8213325 3.56133324,32.1959992 8.1559998,31.0066659 C12.9599997,29.7453326 19.6826662,28.9613326 27.134666,28.9613326 C34.5426658,28.9613326 41.251999,29.7319993 46.0559988,30.9919992 C50.7333321,32.1959992 53.6186653,33.8626658 53.6186653,35.6839991 C54.8799986,15.1799996 42.6666656,5.3333332 42.6666656,5.3333332" transform="translate(242.874 380.227)"/>
    <path fill="#F8DDDC" fill-rule="nonzero" d="M87.9999978,118.666664 C87.9999978,118.666664 95.5213309,93.7879977 91.4719977,89.1586644 C87.4213311,84.5306646 87.9999978,83.0839979 87.9999978,83.0839979 C87.9999978,83.0839979 93.577331,63.7013317 92.6679977,61.9666651 C91.7599977,60.2306652 85.1066645,60.2306652 85.1066645,60.2306652 C85.1066645,60.2306652 78.163998,18.2839995 62.2533318,21.7546661 C46.3426655,25.226666 42.8706656,29.5653326 42.8706656,29.5653326 C42.8706656,29.5653326 40.8253323,24.0999994 49.7519988,13.649333 C73.7679982,-14.465333 14.2306663,7.86933314 9.3133331,20.5973328 C9.3133331,20.5973328 10.7599997,39.979999 11.917333,43.1626656 C13.0746663,46.3439988 10.1813331,63.4133317 5.55333319,69.1973316 C0.923999977,74.9839981 -5.15066654,97.5479976 10.1813331,111.145331 C25.5133327,124.74133 59.9386652,148.751996 87.9999978,118.666664" transform="translate(111.108 409.177)"/>
    <path fill="#414042" fill-rule="nonzero" d="M21.3333328,0 C21.3119995,0 21.2919995,0 21.2719995,0.0013333333 C3.58533324,0.766666647 1.18399997,12.5039997 1.09066664,13.0026663 C0.947999976,13.7639997 1.44799996,14.4959996 2.20933328,14.6386663 C2.96533326,14.7839996 3.69599991,14.2826663 3.84266657,13.5266663 C3.9239999,13.1119997 6.02399985,3.46533325 21.3919995,2.79999993 C22.1653328,2.7666666 22.7639994,2.11333328 22.7306661,1.33999997 C22.6986661,0.587999985 22.0786661,0 21.3333328,0" transform="translate(155.212 456.146)"/>
    <g transform="translate(203 99.667)">
      <mask id="illustration-b" fill="#fff">
        <use xlink:href="#illustration-a"/>
      </mask>
      <g mask="url(#illustration-b)" opacity=".78">
        <path fill="#000" fill-rule="nonzero" d="M243.999994,119.999997 L225.163994,163.861329 L224.594661,164.103996 L214.325328,187.301329 L48.2226655,178.890662 C27.3573326,173.585329 10.7573331,168.798662 3.55599991,165.449329 C2.53599994,164.251996 1.46799996,162.985329 0.361333324,161.659996 C15.2266663,153.974663 128.358663,156.138663 143.363996,152.535996 C158.370663,148.934663 170.375996,116.81333 170.375996,116.81333 L171.106662,117.071997 L250.339994,0.0226666661 L255.077327,2.28666661 C256.909327,5.13066654 249.13466,75.1706648 243.999994,119.999997" transform="translate(-.32 -.001)"/>
      </g>
    </g>
    <polygon fill="#4B4B4C" fill-rule="nonzero" points="136 74.667 49.435 67.204 .759 1.103 83.937 2.433" transform="translate(250.962 260.223)"/>
    <path fill="#000" fill-rule="nonzero" d="M31.9999992,190.666662 L0.699999982,155.007996 L122.271997,161.185329 L149.498663,159.857329 C152.442663,159.713329 154.818663,157.399996 155.039996,154.459996 L166.670662,0.191999995 L211.491995,2.95999993 L215.161328,126.29733 L215.161328,167.006662 C215.161328,186.981329 199.746662,203.617328 179.822662,205.047995 C105.719997,210.369328 31.9999992,190.666662 31.9999992,190.666662" transform="translate(219.72 122.005)"/>
    <polygon fill="#4B4B4C" fill-rule="nonzero" points="136 73.667 49.435 66.203 .759 .101 83.937 1.433" transform="translate(250.962 256.721)"/>
    <path fill="#EFB824" fill-rule="nonzero" d="M3.9999999,26.666666 C3.9999999,26.666666 12.0106664,18.9066662 12.1986664,10.8333331 C12.3866664,2.7586666 14.9706663,0.222666661 14.9706663,0.222666661 C14.9706663,0.222666661 14.3706663,18.2306662 20.3733328,19.4306662 C26.374666,20.6319995 29.6759993,13.4439997 29.6759993,13.4439997 C29.6759993,13.4439997 31.1786659,31.9186659 25.2079994,31.3373325 C12.8519997,30.1359992 0.750666648,38.2506657 0.750666648,38.2506657 C0.750666648,38.2506657 -0.54133332,31.8239992 3.9999999,26.666666" transform="translate(153.229 400.492)"/>
    <path fill="#F8CFC9" fill-rule="nonzero" d="M1.3333333,42.6666656 C-4.71999988,17.2519996 14.8066663,5.10799987 26.9853327,0.173333329 C30.1173326,1.53466663 29.8239993,5.44399986 23.2373328,13.1546663 C14.3106663,23.6053327 16.3573329,29.0706659 16.3573329,29.0706659 C8.95866644,32.8946658 1.3333333,42.6666656 1.3333333,42.6666656" transform="translate(137.622 409.673)"/>
    <path fill="#F8CFC9" fill-rule="nonzero" d="M2.6666666,0 C1.83999995,0.806666646 1.04799997,1.43466663 0.310666659,1.81466662 C0.310666659,1.81466662 0.907999977,1.08799997 2.6666666,0" transform="translate(153.668 436.928)"/>
    <path fill="#D1D3D4" fill-rule="nonzero" d="M26.666666,11.9999997 C12.0306664,11.9999997 0.181333329,8.98933311 0.181333329,5.26266654 L0.181333329,5.1933332 C0.25066666,3.39999992 3.09466659,1.77599996 7.68933314,0.585333319 C10.3213331,3.16266659 17.8013329,5.02533321 26.6239993,5.02533321 C35.4759991,5.02533321 42.9839989,3.16266659 45.5879989,0.570666652 C50.2666654,1.77599996 53.1519987,3.44266658 53.1519987,5.26266654 C53.1519987,8.98933311 41.2893323,11.9999997 26.666666,11.9999997" transform="translate(243.341 410.648)"/>
    <path fill="#5E3D42" fill-rule="nonzero" d="M38.6666657,2.6666666 C33.8626658,1.40666663 27.1533327,0.635999984 19.7453328,0.635999984 C12.293333,0.635999984 5.57066653,1.41999996 0.766666647,2.68133327 C3.39999992,5.2573332 10.8786664,7.11999982 19.7026662,7.11999982 C28.554666,7.11999982 36.0613324,5.2573332 38.6666657,2.6666666" transform="translate(250.263 408.553)"/>
    <path fill="#F1F2F2" fill-rule="nonzero" d="M39.999999,6.6666665 C39.999999,3.09466659 31.0639992,0.195999995 20.0413328,0.195999995 C9.01866644,0.195999995 0.0826666646,3.09466659 0.0826666646,6.6666665 C0.0826666646,7.38133315 0.446666656,8.06666646 1.10533331,8.71199978 C5.90933319,7.45066648 12.6319997,6.6666665 20.0826667,6.6666665 C27.4919993,6.6666665 34.2013325,7.43733315 39.0053324,8.69733312 C39.6493323,8.05333313 39.999999,7.36666648 39.999999,6.6666665" transform="translate(249.925 402.522)"/>
    <path fill="#F8CFC9" fill-rule="nonzero" d="M35.9999991,41.3333323 C19.2639995,36.5879991 -10.8533331,23.5839994 5.19066654,0.287999993 C5.19066654,0.287999993 14.049333,17.9946662 30.9506659,16.4186663 C41.8093323,15.4066663 55.149332,15.9759996 64.2946651,17.9439996 C63.0946651,23.1119994 61.8599985,27.1973327 61.8599985,27.1973327 C53.5759987,36.0786658 44.7386655,40.2213323 35.9999991,41.3333323" transform="translate(137.249 500.646)"/>
    <path fill="#4F2C31" fill-rule="nonzero" d="M39.999999,38.6666657 C39.999999,38.6666657 48.3893321,69.0426649 61.4066651,71.0666649 C73.5079982,72.9493315 101.855997,70.5826649 116.246664,81.391998 C117.306664,82.1893313 116.666664,83.8919979 115.342664,83.8239979 C113.50933,83.7293312 111.353331,83.6613312 109.613331,83.7226646 C108.451997,83.7653312 107.882664,85.1613312 108.679997,86.0066645 C111.330664,88.8186644 116.119997,94.149331 118.266664,98.1239975 C118.799997,99.1093309 117.946664,100.274664 116.842664,100.087997 C114.346664,99.6666642 110.371997,99.2199975 107.125331,99.8853308 C106.094664,100.097331 105.703997,101.365331 106.417331,102.139997 C108.159997,104.033331 111.135997,107.402664 113.610664,110.893331 C114.283997,111.845331 113.54533,113.149331 112.383997,113.042664 C99.6999975,111.881331 48.3559988,107.227997 39.999999,107.227997 C30.4533326,107.227997 -15.8333329,100.139997 6.73199983,31.1453326 C6.73199983,31.1453326 17.1453329,1.63866663 24.0893327,0.191999995 C24.0893327,0.191999995 32.1893325,22.1773328 31.3213326,29.9879993 C31.3213326,29.9879993 15.9893329,28.8319993 16.5679996,47.3453321 C17.1453329,65.8599984 40.867999,60.0746652 39.999999,38.6666657" transform="translate(98.936 452.148)"/>
    <path fill="#49262B" fill-rule="nonzero" d="M15.9999996,34.6666658 C0.946666643,80.6946646 19.0333329,99.7639975 33.9146658,106.963997 C18.6213329,104.313331 -12.813333,90.7333311 6.57199984,31.4559992 C6.57199984,31.4559992 16.9866662,1.94799995 23.9293327,0.501333321 C23.9293327,0.501333321 26.1239993,6.45999984 28.1053326,13.2746663 C21.4026661,20.6586662 15.9999996,34.6666658 15.9999996,34.6666658" transform="translate(99.096 451.837)"/>
    <path fill="#302020" fill-rule="nonzero" d="M89.3333311,10.6666664 C88.8853311,8.35599979 87.8906645,6.31066651 86.5319978,4.92399988 C85.3133312,3.67733324 83.9826646,3.13199992 82.7786646,3.36933325 C81.559998,3.60799991 80.5373313,4.61599988 79.879998,6.21333318 C79.1506647,8.0199998 78.9826647,10.2879997 79.431998,12.5999997 C80.243998,16.7733329 82.9053313,19.9519995 85.4399979,19.9519995 C85.6226645,19.9519995 85.8039979,19.9386662 85.9999979,19.8959995 C87.2053312,19.6586662 88.2266645,18.6506662 88.8853311,17.0533329 C89.6279978,15.2466663 89.7813311,12.977333 89.3333311,10.6666664 M64.6973317,15.4706663 C63.5906651,9.77066642 58.9973319,5.84933319 54.4719986,6.7306665 C49.9479988,7.61333314 47.1613322,12.9639997 48.2813321,18.6639995 C49.2773321,23.8186661 53.1426653,27.5293326 57.2186652,27.5293326 C57.6386652,27.5293326 58.0719985,27.4879993 58.5066652,27.4039993 C60.6359985,26.9839993 62.4706651,25.5559994 63.6466651,23.3706661 C64.8653317,21.0866661 65.2439984,18.2719995 64.6973317,15.4706663 M91.4759977,18.1039995 C90.4533311,20.6106662 88.7026644,22.2226661 86.5319978,22.6559994 C82.7933313,23.3839994 79.0386647,20.3306662 77.3306647,15.4853329 C74.0946648,17.8519996 70.1173316,17.5719996 67.7079983,17.0813329 C67.862665,19.7986662 67.3159983,22.4319994 66.1119983,24.686666 C64.5293317,27.6279993 62.0226651,29.5746659 59.0386652,30.1493326 C53.7866653,31.1706659 48.5066655,27.5853326 46.3066655,21.8853328 C42.8893323,23.6506661 33.5893325,27.9639993 21.2226661,29.9813326 C14.9066663,31.0173326 7.79066647,31.4653325 0.255999994,30.6533326 C2.28666661,30.4573326 4.38799989,29.6306659 6.29199984,28.230666 C11.0679997,28.342666 15.6199996,27.9773326 19.8359995,27.3199993 C32.9319992,25.2893327 42.7493323,20.5693328 45.5226655,19.1266662 C44.1506656,11.941333 47.9173321,5.14799987 53.941332,3.9719999 C54.5426653,3.8599999 55.145332,3.8039999 55.7479986,3.8039999 C60.9013318,3.8039999 65.7333317,8.0479998 67.246665,14.0986663 C68.9973316,14.5746663 73.6746648,15.4573329 76.5879981,12.389333 C76.2106648,9.79866642 76.4346648,7.26266649 77.2879981,5.16266654 C78.3106647,2.65599993 80.075998,1.04533331 82.2466646,0.610666651 C82.6106646,0.539999987 82.9746646,0.511999987 83.3533312,0.511999987 C85.1599979,0.511999987 86.9666645,1.3533333 88.5346645,2.96399993 C90.2719977,4.74266655 91.5319977,7.29066648 92.0786644,10.1346664 C92.6386644,12.977333 92.429331,15.8066663 91.4759977,18.1039995" transform="translate(125.393 479.897)"/>
    <polygon fill="#4B4B4C" fill-rule="nonzero" points="0 5.333 0 .831 83.179 2.163 135.241 74.396 135.241 78.897 83.179 6.664" transform="translate(251.72 255.992)"/>
    <path fill="#FECB29" fill-rule="nonzero" d="M177.666662,114.666664 C159.319996,114.163997 51.8479987,117.058664 35.4666658,232.002661 C23.6333327,225.755994 -5.07733323,207.433328 0.842666621,179.166662 C8.2613331,143.751996 43.0759989,11.0946664 92.897331,0.891999978 C92.897331,0.891999978 139.30933,92.5399977 177.666662,114.666664" transform="translate(75.302 198.738)"/>
    <path fill="#F8CFC9" fill-rule="nonzero" d="M0,6.6666665 C0,6.6666665 3.8279999,1.56266663 8.31999979,0.195999995 C9,3.27333325 9.3293331,5.2653332 9.3293331,5.2653332 C9.3293331,5.2653332 3.13599992,4.97999988 0,6.6666665" transform="translate(186.885 464.143)"/>
    <polygon fill="#333" fill-rule="nonzero" points="0 0 39.167 0 83.135 59.725 41.292 53.695" transform="translate(286.287 268.792)"/>
    <path fill="#4B4B4C" fill-rule="nonzero" d="M0.3333333,77.6666647 L1.64933327,0.305333301 L53.713332,72.5373315 L53.713332,139.595996 C53.713332,140.46533 52.633332,140.866663 52.065332,140.20933 L2.02533326,82.3319979 C0.906666619,81.0373313 0.303999967,79.3773313 0.3333333,77.6666647" transform="translate(333.25 262.352)"/>
    <path fill="#F8DDDC" fill-rule="nonzero" d="M3.9999999,27.9999993 C3.9999999,27.9999993 11.0146664,28.5719993 19.5519995,34.0053325 C34.4079991,43.4586656 37.6346657,46.1586655 48.1946655,45.9599989 C54.4599986,45.8426655 49.8266654,41.995999 42.9613323,40.1573323 C41.2466656,39.6973323 39.7453323,37.1679991 38.5346657,36.2546658 C38.5346657,36.2546658 51.7319987,39.5946657 58.2493319,38.243999 C62.2826651,37.4079991 55.1919986,31.2653326 42.3613323,29.8039993 C42.3613323,29.8039993 57.9759986,26.150666 59.3879985,26.150666 C60.7999985,26.150666 59.8599985,20.5746662 50.2399987,20.6866661 C41.0266656,20.7946661 40.9933323,21.8613328 40.9933323,21.8613328 C40.9933323,21.8613328 49.8639988,11.1199997 50.7653321,10.3693331 C51.665332,9.61999976 45.8506655,6.34266651 35.7586658,16.3719996 C35.7586658,16.3719996 29.1706659,12.6559997 24.1839994,7.23333315 C19.1973329,1.80933329 5.19066654,-1.1533333 1.85733329,3.04533326 C-1.47599996,7.24399982 3.9999999,27.9999993 3.9999999,27.9999993" transform="translate(267.667 280.624)"/>
    <path fill="#FED52E" fill-rule="nonzero" d="M39.999999,171.999996 C39.999999,171.999996 -8.31999979,155.793329 1.88399995,113.174664 C12.0879997,70.5573316 63.6533317,2.12799995 83.1906646,0.326666659 C102.726664,-1.4733333 192.165329,18.3346662 192.165329,18.3346662 C192.165329,18.3346662 201.769328,39.343999 195.166662,48.9479988 C195.166662,48.9479988 109.030664,44.7466655 98.9759975,48.3479988 C88.9213311,51.949332 54.1066653,110.774664 52.305332,110.774664 C50.5039987,110.774664 46.5026655,134.023997 52.705332,142.207996 C58.9079985,150.390663 39.999999,171.999996 39.999999,171.999996" transform="translate(75.676 261.129)"/>
    <path fill="#EFB824" fill-rule="nonzero" d="M50.6666654,21.3333328 C47.3946655,23.7133327 23.7093327,32.1773325 15.5519996,35.0559991 C13.3586663,35.8306658 11.4959997,37.3919991 10.4946664,39.491999 C9.82933309,40.8893323 9.99066642,41.4546656 9.99066642,41.4546656 L4.74666655,38.7413324 C-12.3599997,29.4373326 28.1573326,0.323999992 28.1573326,0.323999992 C28.1573326,0.323999992 30.8586659,10.2279997 39.5613323,13.529333 C48.2653321,16.8319996 57.2693319,6.32666651 57.2693319,6.32666651 C57.2693319,6.32666651 57.2693319,16.5306663 50.6666654,21.3333328" transform="translate(110.93 394.388)"/>
  </g>
</svg>
