<?xml version="1.0" encoding="UTF-8"?>
<svg width="15px" height="15px" viewBox="0 0 15 15" version="1.1" xmlns="http://www.w3.org/2000/svg" xmlns:xlink="http://www.w3.org/1999/xlink">
    <!-- Generator: Sketch 43.1 (39012) - http://www.bohemiancoding.com/sketch -->
    <title>social</title>
    <desc>Created with Sketch.</desc>
    <defs></defs>
    <g id="Templates" stroke="none" stroke-width="1" fill="none" fill-rule="evenodd">
        <g id="social">
            <g id="Instagram">
                <path d="M7.50114256,14.5 C3.64249596,14.5 0.502,11.3591671 0.502,7.49957162 C0.502,3.6412613 3.64292429,0.5 7.50114256,0.5 C11.3605515,0.5 14.502,3.64116581 14.502,7.49957162 C14.502,11.3592626 11.3609799,14.5 7.50114256,14.5 Z" id="Path" stroke="#F6A623"></path>
                <path d="M11.7673195,6.62482865 L11.7673195,4.88433859 C11.7673195,3.97404044 11.028209,3.23509253 10.1180398,3.23509253 L4.88467406,3.23509253 C3.97579101,3.23509253 3.23668046,3.97404044 3.23668046,4.88433859 L3.23668046,10.1178033 C3.23668046,11.0263879 3.97579101,11.7653358 4.88467406,11.7653358 L10.1180398,11.7653358 C11.028209,11.7653358 11.7673195,11.0263879 11.7673195,10.1178033 L11.7673195,6.62482865 L11.7673195,6.62482865 Z" id="Path" fill="#F6A623"></path>
                <path d="M10.1180398,10.9338588 L4.88467406,10.9338588 C4.43280485,10.9338588 4.06753676,10.5688828 4.06753676,10.1178033 L4.06753676,6.62482865 L5.34040174,6.62482865 C5.23107854,6.89470528 5.16934309,7.19114119 5.16934309,7.49957162 C5.16934309,8.78555517 6.21498731,9.83293352 7.50114256,9.83293352 C8.78901269,9.83293352 9.83465691,8.78555517 9.83465691,7.49957162 C9.83465691,7.19114119 9.7716353,6.89470528 9.66231211,6.62482865 L10.9351771,6.62482865 L10.9351771,10.1178033 C10.9351771,10.5688828 10.5694803,10.9338588 10.1180398,10.9338588 L10.1180398,10.9338588 Z" id="Path" fill="#212121"></path>
                <polygon id="Path" fill="#212121" points="9.33348508 4.22206991 10.5917736 4.21735778 10.7804097 4.21735778 10.7804097 5.66312543 9.33905842 5.66740918"></polygon>
                <path d="M7.50114256,9.0010281 C6.67371602,9.0010281 5.99977066,8.32847841 5.99977066,7.49957162 C6.00105682,7.17314942 6.10566411,6.871573 6.28443969,6.62482865 C6.55710461,6.24571624 7.00125689,5.99940027 7.50114256,5.99940027 C8.00274311,5.99940027 8.44689539,6.24700137 8.71956031,6.62482865 C8.89662101,6.871573 9.00294318,7.17314942 9.00294318,7.49957162 C9.00294318,8.32847841 8.32856911,9.0010281 7.50114256,9.0010281 L7.50114256,9.0010281 Z" id="Path" fill="#212121"></path>
            </g>
        </g>
    </g>
</svg>