<?xml version="1.0" encoding="UTF-8" standalone="no"?>
<svg width="75px" height="75px" viewBox="0 0 75 75" version="1.1" xmlns="http://www.w3.org/2000/svg" xmlns:xlink="http://www.w3.org/1999/xlink">
    <!-- Generator: Sketch 41.2 (35397) - http://www.bohemiancoding.com/sketch -->
    <title>Icon</title>
    <desc>Created with Sketch.</desc>
    <defs>
        <circle id="path-1" cx="37.5" cy="37.5" r="37.5"></circle>
        <mask id="mask-2" maskContentUnits="userSpaceOnUse" maskUnits="objectBoundingBox" x="0" y="0" width="75" height="75" fill="white">
            <use xlink:href="#path-1"></use>
        </mask>
    </defs>
    <g id="Templates" stroke="none" stroke-width="1" fill="none" fill-rule="evenodd">
        <g id="icon-001">
            <g id="Icon">
                <use id="Oval" stroke="#F6A623" mask="url(#mask-2)" stroke-width="4" xlink:href="#path-1"></use>
                <g id="Mouse-2" transform="translate(22.000000, 14.000000)" fill="#F6A623">
                    <path d="M16,47 C7.178,47 0,39.822 0,31 L0,16 C0,7.178 7.178,0 16,0 C24.822,0 32,7.178 32,16 L32,31 C32,39.822 24.822,47 16,47 L16,47 Z M30,16 C30,8.28 23.72,2 16,2 C8.28,2 2,8.28 2,16 L2,31 C2,38.72 8.28,45 16,45 C23.72,45 30,38.72 30,31 L30,16 L30,16 Z M16,15.668 C15.448,15.668 15,15.22 15,14.668 L15,8.501 C15,7.949 15.448,7.501 16,7.501 C16.552,7.501 17,7.949 17,8.501 L17,14.668 C17,15.22 16.552,15.668 16,15.668 L16,15.668 Z" id="Shape"></path>
                </g>
            </g>
        </g>
    </g>
</svg>