<svg xmlns="http://www.w3.org/2000/svg" width="24" height="24" viewBox="0 0 24 24">
  <g fill="none">
    <g transform="translate(5.388 .49)">
      <path fill="#212121" d="M13.6212245,10.4620408 L6.56816327,17.3877551 L4.44244898,17.3877551 L0.524081633,13.68 C-0.0626054998,13.0928707 -0.0626054998,12.141415 0.524081633,11.5542857 L2.78204082,9.30612245 L7.63102041,4.46204082 L13.6212245,10.4620408 Z"/>
      <path fill="#B1BFC9" d="M7.63102041,4.47183673 L11.1722449,0.925714286 C11.7604839,0.341713828 12.7097202,0.341713828 13.2979592,0.925714286 L17.2163265,4.84408163 C17.8030137,5.4312109 17.8030137,6.38266665 17.2163265,6.96979592 L13.6457143,10.4816327"/>
      <polygon fill="#FED52E" points="13.651 10.491 8.87 15.247 2.89 9.433 7.631 4.472"/>
    </g>
    <g fill="#FFF">
      <path d="M11.9559184,18.3673469 L9.83020408,18.3673469 C9.70409655,18.3668447 9.58304204,18.3177212 9.4922449,18.2302041 L5.59836735,14.5273469 C4.81739232,13.7452553 4.81739232,12.4784182 5.59836735,11.6963265 L16.2122449,1.07265306 C16.5861753,0.698182792 17.0936578,0.487762139 17.6228571,0.487762139 C18.1520564,0.487762139 18.659539,0.698182792 19.0334694,1.07265306 L22.9518367,4.99102041 C23.326307,5.36495078 23.5367277,5.87243335 23.5367277,6.40163265 C23.5367277,6.93083196 23.326307,7.43831453 22.9518367,7.8122449 L12.2987755,18.2253061 C12.2075458,18.3157931 12.0844114,18.3668059 11.9559184,18.3673469 L11.9559184,18.3673469 Z M10.0261224,17.3877551 L11.755102,17.3877551 L22.2367347,7.10204082 C22.6276011,6.70542227 22.6276011,6.06845528 22.2367347,5.67183673 L18.3183673,1.75346939 C17.9217488,1.36260293 17.2847818,1.36260293 16.8881633,1.75346939 L6.28408163,12.3918367 C6.0935562,12.5820268 5.98649189,12.8401812 5.98649189,13.1093878 C5.98649189,13.3785943 6.0935562,13.6367488 6.28408163,13.8269388 L10.0261224,17.3877551 Z"/>
      <polygon points="15.542 3.71 16.521 3.71 16.521 12.222 15.542 12.222" transform="rotate(-45 16.032 7.966)"/>
      <polygon points="10.398 8.273 11.378 8.273 11.378 16.786 10.398 16.786" transform="rotate(-45 10.888 12.53)"/>
      <path d="M6.74938776 18.3673469L.489795918 18.3673469C.219289102 18.3673469 0 18.1480578 0 17.877551 0 17.6070442.219289102 17.3877551.489795918 17.3877551L6.74938776 17.3877551C7.01989457 17.3877551 7.23918367 17.6070442 7.23918367 17.877551 7.23918367 18.1480578 7.01989457 18.3673469 6.74938776 18.3673469zM6.74938776 24L.489795918 24C.219289102 24 0 23.7807109 0 23.5102041 0 23.2396973.219289102 23.0204082.489795918 23.0204082L6.74938776 23.0204082C7.01989457 23.0204082 7.23918367 23.2396973 7.23918367 23.5102041 7.23918367 23.7807109 7.01989457 24 6.74938776 24zM11.755102 21.1836735L2.99265306 21.1836735C2.72214624 21.1836735 2.50285714 20.9643844 2.50285714 20.6938776 2.50285714 20.4233707 2.72214624 20.2040816 2.99265306 20.2040816L11.755102 20.2040816C12.0256089 20.2040816 12.244898 20.4233707 12.244898 20.6938776 12.244898 20.9643844 12.0256089 21.1836735 11.755102 21.1836735z"/>
    </g>
  </g>
</svg>
