<svg xmlns="http://www.w3.org/2000/svg" width="23" height="23" viewBox="0 0 23 23">
  <g fill="none" fill-rule="evenodd" transform="translate(0 -1)">
    <g transform="translate(0 1)">
      <polygon fill="#FFFAE4" fill-rule="nonzero" points="22.5 .5 5.5 17.5 22.5 17.5"/>
      <polyline stroke="#FED52E" stroke-linecap="round" stroke-linejoin="round" points=".5 16.5 .5 15.5 1.5 15.5"/>
      <polyline stroke="#FED52E" stroke-linecap="round" stroke-linejoin="round" points=".5 21.5 .5 22.5 1.5 22.5"/>
      <polyline stroke="#FED52E" stroke-linecap="round" stroke-linejoin="round" points="7.5 21.5 7.5 22.5 6.5 22.5"/>
      <path stroke="#FED52E" stroke-linecap="round" stroke-linejoin="round" d="M.5 19.5L.5 18.5M7.5 19.5L7.5 17.5M3.5 15.5L5.5 15.5M3.5 22.5L4.5 22.5M10.5 12.5L16.5 6.5"/>
      <polyline stroke="#FED52E" stroke-linecap="round" stroke-linejoin="round" points="11.5 6.5 16.5 6.5 16.5 11.5"/>
      <rect width="17" height="17" x="5.5" y=".5" stroke="#FED52E" stroke-linecap="round" stroke-linejoin="round"/>
    </g>
    <rect width="24" height="24"/>
  </g>
</svg>
