<?xml version="1.0" encoding="UTF-8"?>
<svg width="145px" height="145px" viewBox="0 0 145 145" version="1.1" xmlns="http://www.w3.org/2000/svg" xmlns:xlink="http://www.w3.org/1999/xlink">
    <!-- Generator: Sketch 48.2 (47327) - http://www.bohemiancoding.com/sketch -->
    <title>default slice size</title>
    <desc>Created with Sketch.</desc>
    <defs></defs>
    <g id="Artboard" stroke="none" stroke-width="1" fill="none" fill-rule="evenodd">
        <g id="logo-template" transform="translate(-2.000000, 0.000000)" fill="#326DE5" fill-rule="nonzero">
            <g id="kubernetes-logoname-blue" transform="translate(2.000000, 58.000000)">
                <path d="M4.01574493,11.8585755 C4.41102439,11.4273646 4.81529361,10.9781761 5.22855379,10.5110101 C5.65976713,10.0438641 6.07302012,9.58569385 6.46831395,9.1364934 C6.86359102,8.66934938 7.23192516,8.22914468 7.57331758,7.81587931 C7.93265857,7.4026399 8.23810633,7.04328912 8.48966205,6.73782699 L13.2600436,6.73782699 C12.3077498,7.83385883 11.3734386,8.88495984 10.4571075,9.89113003 C9.55871922,10.8793546 8.57050539,11.9035023 7.49246366,12.9635791 C8.03147983,13.4487107 8.58847293,14.0326537 9.16344475,14.7154142 C9.73839441,15.3802191 10.2953875,16.0719673 10.8344258,16.7906649 C11.3734386,17.5093704 11.8675455,18.22807 12.3167478,18.9467695 C12.7659215,19.665473 13.1432396,20.3212862 13.4487027,20.914215 L8.84002905,20.914215 C8.55253805,20.447059 8.22013879,19.9349841 7.84283066,19.3779904 C7.4834705,18.8030312 7.09716882,18.2370537 6.68392442,17.680058 C6.27066284,17.1051008 5.83045854,16.5570909 5.36331033,16.0360282 C4.91411507,15.5149756 4.46492701,15.0747709 4.01574493,14.7154142 L4.01574493,20.914215 L3.99278599e-08,20.914215 L3.99278599e-08,0.646831391 L4.01574493,0 L4.01574493,11.8585755" id="path2985"></path>
                <path d="M27.4191665,20.4290914 C26.7363861,20.6267344 25.8559767,20.8064098 24.7779384,20.9681176 C23.6998761,21.147793 22.5679211,21.2376307 21.3820736,21.2376307 C20.1782405,21.2376307 19.1720603,21.0759228 18.3635271,20.7525071 C17.5729514,20.4290914 16.9440875,19.979903 16.4769347,19.4049417 C16.0097763,18.812015 15.677377,18.111281 15.4797363,17.3027397 C15.2820916,16.4942045 15.1832703,15.6048133 15.1832719,14.6345602 L15.1832719,6.73782699 L19.1990176,6.73782699 L19.1990176,14.1494367 C19.1990116,15.4431055 19.3697032,16.3774155 19.7110925,16.9523727 C20.0524677,17.5273379 20.6903153,17.8148166 21.6246353,17.8148146 C21.912106,17.8148166 22.2175541,17.8058308 22.5409798,17.7878633 C22.8643855,17.7519302 23.1518661,17.7159951 23.4034217,17.680058 L23.4034217,6.73782699 L27.4191665,6.73782699 L27.4191665,20.4290914" id="path2987"></path>
                <path d="M40.2976794,13.7182158 C40.2976694,11.1309002 39.3453898,9.83723739 37.4408407,9.83722741 C37.0275793,9.83723739 36.614328,9.89114001 36.2010806,9.99893526 C35.8057887,10.1067505 35.482373,10.241507 35.2308335,10.4032049 L35.2308335,17.7070093 C35.4284704,17.7429464 35.6800159,17.7788815 35.9854701,17.8148146 C36.2909123,17.8327821 36.6233117,17.8417679 36.9826685,17.8417659 C38.0786804,17.8417679 38.9051851,17.4644516 39.4621888,16.7098109 C40.0191725,15.9551783 40.2976694,14.9579819 40.2976794,13.7182158 M44.3942782,13.826021 C44.3942642,14.9579819 44.2235726,15.9821296 43.8822033,16.8984701 C43.5587737,17.8148166 43.0826339,18.5964045 42.453784,19.2432339 C41.8249082,19.8900653 41.052304,20.3931564 40.1359715,20.7525071 C39.2196171,21.0938904 38.1775018,21.264582 37.0096198,21.264582 C36.5244903,21.264582 36.0124154,21.2376307 35.4733952,21.1837281 C34.9523306,21.147793 34.431274,21.0938904 33.9102194,21.0220202 C33.4071243,20.9501501 32.9220008,20.8692961 32.4548487,20.7794584 C31.9876907,20.6716532 31.5744374,20.563848 31.2150886,20.4560427 L31.2150886,0.646831391 L35.2308335,-5.68434189e-14 L35.2308335,7.06124269 C35.6800159,6.86361374 36.1471719,6.71088966 36.6323015,6.60307045 C37.117417,6.4952792 37.6384757,6.44137658 38.1954773,6.4413626 C39.2016495,6.44137658 40.0910427,6.62105197 40.8636568,6.98038876 C41.636249,7.32178597 42.2830804,7.81589129 42.804151,8.4627107 C43.3251957,9.10955407 43.7204815,9.89114001 43.9900086,10.8074745 C44.2595077,11.7058594 44.3942642,12.7120416 44.3942782,13.826021" id="path2989"></path>
                <path d="M46.8068415,13.9338262 C46.8068415,12.6761065 46.9955006,11.5800886 47.3728189,10.6457666 C47.7681028,9.69349908 48.2801777,8.90292738 48.9090435,8.27405155 C49.5379034,7.64520167 50.2566049,7.16906189 51.0651481,6.84563222 C51.8916489,6.5222305 52.7361232,6.36052266 53.5985711,6.36050868 C55.6109254,6.36052266 57.2010506,6.98040274 58.3689526,8.22014893 C59.5368286,9.44195354 60.1207736,11.2476892 60.1207876,13.6373618 C60.1207736,13.8709458 60.1117839,14.1314751 60.0938363,14.4189498 C60.0758488,14.6884688 60.0578873,14.9310306 60.0399337,15.1466351 L50.9303916,15.1466351 C51.0202233,15.9731458 51.4065254,16.628961 52.0892978,17.1140806 C52.7720583,17.5992081 53.6884008,17.8417679 54.8383313,17.8417659 C55.5749904,17.8417679 56.2936919,17.7788815 56.9944359,17.6531067 C57.7131255,17.5093704 58.2970705,17.3386788 58.7462709,17.1410319 L59.2852971,20.4021401 C59.0696726,20.5099454 58.782194,20.6177506 58.4228552,20.7255558 C58.0634925,20.8333611 57.6592228,20.9231988 57.2100464,20.9950689 C56.7788154,21.0849066 56.3116594,21.1567768 55.8085783,21.2106794 C55.3054773,21.264582 54.8023882,21.2915333 54.2993051,21.2915333 C53.0236019,21.2915333 51.9096165,21.1028741 50.9573429,20.7255558 C50.0230269,20.3482375 49.241439,19.8361627 48.6125791,19.1893313 C48.0016808,18.5245343 47.5435086,17.7429464 47.2380624,16.8445675 C46.9505818,15.9461945 46.8068415,14.9759495 46.8068415,13.9338262 M56.2397993,12.3976017 C56.2218317,12.0562264 56.1589354,11.723827 56.0511401,11.4004033 C55.9612924,11.0769976 55.8085684,10.7895169 55.5929679,10.5379614 C55.395315,10.2864259 55.1347857,10.0797992 54.8113799,9.91808133 C54.5059238,9.75638347 54.1196217,9.67553154 53.6524737,9.67551956 C53.2032773,9.67553154 52.8169772,9.75638347 52.4935675,9.91808133 C52.1701458,10.0618316 51.9006327,10.2594745 51.6850282,10.5110101 C51.4694118,10.7625656 51.2987202,11.05903 51.1729534,11.4004033 C51.0651421,11.723827 50.9842902,12.0562264 50.9303916,12.3976017 L56.2397993,12.3976017" id="path2991"></path>
                <path d="M71.7633314,10.2953996 C71.4039707,10.2055719 70.9817335,10.1157342 70.4966199,10.0258866 C70.0114884,9.91809132 69.4904298,9.8641887 68.9334441,9.86417872 C68.6818926,9.8641887 68.3764444,9.89114001 68.0170996,9.94503264 C67.6757104,9.9809777 67.4151811,10.0258965 67.2355117,10.0797892 L67.2355117,20.914215 L63.2197668,20.914215 L63.2197668,7.49246362 C63.9384663,7.24093205 64.7829407,7.00735405 65.7531897,6.79172961 C66.7414004,6.55816558 67.8374182,6.44137658 69.0412493,6.4413626 C69.2568518,6.44137658 69.5173811,6.45935011 69.8228372,6.49526522 C70.1282774,6.51325272 70.4337256,6.54918181 70.7391817,6.60307045 C71.0446199,6.6390195 71.3500681,6.69292212 71.6555262,6.7647783 C71.9609644,6.81869489 72.2214937,6.89056505 72.4371141,6.98038876 L71.7633314,10.2953996" id="path2993"></path>
                <path d="M74.5898508,7.22295054 C75.2726133,7.02532159 76.1530227,6.8456462 77.231079,6.68392438 C78.3091254,6.50426296 79.4410783,6.41442527 80.6269438,6.4144113 C81.8307589,6.41442527 82.8279573,6.57613312 83.618539,6.89953484 C84.4270663,7.20499697 85.0649139,7.64520167 85.5320819,8.22014893 C85.9992239,8.79512215 86.3316234,9.47788861 86.5292803,10.2684483 C86.7269092,11.05903 86.8257307,11.9394374 86.8257447,12.9096765 L86.8257447,20.914215 L82.8099998,20.914215 L82.8099998,13.3948001 C82.8099898,12.1011453 82.6392982,11.1848028 82.2979249,10.6457666 C81.9565317,10.1067505 81.3186841,9.83723739 80.3843821,9.83722741 C80.0968935,9.83723739 79.7914453,9.85521491 79.4680376,9.89113003 C79.1446159,9.90909756 78.8571353,9.93605885 78.6055957,9.97198395 L78.6055957,20.914215 L74.5898508,20.914215 L74.5898508,7.22295054" id="path2995"></path>
                <path d="M89.8131275,13.9338262 C89.8131275,12.6761065 90.0017866,11.5800886 90.3791049,10.6457666 C90.7743888,9.69349908 91.2864636,8.90292738 91.9153295,8.27405155 C92.5441893,7.64520167 93.2628909,7.16906189 94.0714341,6.84563222 C94.8979349,6.5222305 95.7424092,6.36052266 96.6048571,6.36050868 C98.6172114,6.36052266 100.207339,6.98040274 101.375239,8.22014893 C102.543115,9.44195354 103.12706,11.2476892 103.127074,13.6373618 C103.12706,13.8709458 103.11807,14.1314751 103.100122,14.4189498 C103.082135,14.6884688 103.064173,14.9310306 103.04622,15.1466351 L93.9366776,15.1466351 C94.0265113,15.9731458 94.4128114,16.628961 95.0955838,17.1140806 C95.7783443,17.5992081 96.6946868,17.8417679 97.8446172,17.8417659 C98.5812763,17.8417679 99.2999779,17.7788815 100.000722,17.6531067 C100.719411,17.5093704 101.303356,17.3386788 101.752557,17.1410319 L102.291583,20.4021401 C102.075961,20.5099454 101.78848,20.6177506 101.429141,20.7255558 C101.069778,20.8333611 100.665509,20.9231988 100.216332,20.9950689 C99.7851014,21.0849066 99.3179454,21.1567768 98.8148643,21.2106794 C98.3117653,21.264582 97.8086742,21.2915333 97.3055911,21.2915333 C96.0298898,21.2915333 94.9159024,21.1028741 93.9636289,20.7255558 C93.0293129,20.3482375 92.2477269,19.8361627 91.6188651,19.1893313 C91.0079668,18.5245343 90.5497945,17.7429464 90.2443484,16.8445675 C89.9568678,15.9461945 89.8131275,14.9759495 89.8131275,13.9338262 M99.2460852,12.3976017 C99.2280977,12.0562264 99.1652213,11.723827 99.0574261,11.4004033 C98.9675784,11.0769976 98.8148543,10.7895169 98.5992539,10.5379614 C98.4016009,10.2864259 98.1410736,10.0797992 97.8176659,9.91808133 C97.5122098,9.75638347 97.1259077,9.67553154 96.6587597,9.67551956 C96.2095652,9.67553154 95.8232631,9.75638347 95.4998534,9.91808133 C95.1764318,10.0618316 94.9069187,10.2594745 94.6913142,10.5110101 C94.4756977,10.7625656 94.3050081,11.05903 94.1792393,11.4004033 C94.0714301,11.723827 93.9905762,12.0562264 93.9366776,12.3976017 L99.2460852,12.3976017" id="path2997"></path>
                <path d="M106.091296,3.20720565 L110.107041,2.56037426 L110.107041,6.73782699 L114.931325,6.73782699 L114.931325,10.0797892 L110.107041,10.0797892 L110.107041,15.0657812 C110.107037,15.9102595 110.250775,16.5840422 110.538262,17.0871293 C110.843704,17.5902243 111.445617,17.8417679 112.344,17.8417659 C112.775213,17.8417679 113.215417,17.8058328 113.664614,17.7339606 C114.131762,17.6441269 114.553997,17.5273379 114.931325,17.3835936 L115.497303,20.5099454 C115.012169,20.7075883 114.473143,20.8782799 113.880224,21.0220202 C113.287287,21.1657605 112.559602,21.2376307 111.697168,21.2376307 C110.601142,21.2376307 109.693784,21.0938904 108.975086,20.8064098 C108.256381,20.5009616 107.681421,20.0877082 107.250202,19.5666496 C106.81898,19.0276254 106.513531,18.380794 106.333858,17.6261554 C106.17215,16.8715228 106.091296,16.0360322 106.091296,15.1196838 L106.091296,3.20720565" id="path2999"></path>
                <path d="M116.974993,13.9338262 C116.974993,12.6761065 117.16365,11.5800886 117.54097,10.6457666 C117.936254,9.69349908 118.448329,8.90292738 119.077195,8.27405155 C119.706055,7.64520167 120.424756,7.16906189 121.2333,6.84563222 C122.0598,6.5222305 122.904275,6.36052266 123.766723,6.36050868 C125.779077,6.36052266 127.369202,6.98040274 128.537104,8.22014893 C129.70498,9.44195354 130.288925,11.2476892 130.288939,13.6373618 C130.288925,13.8709458 130.279935,14.1314751 130.261988,14.4189498 C130.244,14.6884688 130.226039,14.9310306 130.208085,15.1466351 L121.098543,15.1466351 C121.188375,15.9731458 121.574677,16.628961 122.257449,17.1140806 C122.94021,17.5992081 123.856552,17.8417679 125.006483,17.8417659 C125.743142,17.8417679 126.461843,17.7788815 127.162587,17.6531067 C127.881277,17.5093704 128.465222,17.3386788 128.914422,17.1410319 L129.453449,20.4021401 C129.237824,20.5099454 128.950346,20.6177506 128.591007,20.7255558 C128.231644,20.8333611 127.827374,20.9231988 127.378198,20.9950689 C126.946967,21.0849066 126.479811,21.1567768 125.97673,21.2106794 C125.473629,21.264582 124.97054,21.2915333 124.467457,21.2915333 C123.191753,21.2915333 122.077768,21.1028741 121.125494,20.7255558 C120.191178,20.3482375 119.409591,19.8361627 118.780731,19.1893313 C118.169832,18.5245343 117.71166,17.7429464 117.406214,16.8445675 C117.118731,15.9461945 116.974993,14.9759495 116.974993,13.9338262 M126.407951,12.3976017 C126.389983,12.0562264 126.327087,11.723827 126.219292,11.4004033 C126.129444,11.0769976 125.97672,10.7895169 125.761119,10.5379614 C125.563467,10.2864259 125.302937,10.0797992 124.979531,9.91808133 C124.674075,9.75638347 124.287773,9.67553154 123.820625,9.67551956 C123.371429,9.67553154 122.985129,9.75638347 122.661719,9.91808133 C122.338297,10.0618316 122.068784,10.2594745 121.85318,10.5110101 C121.637563,10.7625656 121.466872,11.05903 121.341105,11.4004033 C121.233294,11.723827 121.15244,12.0562264 121.098543,12.3976017 L126.407951,12.3976017" id="path3001"></path>
                <path d="M137.457566,18.030425 C138.194229,18.030427 138.715288,17.9585569 139.020742,17.8148146 C139.326182,17.6710783 139.478906,17.3925814 139.478914,16.979324 C139.478906,16.6559123 139.281263,16.3774155 138.885985,16.1438335 C138.490693,15.8922919 137.888781,15.6137971 137.080248,15.3083429 C136.45138,15.0747709 135.876418,14.8322091 135.355364,14.5806576 C134.852271,14.3291181 134.42105,14.0326537 134.061701,13.6912644 C133.702348,13.3319217 133.423851,12.9096845 133.22621,12.424553 C133.028566,11.9394374 132.929744,11.3554944 132.929746,10.672718 C132.929744,9.34313207 133.423851,8.29203106 134.412068,7.51941492 C135.400279,6.74682474 136.756828,6.36052266 138.481716,6.36050868 C139.344149,6.36052266 140.170656,6.44137658 140.961236,6.60307045 C141.751798,6.74682474 142.380661,6.90853258 142.847827,7.088194 L142.147093,10.2145457 C141.679927,10.0528479 141.167853,9.90910755 140.610869,9.78332479 C140.071835,9.657564 139.460938,9.59467762 138.77818,9.59466564 C137.520446,9.59467762 136.891584,9.94504262 136.891588,10.6457666 C136.891584,10.8074845 136.918534,10.9512248 136.972442,11.0769876 C137.026339,11.2027703 137.134144,11.3285431 137.295858,11.4543059 C137.45756,11.5621211 137.67317,11.6878939 137.942689,11.8316242 C138.230164,11.957405 138.589515,12.1011453 139.020742,12.2628451 C139.901143,12.5862688 140.628828,12.9096845 141.203798,13.2330922 C141.778749,13.5385484 142.227937,13.8799296 142.551363,14.2572419 C142.892736,14.6165987 143.126312,15.0208683 143.252097,15.4700508 C143.395825,15.9192432 143.467696,16.4403019 143.467708,17.0332266 C143.467696,18.4346966 142.937653,19.4947814 141.87758,20.213481 C140.835455,20.9321825 139.353133,21.2915333 137.430615,21.2915333 C136.172883,21.2915333 135.121782,21.1837281 134.277311,20.9681176 C133.450803,20.7525071 132.875843,20.5728318 132.552428,20.4290914 L133.22621,17.1679832 C133.908975,17.4375002 134.609709,17.6531107 135.328413,17.8148146 C136.04711,17.9585569 136.756828,18.030427 137.457566,18.030425" id="path3003"></path>
            </g>
        </g>
    </g>
</svg>