<?xml version="1.0" encoding="UTF-8"?>
<svg width="200px" height="30px" viewBox="0 0 200 30" version="1.1" xmlns="http://www.w3.org/2000/svg" xmlns:xlink="http://www.w3.org/1999/xlink">
    <!-- Generator: Sketch 48.1 (47250) - http://www.bohemiancoding.com/sketch -->
    <title>k8_portfolio</title>
    <desc>Created with Sketch.</desc>
    <defs></defs>
    <g id="Page-1" stroke="none" stroke-width="1" fill="none" fill-rule="evenodd">
        <g id="k8_portfolio" fill="#326DE5" fill-rule="nonzero">
            <path d="M5.57742352,16.4702438 C6.12642276,15.8713396 6.68790779,15.2474668 7.26188025,14.5986251 C7.86078767,13.9498113 8.43475016,13.3134636 8.98376938,12.6895742 C9.53276531,12.040763 10.0443405,11.4293676 10.5184966,10.8553879 C11.0175813,10.2814443 11.4418143,9.782346 11.7911973,9.35809304 L18.4167272,9.35809304 C17.094097,10.8803595 15.7964425,12.3402219 14.5237605,13.7376806 C13.2759989,15.1102148 11.9034797,16.5326422 10.4061995,18.004971 C11.1548331,18.6787648 11.9284346,19.4897967 12.7270065,20.4380752 C13.5255478,21.3614154 14.2991493,22.3221768 15.0478137,23.3203679 C15.7964425,24.3185701 16.4827022,25.3167639 17.1065942,26.3149577 C17.7304465,27.313157 18.2544994,28.2240086 18.6787538,29.0475208 L12.2778182,29.0475208 C11.8785251,28.398693 11.4168594,27.6874779 10.8928204,26.9138756 C10.393709,26.1153211 9.85717892,25.3292413 9.28322835,24.5556361 C8.70925395,23.7570844 8.09785909,22.9959595 7.44904212,22.2722615 C6.82515982,21.5485772 6.2012875,20.9371818 5.57742352,20.4380752 L5.57742352,29.0475208 L5.54553629e-08,29.0475208 L5.54553629e-08,0.898376932 L5.57742352,0 L5.57742352,16.4702438" id="path2985"></path>
            <path d="M38.0821758,28.3737381 C37.1338696,28.6482422 35.9110788,28.8977913 34.4138033,29.1223856 C32.9164945,29.3719347 31.3443349,29.4967093 29.6973244,29.4967093 C28.0253341,29.4967093 26.6278616,29.272115 25.5048987,28.8229265 C24.4068768,28.3737381 23.5334549,27.7498652 22.8846315,26.951308 C22.2358005,26.1277985 21.7741348,25.1545568 21.4996338,24.0315829 C21.2251273,22.9086173 21.0878755,21.6733518 21.0878777,20.3257781 L21.0878777,9.35809304 L26.6653023,9.35809304 L26.6653023,19.6519954 C26.6652939,21.4487576 26.9023656,22.7464104 27.3765173,23.5449621 C27.8506496,24.343525 28.7365491,24.7428007 30.0342158,24.7427981 C30.4334805,24.7428007 30.8577141,24.7303206 31.3069164,24.7053657 C31.756091,24.6554585 32.1553696,24.6055487 32.5047524,24.5556361 L32.5047524,9.35809304 L38.0821758,9.35809304 L38.0821758,28.3737381" id="path2987"></path>
            <path d="M55.9689992,19.0530775 C55.9689852,15.4595835 54.6463748,13.6628297 52.0011676,13.6628159 C51.4271936,13.6628297 50.8532332,13.7376944 50.2792785,13.8874101 C49.7302621,14.0371535 49.2810737,14.2243153 48.9317131,14.4488956 L48.9317131,24.5930685 C49.2062088,24.6429811 49.5555777,24.6928909 49.9798195,24.7427981 C50.4040448,24.767753 50.8657107,24.7802332 51.3648173,24.7802304 C52.887056,24.7802332 54.0349794,24.2561827 54.8085956,23.2080708 C55.5821841,22.1599698 55.9689852,20.7749749 55.9689992,19.0530775 M61.6587196,19.2028069 C61.6587002,20.7749749 61.4216286,22.1974023 60.9475046,23.4700973 C60.4982967,24.7428007 59.8369915,25.8283396 58.9635888,26.7267137 C58.0901502,27.6250907 57.0170888,28.3238282 55.7444048,28.8229265 C54.4716904,29.2970699 53.0243081,29.5341417 51.4022497,29.5341417 C50.7284587,29.5341417 50.0172436,29.4967093 49.2686045,29.4218445 C48.5449036,29.3719347 47.8212139,29.2970699 47.0975269,29.1972503 C46.3987838,29.0974307 45.7250011,28.9851336 45.0761788,28.8603589 C44.4273482,28.7106295 43.8533852,28.5609 43.3542897,28.4111705 L43.3542897,0.898376932 L48.9317131,-5.68434189e-14 L48.9317131,9.80728152 C49.5555777,9.53279686 50.2044055,9.32068008 50.8781965,9.17093119 C51.5519681,9.0212211 52.2756606,8.94635636 53.0492741,8.94633695 C54.4467354,8.94635636 55.6820038,9.1959055 56.7550789,9.6949844 C57.8281236,10.1691472 58.7265006,10.8554046 59.4502097,11.7537649 C60.1738829,12.6521584 60.722891,13.7376944 61.0972341,15.0103812 C61.4715384,16.2581381 61.6587002,17.6556133 61.6587196,19.2028069" id="path2989"></path>
            <path d="M65.0095021,19.3525364 C65.0095021,17.6057035 65.2715286,16.0834565 65.7955818,14.785787 C66.3445873,13.4631932 67.0558023,12.365177 67.929227,11.4917383 C68.8026435,10.6183356 69.8008401,9.95703041 70.9238168,9.50782253 C72.0717347,9.05865348 73.2446156,8.83405925 74.4424599,8.83403983 C77.2373965,8.83405925 79.4459036,9.69500381 81.0679897,11.4168735 C82.6900398,13.1138244 83.5010745,15.6217905 83.5010939,18.9407804 C83.5010745,19.2652025 83.4885887,19.6270488 83.4636616,20.0263192 C83.4386789,20.4006512 83.4137322,20.7375425 83.3887968,21.0369932 L70.736655,21.0369932 C70.8614212,22.1849248 71.3979519,23.0957792 72.346247,23.7695564 C73.2945255,24.4433446 74.5672233,24.7802332 76.164349,24.7802304 C77.1874867,24.7802332 78.1856832,24.6928909 79.1589388,24.5182038 C80.1571187,24.3185701 80.9681535,24.0814983 81.5920429,23.8069887 L82.3406904,28.3363057 C82.041212,28.4860353 81.6419361,28.6357647 81.1428544,28.7854942 C80.6437395,28.9352236 80.0822539,29.0599983 79.4583977,29.1598179 C78.8594659,29.2845925 78.2106381,29.3844121 77.5119143,29.4592768 C76.8131629,29.5341417 76.114428,29.5715741 75.4157016,29.5715741 C73.6438915,29.5715741 72.0966896,29.3095474 70.7740874,28.7854942 C69.4764263,28.261441 68.3908875,27.5502259 67.517471,26.651849 C66.6690011,25.7285199 66.0326508,24.6429811 65.60842,23.3952326 C65.2091413,22.1474924 65.0095021,20.7999298 65.0095021,19.3525364 M78.1108324,17.2188912 C78.0858775,16.7447589 77.9985213,16.283093 77.8488057,15.8338935 C77.7240173,15.3847188 77.5119005,14.9854402 77.2124554,14.6360576 C76.9379375,14.2867025 76.5760912,13.9997211 76.1269166,13.775113 C75.702672,13.5505326 75.1661413,13.4382383 74.5173246,13.4382216 C73.8934406,13.4382383 73.3569127,13.5505326 72.9077326,13.775113 C72.4585358,13.9747662 72.0842121,14.2492702 71.7847615,14.5986251 C71.4852942,14.9480079 71.2482224,15.3597639 71.0735463,15.8338935 C70.9238085,16.283093 70.8115142,16.7447589 70.736655,17.2188912 L78.1108324,17.2188912" id="path2991"></path>
            <path d="M99.6712937,14.2991662 C99.1721815,14.1744055 98.585741,14.0496309 97.9119721,13.9248424 C97.2381783,13.7751268 96.5144858,13.7002621 95.7408945,13.7002482 C95.3915175,13.7002621 94.9672839,13.7376944 94.4681939,13.8125453 C93.9940422,13.862469 93.632196,13.9248564 93.3826552,13.9997072 L93.3826552,29.0475208 L87.8052316,29.0475208 L87.8052316,10.4061995 C88.8034255,10.0568501 89.9763064,9.73243618 91.3238747,9.43295779 C92.6963895,9.10856331 94.2186365,8.94635636 95.890624,8.94633695 C96.1900719,8.94635636 96.5519182,8.97131959 96.9761628,9.0212017 C97.4003853,9.04618434 97.8246189,9.09608585 98.2488635,9.17093119 C98.6730832,9.22086042 99.0973167,9.29572516 99.5215641,9.39552542 C99.9457839,9.47040958 100.30763,9.57022922 100.607103,9.6949844 L99.6712937,14.2991662" id="path2993"></path>
            <path d="M103.597015,10.0318757 C104.545296,9.75739109 105.768087,9.50784194 107.265388,9.2832283 C108.762674,9.03369856 110.334831,8.90892399 111.981866,8.90890458 C113.653832,8.90892399 115.03883,9.13351822 116.13686,9.58268727 C117.259814,10.0069402 118.145714,10.6183356 118.794558,11.4168735 C119.443367,12.2154474 119.905032,13.1637342 120.179556,14.2617338 C120.454041,15.3597639 120.591293,16.582552 120.591312,17.9301063 L120.591312,29.0475208 L115.013889,29.0475208 L115.013889,18.603889 C115.013875,16.8071462 114.776803,15.5344484 114.302673,14.785787 C113.828516,14.0371535 112.942617,13.6628297 111.644975,13.6628159 C111.245685,13.6628297 110.821452,13.6877985 110.372274,13.7376806 C109.923078,13.7626355 109.523799,13.8000817 109.174439,13.8499777 L109.174439,29.0475208 L103.597015,29.0475208 L103.597015,10.0318757" id="path2995"></path>
            <path d="M124.740455,19.3525364 C124.740455,17.6057035 125.002481,16.0834565 125.526535,14.785787 C126.075539,13.4631932 126.786755,12.365177 127.660179,11.4917383 C128.533596,10.6183356 129.531793,9.95703041 130.65477,9.50782253 C131.802687,9.05865348 132.975568,8.83405925 134.173412,8.83403983 C136.968349,8.83405925 139.176859,9.69500381 140.798943,11.4168735 C142.420993,13.1138244 143.232027,15.6217905 143.232046,18.9407804 C143.232027,19.2652025 143.219542,19.6270488 143.194615,20.0263192 C143.169632,20.4006512 143.144685,20.7375425 143.119749,21.0369932 L130.467607,21.0369932 C130.592377,22.1849248 131.128904,23.0957792 132.0772,23.7695564 C133.025479,24.4433446 134.298176,24.7802332 135.895302,24.7802304 C136.918439,24.7802332 137.916636,24.6928909 138.889891,24.5182038 C139.888072,24.3185701 140.699107,24.0814983 141.322995,23.8069887 L142.071644,28.3363057 C141.772167,28.4860353 141.372888,28.6357647 140.873807,28.7854942 C140.374692,28.9352236 139.813207,29.0599983 139.18935,29.1598179 C138.590418,29.2845925 137.94159,29.3844121 137.242867,29.4592768 C136.544119,29.5341417 135.845381,29.5715741 135.146655,29.5715741 C133.374847,29.5715741 131.827642,29.3095474 130.50504,28.7854942 C129.207379,28.261441 128.121842,27.5502259 127.248424,26.651849 C126.399954,25.7285199 125.763604,24.6429811 125.339373,23.3952326 C124.940095,22.1474924 124.740455,20.7999298 124.740455,19.3525364 M137.841785,17.2188912 C137.816802,16.7447589 137.729474,16.283093 137.579759,15.8338935 C137.45497,15.3847188 137.242853,14.9854402 136.943408,14.6360576 C136.66889,14.2867025 136.307047,13.9997211 135.857869,13.775113 C135.433624,13.5505326 134.897095,13.4382383 134.248278,13.4382216 C133.624396,13.4382383 133.087865,13.5505326 132.638685,13.775113 C132.189488,13.9747662 131.815165,14.2492702 131.515714,14.5986251 C131.216247,14.9480079 130.979178,15.3597639 130.804499,15.8338935 C130.654764,16.283093 130.542467,16.7447589 130.467607,17.2188912 L137.841785,17.2188912" id="path2997"></path>
            <path d="M147.349023,4.45445229 L152.926446,3.55607536 L152.926446,9.35809304 L159.626841,9.35809304 L159.626841,13.9997072 L152.926446,13.9997072 L152.926446,20.924696 C152.92644,22.0975825 153.126078,23.0333919 153.525364,23.732124 C153.949589,24.4308672 154.785579,24.7802332 156.033333,24.7802304 C156.63224,24.7802332 157.243635,24.7303233 157.867519,24.6305008 C158.516336,24.5057319 159.102773,24.343525 159.626841,24.14388 L160.41292,28.4860353 C159.739124,28.7605393 158.990476,28.997611 158.166978,29.1972503 C157.343455,29.3968896 156.332781,29.4967093 155.134956,29.4967093 C153.612698,29.4967093 152.352478,29.2970699 151.354286,28.8977913 C150.356084,28.4735578 149.55753,27.8995948 148.958615,27.1759022 C148.359693,26.4272576 147.935461,25.5288806 147.685914,24.4807714 C147.46132,23.4326705 147.349023,22.272267 147.349023,20.9995608 L147.349023,4.45445229" id="path2999"></path>
            <path d="M162.465268,19.3525364 C162.465268,17.6057035 162.727292,16.0834565 163.251348,14.785787 C163.800353,13.4631932 164.511568,12.365177 165.384993,11.4917383 C166.25841,10.6183356 167.256606,9.95703041 168.379583,9.50782253 C169.527501,9.05865348 170.700382,8.83405925 171.898225,8.83403983 C174.693162,8.83405925 176.901669,9.69500381 178.523755,11.4168735 C180.145806,13.1138244 180.95684,15.6217905 180.956859,18.9407804 C180.95684,19.2652025 180.944355,19.6270488 180.919428,20.0263192 C180.894445,20.4006512 180.869498,20.7375425 180.844562,21.0369932 L168.192421,21.0369932 C168.317188,22.1849248 168.853718,23.0957792 169.802013,23.7695564 C170.750291,24.4433446 172.022989,24.7802332 173.620115,24.7802304 C174.643252,24.7802332 175.64145,24.6928909 176.614704,24.5182038 C177.612885,24.3185701 178.42392,24.0814983 179.047808,23.8069887 L179.796457,28.3363057 C179.496978,28.4860353 179.097702,28.6357647 178.598621,28.7854942 C178.099505,28.9352236 177.538019,29.0599983 176.914164,29.1598179 C176.315232,29.2845925 175.666404,29.3844121 174.96768,29.4592768 C174.268928,29.5341417 173.570194,29.5715741 172.871468,29.5715741 C171.099657,29.5715741 169.552456,29.3095474 168.229853,28.7854942 C166.932193,28.261441 165.846653,27.5502259 164.973238,26.651849 C164.124767,25.7285199 163.488417,24.6429811 163.064185,23.3952326 C162.664904,22.1474924 162.465268,20.7999298 162.465268,19.3525364 M175.566599,17.2188912 C175.541644,16.7447589 175.454287,16.283093 175.304572,15.8338935 C175.179783,15.3847188 174.967667,14.9854402 174.668222,14.6360576 C174.393703,14.2867025 174.031857,13.9997211 173.582682,13.775113 C173.158438,13.5505326 172.621908,13.4382383 171.973091,13.4382216 C171.349206,13.4382383 170.812679,13.5505326 170.363498,13.775113 C169.914302,13.9747662 169.539978,14.2492702 169.240527,14.5986251 C168.941061,14.9480079 168.703988,15.3597639 168.529313,15.8338935 C168.379575,16.283093 168.267278,16.7447589 168.192421,17.2188912 L175.566599,17.2188912" id="path3001"></path>
            <path d="M190.913286,25.042257 C191.936429,25.0422598 192.660121,24.9424401 193.084364,24.7427981 C193.508585,24.5431642 193.720703,24.156363 193.720714,23.5823944 C193.720703,23.1332115 193.446199,22.7464104 192.897201,22.4219909 C192.348185,22.0726276 191.512195,21.6858292 190.389233,21.2615874 C189.515805,20.9371818 188.717247,20.6002904 187.993561,20.2509133 C187.294821,19.9015528 186.695903,19.4897967 186.196807,19.0156451 C185.697705,18.5165578 185.310904,17.9301173 185.036404,17.2563235 C184.761897,16.582552 184.624645,15.77152 184.624647,14.8232194 C184.624645,12.9765724 185.310904,11.5167098 186.683428,10.4436318 C188.055943,9.37058992 189.940039,8.83405925 192.335716,8.83403983 C193.533541,8.83405925 194.681467,8.94635636 195.779495,9.17093119 C196.877497,9.37058992 197.750919,9.59518415 198.39976,9.84471388 L197.426519,14.1868691 C196.777678,13.9622887 196.066462,13.7626493 195.292874,13.5879512 C194.544215,13.4132834 193.695748,13.3259411 192.747473,13.3259245 C191.000619,13.3259411 190.1272,13.8125592 190.127206,14.785787 C190.1272,15.0103952 190.16463,15.2100344 190.239503,15.384705 C190.31436,15.5594033 190.46409,15.7340876 190.688692,15.9087582 C190.913278,16.0585016 191.212737,16.2331859 191.587069,16.4328114 C191.986339,16.6075069 192.485438,16.8071462 193.084364,17.0317293 C194.307143,17.4809288 195.317817,17.9301173 196.116385,18.3792948 C196.914928,18.8035394 197.538802,19.27768 197.988004,19.8017248 C198.462133,20.3008315 198.786545,20.8623171 198.961246,21.4861816 C199.160869,22.11006 199.260688,22.8337526 199.260705,23.6572593 C199.260688,25.6037453 198.524519,27.0760853 197.052195,28.0742792 C195.604799,29.0724758 193.546018,29.5715741 190.875853,29.5715741 C189.129004,29.5715741 187.669142,29.4218445 186.496265,29.1223856 C185.348337,28.8229265 184.549783,28.5733775 184.100594,28.3737381 L185.036404,23.8444211 C185.984687,24.2187503 186.95793,24.5182093 187.956128,24.7427981 C188.95432,24.9424401 189.940039,25.0422598 190.913286,25.042257" id="path3003"></path>
        </g>
    </g>
</svg>