<?xml version="1.0" encoding="UTF-8"?>
<svg width="249px" height="37px" viewBox="0 0 249 37" version="1.1" xmlns="http://www.w3.org/2000/svg" xmlns:xlink="http://www.w3.org/1999/xlink">
    <!-- Generator: Sketch 48.2 (47327) - http://www.bohemiancoding.com/sketch -->
    <title>k8_portfolio</title>
    <desc>Created with Sketch.</desc>
    <defs></defs>
    <g id="Page-1" stroke="none" stroke-width="1" fill="none" fill-rule="evenodd">
        <g id="k8_portfolio" fill="#326DE5" fill-rule="nonzero">
            <path d="M6.97177939,20.5878047 C7.65802845,19.8391746 8.35988474,19.0593335 9.07735032,18.2482814 C9.8259846,17.437264 10.5434377,16.6418296 11.2297117,15.8619677 C11.9159566,15.0509538 12.5554256,14.2867095 13.1481208,13.5692349 C13.7719767,12.8518054 14.3022679,12.2279325 14.7389966,11.6976163 L23.020909,11.6976163 C21.3676212,13.6004494 19.7455532,15.4252775 18.1547006,17.1721007 C16.5949986,18.8877685 14.8793496,20.6658027 13.0077494,22.5062138 C13.9435414,23.348456 14.9105433,24.362246 15.9087582,25.547594 C16.9069347,26.7017692 17.8739366,27.902721 18.8097671,29.1504598 C19.7455532,30.3982125 20.6033777,31.6459548 21.3832427,32.8936971 C22.1630581,34.1414463 22.8181243,35.2800108 23.3484422,36.309401 L15.3472727,36.309401 C14.8481563,35.4983663 14.2710743,34.6093474 13.6160255,33.6423445 C12.9921363,32.6441514 12.3214736,31.6615516 11.6040354,30.6945452 C10.8865674,29.6963555 10.1223239,28.7449494 9.31130265,27.8403268 C8.53144978,26.9357215 7.75160938,26.1714773 6.97177939,25.547594 L6.97177939,36.309401 L6.9319201e-08,36.309401 L6.9319201e-08,1.12297117 L6.97177939,0 L6.97177939,20.5878047" id="path2985"></path>
            <path d="M47.6027197,35.4671726 C46.417337,35.8103027 44.8888485,36.1222392 43.0172541,36.4029819 C41.1456182,36.7149184 39.1804186,36.8708866 37.1216555,36.8708866 C35.0316675,36.8708866 33.2848269,36.5901438 31.8811234,36.0286582 C30.5085961,35.4671726 29.4168186,34.6873316 28.6057894,33.689135 C27.7947505,32.6597482 27.2176685,31.4431961 26.8745422,30.0394787 C26.531409,28.6357717 26.3598443,27.0916898 26.3598471,25.4072226 L26.3598471,11.6976163 L33.3316278,11.6976163 L33.3316278,24.5649942 C33.3316174,26.810947 33.627957,28.433013 34.2206466,29.4312026 C34.813312,30.4294062 35.9206863,30.928501 37.5427697,30.9284975 C38.0418506,30.928501 38.5721426,30.9129007 39.1336455,30.881707 C39.6951137,30.8193232 40.194212,30.7569359 40.6309404,30.6945452 L40.6309404,11.6976163 L47.6027197,11.6976163 L47.6027197,35.4671726" id="path2987"></path>
            <path d="M69.9612489,23.8163468 C69.9612316,19.3244795 68.3079685,17.0785371 65.0014596,17.0785198 C64.2839919,17.0785371 63.5665416,17.1721181 62.8490982,17.3592626 C62.1628276,17.5464418 61.601342,17.7803941 61.1646414,18.0611196 L61.1646414,30.7413357 C61.5077611,30.8037264 61.9444721,30.8661137 62.4747745,30.9284975 C63.005056,30.9596912 63.5821384,30.9752914 64.2060217,30.975288 C66.1088201,30.9752914 67.5437242,30.3202284 68.5107445,29.0100884 C69.4777301,27.6999623 69.9612316,25.9687186 69.9612489,23.8163468 M77.0733996,24.0035087 C77.0733754,25.9687186 76.7770357,27.7467528 76.1843808,29.3376217 C75.6228709,30.928501 74.7962394,32.2854245 73.7044861,33.4083922 C72.6126878,34.5313633 71.2713611,35.4047854 69.6805061,36.0286582 C68.089613,36.6213375 66.2803851,36.9176771 64.2528121,36.9176771 C63.4105734,36.9176771 62.5215545,36.8708866 61.5857556,36.7773057 C60.6811296,36.7149184 59.7765174,36.6213375 58.8719086,36.4965629 C57.9984797,36.3717883 57.1562513,36.2314169 56.3452235,36.0754487 C55.5341853,35.8882868 54.8167315,35.701125 54.1928621,35.5139631 L54.1928621,1.12297117 L61.1646414,-5.68434189e-14 L61.1646414,12.2591019 C61.9444721,11.9159961 62.7555069,11.6508501 63.5977456,11.463664 C64.4399601,11.2765264 65.3445758,11.1829455 66.3115926,11.1829212 C68.0584193,11.1829455 69.6025047,11.4948819 70.9438487,12.1187305 C72.2851545,12.711434 73.4081257,13.5692557 74.3127622,14.6922061 C75.2173536,15.815198 75.9036137,17.1721181 76.3715426,18.7629766 C76.839423,20.3226726 77.0733754,22.0695166 77.0733996,24.0035087" id="path2989"></path>
            <path d="M81.2618776,24.1906705 C81.2618776,22.0071293 81.5894108,20.1043206 82.2444773,18.4822338 C82.930734,16.8289915 83.8197529,15.4564711 84.9115339,14.3646728 C86.0033044,13.2729196 87.2510502,12.446288 88.6547711,11.8847782 C90.0896683,11.3233168 91.5557695,11.0425741 93.0530748,11.0425498 C96.5467455,11.0425741 99.3073795,12.1187548 101.334987,14.2710919 C103.36255,16.3922804 104.376343,19.5272382 104.376367,23.6759754 C104.376343,24.0815032 104.360736,24.533811 104.329577,25.0328989 C104.298349,25.5008139 104.267165,25.9219281 104.235996,26.2962415 L88.4208187,26.2962415 C88.5767766,27.731156 89.2474399,28.869724 90.4328088,29.7119454 C91.6181568,30.5541807 93.2090292,30.9752914 95.2054362,30.975288 C96.4843583,30.9752914 97.732104,30.8661137 98.9486734,30.6477547 C100.196398,30.3982125 101.210192,30.1018729 101.990054,29.7587359 L102.925863,35.4203822 C102.551515,35.607544 102.05242,35.7947059 101.428568,35.9818678 C100.804674,36.1690296 100.102817,36.3249978 99.3229971,36.4497724 C98.5743324,36.6057406 97.7632976,36.7305152 96.889893,36.8240961 C96.0164536,36.9176771 95.1430351,36.9644675 94.2696269,36.9644675 C92.0548644,36.9644675 90.1208619,36.6369343 88.4676092,35.9818678 C86.8455328,35.3268012 85.4886093,34.4377824 84.3968387,33.3148112 C83.3362514,32.1606499 82.5408135,30.8037264 82.010525,29.2440408 C81.5114267,27.6843655 81.2618776,25.9999122 81.2618776,24.1906705 M97.6385404,21.523614 C97.6073468,20.9309486 97.4981517,20.3538662 97.3110071,19.7923668 C97.1550216,19.2308985 96.8898756,18.7318002 96.5155692,18.2950719 C96.1724218,17.8583782 95.720114,17.4996513 95.1586457,17.2188912 C94.6283399,16.9381657 93.9576766,16.7977978 93.1466557,16.797777 C92.3668008,16.7977978 91.6961409,16.9381657 91.1346657,17.2188912 C90.5731698,17.4684577 90.1052651,17.8115878 89.7309518,18.2482814 C89.3566177,18.6850098 89.060278,19.1997049 88.8419329,19.7923668 C88.6547607,20.3538662 88.5143927,20.9309486 88.4208187,21.523614 L97.6385404,21.523614" id="path2991"></path>
            <path d="M124.589117,17.8739577 C123.965227,17.7180068 123.232176,17.5620386 122.389965,17.4060531 C121.547723,17.2189085 120.643107,17.1253276 119.676118,17.1253103 C119.239397,17.1253276 118.709105,17.1721181 118.085242,17.2656817 C117.492553,17.3280863 117.040245,17.4060704 116.728319,17.499634 L116.728319,36.309401 L109.75654,36.309401 L109.75654,13.0077493 C111.004282,12.5710626 112.470383,12.1655452 114.154843,11.7911972 C115.870487,11.3857041 117.773296,11.1829455 119.86328,11.1829212 C120.23759,11.1829455 120.689898,11.2141495 121.220204,11.2765021 C121.750482,11.3077304 122.280774,11.3701073 122.811079,11.463664 C123.341354,11.5260755 123.871646,11.6196565 124.401955,11.7444068 C124.93223,11.838012 125.384538,11.9627865 125.758879,12.1187305 L124.589117,17.8739577" id="path2993"></path>
            <path d="M129.496269,12.5398447 C130.68162,12.1967389 132.210109,11.8848024 134.081734,11.6040354 C135.953343,11.2921232 137.918539,11.136155 139.977333,11.1361307 C142.06729,11.136155 143.798537,11.4168978 145.171075,11.9783591 C146.574768,12.5086753 147.682142,13.2729196 148.493198,14.2710919 C149.304208,15.2693093 149.881291,16.4546677 150.224445,17.8271673 C150.567551,19.1997049 150.739116,20.72819 150.73914,22.4126328 L150.73914,36.309401 L143.767361,36.309401 L143.767361,23.2548612 C143.767343,21.0089328 143.471004,19.4180604 142.878342,18.4822338 C142.285645,17.5464418 141.178271,17.0785371 139.556219,17.0785198 C139.057107,17.0785371 138.526815,17.1097481 137.965343,17.1721007 C137.403847,17.2032944 136.904749,17.2501022 136.468048,17.3124721 L136.468048,36.309401 L129.496269,36.309401 L129.496269,12.5398447" id="path2995"></path>
            <path d="M155.925569,24.1906705 C155.925569,22.0071293 156.253102,20.1043206 156.908168,18.4822338 C157.594425,16.8289915 158.483444,15.4564711 159.575225,14.3646728 C160.666995,13.2729196 161.914741,12.446288 163.318462,11.8847782 C164.753359,11.3233168 166.21946,11.0425741 167.716766,11.0425498 C171.210436,11.0425741 173.971074,12.1187548 175.998678,14.2710919 C178.026241,16.3922804 179.040034,19.5272382 179.040058,23.6759754 C179.040034,24.0815032 179.024427,24.533811 178.993268,25.0328989 C178.96204,25.5008139 178.930856,25.9219281 178.899687,26.2962415 L163.08451,26.2962415 C163.240471,27.731156 163.911131,28.869724 165.0965,29.7119454 C166.281848,30.5541807 167.87272,30.9752914 169.869127,30.975288 C171.148049,30.9752914 172.395795,30.8661137 173.612364,30.6477547 C174.860089,30.3982125 175.873883,30.1018729 176.653745,29.7587359 L177.589554,35.4203822 C177.215209,35.607544 176.716111,35.7947059 176.092259,35.9818678 C175.468365,36.1690296 174.766508,36.3249978 173.986688,36.4497724 C173.238023,36.6057406 172.426989,36.7305152 171.553584,36.8240961 C170.680148,36.9176771 169.806726,36.9644675 168.933318,36.9644675 C166.718559,36.9644675 164.784553,36.6369343 163.1313,35.9818678 C161.509224,35.3268012 160.152304,34.4377824 159.06053,33.3148112 C157.999942,32.1606499 157.204504,30.8037264 156.674216,29.2440408 C156.175118,27.6843655 155.925569,25.9999122 155.925569,24.1906705 M172.302231,21.523614 C172.271003,20.9309486 172.161843,20.3538662 171.974698,19.7923668 C171.818713,19.2308985 171.553567,18.7318002 171.17926,18.2950719 C170.836113,17.8583782 170.383808,17.4996513 169.822337,17.2188912 C169.292031,16.9381657 168.621368,16.7977978 167.810347,16.797777 C167.030495,16.7977978 166.359832,16.9381657 165.798357,17.2188912 C165.236861,17.4684577 164.768956,17.8115878 164.394643,18.2482814 C164.020309,18.6850098 163.723972,19.1997049 163.505624,19.7923668 C163.318455,20.3538662 163.178084,20.9309486 163.08451,21.523614 L172.302231,21.523614" id="path2997"></path>
            <path d="M184.186278,5.56806536 L191.158057,4.4450942 L191.158057,11.6976163 L199.533551,11.6976163 L199.533551,17.499634 L191.158057,17.499634 L191.158057,26.1558701 C191.158051,27.6219782 191.407596,28.7917399 191.906705,29.665155 C192.436986,30.5385839 193.481974,30.9752914 195.041666,30.975288 C195.7903,30.9752914 196.554544,30.9129042 197.334399,30.7881261 C198.14542,30.6321648 198.878467,30.4294062 199.533551,30.1798501 L200.516151,35.607544 C199.673905,35.9506741 198.738096,36.2470137 197.708723,36.4965629 C196.679319,36.746112 195.415976,36.8708866 193.918695,36.8708866 C192.015872,36.8708866 190.440597,36.6213375 189.192858,36.1222392 C187.945105,35.5919472 186.946912,34.8744934 186.198268,33.9698778 C185.449617,33.0340719 184.919325,31.9111008 184.607392,30.6009643 C184.32665,29.2908382 184.186278,27.8403337 184.186278,26.249451 L184.186278,5.56806536" id="path2999"></path>
            <path d="M203.081585,24.1906705 C203.081585,22.0071293 203.409115,20.1043206 204.064185,18.4822338 C204.750442,16.8289915 205.63946,15.4564711 206.731241,14.3646728 C207.823012,13.2729196 209.070758,12.446288 210.474479,11.8847782 C211.909376,11.3233168 213.375477,11.0425741 214.872782,11.0425498 C218.366453,11.0425741 221.127087,12.1187548 223.154695,14.2710919 C225.182257,16.3922804 226.196051,19.5272382 226.196075,23.6759754 C226.196051,24.0815032 226.180443,24.533811 226.149284,25.0328989 C226.118056,25.5008139 226.086873,25.9219281 226.055704,26.2962415 L210.240526,26.2962415 C210.396484,27.731156 211.067147,28.869724 212.252516,29.7119454 C213.437864,30.5541807 215.028737,30.9752914 217.025144,30.975288 C218.304066,30.9752914 219.551812,30.8661137 220.768381,30.6477547 C222.016106,30.3982125 223.029899,30.1018729 223.809761,29.7587359 L224.745571,35.4203822 C224.371223,35.607544 223.872128,35.7947059 223.248276,35.9818678 C222.624382,36.1690296 221.922525,36.3249978 221.142705,36.4497724 C220.39404,36.6057406 219.583005,36.7305152 218.7096,36.8240961 C217.836161,36.9176771 216.962743,36.9644675 216.089334,36.9644675 C213.874572,36.9644675 211.940569,36.6369343 210.287317,35.9818678 C208.66524,35.3268012 207.308317,34.4377824 206.216546,33.3148112 C205.155959,32.1606499 204.360521,30.8037264 203.830233,29.2440408 C203.331131,27.6843655 203.081585,25.9999122 203.081585,24.1906705 M219.458248,21.523614 C219.427054,20.9309486 219.317859,20.3538662 219.130715,19.7923668 C218.974729,19.2308985 218.709583,18.7318002 218.335277,18.2950719 C217.992129,17.8583782 217.539822,17.4996513 216.978353,17.2188912 C216.448047,16.9381657 215.777384,16.7977978 214.966363,16.797777 C214.186508,16.7977978 213.515848,16.9381657 212.954373,17.2188912 C212.392877,17.4684577 211.924973,17.8115878 211.550659,18.2482814 C211.176325,18.6850098 210.879986,19.1997049 210.66164,19.7923668 C210.474468,20.3538662 210.334097,20.9309486 210.240526,21.523614 L219.458248,21.523614" id="path3001"></path>
            <path d="M238.641607,31.3028212 C239.920536,31.3028247 240.825152,31.1780501 241.355454,30.9284975 C241.885732,30.6789553 242.150878,30.1954538 242.150892,29.4779931 C242.150878,28.9165144 241.807748,28.433013 241.121502,28.0274887 C240.435231,27.5907846 239.390244,27.1072866 237.986541,26.5769842 C236.894756,26.1714773 235.89656,25.7503631 234.991951,25.3136417 C234.118526,24.8769411 233.369878,24.362246 232.746009,23.7695563 C232.122132,23.1456973 231.638631,22.4126467 231.295504,21.5704045 C230.952371,20.72819 230.780806,19.7144 230.780809,18.5290242 C230.780806,16.2207154 231.638631,14.3958873 233.354285,13.0545398 C235.069928,11.7132374 237.425048,11.0425741 240.419645,11.0425498 C241.916926,11.0425741 243.351834,11.1829455 244.724368,11.463664 C246.096871,11.7132374 247.188648,11.9939802 247.9997,12.3058924 L246.783148,17.7335863 C245.972096,17.4528609 245.083077,17.2033117 244.116092,16.9849389 C243.180269,16.7666042 242.119685,16.6574264 240.93434,16.6574056 C238.750775,16.6574264 237.659001,17.265699 237.659008,18.4822338 C237.659001,18.7629939 237.705788,19.012543 237.799379,19.2308812 C237.89295,19.449254 238.080111,19.6676095 238.360865,19.8859477 C238.641597,20.0731269 239.015921,20.2914824 239.483836,20.5410142 C239.982924,20.7593836 240.606796,21.0089328 241.355454,21.2896617 C242.883929,21.8511611 244.147272,22.4126467 245.145482,22.9741184 C246.143661,23.5044242 246.923502,24.0971 247.485005,24.7521561 C248.077667,25.3760394 248.483181,26.0778964 248.701557,26.857727 C248.951086,27.6375751 249.07586,28.5421907 249.075881,29.571574 C249.07586,32.0046817 248.155648,33.8451066 246.315244,35.0928489 C244.505998,36.3405947 241.932523,36.9644675 238.594817,36.9644675 C236.411255,36.9644675 234.586427,36.7773057 233.120332,36.4029819 C231.685421,36.0286582 230.687228,35.7167218 230.125743,35.4671726 L231.295504,29.8055263 C232.480859,30.2734379 233.697411,30.6477617 234.945161,30.9284975 C236.192899,31.1780501 237.425048,31.3028247 238.641607,31.3028212" id="path3003"></path>
        </g>
    </g>
</svg>