<svg xmlns="http://www.w3.org/2000/svg" width="218" height="100" viewBox="0 0 218 100">
  <path d="M218.181818,45.4545455 C218.181818,50.4727273 214.109091,54.5454545 209.090909,54.5454545 L208.190909,54.3636364 C204.045455,75.2 185.690909,90.9090909 163.636364,90.9090909 C144.709091,90.9090909 128.636364,79.3 121.854545,62.8363636 C117.845455,53.1 118.890909,40.5909091 108.863636,40.5909091 C99.2909091,40.5909091 100.709091,52.4363636 96.2090909,63.1454545 C89.3545455,79.4454545 73.3545455,90.9090909 54.5454545,90.9090909 C32.5,90.9090909 14.1363636,75.2 9.99090909,54.3636364 L9.09090909,54.5454545 C4.07272727,54.5454545 -1.42108547e-14,50.4727273 -1.42108547e-14,45.4545455 C-1.42108547e-14,40.4363636 4.07272727,36.3636364 9.09090909,36.3636364 L10.0090909,36.3636364 C14.2181818,15.6181818 32.5636364,1.42108547e-14 54.5454545,1.42108547e-14 C75.9727273,1.42108547e-14 93.8090909,14.8727273 98.6181818,34.8181818 C101.736364,32.6090909 105.372727,31.4909091 108.854545,31.4909091 C112.4,31.4909091 116.209091,32.6818182 119.481818,35.0636364 C124.2,14.9818182 142.127273,2.2285204e-14 163.636364,2.2285204e-14 C185.627273,2.2285204e-14 203.963636,15.6181818 208.172727,36.3636364 L209.090909,36.3636364 C214.109091,36.3636364 218.181818,40.4363636 218.181818,45.4545455 Z M90.9090909,45.4545455 C90.9090909,25.4 74.6,9.09090909 54.5454545,9.09090909 C34.4909091,9.09090909 18.1818182,25.4 18.1818182,45.4545455 C18.1818182,65.5090909 34.4909091,81.8181818 54.5454545,81.8181818 C74.6,81.8181818 90.9090909,65.5090909 90.9090909,45.4545455 Z M200,45.4545455 C200,25.4 183.690909,9.09090909 163.636364,9.09090909 C143.581818,9.09090909 127.272727,25.4 127.272727,45.4545455 C127.272727,65.5090909 143.581818,81.8181818 163.636364,81.8181818 C183.690909,81.8181818 200,65.5090909 200,45.4545455 Z M154.545455,18.7454545 C156.345455,18.4090909 158.190909,18.1818182 160.081818,18.1818182 C177.1,18.1818182 190.909091,31.9818182 190.909091,49.0090909 L190.654545,51.5818182 C183.727273,36.1909091 170.645455,24.2181818 154.545455,18.7454545 Z M27.2727273,49.0090909 C27.2727273,31.9818182 41.0818182,18.1818182 58.1,18.1818182 C59.9909091,18.1818182 61.8363636,18.4090909 63.6363636,18.7454545 C47.5363636,24.2181818 34.4545455,36.1909091 27.5272727,51.5727273 L27.2727273,49.0090909 Z M1.33636364,92.2454545 C0.445454545,93.1272727 -1.24344979e-14,94.2909091 -1.24344979e-14,95.4545455 C-1.24344979e-14,97.9636364 2.03636364,100 4.54545455,100 C5.70909091,100 6.87272727,99.5545455 7.76363636,98.6727273 L19.4727273,86.9636364 C17.1454545,85 15,82.8636364 13.0363636,80.5363636 L1.33636364,92.2454545 Z M198.709091,86.9636364 L210.418182,98.6727273 C211.309091,99.5545455 212.472727,100 213.636364,100 C216.145455,100 218.181818,97.9636364 218.181818,95.4545455 C218.181818,94.2909091 217.736364,93.1272727 216.854545,92.2363636 L205.145455,80.5363636 C203.172727,82.8636364 201.036364,85 198.709091,86.9636364 Z"/>
</svg>
