<?xml version="1.0" encoding="UTF-8"?>
<svg width="200px" height="136px" viewBox="0 0 200 136" version="1.1" xmlns="http://www.w3.org/2000/svg" xmlns:xlink="http://www.w3.org/1999/xlink">
    <!-- Generator: Sketch 48.1 (47250) - http://www.bohemiancoding.com/sketch -->
    <title>king_portfolio</title>
    <desc>Created with Sketch.</desc>
    <defs>
        <linearGradient x1="50.0013157%" y1="68.3636991%" x2="50.0013157%" y2="93.4642993%" id="linearGradient-1">
            <stop stop-color="#FFC400" offset="0%"></stop>
            <stop stop-color="#FFA400" offset="100%"></stop>
        </linearGradient>
        <linearGradient x1="50.0036485%" y1="29.6424584%" x2="50.0036485%" y2="90.1016604%" id="linearGradient-2">
            <stop stop-color="#FFD400" stop-opacity="0" offset="0%"></stop>
            <stop stop-color="#FFD400" offset="100%"></stop>
        </linearGradient>
    </defs>
    <g id="Page-1" stroke="none" stroke-width="1" fill="none" fill-rule="evenodd">
        <g id="king_portfolio" fill-rule="nonzero">
            <path d="M48.5935861,132.11895 C49.0297376,132.51895 50.7521866,131.944898 51.2186589,132.2793 C51.6303206,132.575802 51.212245,134.189504 51.0320699,134.220991 C12.5364432,141.038776 28.8478134,99.6542274 16.5247813,71.6618075 C15.0809838,72.3192334 13.5089655,72.6470818 11.9227405,72.6215744 C5.49854227,72.6209912 0.291545189,67.4227405 0.291545189,59.903207 C0.291545189,59.3463557 0.29387755,59.0303206 0.29387755,59.0303206 C0.349271138,58.635277 0.53877551,58.5679301 0.633236152,58.187755 C1.45201638,54.9185403 3.6450145,52.1633658 6.64723032,50.6320699 C12.712828,47.709621 19.4241982,50.2276968 25.2516035,58.9329446 C35.7918368,74.6772595 34.7011662,119.381924 48.5935861,132.118367 L48.5935861,132.11895 Z M199.816035,56.4862974 C199.83411,56.5883382 199.986006,56.3813411 199.986006,56.9338192 C199.986006,63.3886298 196.52449,69.4440234 188.962682,69.4440234 C187.749403,69.4414507 186.546925,69.2159368 185.41516,68.7787173 C174.109621,99.2897958 194.432653,145.233528 148.211079,133.223032 C98.5731779,120.323032 72.2699709,130.543149 72.2699709,130.543149 C72.2699709,130.543149 71.703207,129.318659 72.2699709,128.792711 C72.8297376,128.273761 74.8574344,127.92274 75.6285714,127.414869 C82.9667638,122.582507 99.6539358,118.479009 120.993878,119.06793 C148.604082,120.059184 164.503499,132.326531 168.704082,105.417784 C168.889115,104.444023 169.055296,103.445287 169.202624,102.421574 C163.613702,111.130029 152.353061,114.217493 147.617784,105.844898 C146.466181,103.811079 145.573469,101.188338 144.953936,98.2113702 C142.067639,104.362099 137.131778,111.309329 129.659475,110.89242 C124.917784,110.629155 123.365889,107.317493 123.539067,100.210204 C123.659767,95.2510205 123.901166,85.8195336 124.087172,81.0454811 C124.61137,67.6507288 116.711662,71.399417 115.500583,80.7574344 C115.016035,84.5067056 114.640525,104.68688 115.496501,111.093878 C102.952187,113.078134 100.373178,109.27551 100.231195,101.420408 C93.1489795,120.324198 81.3011662,119.701749 77.9169096,107.117201 C75.8953352,115.548688 70.4679301,123.811662 65.112828,123.811662 C56.4667638,123.811662 47.9338192,110.261808 33.8495627,74.2717202 C33.6941458,73.4702442 33.6941458,72.6463739 33.8495627,71.8448979 C33.8787173,71.6962099 34.6212827,73.4268221 34.7699709,73.3938776 C70.3064139,65.5163266 104.775802,46.0381925 105.767055,28.4565598 C104.199766,29.3560062 102.475244,29.9481304 100.686006,30.2011662 C92.899417,31.2953352 85.6728862,25.7113702 84.6087464,17.9212827 C84.4308339,16.6108315 84.3843443,15.285879 84.4699709,13.9661808 C84.4962099,13.6734694 84.6303206,13.7825073 84.6303206,13.7825073 C85.5818517,7.6035597 90.4525203,2.76801336 96.6381925,1.8612245 C104.256851,0.832069971 111.562391,7.04985422 113.906414,17.2629738 C114.24403,18.8025576 114.461401,20.3660666 114.55656,21.9393586 C114.55656,40.3247813 100.402041,64.0618075 54.5099125,82.2489795 C62.9198251,97.212245 68.7588922,108.3 73.5116618,106.391254 C76.251312,105.290088 76.9408163,100.064723 76.2341107,80.0895043 L90.386589,72.028863 C89.0017493,95.1338192 93.238484,103.120408 97.1023323,100.371137 C100.198542,98.1685131 102.009038,91.3046648 101.940816,80.499417 C101.772303,71.8282798 101.139067,67.0562682 101.139067,67.0562682 C110.199708,58.1212827 114.566181,58.9104957 114.623032,70.1723032 C121.558892,46.5104957 138.700583,51.8346939 137.655102,73.3413994 C136.611953,94.8364432 137.760933,98.9623907 139.604956,98.9623907 C142.106414,98.9623907 145.56414,94.4580174 145.308163,89.7478134 C144.849271,77.796793 146.529155,63.9314869 153.678426,57.8387755 C163.677843,49.3198251 172.016618,57.2396501 175.131195,61.951312 C175.26035,61.609621 175.402333,61.276968 175.539358,60.9411078 C182.327989,45.6553936 191.048688,46.0344024 196.198251,50.1183674 C198.095154,51.7660762 199.371766,54.0127507 199.816326,56.4857142 L199.816035,56.4862974 Z M172.921866,70.1072886 C172.11895,67.4396501 167.129738,61.9731779 162.275802,66.7428571 C156.748105,72.174344 156.144606,88.800583 158.327697,93.9766763 C160.375219,98.8317784 168.006997,98.0720117 170.252478,92.1944606 C170.836734,84.783965 171.324198,77.4282798 172.921866,70.1075802 L172.921866,70.1072886 Z" id="Extrude" fill="#EB8D00"></path>
            <path d="M51.2186589,132.279883 C51.2457726,132.365015 51.212245,132.439067 51.0320699,132.470845 C12.5364432,139.288047 28.1355685,98.1093294 16.871137,69.7545189 C11.126098,72.465897 4.26847422,70.0618859 1.47389416,64.356856 C-1.32068591,58.6518262 0.983414485,51.7599907 6.64723032,48.8827989 C12.712828,45.9597667 19.4241982,48.477551 25.2516035,57.1830904 C36.4139942,73.8588922 34.5320699,123.016327 51.2186589,132.2793 L51.2186589,132.279883 Z M199.986298,56.6717202 C199.994779,60.2651922 198.247038,63.6361347 195.305366,65.7000338 C192.363694,67.763933 188.599206,68.2604104 185.223032,67.0297376 C174.797958,96.9772595 194.432944,143.483673 148.21137,131.472303 C98.573761,118.573469 72.2702624,128.79242 72.2702624,128.79242 C76.112828,122.7793 95.1381925,116.604665 120.994169,117.318659 C148.604373,118.308163 164.50379,130.576968 168.704373,103.668513 C168.889602,102.694752 169.055782,101.69553 169.202915,100.670845 C163.613994,109.38105 152.353353,112.467347 147.618076,104.095627 C146.466472,102.060641 145.573761,99.439067 144.954227,96.460933 C142.06793,102.612536 137.13207,109.560058 129.659767,109.141983 C124.918076,108.879009 123.366472,105.568222 123.539359,98.4597667 C123.660058,93.5020408 123.901458,84.0702624 124.087464,79.2965014 C124.611662,65.9014578 116.711953,69.6501458 115.500875,79.0078717 C115.016327,82.7559766 115.057143,103.246939 115.288047,109.343149 C102.744023,111.327405 100.630904,107.806122 100.355977,99.1110787 C93.273761,118.013703 81.3020408,117.950729 77.9174926,105.367639 C75.8959184,113.799125 70.4685131,122.060933 65.113411,122.060933 C56.4673469,122.060933 47.9344024,107.835568 33.8501458,71.8446064 C69.7093294,64.1064139 104.767639,44.2760933 105.76793,26.5428571 C100.799848,29.3847518 94.6126469,28.9736646 90.0642155,25.4994779 C85.5157843,22.0252914 83.4914067,16.1642034 84.9261502,10.6234713 C86.3608938,5.08273933 90.9755072,0.940783195 96.638484,0.110787172 C104.257143,-0.918367347 111.562682,5.29941691 113.906706,15.5137026 C114.338074,17.6284086 114.555884,19.7811048 114.556851,21.9393586 C114.557434,22.6060253 114.537512,23.272692 114.497084,23.9393586 C113.265889,38.9172011 100.402624,62.3113702 54.5099125,80.4997085 C62.9198251,95.4618075 68.7588922,106.549271 73.5119533,104.641983 C76.251312,103.540816 76.2944606,98.2702624 75.587755,78.2950437 C80.5827536,74.8778162 85.9120714,71.9770075 91.4935861,69.6373178 C91.4935861,93.0874635 93.238484,101.370262 97.1023323,98.6221574 C100.198542,96.4195336 100.365889,89.5556851 100.297668,78.7504373 C100.129446,70.0781341 99.7536443,65.187755 99.7536443,65.187755 C108.813703,56.2527696 114.98688,56.3997085 115.044606,67.6618075 C121.980466,44 139.329155,50.0857142 138.283673,71.5927114 C137.239942,93.0874635 137.760933,97.212245 139.604956,97.212245 C142.106414,97.212245 144.2207,92.7078717 143.964432,87.9988338 L143.967347,87.9988338 C143.508455,76.0478134 146.528863,62.1816326 153.678717,56.0886298 C163.67755,47.5702624 172.016326,55.4909621 175.130613,60.2023323 C175.259766,59.8606414 175.401749,59.5268221 175.538776,59.1906706 C182.327405,43.9049563 191.048106,44.2845482 196.197667,48.3685131 C198.604125,50.456393 199.986171,53.4857701 199.985714,56.6717202 L199.986298,56.6717202 Z M172.922157,67.8116618 C172.119242,65.1440234 167.130029,60.2227405 162.276093,64.9924198 C156.748396,70.4239067 156.144898,87.051312 158.327988,92.2274053 C160.37551,97.0816326 168.007288,96.3215744 170.25277,90.4451894 C170.837026,83.0346939 171.32449,75.1323614 172.922157,67.8119533 L172.922157,67.8116618 Z" id="Base" fill="url(#linearGradient-1)"></path>
            <path d="M144.537026,87.5763848 C144.184256,76.3941691 146.974344,62.5688046 154.057143,56.5326531 C156.886589,54.123032 159.782216,52.9 162.663557,52.9 C167.782507,52.9 172.20933,56.8381925 174.645189,60.5233237 L175.274053,61.4755102 L176.078717,59.412245 C180.804082,48.773761 186.084549,46.538484 189.68105,46.538484 C192.383674,46.538484 194.519242,47.7822157 195.835568,48.8253645 C199.626315,52.123655 200.524445,57.6569059 197.971549,61.9848634 C195.418654,66.3128206 190.14145,68.2034808 185.420992,66.4813411 L184.86589,66.2801749 L184.67172,66.8370262 C183.289795,70.8084549 182.319533,75.4002915 181.709038,80.8620992 C178.359766,81.7046648 174.900291,82.500583 171.40933,83.2332362 C171.831195,78.2507288 172.389795,72.9842565 173.491546,67.93586 L173.523614,67.7880467 L173.479883,67.6434402 C172.836734,65.5046648 170.016326,62.4102042 166.598834,62.4102042 C164.921866,62.4102042 163.330613,63.139067 161.86793,64.5763848 C157.411662,68.9553936 156.301166,79.5297376 156.626531,85.9297376 C152.68688,86.5454811 148.625656,87.0979592 144.536735,87.5760933 L144.537026,87.5763848 Z M55.4857142,83.4300291 L53.6746355,80.2034986 L54.2950437,79.9574344 C105.618659,59.6169096 113.087464,33.9720117 113.915452,23.9037901 C114.084223,21.1370706 113.890353,18.3601602 113.338776,15.6437318 C111.271137,6.63498542 105.220408,0.583090379 98.2819242,0.583090379 C97.7605325,0.583215861 97.239735,0.618279834 96.723032,0.688046648 C89.6479357,1.72506259 84.5722558,8.04639147 85.088028,15.1784579 C85.6038002,22.3105243 91.5361934,27.8357784 98.6868805,27.8440234 C99.3284696,27.8435952 99.9692605,27.7987846 100.604665,27.7099125 C102.321049,27.4672768 103.975226,26.8987646 105.478134,26.0349854 L106.409912,25.503207 L106.349563,26.574927 C105.290379,45.3454811 68.4381925,64.8227405 34.641691,72.2688046 C36.2612245,76.3947522 37.8093294,80.2367347 39.2510205,83.7037901 C45.1413994,84.8860058 51.2239067,85.9119533 57.3530613,86.7548106 C56.7452867,85.6764821 56.1227405,84.5681243 55.4854227,83.4297376 L55.4857142,83.4300291 Z M24.7667638,57.5072886 C20.7355685,51.4854227 16.1670554,48.3023323 11.5548105,48.3023323 C9.94402502,48.3135512 8.35673523,48.68974 6.9122449,49.4026238 C1.51642086,52.1266637 -0.685064243,58.6837456 1.97368227,64.1120397 C4.63242878,69.5403338 11.1624749,71.820763 16.622449,69.2276968 L17.1836734,68.9632653 L17.4131195,69.5396501 C18.6296182,72.6600466 19.5769971,75.8787742 20.2448979,79.1606414 C24.3061224,80.299417 28.4912536,81.3588922 32.7026238,82.312245 C30.8058309,72.673761 28.5116618,63.1023323 24.7667638,57.5075802 L24.7667638,57.5072886 Z M90.9113702,70.5107872 C85.7616998,72.7423166 80.8308274,75.4481475 76.1825074,78.5932944 C76.3049563,82.0723032 76.4259475,85.6848397 76.4944606,88.8119533 C81.5206997,89.2061224 86.612245,89.4941691 91.6478134,89.6696794 C91.1688046,85.0915451 90.9276968,78.8061224 90.9113702,70.5107872 Z M114.565306,89.7346939 C114.603207,85.6530613 114.695918,80.6793003 114.92274,78.9329446 C115.57172,73.9172011 118.197959,69.9868805 120.901458,69.9868805 C121.653762,69.9953763 122.368532,70.316843 122.874052,70.8740525 C124.209329,72.2635568 124.830904,75.1830904 124.668513,79.3186589 C124.583965,81.4935861 124.479592,84.8568514 124.357726,89.3201166 C128.584256,89.0810496 132.888338,88.7562682 137.169388,88.3521866 C137.161516,84.5323614 137.331195,79.1714286 137.7,71.56414 C138.035277,64.6755102 136.441691,58.8516035 133.329155,55.5830904 C131.759767,53.93586 129.905831,53.0661808 127.966472,53.0661808 C122.933819,53.0661808 118.312245,58.583965 115.602916,67.825656 C115.602916,67.825656 115.281633,68.36414 114.905248,68.2935861 C114.529155,68.2215744 114.461224,67.6650146 114.461224,67.6650146 C114.441691,63.8959184 113.693586,59.4020408 110.236735,59.4020408 C107.798834,59.4020408 104.384548,61.4801749 100.354227,65.416035 C100.433819,66.5618075 100.735568,71.2819242 100.880758,78.7472304 C100.905248,82.6180758 100.90758,86.648688 100.669679,89.8690962 C101.83586,89.8807581 103.004762,89.8868805 104.176385,89.8874635 C107.555394,89.8874635 111.048105,89.8361517 114.56414,89.7349854 L114.565306,89.7346939 Z" id="HappyShine" fill="url(#linearGradient-2)"></path>
        </g>
    </g>
</svg>