<?xml version="1.0" encoding="UTF-8"?>
<svg width="251px" height="169px" viewBox="0 0 251 169" version="1.1" xmlns="http://www.w3.org/2000/svg" xmlns:xlink="http://www.w3.org/1999/xlink">
    <!-- Generator: Sketch 48.2 (47327) - http://www.bohemiancoding.com/sketch -->
    <title>king_portfolio</title>
    <desc>Created with Sketch.</desc>
    <defs>
        <linearGradient x1="50.0013157%" y1="68.3636991%" x2="50.0013157%" y2="93.4642993%" id="linearGradient-1">
            <stop stop-color="#FFC400" offset="0%"></stop>
            <stop stop-color="#FFA400" offset="100%"></stop>
        </linearGradient>
        <linearGradient x1="50.0036485%" y1="29.6424584%" x2="50.0036485%" y2="90.1016604%" id="linearGradient-2">
            <stop stop-color="#FFD400" stop-opacity="0" offset="0%"></stop>
            <stop stop-color="#FFD400" offset="100%"></stop>
        </linearGradient>
    </defs>
    <g id="Page-1" stroke="none" stroke-width="1" fill="none" fill-rule="evenodd">
        <g id="king_portfolio" fill-rule="nonzero">
            <path d="M60.7419825,165.148688 C61.287172,165.648688 63.4402332,164.931122 64.0233236,165.349125 C64.5379009,165.719752 64.0153061,167.73688 63.7900875,167.776239 C15.6705539,176.298469 36.0597668,124.567784 20.6559767,89.5772595 C18.8512297,90.3990419 16.8862068,90.8088522 14.9034257,90.7769679 C6.87317784,90.7762391 0.364431487,84.2784257 0.364431487,74.8790087 C0.364431487,74.1829446 0.367346939,73.7879009 0.367346939,73.7879009 C0.436588921,73.2940962 0.673469388,73.2099125 0.79154519,72.7346939 C1.81502048,68.6481753 4.55626813,65.2042072 8.3090379,63.2900875 C15.891035,59.6370262 24.2802478,62.784621 31.5645044,73.6661808 C44.7397959,93.3465743 43.3764577,149.227405 60.7419825,165.147959 L60.7419825,165.148688 Z M249.770044,70.6078717 C249.792638,70.7354227 249.982507,70.4766764 249.982507,71.1672741 C249.982507,79.2357872 245.655612,86.8050292 236.203353,86.8050292 C234.686754,86.8018133 233.183657,86.5199209 231.76895,85.9733965 C217.637026,124.112245 243.040816,181.54191 185.263848,166.52879 C123.216472,150.40379 90.3374636,163.178936 90.3374636,163.178936 C90.3374636,163.178936 89.6290087,161.648324 90.3374636,160.990889 C91.037172,160.342201 93.571793,159.903426 94.5357143,159.268586 C103.708455,153.228134 124.56742,148.098761 151.242347,148.834913 C185.755102,150.07398 205.629373,165.408163 210.880102,131.77223 C211.111395,130.555029 211.319121,129.306608 211.50328,128.026968 C204.517128,138.912536 190.441327,142.771866 184.52223,132.306122 C183.082726,129.763848 181.966837,126.485423 181.19242,122.764213 C177.584548,130.452624 171.414723,139.136662 162.074344,138.615525 C156.14723,138.286443 154.207362,134.146866 154.423834,125.262755 C154.574708,119.063776 154.876458,107.274417 155.108965,101.306851 C155.764213,84.5634111 145.889577,89.2492711 144.375729,100.946793 C143.770044,105.633382 143.300656,130.858601 144.370627,138.867347 C128.690233,141.347668 125.466472,136.594388 125.288994,126.77551 C116.436224,150.405248 101.626458,149.627187 97.396137,133.896501 C94.8691691,144.43586 88.0849125,154.764577 81.391035,154.764577 C70.5834548,154.764577 59.9172741,137.827259 42.3119534,92.8396501 C42.1176822,91.8378053 42.1176822,90.8079673 42.3119534,89.8061224 C42.3483965,89.6202624 43.2766035,91.7835277 43.4624636,91.7423469 C87.8830175,81.8954082 130.969752,57.5477405 132.208819,35.5706997 C130.249707,36.6950078 128.094055,37.4351629 125.857507,37.7514577 C116.124271,39.1191691 107.091108,32.1392128 105.760933,22.4016035 C105.538542,20.7635394 105.48043,19.1073488 105.587464,17.4577259 C105.620262,17.0918367 105.787901,17.2281341 105.787901,17.2281341 C106.977315,9.50444962 113.06565,3.46001671 120.797741,2.32653061 C130.321064,1.04008746 139.452988,8.81231778 142.383017,21.5787172 C142.805038,23.503197 143.076751,25.4575832 143.1957,27.4241983 C143.1957,50.4059767 125.502551,80.0772595 68.1373907,102.811224 C78.6497813,121.515306 85.9486152,135.375 91.8895773,132.989067 C95.3141399,131.612609 96.1760204,125.080904 95.2926385,100.11188 L112.983236,90.0360787 C111.252187,118.917274 116.548105,128.90051 121.377915,125.463921 C125.248178,122.710641 127.511297,114.130831 127.42602,100.624271 C127.215379,89.7853499 126.423834,83.8203353 126.423834,83.8203353 C137.749636,72.6516035 143.207726,73.6381195 143.27879,87.715379 C151.948615,58.1381195 173.375729,64.7933673 172.068878,91.6767493 C170.764942,118.545554 172.201166,123.702988 174.506195,123.702988 C177.633017,123.702988 181.955175,118.072522 181.635204,112.184767 C181.061589,97.2459913 183.161443,79.9143586 192.098032,72.2984694 C204.597303,61.6497813 215.020773,71.5495627 218.913994,77.4391399 C219.075437,77.0120262 219.252915,76.5962099 219.424198,76.1763848 C227.909985,57.069242 238.81086,57.5430029 245.247813,62.6479592 C247.618941,64.7075953 249.214708,67.5159383 249.770408,70.6071429 L249.770044,70.6078717 Z M216.152332,87.6341108 C215.148688,84.2995627 208.912172,77.4664723 202.844752,83.4285714 C195.935131,90.21793 195.180758,111.000729 197.909621,117.470845 C200.469023,123.539723 210.008746,122.590015 212.815598,115.243076 C213.545918,105.979956 214.155248,96.7853499 216.152332,87.6344752 L216.152332,87.6341108 Z" id="Extrude" fill="#EB8D00"></path>
            <path d="M64.0233236,165.349854 C64.0572157,165.456268 64.0153061,165.548834 63.7900875,165.588557 C15.6705539,174.110058 35.1694606,122.636662 21.0889213,87.1931487 C13.9076226,90.5823711 5.33559278,87.5773573 1.8423677,80.44607 C-1.65085739,73.3147827 1.22926811,64.6999885 8.3090379,61.1034985 C15.891035,57.4497085 24.2802478,60.5969388 31.5645044,71.478863 C45.5174927,92.3236152 43.1650875,153.770408 64.0233236,165.349125 L64.0233236,165.349854 Z M249.982872,70.8396501 C249.993473,75.3314903 247.808797,79.5451683 244.131707,82.1250422 C240.454617,84.7049161 235.749009,85.3255131 231.52879,83.787172 C218.497449,121.221574 243.041181,179.354592 185.264213,164.340379 C123.217201,148.216837 90.337828,160.990525 90.337828,160.990525 C95.141035,153.474125 118.922741,145.755831 151.242711,146.648324 C185.755466,147.885204 205.629738,163.22121 210.880466,129.585641 C211.112002,128.36844 211.319728,127.119412 211.503644,125.838557 C204.517493,136.726312 190.441691,140.584184 184.522595,130.119534 C183.08309,127.575802 181.967201,124.298834 181.192784,120.576166 C177.584913,128.265671 171.415087,136.950073 162.074708,136.427478 C156.147595,136.098761 154.20809,131.960277 154.424198,123.074708 C154.575073,116.877551 154.876822,105.087828 155.109329,99.1206268 C155.764577,82.3768222 145.889942,87.0626822 144.376093,98.7598397 C143.770408,103.444971 143.821429,129.058673 144.110058,136.678936 C128.430029,139.159257 125.78863,134.757653 125.444971,123.888848 C116.592201,147.517128 101.627551,147.438411 97.3968659,131.709548 C94.869898,142.248907 88.0856414,152.576166 81.3917638,152.576166 C70.5841837,152.576166 59.9180029,134.794461 42.3126822,89.805758 C87.1366618,80.1330175 130.959548,55.3451166 132.209913,33.1785714 C125.999811,36.7309399 118.265809,36.2170808 112.580269,31.8743475 C106.89473,27.5316142 104.364258,20.2052542 106.157688,13.2793392 C107.951117,6.35342417 113.719384,1.17597899 120.798105,0.138483965 C130.321429,-1.14795918 139.453353,6.62427114 142.383382,19.3921283 C142.922593,22.0355108 143.194854,24.726381 143.196064,27.4241983 C143.196793,28.2575316 143.17189,29.0908649 143.121356,29.9241983 C141.582362,48.6465015 125.50328,77.8892128 68.1373907,100.624636 C78.6497813,119.327259 85.9486152,133.186589 91.8899417,130.802478 C95.3141399,129.42602 95.3680758,122.837828 94.4846939,97.8688047 C100.728442,93.5972703 107.390089,89.9712594 114.366983,87.0466472 C114.366983,116.359329 116.548105,126.712828 121.377915,123.277697 C125.248178,120.524417 125.457362,111.944606 125.372085,98.4380466 C125.161808,87.5976676 124.692055,81.4846939 124.692055,81.4846939 C136.017128,70.3159621 143.733601,70.4996356 143.805758,84.5772595 C152.475583,55 174.161443,62.6071429 172.854592,89.4908892 C171.549927,116.359329 172.201166,121.515306 174.506195,121.515306 C177.633017,121.515306 180.275875,115.88484 179.955539,109.998542 L179.959184,109.998542 C179.385569,95.0597668 183.161079,77.7270408 192.098397,70.1107872 C204.596939,59.462828 215.020408,69.3637026 218.913265,75.2529155 C219.074708,74.8258017 219.252187,74.4085277 219.423469,73.9883382 C227.909257,54.8811953 238.810131,55.3556851 245.247085,60.4606414 C248.255156,63.0704912 249.982715,66.8572127 249.982143,70.8396501 L249.982872,70.8396501 Z M216.152697,84.7645773 C215.149052,81.4300292 208.912536,75.2784257 202.845117,81.2405248 C195.935496,88.0298834 195.181122,108.81414 197.909985,115.284257 C200.469388,121.352041 210.009111,120.401968 212.815962,113.056487 C213.546283,103.793367 214.155612,93.9154519 216.152697,84.7649417 L216.152697,84.7645773 Z" id="Base" fill="url(#linearGradient-1)"></path>
            <path d="M180.671283,109.470481 C180.230321,95.4927114 183.71793,78.2110058 192.571429,70.6658163 C196.108236,67.6537901 199.72777,66.125 203.329446,66.125 C209.728134,66.125 215.261662,71.0477405 218.306487,75.6541545 L219.092566,76.8443878 L220.098397,74.2653061 C226.005102,60.9672012 232.605685,58.173105 237.101312,58.173105 C240.479592,58.173105 243.149052,59.7277697 244.794461,61.0317055 C249.532895,65.1545688 250.655555,72.0711324 247.464437,77.4810791 C244.273319,82.8910259 237.676811,85.254351 231.776239,83.1016764 L231.082362,82.8502187 L230.83965,83.5462828 C229.112245,88.5105685 227.899417,94.2503644 227.136297,101.077624 C222.949708,102.130831 218.625364,103.125729 214.261662,104.041545 C214.788994,97.8134111 215.487245,91.2303207 216.864431,84.9198251 L216.904519,84.7350583 L216.849854,84.5543003 C216.045918,81.8808309 212.520408,78.0127551 208.248542,78.0127551 C206.152332,78.0127551 204.163265,78.9238338 202.334913,80.720481 C196.764577,86.194242 195.376458,99.412172 195.783163,107.412172 C190.858601,108.181851 185.78207,108.872449 180.670918,109.470117 L180.671283,109.470481 Z M69.3571429,104.287536 L67.0932945,100.254373 L67.8688047,99.946793 C132.023324,74.521137 141.359329,42.4650146 142.394315,29.8797376 C142.605279,26.4213383 142.362941,22.9502001 141.673469,19.5546647 C139.088921,8.29373178 131.52551,0.728862974 122.852405,0.728862974 C122.200666,0.729019826 121.549669,0.772849791 120.90379,0.860058309 C112.05992,2.15632825 105.71532,10.0579893 106.360035,18.9730723 C107.00475,27.8881553 114.420242,34.794723 123.358601,34.8050292 C124.160587,34.8044941 124.961576,34.7484809 125.755831,34.6373907 C127.901311,34.3340959 129.969033,33.6234557 131.847668,32.5437318 L133.012391,31.8790087 L132.936953,33.2186589 C131.612974,56.6818513 85.5477405,81.0284257 43.3021137,90.3360058 C45.3265306,95.4934402 47.2616618,100.295918 49.0637755,104.629738 C56.4267493,106.107507 64.0298834,107.389942 71.6913265,108.443513 C70.9316084,107.095603 70.1534257,105.710155 69.3567784,104.287172 L69.3571429,104.287536 Z M30.9584548,71.8841108 C25.9194606,64.3567784 20.2088192,60.3779155 14.4435131,60.3779155 C12.4300313,60.3919389 10.445919,60.862175 8.64030612,61.7532799 C1.89552607,65.1583296 -0.856330304,73.354682 2.46710284,80.1400496 C5.79053598,86.9254172 13.9530936,89.7759539 20.7780612,86.534621 L21.4795918,86.2040816 L21.7663994,86.9245627 C23.2870229,90.8250583 24.4712464,94.8484678 25.3061224,98.9508017 C30.3826531,100.374271 35.6140671,101.698615 40.8782799,102.890306 C38.5072886,90.8422012 35.6395773,78.8779155 30.9584548,71.8844752 L30.9584548,71.8841108 Z M113.639213,88.138484 C107.202125,90.9278958 101.038534,94.3101845 95.2281341,98.2416181 C95.3811953,102.590379 95.5324344,107.10605 95.6180758,111.014942 C101.900875,111.507653 108.265306,111.867711 114.559767,112.087099 C113.961006,106.364431 113.659621,98.5076531 113.639213,88.138484 Z M143.206633,112.168367 C143.254009,107.066327 143.369898,100.849125 143.653426,98.6661808 C144.46465,92.3965015 147.747449,87.4836006 151.126822,87.4836006 C152.067202,87.4942205 152.960664,87.8960539 153.592566,88.5925656 C155.261662,90.3294461 156.03863,93.978863 155.835641,99.1483236 C155.729956,101.866983 155.59949,106.071064 155.447157,111.650146 C160.730321,111.351312 166.110423,110.945335 171.461735,110.440233 C171.451895,105.665452 171.663994,98.9642857 172.125,89.4551749 C172.544096,80.8443878 170.552114,73.5645044 166.661443,69.478863 C164.699708,67.4198251 162.382289,66.3327259 159.95809,66.3327259 C153.667274,66.3327259 147.890306,73.2299563 144.503644,84.78207 C144.503644,84.78207 144.102041,85.4551749 143.63156,85.3669825 C143.161443,85.2769679 143.076531,84.5812682 143.076531,84.5812682 C143.052114,79.869898 142.116983,74.252551 137.795918,74.252551 C134.748542,74.252551 130.480685,76.8502187 125.442784,81.7700437 C125.542274,83.2022595 125.919461,89.1024052 126.100948,98.4340379 C126.13156,103.272595 126.134475,108.31086 125.837099,112.33637 C127.294825,112.350948 128.755952,112.358601 130.220481,112.359329 C134.444242,112.359329 138.810131,112.29519 143.205175,112.168732 L143.206633,112.168367 Z" id="HappyShine" fill="url(#linearGradient-2)"></path>
        </g>
    </g>
</svg>