<?xml version="1.0" encoding="UTF-8"?>
<svg width="145px" height="145px" viewBox="0 0 145 145" version="1.1" xmlns="http://www.w3.org/2000/svg" xmlns:xlink="http://www.w3.org/1999/xlink">
    <!-- Generator: Sketch 48.2 (47327) - http://www.bohemiancoding.com/sketch -->
    <title>default slice size</title>
    <desc>Created with Sketch.</desc>
    <defs>
        <linearGradient x1="50.0013157%" y1="68.3636991%" x2="50.0013157%" y2="93.4642993%" id="linearGradient-1">
            <stop stop-color="#FFC400" offset="0%"></stop>
            <stop stop-color="#FFA400" offset="100%"></stop>
        </linearGradient>
        <linearGradient x1="50.0036485%" y1="29.6424584%" x2="50.0036485%" y2="90.1016604%" id="linearGradient-2">
            <stop stop-color="#FFD400" stop-opacity="0" offset="0%"></stop>
            <stop stop-color="#FFD400" offset="100%"></stop>
        </linearGradient>
    </defs>
    <g id="Artboard" stroke="none" stroke-width="1" fill="none" fill-rule="evenodd">
        <g id="logo-template" transform="translate(-2.000000, 0.000000)" fill-rule="nonzero">
            <g id="kingLogoRebrand" transform="translate(31.000000, 31.000000)">
                <path d="M20.895242,56.8111487 C21.0827872,56.9831487 21.8234402,56.7363061 22.0240233,56.8800991 C22.2010379,57.0075948 22.0212653,57.7014869 21.9437901,57.7150262 C5.39067055,60.6466735 12.4045598,42.8513178 7.10565598,30.8145773 C6.48482303,31.0972704 5.80885515,31.2382451 5.12677843,31.227277 C2.36437318,31.2270262 0.125364431,28.9917784 0.125364431,25.758379 C0.125364431,25.5189329 0.126367347,25.3830379 0.126367347,25.3830379 C0.150186589,25.2131691 0.231673469,25.1842099 0.272291545,25.0207347 C0.624367044,23.6149723 1.56735624,22.4302473 2.85830904,21.7717901 C5.46651603,20.515137 8.35240525,21.5979096 10.8581895,25.3411662 C15.3904898,32.1112216 14.9215015,51.3342274 20.895242,56.810898 L20.895242,56.8111487 Z M85.920895,24.2891079 C85.9286676,24.3329854 85.9939825,24.2439767 85.9939825,24.4815423 C85.9939825,27.2571108 84.5055306,29.86093 81.2539534,29.86093 C80.7322432,29.8598238 80.215178,29.7628528 79.728519,29.5748484 C74.867137,42.6946122 83.6060408,62.4504169 63.7307638,57.2859038 C42.3864665,51.7389038 31.0760875,56.1335539 31.0760875,56.1335539 C31.0760875,56.1335539 30.832379,55.6070233 31.0760875,55.3808659 C31.3167872,55.1577172 32.1886968,55.0067784 32.5202857,54.7883936 C35.6757085,52.7104781 42.8511924,50.9459738 52.0273673,51.1992099 C63.8997551,51.625449 70.7365044,56.9004082 72.5427551,45.3296472 C72.6223197,44.91093 72.6937775,44.4814733 72.7571283,44.041277 C70.3538921,47.7859125 65.5118163,49.1135219 63.4756472,45.5133061 C62.9804577,44.6387638 62.5965918,43.5109854 62.3301924,42.2308892 C61.0890845,44.8757026 58.9666647,47.8630117 55.7535743,47.6837405 C53.7146472,47.5705364 53.0473324,46.1465219 53.1217988,43.0903878 C53.1736997,40.9579388 53.2775015,36.9023994 53.357484,34.8495569 C53.5828892,29.0898134 50.1860146,30.7017493 49.6652507,34.7256968 C49.456895,36.3378834 49.2954257,45.0153586 49.6634956,47.7703673 C44.2694402,48.6235977 43.1604665,46.9884694 43.099414,43.6107755 C40.0540612,51.7394052 34.9595015,51.4717522 33.5042711,46.0603965 C32.6349942,49.6859359 30.3012099,53.2390146 27.998516,53.2390146 C24.2807085,53.2390146 20.6115423,47.4125773 14.555312,31.9368397 C14.4884827,31.592205 14.4884827,31.2379408 14.555312,30.8933061 C14.5678484,30.8293703 14.8871516,31.5735335 14.9510875,31.5593673 C30.231758,28.1720204 45.0535948,19.7964227 45.4798338,12.2363207 C44.8058993,12.6230827 44.0643549,12.877696 43.2949825,12.9865015 C39.9467493,13.4569942 36.8393411,11.0558892 36.3817609,7.7061516 C36.3052586,7.14265754 36.2852681,6.57292799 36.3220875,6.00545773 C36.3333703,5.87959184 36.3910379,5.92647813 36.3910379,5.92647813 C36.8001962,3.26953067 38.8945838,1.19024575 41.5544227,0.800326531 C44.8304461,0.357790087 47.971828,3.03143732 48.979758,7.42307872 C49.1249329,8.08509977 49.2184023,8.75740863 49.2593207,9.4339242 C49.2593207,17.339656 43.1728776,27.5465773 23.4392624,35.3670612 C27.0555248,41.8012653 29.5663236,46.569 31.6100146,45.7482391 C32.7880641,45.2747376 33.084551,43.0278309 32.7806676,34.4384869 L38.8662332,30.9724111 C38.2707522,40.9075423 40.0925481,44.3417755 41.7540029,43.1595889 C43.0853732,42.2124606 43.8638863,39.2610058 43.834551,34.6147493 C43.7620904,30.8861603 43.4897988,28.8341953 43.4897988,28.8341953 C47.3858746,24.9921516 49.2634577,25.3315131 49.2879038,30.1740904 C52.2703236,19.9995131 59.6412507,22.2889184 59.1916939,31.5368017 C58.7431399,40.7796706 59.2372012,42.553828 60.0301312,42.553828 C61.105758,42.553828 62.5925802,40.6169475 62.4825102,38.5915598 C62.2851866,33.452621 63.0075364,27.4905394 66.081723,24.8706735 C70.3814723,21.2075248 73.9671458,24.6130496 75.306414,26.6390641 C75.3619504,26.492137 75.4230029,26.3490962 75.4819242,26.2046764 C78.401035,19.6318192 82.1509359,19.794793 84.3652478,21.550898 C85.1809158,22.2594128 85.7298594,23.2254828 85.9210204,24.2888571 L85.920895,24.2891079 Z M74.3564023,30.1461341 C74.0111487,28.9990496 71.8657872,26.6484665 69.7785948,28.6994286 C67.4016851,31.0349679 67.1421808,38.1842507 68.0809096,40.4099708 C68.961344,42.4976647 72.2430087,42.170965 73.2085656,39.6436181 C73.4597959,36.457105 73.6694052,33.2941603 74.3564023,30.1462595 L74.3564023,30.1461341 Z" id="Extrude" fill="#EB8D00"></path>
                <path d="M22.0240233,56.8803499 C22.0356822,56.9169563 22.0212653,56.9487988 21.9437901,56.9624636 C5.39067055,59.8938601 12.0982945,42.1870117 7.25458892,29.9944431 C4.78422216,31.1603357 1.83544392,30.1266109 0.633774487,27.6734481 C-0.56789494,25.2202853 0.422868228,22.256796 2.85830904,21.0196035 C5.46651603,19.7626997 8.35240525,20.8453469 10.8581895,24.5887289 C15.6580175,31.7593236 14.8487901,52.8970204 22.0240233,56.8800991 L22.0240233,56.8803499 Z M85.9941079,24.3688397 C85.9977548,25.9140327 85.2462263,27.3635379 83.9813073,28.2510145 C82.7163884,29.1384911 81.0976591,29.3519765 79.6459038,28.8227872 C75.1631224,41.7002216 83.6061662,61.6979796 63.7308892,56.5330904 C42.3867172,50.9865918 31.0762128,55.3807405 31.0762128,55.3807405 C32.728516,52.7950991 40.9094227,50.1400058 52.0274927,50.4470233 C63.8998805,50.8725102 70.7366297,56.1480962 72.5428805,44.5774606 C72.6225287,44.1587434 72.6939864,43.7290777 72.7572536,43.2884636 C70.3540175,47.0338513 65.5119417,48.3609592 63.4757726,44.7611195 C62.9805831,43.8860758 62.5967172,42.7587988 62.3303178,41.4782012 C61.0892099,44.1233907 58.9667901,47.1108251 55.7536997,46.9310525 C53.7147726,46.8179738 53.0475831,45.3943353 53.1219242,42.3376997 C53.1738251,40.2058776 53.2776268,36.1502128 53.3576093,34.0974956 C53.5830146,28.3376268 50.1861399,29.9495627 49.6653761,33.9733848 C49.4570204,35.58507 49.4745714,44.3961837 49.5738601,47.0175539 C44.17993,47.8707843 43.2712886,46.3566327 43.15307,42.6177638 C40.1077172,50.7458921 34.9598776,50.7188134 33.5045219,45.3080845 C32.6352449,48.9336239 30.3014606,52.4862012 27.9987668,52.4862012 C24.2809592,52.4862012 20.611793,46.3692945 14.5555627,30.8931808 C29.9750117,27.565758 45.0500845,19.0387201 45.4802099,11.4134286 C43.3439348,12.6354433 40.6834381,12.4586758 38.7276127,10.9647755 C36.7717872,9.47087528 35.9013049,6.95060744 36.5182446,4.56809268 C37.1351843,2.18557791 39.1194681,0.404536774 41.5545481,0.047638484 C44.8305714,-0.394897959 47.9719534,2.27874927 48.9798834,6.67089213 C49.165372,7.5802157 49.2590299,8.50587506 49.2594461,9.4339242 C49.2596968,9.72059086 49.2511302,10.0072575 49.2337464,10.2939242 C48.7043324,16.7343965 43.1731283,26.7938892 23.4392624,34.6148746 C27.0555248,41.0485773 29.5663236,45.8161866 31.6101399,44.9960525 C32.7880641,44.522551 32.8066181,42.2562128 32.5027347,33.6668688 C34.6505841,32.197461 36.9421907,30.9501132 39.342242,29.9440466 C39.342242,40.0276093 40.0925481,43.5892128 41.7540029,42.4075277 C43.0853732,41.4603994 43.1573324,38.5089446 43.1279971,33.862688 C43.0556618,30.1335977 42.8940671,28.0307347 42.8940671,28.0307347 C46.7898921,24.188691 49.4443586,24.2518746 49.4691808,29.0945773 C52.4516006,18.92 59.9115364,21.5368571 59.4619796,30.7848659 C59.0131749,40.0276093 59.2372012,41.8012653 60.0301312,41.8012653 C61.105758,41.8012653 62.0149009,39.8643848 61.9047055,37.8394985 L61.9059592,37.8394985 C61.7086356,32.7005598 63.0074111,26.738102 66.0818484,24.1181108 C70.3813469,20.4552128 73.9670204,23.8611137 75.3061633,25.8870029 C75.3616997,25.7400758 75.4227522,25.5965335 75.4816735,25.4519883 C78.4007843,18.8791312 82.1506851,19.0423557 84.3649971,20.7984606 C85.3997736,21.696249 85.9940538,22.9988812 85.9938571,24.3688397 L85.9941079,24.3688397 Z M74.3565277,29.1590146 C74.0112741,28.01193 71.8659125,25.8957784 69.7787201,27.9467405 C67.4018105,30.2822799 67.1423061,37.4320641 68.081035,39.6577843 C68.9614694,41.745102 72.2431341,41.418277 73.208691,38.8914315 C73.4599213,35.7049184 73.6695306,32.3069155 74.3565277,29.1591399 L74.3565277,29.1590146 Z" id="Base" fill="url(#linearGradient-1)"></path>
                <path d="M62.1509213,37.6578455 C61.9992303,32.8494927 63.1989679,26.904586 66.2445714,24.3090408 C67.4612332,23.2729038 68.7063528,22.747 69.9453294,22.747 C72.1464781,22.747 74.0500117,24.4404227 75.0974315,26.0250292 L75.3678426,26.4344694 L75.7138484,25.5472653 C77.7457551,20.9727172 80.0163557,20.0115481 81.5628513,20.0115481 C82.7249796,20.0115481 83.6432741,20.5463528 84.2092945,20.9949067 C85.8393158,22.4131717 86.225511,24.7924695 85.1277663,26.6534912 C84.0300216,28.5145129 81.760823,29.3274967 79.7310262,28.5869767 L79.4923324,28.5004752 L79.4088397,28.7399213 C78.8146122,30.4476356 78.3973994,32.4221254 78.1348863,34.7707026 C76.6946997,35.1330058 75.2071254,35.4752507 73.7060117,35.7902915 C73.887414,33.6478134 74.1276122,31.3832303 74.6013644,29.2124198 L74.6151545,29.1488601 L74.5963499,29.0866793 C74.3197959,28.1670058 73.1070204,26.8363878 71.6374985,26.8363878 C70.9164023,26.8363878 70.2321633,27.1497988 69.6032099,27.7678455 C67.6870146,29.6508192 67.2095015,34.1977872 67.3494082,36.9497872 C65.6553586,37.2145569 63.9090321,37.4521224 62.1507959,37.6577201 L62.1509213,37.6578455 Z M23.8588571,35.8749125 L23.0800933,34.4875044 L23.3468688,34.3816968 C45.4160233,25.6352711 48.6276093,14.607965 48.9836443,10.2786297 C49.0562159,9.08894036 48.9728518,7.89486884 48.7356735,6.72680466 C47.8465889,2.85304373 45.2447755,0.250728863 42.2612274,0.250728863 C42.0370289,0.25078282 41.8130861,0.265860328 41.5909038,0.295860058 C38.5486123,0.741776918 36.36607,3.45994833 36.5878521,6.52673688 C36.8096341,9.59352543 39.3605632,11.9693847 42.4353586,11.97293 C42.7112419,11.972746 42.986782,11.9534774 43.2600058,11.9152624 C43.998051,11.810929 44.7093473,11.5664688 45.3555977,11.1950437 L45.7562624,10.966379 L45.730312,11.4272187 C45.274863,19.4985569 29.4284227,27.8737784 14.8959271,31.075586 C15.5923265,32.8497434 16.2580117,34.5017959 16.8779388,35.9926297 C19.4108017,36.5009825 22.0262799,36.9421399 24.6618163,37.3045685 C24.4004733,36.8408873 24.1327784,36.3642935 23.8587318,35.8747872 L23.8588571,35.8749125 Z M10.6497085,24.7281341 C8.91629446,22.1387318 6.95183382,20.7700029 4.96856851,20.7700029 C4.27593076,20.774827 3.59339615,20.9365882 2.97226531,21.2431283 C0.652060969,22.4144654 -0.294577625,25.2340106 0.848683377,27.5681771 C1.99194438,29.9023435 4.79986421,30.8829281 7.14765306,29.7679096 L7.38897959,29.6542041 L7.4876414,29.9020496 C8.01073587,31.24382 8.41810877,32.6278729 8.70530612,34.0390758 C10.4516327,34.5287493 12.2512391,34.9843236 14.0621283,35.3942653 C13.2465073,31.2497172 12.2600146,27.1340029 10.6497085,24.7282595 L10.6497085,24.7281341 Z M39.0918892,30.3196385 C36.877531,31.2791961 34.7572558,32.4427035 32.7584781,33.7951166 C32.8111312,35.2910904 32.8631574,36.844481 32.8926181,38.1891399 C35.0539009,38.3586327 37.2432653,38.4824927 39.4085598,38.5579621 C39.202586,36.5893644 39.0989096,33.8866327 39.0918892,30.3196385 L39.0918892,30.3196385 Z M49.2630816,38.5859184 C49.279379,36.8308163 49.3192449,34.6920991 49.4167784,33.9411662 C49.6958397,31.7843965 50.8251224,30.0943586 51.9876268,30.0943586 C52.3111176,30.0980118 52.6184685,30.2362425 52.8358426,30.4758426 C53.4100117,31.0733294 53.6772886,32.3287289 53.6074606,34.1070233 C53.571105,35.042242 53.5262245,36.4884461 53.4738222,38.4076501 C55.2912303,38.3048513 57.1419854,38.1651953 58.9828367,37.9914402 C58.9794519,36.3489155 59.052414,34.0437143 59.211,30.7725802 C59.3551691,27.8104694 58.6699271,25.3061895 57.3315364,23.9007289 C56.6566997,23.1924198 55.8595073,22.8184577 55.0255831,22.8184577 C52.8615423,22.8184577 50.8742653,25.191105 49.7092536,29.1650321 C49.7092536,29.1650321 49.571102,29.3965802 49.4092566,29.366242 C49.2475364,29.335277 49.2183265,29.0959563 49.2183265,29.0959563 C49.2099271,27.4752449 48.888242,25.5428776 47.4017959,25.5428776 C46.3534985,25.5428776 44.8853557,26.4364752 43.1523178,28.128895 C43.1865423,28.6215773 43.3162945,30.6512274 43.3787259,33.861309 C43.3892566,35.5257726 43.3902595,37.2589359 43.2879621,38.6437114 C43.7894198,38.6487259 44.2920476,38.6513586 44.7958455,38.6516093 C46.2488192,38.6516093 47.7506851,38.6295452 49.2625802,38.5860437 L49.2630816,38.5859184 Z" id="HappyShine" fill="url(#linearGradient-2)"></path>
            </g>
        </g>
    </g>
</svg>