<?xml version="1.0" encoding="UTF-8"?>
<svg width="145px" height="145px" viewBox="0 0 145 145" version="1.1" xmlns="http://www.w3.org/2000/svg" xmlns:xlink="http://www.w3.org/1999/xlink">
    <!-- Generator: Sketch 52.2 (67145) - http://www.bohemiancoding.com/sketch -->
    <title>logo-nec copy 47</title>
    <desc>Created with Sketch.</desc>
    <defs>
        <linearGradient x1="50.0013157%" y1="68.3636991%" x2="50.0013157%" y2="93.4642993%" id="linearGradient-1">
            <stop stop-color="#FFC400" offset="0%"></stop>
            <stop stop-color="#FFA400" offset="100%"></stop>
        </linearGradient>
        <linearGradient x1="50.0036485%" y1="29.6424584%" x2="50.0036485%" y2="90.1016604%" id="linearGradient-2">
            <stop stop-color="#FFD400" stop-opacity="0" offset="0%"></stop>
            <stop stop-color="#FFD400" offset="100%"></stop>
        </linearGradient>
    </defs>
    <g id="001" stroke="none" stroke-width="1" fill="none" fill-rule="evenodd">
        <g id="karldesigns.co.uk" fill-rule="nonzero">
            <g id="logos" transform="translate(-1.000000, -1.000000)">
                <g id="King" transform="translate(0.252978, 0.268764)">
                    <g id="king_portfolio" transform="translate(36.747022, 39.000000)">
                        <path d="M17.493691,47.5628221 C17.6507055,47.7068221 18.2707872,47.5001631 18.4387172,47.620548 C18.5869155,47.7272886 18.4364082,48.3082214 18.3715452,48.3195568 C4.51311952,50.7739591 10.3852128,35.8755218 5.94892129,25.7982507 C5.42915415,26.0349241 4.86322756,26.1529494 4.2921866,26.1437668 C1.97947522,26.1435569 0.104956268,24.2721866 0.104956268,21.5651545 C0.104956268,21.364688 0.105795918,21.2509155 0.105795918,21.2509155 C0.125737609,21.1086997 0.193959184,21.0844548 0.227965015,20.9475918 C0.522725898,19.7706745 1.31220522,18.7788117 2.39300292,18.2275452 C4.57661808,17.1754635 6.99271137,18.0819708 9.09057727,21.2158601 C12.8850612,26.8838134 12.4924198,42.9774926 17.493691,47.5626122 L17.493691,47.5628221 Z M71.9337727,20.335067 C71.9402797,20.3718017 71.994962,20.2972828 71.994962,20.4961749 C71.994962,22.8199067 70.7488163,24.9998484 68.0265657,24.9998484 C67.5897852,24.9989222 67.1568932,24.9177372 66.7494576,24.7603382 C62.6794635,35.7443266 69.995755,52.2840701 53.3559882,47.9602915 C35.4863439,43.3162915 26.0171895,46.9955336 26.0171895,46.9955336 C26.0171895,46.9955336 25.8131545,46.5547173 26.0171895,46.365376 C26.2187055,46.1785539 26.9486764,46.0521867 27.2262857,45.8693528 C29.868035,44.1297026 35.875417,42.6524432 43.5577959,42.8644549 C53.4974694,43.2213062 59.2212594,47.6375509 60.7334694,37.9504022 C60.8000818,37.5998484 60.8599068,37.2403031 60.9129446,36.8717668 C58.9009329,40.0068104 54.8471022,41.1182974 53.1424022,38.1041631 C52.7278251,37.3719882 52.4064491,36.4278018 52.183417,35.3560933 C51.1443498,37.5703557 49.3674402,40.0713587 46.6774111,39.9212712 C44.9704022,39.8264956 44.4117203,38.6342974 44.4740642,36.0756734 C44.5175159,34.2903675 44.6044199,30.8950321 44.6713819,29.1763731 C44.8600933,24.3542624 42.0161982,25.7037901 41.58021,29.0726764 C41.4057727,30.422414 41.2705889,37.6872771 41.5787406,39.9937959 C37.0627871,40.7081284 36.1343439,39.3391837 36.0832303,36.5113469 C33.5336325,43.3167114 29.2684199,43.0926299 28.0500875,38.5621923 C27.3223207,41.5975277 25.3684548,44.5721982 23.4406181,44.5721982 C20.328035,44.5721982 17.2561749,39.6942506 12.1858426,26.7378192 C12.1298925,26.4492879 12.1298925,26.1526946 12.1858426,25.8641633 C12.1963382,25.8106356 12.4636618,26.433656 12.5171895,26.4217959 C25.310309,23.5858776 37.7192886,16.5737493 38.0761399,10.2443615 C37.5119156,10.5681622 36.8910878,10.7813269 36.246962,10.8724198 C33.44379,11.2663207 30.8422391,9.25609329 30.4591487,6.45166181 C30.3951001,5.97989935 30.3783638,5.50291645 30.4091896,5.02782506 C30.4186355,4.92244897 30.4669155,4.96170262 30.4669155,4.96170262 C30.8094667,2.73728149 32.5629072,0.996484812 34.7897494,0.670040816 C37.5324664,0.299545188 40.1624605,2.53794752 41.0063089,6.21467055 C41.1278509,6.76892074 41.2061043,7.33178396 41.2403616,7.89816911 C41.2403616,14.5169213 36.1447347,23.0622507 19.6235685,29.6096325 C22.651137,34.9964081 24.7532012,38.988 26.4641983,38.3008513 C27.4504723,37.9044314 27.6986939,36.0233004 27.4442799,28.8322214 L32.539172,25.9303907 C32.0406299,34.2481749 33.5658542,37.1233469 34.9568395,36.1336092 C36.0714753,35.3406646 36.7232535,32.8696793 36.6986938,28.97979 C36.6380292,25.8581808 36.4100642,24.1402566 36.4100642,24.1402566 C39.6718952,20.9236618 41.2438251,21.2077784 41.2642915,25.2620292 C43.7612011,16.7437784 49.93221,18.6604898 49.5558369,26.4029038 C49.1803033,34.1411196 49.5939358,35.6264605 50.2577842,35.6264605 C51.1583089,35.6264605 52.4030904,34.0048863 52.3109388,32.3092129 C52.1457376,28.0068455 52.7504956,23.0153353 55.3242332,20.8219592 C58.9240233,17.755137 61.9259826,20.6062741 63.0472303,22.3024723 C63.0937259,22.1794635 63.1448395,22.0597085 63.194169,21.9387988 C65.6380757,16.4359417 68.7775277,16.5723848 70.6313701,18.0426122 C71.314255,18.6357874 71.7738359,19.4445902 71.9338775,20.3348572 L71.9337727,20.335067 Z M62.2518716,25.2386239 C61.9628221,24.2782741 60.1667055,22.310344 58.4192886,24.0274286 C56.4293177,25.9827638 56.2120583,31.96821 56.9979708,33.8316034 C57.7350786,35.5794402 60.4825188,35.3059243 61.2908922,33.1900059 C61.5012244,30.5222273 61.6767114,27.8741808 62.2518716,25.2387289 L62.2518716,25.2386239 Z" id="Extrude" fill="#EB8D00"></path>
                        <path d="M18.4387172,47.620758 C18.4484781,47.6514052 18.4364082,47.6780642 18.3715452,47.6895044 C4.51311952,50.1436967 10.1288047,35.3193587 6.07360933,25.1116268 C4.00539531,26.0877229 1.53665072,25.2222789 0.530601898,23.1684682 C-0.475446928,21.1146574 0.354029216,18.6335967 2.39300292,17.5978076 C4.57661808,16.545516 6.99271137,17.4519184 9.09057727,20.5859125 C13.1090379,26.5892012 12.4315452,44.2858775 18.4387172,47.620548 L18.4387172,47.620758 Z M71.9950671,20.4018192 C71.9981202,21.6954692 71.3689335,22.9090085 70.3099316,23.6520122 C69.2509297,24.3950158 67.8957146,24.5737478 66.6802915,24.1307055 C62.9272653,34.9118133 69.9958601,51.6541225 53.3560933,47.3300292 C35.4865539,42.6864491 26.0172945,46.3652712 26.0172945,46.3652712 C27.4006181,44.200548 34.2497494,41.9776793 43.5579008,42.2347173 C53.4975742,42.5909388 59.2213645,47.0077085 60.7335742,37.3206646 C60.8002566,36.9701107 60.8600817,36.6103907 60.9130495,36.2415044 C58.901038,39.3771779 54.847207,40.488245 53.1425074,37.4744258 C52.7279299,36.741831 52.4065539,35.7980642 52.1835218,34.7259358 C51.1444549,36.9405132 49.3675451,39.441621 46.6775159,39.2911137 C44.9705074,39.1964432 44.4119299,38.0045598 44.474169,35.4455159 C44.517621,33.6607347 44.6045247,30.2652945 44.6714868,28.5467405 C44.8601982,23.7245248 42.0163033,25.0740525 41.5803148,28.4428338 C41.4058775,29.7921516 41.4205716,37.1688978 41.5036967,39.3635336 C36.9878484,40.077866 36.2271254,38.8102041 36.1281516,35.6799882 C33.5785539,42.4849329 29.2687347,42.4622624 28.0502974,37.9323498 C27.3225306,40.9676852 25.3686647,43.9419358 23.440828,43.9419358 C20.3282449,43.9419358 17.2563848,38.8208048 12.1860525,25.8640583 C25.0953586,23.078309 37.7163498,15.9393936 38.0764549,9.55542856 C36.2879456,10.5785107 34.060553,10.4305193 32.4231175,9.17981208 C30.7856822,7.92910489 30.0569063,5.81911321 30.5734141,3.82444969 C31.0899217,1.82978616 32.7511826,0.338681949 34.7898542,0.0398833819 C37.5325716,-0.330612244 40.1625657,1.90779009 41.006414,5.58493295 C41.1617068,6.34622711 41.240118,7.12119773 41.2404664,7.89816911 C41.2406764,8.1381691 41.2335043,8.37816909 41.2189505,8.61816911 C40.7757203,14.0101924 36.1449446,22.4320933 19.6235685,28.9798952 C22.651137,34.3662506 24.7532012,38.3577376 26.4643032,37.6711137 C27.4504723,37.2746938 27.4660058,35.3772945 27.2115918,28.1862158 C29.0097913,26.9560138 30.9283456,25.9117227 32.9376911,25.0694344 C32.9376911,33.5114868 33.5658542,36.4932945 34.9568395,35.5039767 C36.0714753,34.7110321 36.1317203,32.2400465 36.1071605,28.3501574 C36.0466007,25.2281283 35.9113118,23.4675918 35.9113118,23.4675918 C39.1729329,20.2509971 41.3952771,20.3038951 41.4160583,24.3582507 C43.9129679,15.84 50.1584956,18.0308572 49.7821225,25.7733761 C49.406379,33.5114868 49.5939358,34.9964081 50.2577842,34.9964081 C51.1583089,34.9964081 51.919452,33.3748339 51.8271952,31.6795801 L51.828245,31.6795801 C51.6630439,27.3772128 52.7503908,22.3853878 55.3243383,20.1919067 C58.9239184,17.1252945 61.9258775,19.9767463 63.0470203,21.6728397 C63.0935159,21.5498309 63.1446299,21.429656 63.1939591,21.3086414 C65.637866,15.8057842 68.7773177,15.9424373 70.6311605,17.4126647 C71.4974849,18.1643015 71.9950219,19.2548773 71.9948572,20.4018192 L71.9950671,20.4018192 Z M62.2519767,24.4121983 C61.962927,23.4518484 60.1668104,21.6801866 58.4193937,23.3972711 C56.4294228,25.3526064 56.2121631,31.3384723 56.9980757,33.201866 C57.7351837,34.9493878 60.482624,34.6757668 61.2909971,32.5602683 C61.5013295,29.8924897 61.6768163,27.0476501 62.2519767,24.4123032 L62.2519767,24.4121983 Z" id="Base" fill="url(#linearGradient-1)"></path>
                        <path d="M52.0333295,31.5274985 C51.9063324,27.5019009 52.9107638,22.5247697 55.4605716,20.3517551 C56.479172,19.4842915 57.5215978,19.044 58.5588804,19.044 C60.4017026,19.044 61.9953587,20.4617493 62.8722683,21.7883965 L63.098659,22.1311837 L63.3883383,21.3884082 C65.0894694,17.5585539 66.9904373,16.7538542 68.2851779,16.7538542 C69.2581225,16.7538542 70.026927,17.2015977 70.5008048,17.5771312 C71.8654738,18.7645158 72.1887998,20.7564861 71.2697579,22.3145508 C70.3507159,23.8726155 68.4509216,24.5532531 66.7515568,23.9332828 L66.5517203,23.860863 L66.4818192,24.0613294 C65.9843266,25.4910437 65.6350321,27.1441049 65.4152535,29.1103557 C64.2095159,29.4136793 62.9641048,29.70021 61.7073587,29.963965 C61.8592303,28.1702624 62.0603266,26.2743324 62.4569561,24.4569096 L62.4685015,24.4036968 L62.452758,24.3516385 C62.2212244,23.5816793 61.2058775,22.4676735 59.9755801,22.4676735 C59.3718716,22.4676735 58.7990203,22.7300641 58.2724549,23.2474985 C56.6681982,24.8239417 56.2684199,28.6307055 56.3855509,30.9347055 C54.9672771,31.1563731 53.5052362,31.3552653 52.0332244,31.5273937 L52.0333295,31.5274985 Z M19.9748572,30.0348104 L19.3228688,28.8732594 L19.5462158,28.7846764 C38.0227173,21.4620875 40.7114868,12.2299242 41.0095627,8.60536443 C41.0703204,7.60934543 41.000527,6.60965763 40.8019591,5.63174343 C40.0576092,2.38859475 37.8793469,0.209912537 35.3814926,0.209912537 C35.1937918,0.20995771 35.0063047,0.22258074 34.8202915,0.247696793 C32.273257,0.621022536 30.4460122,2.89670092 30.6316901,5.46424482 C30.817368,8.03178873 32.9530297,10.0208802 35.5272771,10.0238484 C35.7582491,10.0236943 35.9889339,10.0075625 36.2176793,9.97556852 C36.8355776,9.88821962 37.4310815,9.68355524 37.9721284,9.37259476 L38.3075686,9.18115451 L38.2858425,9.56697376 C37.9045365,16.3243732 24.6377493,23.3361866 12.4710087,26.0167697 C13.0540408,27.5021108 13.6113586,28.8852244 14.1303673,30.1333645 C16.2509038,30.558962 18.4406064,30.9283033 20.647102,31.2317317 C20.4283032,30.8435337 20.2041866,30.4445246 19.9747522,30.0347055 L19.9748572,30.0348104 Z M8.91603498,20.7026239 C7.46480465,18.5347522 5.82013993,17.3888397 4.15973177,17.3888397 C3.57984901,17.3928784 3.00842467,17.5283064 2.48840816,17.7849446 C0.545911508,18.7655989 -0.246623128,21.1261484 0.710525618,23.0803343 C1.66767436,25.0345202 4.01849096,25.8554747 5.98408163,24.9219708 L6.18612244,24.8267755 L6.26872303,25.0342741 C6.7066626,26.1576168 7.04771896,27.3163587 7.28816325,28.4978309 C8.75020409,28.90779 10.2568513,29.2892011 11.7729446,29.6324081 C11.0900991,26.1625539 10.2641983,22.7168397 8.91603498,20.7027289 L8.91603498,20.7026239 Z M32.7280933,25.3838834 C30.874212,26.187234 29.0990978,27.1613331 27.4257026,28.293586 C27.4697842,29.5460292 27.5133411,30.8465424 27.5380058,31.9723033 C29.347452,32.1142041 31.1804081,32.2179008 32.9932129,32.2810845 C32.8207697,30.6329561 32.7339708,28.3702041 32.7280933,25.3838834 Z M41.2435103,32.3044897 C41.2571546,30.8351022 41.2905306,29.044548 41.3721867,28.4158601 C41.6058192,26.6101924 42.5512653,25.195277 43.5245247,25.195277 C43.7953542,25.1983355 44.0526712,25.3140635 44.234659,25.5146589 C44.7153587,26.0148805 44.9391254,27.0659125 44.8806646,28.5547172 C44.8502273,29.3376911 44.8126531,30.5484664 44.7687812,32.155242 C46.2903324,32.0691779 47.8398018,31.9522565 49.3809797,31.8067871 C49.3781458,30.4316502 49.4392303,28.5017143 49.572,25.7630904 C49.6926996,23.2831837 49.1190088,21.1865773 47.9984956,20.0099125 C47.4335159,19.4169096 46.7660992,19.1038251 46.0679299,19.1038251 C44.2561749,19.1038251 42.5924081,21.0902274 41.6170495,24.4172362 C41.6170495,24.4172362 41.5013878,24.6110904 41.3658893,24.585691 C41.2304956,24.5597668 41.2060409,24.3594052 41.2060409,24.3594052 C41.1990088,23.0025306 40.9296911,21.3847347 39.6852244,21.3847347 C38.8075801,21.3847347 37.5784373,22.132863 36.1275218,23.5497726 C36.1561749,23.9622507 36.2648048,25.6614927 36.317073,28.3490029 C36.3258893,29.7425074 36.3267288,31.1935277 36.2410845,32.3528746 C36.6609096,32.357073 37.0817142,32.3592771 37.5034985,32.3594868 C38.7199417,32.3594868 39.9773177,32.3410147 41.2430904,32.3045948 L41.2435103,32.3044897 Z" id="HappyShine" fill="url(#linearGradient-2)"></path>
                    </g>
                </g>
            </g>
        </g>
    </g>
</svg>