<?xml version="1.0" encoding="UTF-8"?>
<svg width="250px" height="184px" viewBox="0 0 250 184" version="1.1" xmlns="http://www.w3.org/2000/svg" xmlns:xlink="http://www.w3.org/1999/xlink">
    <!-- Generator: Sketch 48.2 (47327) - http://www.bohemiancoding.com/sketch -->
    <title>l&amp;g_portfolio</title>
    <desc>Created with Sketch.</desc>
    <defs></defs>
    <g id="Page-1" stroke="none" stroke-width="1" fill="none" fill-rule="evenodd">
        <g id="l&amp;g_portfolio" fill-rule="nonzero">
            <path d="M161.944444,9.62962963 C161.759259,9.72222222 161.666667,9.90740741 161.759259,10.1851852 C161.851852,10.3703704 162.037037,10.5555556 162.222222,10.462963 C162.314815,10.462963 166.944444,10 174.537037,11.3888889 C204.351852,16.9444444 220.925926,36.9444444 221.111111,37.2222222 C221.203704,37.3148148 221.388889,37.4074074 221.574074,37.4074074 C221.759259,37.4074074 221.851852,37.2222222 221.851852,37.037037 C221.851852,36.9444444 223.055556,30.5555556 228.981481,24.6296296 C234.907407,18.7037037 240.833333,16.9444444 240.925926,16.9444444 C241.111111,16.8518519 241.203704,16.7592593 241.203704,16.5740741 C241.203704,16.3888889 241.203704,16.2037037 241.018519,16.1111111 C240.833333,15.9259259 220.740741,1.75925926 198.055556,1.57407407 C176.759259,1.2962963 162.037037,9.53703704 161.944444,9.62962963" id="Shape" fill="#009349"></path>
            <path d="M160.833333,10.9259259 C160.648148,10.9259259 160.555556,11.0185185 160.462963,11.2037037 C160.37037,11.2962963 160.37037,11.4814815 160.462963,11.5740741 L172.407407,33.5185185 C174.444444,37.3148148 187.685185,59.3518519 187.777778,59.6296296 C187.87037,59.8148148 188.055556,59.8148148 188.240741,59.8148148 C188.425926,59.8148148 188.518519,59.7222222 188.611111,59.537037 C188.611111,59.537037 189.166667,58.1481481 191.481481,55.3703704 C203.240741,41.3888889 218.888889,42.1296296 219.074074,42.1296296 C219.259259,42.1296296 219.444444,42.037037 219.444444,41.9444444 C219.537037,41.7592593 219.537037,41.5740741 219.444444,41.4814815 C219.351852,41.3888889 210.277778,28.4259259 194.814815,20.1851852 C175,9.44444444 160.925926,10.9259259 160.833333,10.9259259" id="Shape" fill="#FBD022"></path>
            <path d="M159.166667,11.9444444 C159.074074,12.037037 157.777778,13.6111111 156.666667,15.7407407 C140.277778,45.462963 150.925926,74.7222222 151.018519,75 C151.111111,75.1851852 151.203704,75.2777778 151.388889,75.2777778 C151.574074,75.2777778 151.759259,75.1851852 151.851852,75.0925926 C151.851852,75.0925926 152.685185,73.5185185 155.37037,71.2037037 C167.5,60.462963 183.888889,62.037037 184.074074,62.037037 C184.259259,62.037037 184.351852,61.9444444 184.444444,61.8518519 C184.537037,61.7592593 184.537037,61.5740741 184.444444,61.3888889 L172.314815,37.6851852 C170.185185,33.5185185 160,12.2222222 159.907407,12.037037 C159.814815,11.9444444 159.722222,11.8518519 159.537037,11.7592593 C159.351852,11.7592593 159.259259,11.8518519 159.166667,11.9444444" id="Shape" fill="#00A4DB"></path>
            <path d="M157.685185,11.7592593 C157.5,11.8518519 140.648148,20.8333333 128.981481,40.8333333 C116.481481,62.2222222 119.166667,80.0925926 119.166667,80.2777778 C119.166667,80.462963 119.259259,80.5555556 119.444444,80.6481481 C119.62963,80.7407407 119.722222,80.6481481 119.907407,80.5555556 C120,80.462963 126.574074,74.8148148 137.87037,74.8148148 C144.444444,74.8148148 146.759259,76.2037037 146.851852,76.2037037 C147.037037,76.2962963 147.222222,76.2962963 147.314815,76.2037037 C147.407407,76.1111111 147.5,76.0185185 147.5,75.8333333 L147.5,75.6481481 C147.407407,75.462963 144.722222,67.3148148 144.722222,55.2777778 C144.722222,44.8148148 146.759259,31.5740741 154.444444,18.1481481 C156.203704,15.0925926 158.240741,12.5 158.333333,12.5 C158.425926,12.4074074 158.425926,12.3148148 158.425926,12.2222222 C158.425926,12.1296296 158.425926,12.037037 158.333333,11.9444444 C158.055556,11.6666667 157.87037,11.5740741 157.685185,11.7592593" id="Shape" fill="#D8242B"></path>
            <g id="Group" fill="#1A1A1A">
                <path d="M199.907407,131.481481 C196.018519,130.277778 190.555556,127.12963 185,123.055556 C186.018519,121.296296 187.037037,119.444444 187.777778,117.5 C189.537037,113.240741 190.37037,111.111111 194.259259,110.648148 L194.259259,108.796296 C192.12963,108.888889 189.907407,108.888889 187.592593,108.888889 C185.462963,108.888889 183.240741,108.888889 181.111111,108.796296 L181.111111,110.648148 C182.592593,111.018519 184.166667,111.111111 185.648148,111.574074 C185.648148,113.240741 184.722222,116.296296 183.888889,118.333333 C183.425926,119.351852 182.962963,120.185185 182.407407,121.111111 C177.314815,117.037037 172.5,112.314815 169.166667,107.592593 C173.888889,105.37037 179.444444,102.685185 179.444444,96.9444444 C179.444444,91.4814815 175.462963,88.6111111 169.907407,88.6111111 C163.796296,88.6111111 158.796296,93.0555556 158.796296,98.7962963 C158.796296,101.666667 159.62963,104.62963 161.111111,107.5 C155.648148,110.277778 151.944444,113.611111 151.944444,119.907407 C151.944444,129.074074 159.351852,133.611111 167.592593,133.611111 C173.518519,133.611111 178.055556,131.203704 181.574074,127.5 C187.777778,131.111111 194.259259,133.518519 199.444444,133.703704 L199.907407,131.481481 M169.259259,91.8518519 C172.5,91.8518519 173.611111,94.4444444 173.611111,97.4074074 C173.611111,101.203704 170.462963,103.240741 167.314815,104.62963 C165.740741,101.851852 164.814815,99.1666667 164.814815,96.7592593 C164.814815,94.3518519 166.666667,91.8518519 169.259259,91.8518519 M177.87037,126.203704 C175.740741,127.87037 172.592593,128.703704 170.092593,128.703704 C164.537037,128.703704 159.722222,124.444444 159.722222,118.055556 C159.722222,114.814815 161.018519,112.685185 163.148148,110.925926 C166.851852,116.388889 172.5,121.574074 178.611111,125.555556 C178.425926,125.833333 178.148148,126.018519 177.87037,126.203704" id="Shape"></path>
                <path d="M176.944444,162.314815 C176.481481,160.555556 175.648148,158.518519 173.518519,158.518519 C171.944444,158.518519 170,159.907407 168.796296,160.925926 L168.796296,175.833333 C168.796296,180.648148 170.925926,180 174.722222,180.462963 L174.722222,182.407407 C171.296296,182.407407 167.87037,182.222222 164.444444,182.222222 C161.851852,182.222222 159.351852,182.222222 156.851852,182.407407 L156.851852,180.462963 L160.925926,179.814815 L160.925926,161.759259 C160.925926,159.62963 160.740741,157.87037 158.055556,157.87037 C157.5,157.87037 157.037037,157.87037 156.481481,157.962963 L156.481481,156.111111 C158.425926,155.648148 160.462963,155.092593 162.407407,154.62963 C163.796296,154.259259 165.555556,153.611111 166.851852,153.611111 C168.796296,153.611111 168.796296,156.203704 168.796296,157.592593 L168.796296,158.240741 C170.648148,156.111111 173.703704,153.425926 176.666667,153.425926 C179.444444,153.425926 181.574074,154.907407 181.574074,157.87037 C181.574074,160.277778 179.259259,162.314815 176.944444,162.314815" id="Shape"></path>
                <path d="M120,182.222222 C117.314815,182.222222 114.62963,182.222222 111.944444,182.407407 L111.944444,180.462963 L115.925926,179.814815 L115.925926,165.648148 C115.925926,162.5 115.833333,158.425926 111.574074,158.425926 C109.444444,158.425926 106.203704,159.537037 104.351852,160.555556 L104.351852,176.851852 C104.351852,179.907407 105.462963,180.185185 108.240741,180.462963 L108.240741,182.407407 C105.462963,182.407407 102.777778,182.222222 100.092593,182.222222 C97.5,182.222222 95,182.222222 92.4074074,182.407407 L92.4074074,180.462963 L96.4814815,179.814815 L96.4814815,162.037037 C96.4814815,159.814815 96.4814815,157.777778 93.6111111,157.777778 C93.0555556,157.777778 92.5925926,157.777778 92.037037,157.87037 L92.037037,156.018519 C93.9814815,155.555556 96.0185185,155 97.962963,154.537037 C99.7222222,154.074074 101.296296,153.518519 102.407407,153.518519 C104.722222,153.518519 104.351852,156.481481 104.351852,158.055556 C107.5,156.203704 112.5,153.518519 116.203704,153.518519 C118.611111,153.518519 120.37037,154.074074 121.944444,155.925926 C123.888889,158.148148 123.703704,161.666667 123.703704,164.444444 L123.703704,176.759259 C123.703704,180.648148 125.740741,180 128.703704,180.462963 L128.703704,182.407407 C125.925926,182.314815 122.962963,182.222222 120,182.222222" id="Shape"></path>
                <path d="M36.0185185,132.314815 L0,132.314815 L0,130.37037 L6.66666667,129.166667 L6.66666667,96.2037037 C6.66666667,92.3148148 5.46296296,91.2962963 0.462962963,91.1111111 L0.462962963,89.2592593 L21.7592593,89.2592593 L21.7592593,91.1111111 L15.6481481,92.1296296 L15.6481481,125.185185 C15.6481481,128.796296 16.4814815,129.259259 21.7592593,129.259259 C30.1851852,129.259259 32.962963,128.518519 35,120.092593 L37.1296296,120.092593 L36.0185185,132.314815" id="Shape"></path>
                <path d="M62.4074074,163.888889 C59.4444444,163.888889 58.3333333,164.722222 58.3333333,167.777778 L58.3333333,180 C53.8888889,181.851852 48.6111111,183.240741 42.1296296,183.240741 C29.0740741,183.240741 20.462963,174.166667 20.462963,161.481481 C20.462963,148.981481 30.3703704,138.888889 43.1481481,138.888889 C49.4444444,138.888889 54.4444444,140.37037 58.1481481,141.759259 L58.0555556,152.592593 L56.2037037,152.592593 C55.5555556,149.259259 54.4444444,146.481481 52.3148148,144.537037 C50.2777778,142.777778 47.5925926,141.759259 44.3518519,141.759259 C33.1481481,141.666667 30.5555556,154.444444 30.5555556,161.759259 C30.5555556,169.259259 33.2407407,180.37037 43.0555556,180.37037 C48.3333333,180.37037 49.8148148,178.703704 49.8148148,173.148148 L49.8148148,164.62963 L44.4444444,163.888889 L44.4444444,161.759259 L63.2407407,161.759259 L63.2407407,163.888889 L62.4074074,163.888889 Z" id="Shape"></path>
                <path d="M202.777778,182.685185 C199.814815,182.685185 197.777778,182.12963 196.666667,179.074074 C194.62963,182.12963 190.648148,182.962963 187.777778,182.962963 C182.5,182.962963 177.592593,180.740741 177.592593,174.814815 C177.592593,165.462963 189.722222,165.37037 196.481481,165.37037 L196.481481,161.759259 C196.481481,158.240741 194.814815,156.851852 191.111111,156.851852 C188.703704,156.851852 186.018519,157.592593 183.796296,158.425926 L183.796296,154.907407 C186.944444,153.981481 190,153.425926 193.796296,153.425926 C196.481481,153.425926 200.277778,153.981481 202.222222,155.925926 C204.444444,158.055556 204.351852,160.648148 204.351852,163.425926 L204.351852,176.296296 C204.351852,178.518519 205,180.37037 207.314815,180.37037 C209.259259,180.37037 211.388889,180.185185 213.333333,180 L213.333333,147.5 C213.333333,145.185185 213.333333,143.240741 210.462963,143.240741 C210,143.240741 209.444444,143.240741 208.888889,143.333333 L208.888889,141.481481 C210.833333,141.018519 212.87037,140.462963 214.907407,140 C216.666667,139.537037 218.240741,138.981481 219.259259,138.981481 C221.574074,138.981481 221.203704,141.851852 221.203704,143.518519 L221.203704,176.851852 C221.203704,179.907407 222.962963,180.092593 227.685185,180.462963 L227.685185,182.407407 C219.351852,182.314815 211.203704,182.685185 202.777778,182.685185 Z M196.388889,168.148148 C192.12963,168.148148 186.111111,168.888889 186.111111,174.722222 C186.111111,177.685185 187.407407,179.537037 190.555556,179.537037 C193.055556,179.537037 195,177.777778 195.833333,175.740741 C196.388889,174.259259 196.481481,172.962963 196.481481,171.296296 L196.388889,168.148148 Z" id="Shape"></path>
                <path d="M120.277778,132.685185 C117.222222,132.685185 115.277778,132.12963 114.166667,129.074074 C112.12963,132.12963 108.148148,133.055556 105.185185,133.055556 C99.9074074,133.055556 94.9074074,130.740741 94.9074074,124.907407 C94.9074074,115.555556 107.12963,115.37037 113.796296,115.37037 L113.796296,111.759259 C113.796296,108.240741 112.12963,106.944444 108.425926,106.944444 C106.018519,106.944444 103.333333,107.685185 101.111111,108.425926 L101.111111,104.907407 C104.259259,104.074074 107.222222,103.425926 111.203704,103.425926 C113.796296,103.425926 117.592593,103.981481 119.62963,105.925926 C121.759259,108.055556 121.666667,110.648148 121.666667,113.518519 L121.666667,126.388889 C121.666667,128.703704 122.314815,130.462963 124.62963,130.462963 C126.574074,130.462963 128.703704,130.277778 130.648148,130 L130.648148,97.5 C130.648148,95.1851852 130.555556,93.2407407 127.777778,93.2407407 C127.222222,93.2407407 126.759259,93.3333333 126.203704,93.4259259 L126.203704,91.4814815 C128.148148,91.0185185 130.185185,90.462963 132.12963,90 C133.888889,89.537037 135.462963,88.9814815 136.574074,88.9814815 C138.796296,88.9814815 138.518519,91.9444444 138.518519,93.5185185 L138.518519,126.851852 C138.518519,129.907407 140.277778,130.092593 145.092593,130.462963 L145.092593,132.314815 C136.759259,132.314815 128.611111,132.685185 120.277778,132.685185 Z M113.888889,118.148148 C109.62963,118.148148 103.518519,118.888889 103.518519,124.722222 C103.518519,127.685185 104.814815,129.537037 107.87037,129.537037 C110.462963,129.537037 112.407407,127.685185 113.148148,125.740741 C113.703704,124.259259 113.888889,122.962963 113.888889,121.296296 L113.888889,118.148148 Z" id="Shape"></path>
                <path d="M155.37037,167.5 L136.296296,167.777778 C136.481481,174.814815 139.444444,179.351852 146.944444,179.351852 C148.981481,179.351852 151.388889,178.888889 153.148148,178.333333 L153.148148,180.833333 C149.907407,182.314815 147.037037,182.87037 143.333333,182.87037 C134.444444,182.87037 127.592593,177.037037 127.592593,167.962963 C127.592593,158.981481 134.351852,153.425926 143.055556,153.425926 C150,153.425926 155.555556,158.240741 155.555556,165.277778 C155.462963,166.018519 155.462963,166.851852 155.37037,167.5 M142.777778,156.296296 C138.333333,156.296296 136.574074,161.481481 136.388889,165.277778 L143.981481,164.537037 C146.018519,164.351852 147.222222,164.074074 147.222222,161.759259 C147.222222,158.981481 145.648148,156.296296 142.777778,156.296296" id="Shape"></path>
                <path d="M97.5925926,106.296296 C96.2962963,105.277778 94.8148148,104.537037 93.1481481,104.537037 C91.8518519,104.537037 91.2037037,105.833333 90.8333333,106.851852 C92.6851852,108.333333 93.7962963,111.111111 93.7962963,113.425926 C93.7962963,120.277778 88.2407407,124.259259 81.6666667,124.259259 C80.2777778,124.259259 78.9814815,124.259259 77.6851852,123.888889 C76.9444444,124.814815 75.9259259,125.648148 74.8148148,126.111111 C74.9074074,127.5 76.4814815,127.592593 77.5,127.592593 C79.7222222,127.592593 82.037037,127.407407 84.2592593,127.407407 C89.2592593,127.407407 94.8148148,128.888889 94.8148148,134.907407 C94.8148148,143.333333 86.3888889,146.759259 79.1666667,146.759259 C74.1666667,146.759259 66.2037037,144.444444 66.2037037,138.240741 C66.2037037,135.37037 68.5185185,133.518519 70.8333333,132.407407 C68.8888889,131.203704 68.2407407,128.981481 68.2407407,126.851852 C68.2407407,126.481481 68.2407407,126.111111 68.3333333,125.740741 C70.2777778,125.462963 73.8888889,124.537037 75.1851852,123.055556 C71.2962963,121.574074 69.0740741,118.518519 69.0740741,114.259259 C69.0740741,107.12963 75.2777778,103.611111 81.7592593,103.611111 C84.1666667,103.611111 87.037037,104.166667 89.0740741,105.555556 C89.8148148,102.592593 92.1296296,100.462963 95.2777778,100.462963 C96.5740741,100.462963 99.2592593,100.833333 99.2592593,102.592593 C99.2592593,103.888889 98.4259259,105.185185 97.5925926,106.296296 M81.2037037,106.481481 C77.7777778,106.481481 76.2962963,109.259259 76.2962963,112.87037 C76.2962963,117.12963 77.4074074,121.296296 81.5740741,121.296296 C85,121.296296 86.3888889,118.611111 86.3888889,114.907407 C86.4814815,111.018519 85.3703704,106.481481 81.2037037,106.481481 M83.3333333,133.703704 C80.8333333,133.703704 79.7222222,133.981481 77.2222222,133.981481 C75.6481481,133.981481 74.0740741,133.796296 72.962963,133.425926 C72.1296296,134.074074 71.3888889,135.462963 71.3888889,136.481481 C71.3888889,140.37037 75.1851852,141.851852 80.6481481,141.851852 C86.8518519,141.851852 90.5555556,139.907407 90.5555556,136.851852 C90.5555556,133.611111 86.0185185,133.703704 83.3333333,133.703704" id="Shape"></path>
                <path d="M66.3888889,117.777778 L47.2222222,118.055556 C47.4074074,125 50.3703704,129.62963 57.962963,129.62963 C60,129.62963 62.4074074,129.166667 64.1666667,128.611111 L64.1666667,131.018519 C60.9259259,132.5 58.0555556,133.148148 54.4444444,133.148148 C45.5555556,133.148148 38.7037037,127.314815 38.7037037,118.240741 C38.7037037,109.166667 45.3703704,103.611111 54.0740741,103.611111 C61.1111111,103.611111 66.5740741,108.425926 66.5740741,115.462963 C66.4814815,116.388889 66.3888889,117.12963 66.3888889,117.777778 M53.7037037,106.481481 C49.2592593,106.481481 47.5,111.759259 47.3148148,115.462963 L55,114.722222 C56.9444444,114.537037 58.2407407,114.166667 58.2407407,111.944444 C58.1481481,109.259259 56.6666667,106.481481 53.7037037,106.481481" id="Shape"></path>
                <path d="M91.7592593,167.5 L72.5925926,167.777778 C72.7777778,174.814815 75.7407407,179.351852 83.3333333,179.351852 C85.3703704,179.351852 87.6851852,178.888889 89.4444444,178.333333 L89.4444444,180.833333 C86.2037037,182.314815 83.4259259,182.87037 79.7222222,182.87037 C70.8333333,182.87037 63.9814815,177.037037 63.9814815,167.962963 C63.9814815,158.981481 70.6481481,153.425926 79.3518519,153.425926 C86.3888889,153.425926 91.7592593,158.240741 91.7592593,165.277778 C91.8518519,166.018519 91.7592593,166.851852 91.7592593,167.5 M79.0740741,156.296296 C74.6296296,156.296296 72.8703704,161.481481 72.6851852,165.277778 L80.2777778,164.537037 C82.2222222,164.351852 83.5185185,164.074074 83.5185185,161.759259 C83.5185185,158.981481 81.9444444,156.296296 79.0740741,156.296296" id="Shape"></path>
                <path d="M230.462963,106.666667 C230.462963,106.666667 229.62963,106.203704 228.055556,107.12963 C226.666667,107.962963 226.851852,108.888889 226.851852,108.888889 C226.851852,108.888889 226.944444,108.981481 226.944444,109.074074 C227.314815,109.722222 228.981481,112.592593 229.62963,114.166667 C230.37037,115.833333 230.555556,118.055556 227.962963,119.814815 C226.574074,120.740741 223.981481,121.388889 221.851852,120.37037 C221.388889,120.185185 220.648148,119.62963 220,118.703704 C219.074074,117.5 208.333333,97.4074074 208.333333,97.4074074 L190.37037,64.2592593 C190.37037,64.2592593 189.907407,63.4259259 190,63.0555556 C190.092593,62.4074074 190.277778,62.1296296 190.462963,61.8518519 C202.12963,43.0555556 223.796296,45.0925926 223.796296,45.0925926 C223.796296,45.0925926 223.703704,42.6851852 224.351852,39.3518519 C227.962963,21.1111111 249.907407,17.1296296 249.907407,17.1296296 C249.907407,17.1296296 241.296296,10.1851852 228.055556,5.46296296 C218.425926,2.03703704 210.555556,0.185185185 198.518519,0.185185185 C184.351852,0.185185185 171.851852,4.44444444 170.37037,4.90740741 C166.388889,6.11111111 160.555556,9.16666667 160.555556,9.16666667 L155.185185,0.833333333 C155.185185,0.833333333 155,0.740740741 154.62963,0.925925926 C154.259259,1.11111111 154.259259,1.38888889 154.259259,1.38888889 L157.777778,10.5555556 C157.777778,10.5555556 156.481481,11.2037037 154.907407,12.1296296 C152.037037,13.8888889 147.314815,16.7592593 139.907407,23.7962963 C135.462963,28.0555556 129.074074,35.9259259 124.166667,44.9074074 C112.685185,65.9259259 115.37037,87.1296296 115.37037,87.1296296 C115.37037,87.1296296 124.351852,77.5925926 137.87037,77.7777778 C146.296296,77.8703704 151.203704,80.462963 151.203704,80.462963 C151.203704,80.462963 153.148148,76.9444444 156.944444,73.6111111 C163.888889,67.5 174.444444,64.9074074 182.314815,64.9074074 C184.074074,64.9074074 185,65 185.555556,65.1851852 C186.018519,65.3703704 186.388889,65.7407407 186.388889,65.7407407 L215.925926,120 C215.925926,120 218.240741,125.37037 224.814815,125.092593 C231.203704,124.814815 234.444444,120.462963 234.444444,116.111111 C234.444444,112.5 231.203704,107.87037 230.555556,106.851852 L230.462963,106.666667 M197.962963,1.94444444 C220.833333,2.12962963 240.740741,16.3888889 240.740741,16.3888889 C240.740741,16.3888889 234.722222,18.1481481 228.611111,24.2592593 C222.5,30.3703704 221.388889,36.9444444 221.388889,36.9444444 C221.388889,36.9444444 204.907407,16.6666667 174.537037,11.0185185 C166.759259,9.53703704 162.12963,10.0925926 162.12963,10.0925926 C162.12963,10.0925926 176.574074,1.75925926 197.962963,1.94444444 M137.777778,74.2592593 C126.111111,74.2592593 119.537037,80.0925926 119.537037,80.0925926 C119.537037,80.0925926 116.759259,62.5 129.351852,40.9259259 C141.111111,20.7407407 157.87037,12.037037 157.87037,12.037037 C157.87037,12.037037 155.740741,14.6296296 153.981481,17.7777778 C137.12963,47.1296296 146.944444,75.6481481 146.944444,75.6481481 C146.944444,75.6481481 144.537037,74.2592593 137.777778,74.2592593 M155,70.8333333 C152.314815,73.2407407 151.388889,74.8148148 151.388889,74.8148148 C151.388889,74.8148148 140.555556,45.8333333 157.037037,15.9259259 C158.148148,13.8888889 159.537037,12.2222222 159.537037,12.2222222 C159.537037,12.2222222 169.814815,33.7037037 171.944444,37.8703704 C174.074074,42.1296296 184.074074,61.5740741 184.074074,61.5740741 C184.074074,61.5740741 167.407407,59.8148148 155,70.8333333 M172.777778,33.3333333 C171.851852,31.6666667 160.833333,11.3888889 160.833333,11.3888889 C160.833333,11.3888889 174.722222,9.72222222 194.62963,20.5555556 C210.092593,28.8888889 219.074074,41.7592593 219.074074,41.7592593 C219.074074,41.7592593 203.148148,40.8333333 191.111111,55.1851852 C188.703704,58.0555556 188.148148,59.4444444 188.148148,59.4444444 C188.148148,59.4444444 174.907407,37.1296296 172.777778,33.3333333" id="Shape"></path>
            </g>
        </g>
    </g>
</svg>