<?xml version="1.0" encoding="UTF-8"?>
<svg width="200px" height="147px" viewBox="0 0 200 147" version="1.1" xmlns="http://www.w3.org/2000/svg" xmlns:xlink="http://www.w3.org/1999/xlink">
    <!-- Generator: Sketch 48.1 (47250) - http://www.bohemiancoding.com/sketch -->
    <title>l&amp;g_portfolio</title>
    <desc>Created with Sketch.</desc>
    <defs></defs>
    <g id="Page-1" stroke="none" stroke-width="1" fill="none" fill-rule="evenodd">
        <g id="l&amp;g_portfolio" fill-rule="nonzero">
            <path d="M129.555556,7.7037037 C129.407407,7.77777778 129.333333,7.92592592 129.407407,8.14814814 C129.481481,8.2962963 129.62963,8.44444445 129.777778,8.37037037 C129.851852,8.37037037 133.555556,8 139.62963,9.1111111 C163.481482,13.5555556 176.740741,29.5555555 176.88889,29.7777778 C176.962963,29.8518518 177.11111,29.9259259 177.259259,29.9259259 C177.407408,29.9259259 177.481482,29.7777778 177.481482,29.6296296 C177.481482,29.5555555 178.444445,24.4444445 183.185186,19.7037037 C187.925926,14.962963 192.666667,13.5555556 192.740741,13.5555556 C192.88889,13.4814815 192.962963,13.4074074 192.962963,13.2592593 C192.962963,13.1111111 192.962963,12.962963 192.814814,12.8888889 C192.666667,12.7407407 176.592592,1.40740741 158.444444,1.25925926 C141.407407,1.03703704 129.62963,7.62962963 129.555556,7.7037037" id="Shape" fill="#009349"></path>
            <path d="M128.666667,8.74074074 C128.518519,8.74074074 128.444444,8.81481482 128.37037,8.96296296 C128.296296,9.03703704 128.296296,9.18518518 128.37037,9.25925926 L137.925926,26.8148149 C139.555556,29.8518518 150.148148,47.4814814 150.222222,47.7037037 C150.296296,47.8518518 150.444444,47.8518518 150.592593,47.8518518 C150.740741,47.8518518 150.814815,47.7777778 150.888889,47.6296296 C150.888889,47.6296296 151.333333,46.5185186 153.185185,44.2962963 C162.592592,33.111111 175.11111,33.7037037 175.259259,33.7037037 C175.407408,33.7037037 175.555555,33.6296296 175.555555,33.5555555 C175.62963,33.4074074 175.62963,33.2592592 175.555555,33.1851851 C175.481482,33.111111 168.222222,22.7407408 155.851852,16.1481482 C140,7.55555555 128.740741,8.74074074 128.666667,8.74074074" id="Shape" fill="#FBD022"></path>
            <path d="M127.333333,9.55555555 C127.259259,9.62962963 126.222222,10.8888889 125.333333,12.5925926 C112.222222,36.3703704 120.740741,59.7777778 120.814815,60 C120.888889,60.1481482 120.962963,60.2222222 121.111111,60.2222222 C121.259259,60.2222222 121.407407,60.1481482 121.481481,60.0740741 C121.481481,60.0740741 122.148148,58.8148149 124.296296,56.962963 C134,48.3703704 147.111111,49.6296296 147.259259,49.6296296 C147.407407,49.6296296 147.481481,49.5555555 147.555556,49.4814814 C147.62963,49.4074074 147.62963,49.2592592 147.555556,49.111111 L137.851852,30.1481482 C136.148148,26.8148149 128,9.77777778 127.925926,9.62962963 C127.851852,9.55555555 127.777778,9.48148149 127.62963,9.40740741 C127.481481,9.40740741 127.407407,9.48148149 127.333333,9.55555555" id="Shape" fill="#00A4DB"></path>
            <path d="M126.148148,9.40740741 C126,9.48148149 112.518519,16.6666667 103.185185,32.6666667 C93.1851851,49.7777778 95.3333333,64.0740741 95.3333333,64.2222222 C95.3333333,64.3703704 95.4074074,64.4444445 95.5555555,64.5185186 C95.7037037,64.5925926 95.7777778,64.5185186 95.9259259,64.4444445 C96,64.3703704 101.259259,59.8518518 110.296296,59.8518518 C115.555556,59.8518518 117.407407,60.962963 117.481481,60.962963 C117.62963,61.037037 117.777778,61.037037 117.851852,60.962963 C117.925926,60.888889 118,60.8148149 118,60.6666667 L118,60.5185186 C117.925926,60.3703704 115.777778,53.8518518 115.777778,44.2222222 C115.777778,35.8518518 117.407407,25.2592592 123.555556,14.5185185 C124.962963,12.0740741 126.592593,10 126.666667,10 C126.740741,9.92592592 126.740741,9.85185186 126.740741,9.77777778 C126.740741,9.7037037 126.740741,9.62962963 126.666667,9.55555555 C126.444444,9.33333333 126.296296,9.25925926 126.148148,9.40740741" id="Shape" fill="#D8242B"></path>
            <g id="Group" fill="#1A1A1A">
                <path d="M159.925926,105.185185 C156.814815,104.222222 152.444444,101.703704 148,98.4444445 C148.814815,97.037037 149.62963,95.5555555 150.222222,94 C151.62963,90.5925926 152.296296,88.888889 155.407407,88.5185186 L155.407407,87.037037 C153.703704,87.111111 151.925926,87.111111 150.074074,87.111111 C148.37037,87.111111 146.592593,87.111111 144.888889,87.037037 L144.888889,88.5185186 C146.074074,88.8148149 147.333333,88.888889 148.518519,89.2592592 C148.518519,90.5925926 147.777778,93.037037 147.111111,94.6666667 C146.740741,95.4814814 146.37037,96.1481482 145.925926,96.888889 C141.851852,93.6296296 138,89.8518518 135.333333,86.0740741 C139.111111,84.2962963 143.555556,82.1481482 143.555556,77.5555555 C143.555556,73.1851851 140.37037,70.888889 135.925926,70.888889 C131.037037,70.888889 127.037037,74.4444445 127.037037,79.037037 C127.037037,81.3333333 127.703704,83.7037037 128.888889,86 C124.518519,88.2222222 121.555556,90.888889 121.555556,95.9259259 C121.555556,103.259259 127.481481,106.888889 134.074074,106.888889 C138.814815,106.888889 142.444444,104.962963 145.259259,102 C150.222222,104.888889 155.407407,106.814815 159.555556,106.962963 L159.925926,105.185185 M135.407407,73.4814814 C138,73.4814814 138.888889,75.5555555 138.888889,77.9259259 C138.888889,80.962963 136.37037,82.5925926 133.851852,83.7037037 C132.592593,81.4814814 131.851852,79.3333333 131.851852,77.4074074 C131.851852,75.4814814 133.333333,73.4814814 135.407407,73.4814814 M142.296296,100.962963 C140.592593,102.296296 138.074074,102.962963 136.074074,102.962963 C131.62963,102.962963 127.777778,99.5555555 127.777778,94.4444445 C127.777778,91.8518518 128.814815,90.1481482 130.518519,88.7407408 C133.481481,93.111111 138,97.2592592 142.888889,100.444444 C142.740741,100.666667 142.518519,100.814815 142.296296,100.962963" id="Shape"></path>
                <path d="M141.555556,129.851852 C141.185185,128.444444 140.518519,126.814815 138.814815,126.814815 C137.555556,126.814815 136,127.925926 135.037037,128.740741 L135.037037,140.666667 C135.037037,144.518519 136.740741,144 139.777778,144.37037 L139.777778,145.925926 C137.037037,145.925926 134.296296,145.777778 131.555556,145.777778 C129.481481,145.777778 127.481481,145.777778 125.481481,145.925926 L125.481481,144.37037 L128.740741,143.851852 L128.740741,129.407407 C128.740741,127.703704 128.592593,126.296296 126.444444,126.296296 C126,126.296296 125.62963,126.296296 125.185185,126.37037 L125.185185,124.888889 C126.740741,124.518519 128.37037,124.074074 129.925926,123.703704 C131.037037,123.407407 132.444444,122.888889 133.481481,122.888889 C135.037037,122.888889 135.037037,124.962963 135.037037,126.074074 L135.037037,126.592593 C136.518519,124.888889 138.962963,122.740741 141.333333,122.740741 C143.555556,122.740741 145.259259,123.925926 145.259259,126.296296 C145.259259,128.222222 143.407407,129.851852 141.555556,129.851852" id="Shape"></path>
                <path d="M96,145.777778 C93.8518518,145.777778 91.7037037,145.777778 89.5555555,145.925926 L89.5555555,144.37037 L92.7407408,143.851852 L92.7407408,132.518519 C92.7407408,130 92.6666667,126.740741 89.2592592,126.740741 C87.5555555,126.740741 84.962963,127.62963 83.4814814,128.444444 L83.4814814,141.481481 C83.4814814,143.925926 84.3703704,144.148148 86.5925926,144.37037 L86.5925926,145.925926 C84.3703704,145.925926 82.2222222,145.777778 80.0740741,145.777778 C78,145.777778 76,145.777778 73.9259259,145.925926 L73.9259259,144.37037 L77.1851851,143.851852 L77.1851851,129.62963 C77.1851851,127.851852 77.1851851,126.222222 74.888889,126.222222 C74.4444445,126.222222 74.0740741,126.222222 73.6296296,126.296296 L73.6296296,124.814815 C75.1851851,124.444444 76.8148149,124 78.3703704,123.62963 C79.7777778,123.259259 81.037037,122.814815 81.9259259,122.814815 C83.7777778,122.814815 83.4814814,125.185185 83.4814814,126.444444 C86,124.962963 90,122.814815 92.962963,122.814815 C94.888889,122.814815 96.2962963,123.259259 97.5555555,124.740741 C99.111111,126.518519 98.962963,129.333333 98.962963,131.555556 L98.962963,141.407407 C98.962963,144.518519 100.592593,144 102.962963,144.37037 L102.962963,145.925926 C100.740741,145.851852 98.3703704,145.777778 96,145.777778" id="Shape"></path>
                <path d="M28.8148149,105.851852 L0,105.851852 L0,104.296296 L5.33333333,103.333333 L5.33333333,76.962963 C5.33333333,73.8518518 4.37037037,73.037037 0.37037037,72.888889 L0.37037037,71.4074074 L17.4074074,71.4074074 L17.4074074,72.888889 L12.5185185,73.7037037 L12.5185185,100.148148 C12.5185185,103.037037 13.1851852,103.407407 17.4074074,103.407407 C24.1481482,103.407407 26.3703704,102.814815 28,96.0740741 L29.7037037,96.0740741 L28.8148149,105.851852" id="Shape"></path>
                <path d="M49.9259259,131.111111 C47.5555555,131.111111 46.6666667,131.777778 46.6666667,134.222222 L46.6666667,144 C43.111111,145.481481 38.888889,146.592593 33.7037037,146.592593 C23.2592592,146.592593 16.3703704,139.333333 16.3703704,129.185185 C16.3703704,119.185185 24.2962963,111.111111 34.5185186,111.111111 C39.5555555,111.111111 43.5555555,112.296296 46.5185186,113.407407 L46.4444445,122.074074 L44.962963,122.074074 C44.4444445,119.407407 43.5555555,117.185185 41.8518518,115.62963 C40.2222222,114.222222 38.0740741,113.407407 35.4814814,113.407407 C26.5185186,113.333333 24.4444445,123.555556 24.4444445,129.407407 C24.4444445,135.407407 26.5925926,144.296296 34.4444445,144.296296 C38.6666667,144.296296 39.8518518,142.962963 39.8518518,138.518519 L39.8518518,131.703704 L35.5555555,131.111111 L35.5555555,129.407407 L50.5925926,129.407407 L50.5925926,131.111111 L49.9259259,131.111111 Z" id="Shape"></path>
                <path d="M162.222222,146.148148 C159.851852,146.148148 158.222222,145.703704 157.333333,143.259259 C155.703704,145.703704 152.518519,146.37037 150.222222,146.37037 C146,146.37037 142.074074,144.592593 142.074074,139.851852 C142.074074,132.37037 151.777778,132.296296 157.185185,132.296296 L157.185185,129.407407 C157.185185,126.592593 155.851852,125.481481 152.888889,125.481481 C150.962963,125.481481 148.814815,126.074074 147.037037,126.740741 L147.037037,123.925926 C149.555556,123.185185 152,122.740741 155.037037,122.740741 C157.185185,122.740741 160.222222,123.185185 161.777778,124.740741 C163.555555,126.444444 163.481482,128.518519 163.481482,130.740741 L163.481482,141.037037 C163.481482,142.814815 164,144.296296 165.851851,144.296296 C167.407408,144.296296 169.11111,144.148148 170.666667,144 L170.666667,118 C170.666667,116.148148 170.666667,114.592593 168.37037,114.592593 C168,114.592593 167.555555,114.592593 167.11111,114.666667 L167.11111,113.185185 C168.666667,112.814815 170.296296,112.37037 171.925926,112 C173.333333,111.62963 174.592592,111.185185 175.407408,111.185185 C177.259259,111.185185 176.962963,113.481481 176.962963,114.814815 L176.962963,141.481481 C176.962963,143.925926 178.37037,144.074074 182.148149,144.37037 L182.148149,145.925926 C175.481482,145.851852 168.962963,146.148148 162.222222,146.148148 Z M157.111111,134.518519 C153.703704,134.518519 148.888889,135.111111 148.888889,139.777778 C148.888889,142.148148 149.925926,143.62963 152.444444,143.62963 C154.444444,143.62963 156,142.222222 156.666667,140.592593 C157.111111,139.407407 157.185185,138.37037 157.185185,137.037037 L157.111111,134.518519 Z" id="Shape"></path>
                <path d="M96.2222222,106.148148 C93.7777778,106.148148 92.2222222,105.703704 91.3333333,103.259259 C89.7037037,105.703704 86.5185186,106.444444 84.1481482,106.444444 C79.9259259,106.444444 75.9259259,104.592593 75.9259259,99.9259259 C75.9259259,92.4444445 85.7037037,92.2962963 91.037037,92.2962963 L91.037037,89.4074074 C91.037037,86.5925926 89.7037037,85.5555555 86.7407408,85.5555555 C84.8148149,85.5555555 82.6666667,86.1481482 80.888889,86.7407408 L80.888889,83.9259259 C83.4074074,83.2592592 85.7777778,82.7407408 88.962963,82.7407408 C91.037037,82.7407408 94.0740741,83.1851851 95.7037037,84.7407408 C97.4074074,86.4444445 97.3333333,88.5185186 97.3333333,90.8148149 L97.3333333,101.111111 C97.3333333,102.962963 97.8518518,104.37037 99.7037037,104.37037 C101.259259,104.37037 102.962963,104.222222 104.518519,104 L104.518519,78 C104.518519,76.1481482 104.444444,74.5925926 102.222222,74.5925926 C101.777778,74.5925926 101.407407,74.6666667 100.962963,74.7407408 L100.962963,73.1851851 C102.518519,72.8148149 104.148148,72.3703704 105.703704,72 C107.111111,71.6296296 108.37037,71.1851851 109.259259,71.1851851 C111.037037,71.1851851 110.814815,73.5555555 110.814815,74.8148149 L110.814815,101.481481 C110.814815,103.925926 112.222222,104.074074 116.074074,104.37037 L116.074074,105.851852 C109.407407,105.851852 102.888889,106.148148 96.2222222,106.148148 Z M91.111111,94.5185186 C87.7037037,94.5185186 82.8148149,95.111111 82.8148149,99.7777778 C82.8148149,102.148148 83.8518518,103.62963 86.2962963,103.62963 C88.3703704,103.62963 89.9259259,102.148148 90.5185186,100.592593 C90.962963,99.4074074 91.111111,98.3703704 91.111111,97.037037 L91.111111,94.5185186 Z" id="Shape"></path>
                <path d="M124.296296,134 L109.037037,134.222222 C109.185185,139.851852 111.555556,143.481481 117.555556,143.481481 C119.185185,143.481481 121.111111,143.111111 122.518519,142.666667 L122.518519,144.666667 C119.925926,145.851852 117.62963,146.296296 114.666667,146.296296 C107.555556,146.296296 102.074074,141.62963 102.074074,134.37037 C102.074074,127.185185 107.481481,122.740741 114.444444,122.740741 C120,122.740741 124.444444,126.592593 124.444444,132.222222 C124.37037,132.814815 124.37037,133.481481 124.296296,134 M114.222222,125.037037 C110.666667,125.037037 109.259259,129.185185 109.111111,132.222222 L115.185185,131.62963 C116.814815,131.481481 117.777778,131.259259 117.777778,129.407407 C117.777778,127.185185 116.518519,125.037037 114.222222,125.037037" id="Shape"></path>
                <path d="M78.0740741,85.037037 C77.037037,84.2222222 75.8518518,83.6296296 74.5185186,83.6296296 C73.4814814,83.6296296 72.962963,84.6666667 72.6666667,85.4814814 C74.1481482,86.6666667 75.037037,88.888889 75.037037,90.7407408 C75.037037,96.2222222 70.5925926,99.4074074 65.3333333,99.4074074 C64.2222222,99.4074074 63.1851851,99.4074074 62.1481482,99.111111 C61.5555555,99.8518518 60.7407408,100.518519 59.8518518,100.888889 C59.9259259,102 61.1851851,102.074074 62,102.074074 C63.7777778,102.074074 65.6296296,101.925926 67.4074074,101.925926 C71.4074074,101.925926 75.8518518,103.111111 75.8518518,107.925926 C75.8518518,114.666667 69.111111,117.407407 63.3333333,117.407407 C59.3333333,117.407407 52.962963,115.555556 52.962963,110.592593 C52.962963,108.296296 54.8148149,106.814815 56.6666667,105.925926 C55.111111,104.962963 54.5925926,103.185185 54.5925926,101.481481 C54.5925926,101.185185 54.5925926,100.888889 54.6666667,100.592593 C56.2222222,100.37037 59.111111,99.6296296 60.1481482,98.4444445 C57.037037,97.2592592 55.2592592,94.8148149 55.2592592,91.4074074 C55.2592592,85.7037037 60.2222222,82.888889 65.4074074,82.888889 C67.3333333,82.888889 69.6296296,83.3333333 71.2592592,84.4444445 C71.8518518,82.0740741 73.7037037,80.3703704 76.2222222,80.3703704 C77.2592592,80.3703704 79.4074074,80.6666667 79.4074074,82.0740741 C79.4074074,83.111111 78.7407408,84.1481482 78.0740741,85.037037 M64.962963,85.1851851 C62.2222222,85.1851851 61.037037,87.4074074 61.037037,90.2962963 C61.037037,93.7037037 61.9259259,97.037037 65.2592592,97.037037 C68,97.037037 69.111111,94.888889 69.111111,91.9259259 C69.1851851,88.8148149 68.2962963,85.1851851 64.962963,85.1851851 M66.6666667,106.962963 C64.6666667,106.962963 63.7777778,107.185185 61.7777778,107.185185 C60.5185186,107.185185 59.2592592,107.037037 58.3703704,106.740741 C57.7037037,107.259259 57.111111,108.37037 57.111111,109.185185 C57.111111,112.296296 60.1481482,113.481481 64.5185186,113.481481 C69.4814814,113.481481 72.4444445,111.925926 72.4444445,109.481481 C72.4444445,106.888889 68.8148149,106.962963 66.6666667,106.962963" id="Shape"></path>
                <path d="M53.111111,94.2222222 L37.7777778,94.4444445 C37.9259259,100 40.2962963,103.703704 46.3703704,103.703704 C48,103.703704 49.9259259,103.333333 51.3333333,102.888889 L51.3333333,104.814815 C48.7407408,106 46.4444445,106.518519 43.5555555,106.518519 C36.4444445,106.518519 30.962963,101.851852 30.962963,94.5925926 C30.962963,87.3333333 36.2962963,82.888889 43.2592592,82.888889 C48.888889,82.888889 53.2592592,86.7407408 53.2592592,92.3703704 C53.1851851,93.111111 53.111111,93.7037037 53.111111,94.2222222 M42.962963,85.1851851 C39.4074074,85.1851851 38,89.4074074 37.8518518,92.3703704 L44,91.7777778 C45.5555555,91.6296296 46.5925926,91.3333333 46.5925926,89.5555555 C46.5185186,87.4074074 45.3333333,85.1851851 42.962963,85.1851851" id="Shape"></path>
                <path d="M73.4074074,134 L58.0740741,134.222222 C58.2222222,139.851852 60.5925926,143.481481 66.6666667,143.481481 C68.2962963,143.481481 70.1481482,143.111111 71.5555555,142.666667 L71.5555555,144.666667 C68.962963,145.851852 66.7407408,146.296296 63.7777778,146.296296 C56.6666667,146.296296 51.1851851,141.62963 51.1851851,134.37037 C51.1851851,127.185185 56.5185186,122.740741 63.4814814,122.740741 C69.111111,122.740741 73.4074074,126.592593 73.4074074,132.222222 C73.4814814,132.814815 73.4074074,133.481481 73.4074074,134 M63.2592592,125.037037 C59.7037037,125.037037 58.2962963,129.185185 58.1481482,132.222222 L64.2222222,131.62963 C65.7777778,131.481481 66.8148149,131.259259 66.8148149,129.407407 C66.8148149,127.185185 65.5555555,125.037037 63.2592592,125.037037" id="Shape"></path>
                <path d="M184.37037,85.3333333 C184.37037,85.3333333 183.703704,84.962963 182.444445,85.7037037 C181.333333,86.3703704 181.481482,87.111111 181.481482,87.111111 C181.481482,87.111111 181.555555,87.1851851 181.555555,87.2592592 C181.851851,87.7777778 183.185186,90.0740741 183.703704,91.3333333 C184.296296,92.6666667 184.444445,94.4444445 182.37037,95.8518518 C181.259259,96.5925926 179.185186,97.111111 177.481482,96.2962963 C177.11111,96.1481482 176.518518,95.7037037 176,94.962963 C175.259259,94 166.666667,77.9259259 166.666667,77.9259259 L152.296296,51.4074074 C152.296296,51.4074074 151.925926,50.7407408 152,50.4444445 C152.074074,49.9259259 152.222222,49.7037037 152.37037,49.4814814 C161.703704,34.4444445 179.037037,36.0740741 179.037037,36.0740741 C179.037037,36.0740741 178.962963,34.1481482 179.481482,31.4814814 C182.37037,16.888889 199.925926,13.7037037 199.925926,13.7037037 C199.925926,13.7037037 193.037037,8.14814814 182.444445,4.37037037 C174.740741,1.62962963 168.444445,0.148148148 158.814815,0.148148148 C147.481481,0.148148148 137.481481,3.55555555 136.296296,3.92592592 C133.111111,4.8888889 128.444444,7.33333333 128.444444,7.33333333 L124.148148,0.666666667 C124.148148,0.666666667 124,0.592592592 123.703704,0.740740741 C123.407407,0.88888889 123.407407,1.11111111 123.407407,1.11111111 L126.222222,8.44444445 C126.222222,8.44444445 125.185185,8.96296296 123.925926,9.7037037 C121.62963,11.1111111 117.851852,13.4074074 111.925926,19.037037 C108.37037,22.4444445 103.259259,28.7407408 99.3333333,35.9259259 C90.1481482,52.7407408 92.2962963,69.7037037 92.2962963,69.7037037 C92.2962963,69.7037037 99.4814814,62.0740741 110.296296,62.2222222 C117.037037,62.2962963 120.962963,64.3703704 120.962963,64.3703704 C120.962963,64.3703704 122.518519,61.5555555 125.555556,58.888889 C131.111111,54 139.555556,51.9259259 145.851852,51.9259259 C147.259259,51.9259259 148,52 148.444444,52.1481482 C148.814815,52.2962963 149.111111,52.5925926 149.111111,52.5925926 L172.740741,96 C172.740741,96 174.592592,100.296296 179.851851,100.074074 C184.962963,99.8518518 187.555555,96.3703704 187.555555,92.888889 C187.555555,90 184.962963,86.2962963 184.444445,85.4814814 L184.37037,85.3333333 M158.37037,1.55555556 C176.666667,1.7037037 192.592592,13.1111111 192.592592,13.1111111 C192.592592,13.1111111 187.777778,14.5185185 182.88889,19.4074074 C178,24.2962963 177.11111,29.5555555 177.11111,29.5555555 C177.11111,29.5555555 163.925926,13.3333333 139.62963,8.81481482 C133.407407,7.62962963 129.703704,8.07407408 129.703704,8.07407408 C129.703704,8.07407408 141.259259,1.40740741 158.37037,1.55555556 M110.222222,59.4074074 C100.888889,59.4074074 95.6296296,64.0740741 95.6296296,64.0740741 C95.6296296,64.0740741 93.4074074,50 103.481481,32.7407408 C112.888889,16.5925926 126.296296,9.62962963 126.296296,9.62962963 C126.296296,9.62962963 124.592593,11.7037037 123.185185,14.2222222 C109.703704,37.7037037 117.555556,60.5185186 117.555556,60.5185186 C117.555556,60.5185186 115.62963,59.4074074 110.222222,59.4074074 M124,56.6666667 C121.851852,58.5925926 121.111111,59.8518518 121.111111,59.8518518 C121.111111,59.8518518 112.444444,36.6666667 125.62963,12.7407407 C126.518519,11.1111111 127.62963,9.77777778 127.62963,9.77777778 C127.62963,9.77777778 135.851852,26.962963 137.555556,30.2962963 C139.259259,33.7037037 147.259259,49.2592592 147.259259,49.2592592 C147.259259,49.2592592 133.925926,47.8518518 124,56.6666667 M138.222222,26.6666667 C137.481481,25.3333333 128.666667,9.1111111 128.666667,9.1111111 C128.666667,9.1111111 139.777778,7.77777778 155.703704,16.4444445 C168.074074,23.111111 175.259259,33.4074074 175.259259,33.4074074 C175.259259,33.4074074 162.518518,32.6666667 152.888889,44.1481482 C150.962963,46.4444445 150.518519,47.5555555 150.518519,47.5555555 C150.518519,47.5555555 139.925926,29.7037037 138.222222,26.6666667" id="Shape"></path>
            </g>
        </g>
    </g>
</svg>