<?xml version="1.0" encoding="UTF-8"?>
<svg width="145px" height="145px" viewBox="0 0 145 145" version="1.1" xmlns="http://www.w3.org/2000/svg" xmlns:xlink="http://www.w3.org/1999/xlink">
    <!-- Generator: Sketch 48.2 (47327) - http://www.bohemiancoding.com/sketch -->
    <title>default slice size</title>
    <desc>Created with Sketch.</desc>
    <defs></defs>
    <g id="Artboard" stroke="none" stroke-width="1" fill="none" fill-rule="evenodd">
        <g id="logo-template" transform="translate(-2.000000, 0.000000)" fill-rule="nonzero">
            <g id="legalandgeneral" transform="translate(38.000000, 41.000000)">
                <path d="M46.64,2.77333333 C46.5866667,2.8 46.56,2.85333333 46.5866667,2.93333333 C46.6133333,2.98666667 46.6666667,3.04 46.72,3.01333333 C46.7466667,3.01333333 48.08,2.88 50.2666667,3.28 C58.8533333,4.88 63.6266667,10.64 63.68,10.72 C63.7066667,10.7466667 63.76,10.7733333 63.8133333,10.7733333 C63.8666667,10.7733333 63.8933333,10.72 63.8933333,10.6666667 C63.8933333,10.64 64.24,8.8 65.9466667,7.09333333 C67.6533333,5.38666667 69.36,4.88 69.3866667,4.88 C69.44,4.85333333 69.4666667,4.82666667 69.4666667,4.77333333 C69.4666667,4.72 69.4666667,4.66666667 69.4133333,4.64 C69.36,4.58666667 63.5733333,0.506666667 57.04,0.453333333 C50.9066667,0.373333333 46.6666667,2.74666667 46.64,2.77333333" id="Shape" fill="#009349"></path>
                <path d="M46.32,3.14666667 C46.2666667,3.14666667 46.24,3.17333333 46.2133333,3.22666667 C46.1866667,3.25333333 46.1866667,3.30666667 46.2133333,3.33333333 L49.6533333,9.65333333 C50.24,10.7466667 54.0533333,17.0933333 54.08,17.1733333 C54.1066667,17.2266667 54.16,17.2266667 54.2133333,17.2266667 C54.2666667,17.2266667 54.2933333,17.2 54.32,17.1466667 C54.32,17.1466667 54.48,16.7466667 55.1466667,15.9466667 C58.5333333,11.92 63.04,12.1333333 63.0933333,12.1333333 C63.1466667,12.1333333 63.2,12.1066667 63.2,12.08 C63.2266667,12.0266667 63.2266667,11.9733333 63.2,11.9466667 C63.1733333,11.92 60.56,8.18666667 56.1066667,5.81333333 C50.4,2.72 46.3466667,3.14666667 46.32,3.14666667" id="Shape" fill="#FBD022"></path>
                <path d="M45.84,3.44 C45.8133333,3.46666667 45.44,3.92 45.12,4.53333333 C40.4,13.0933333 43.4666667,21.52 43.4933333,21.6 C43.52,21.6533333 43.5466667,21.68 43.6,21.68 C43.6533333,21.68 43.7066667,21.6533333 43.7333333,21.6266667 C43.7333333,21.6266667 43.9733333,21.1733333 44.7466667,20.5066667 C48.24,17.4133333 52.96,17.8666667 53.0133333,17.8666667 C53.0666667,17.8666667 53.0933333,17.84 53.12,17.8133333 C53.1466667,17.7866667 53.1466667,17.7333333 53.12,17.68 L49.6266667,10.8533333 C49.0133333,9.65333333 46.08,3.52 46.0533333,3.46666667 C46.0266667,3.44 46,3.41333333 45.9466667,3.38666667 C45.8933333,3.38666667 45.8666667,3.41333333 45.84,3.44" id="Shape" fill="#00A4DB"></path>
                <path d="M45.4133333,3.38666667 C45.36,3.41333333 40.5066667,6 37.1466667,11.76 C33.5466667,17.92 34.32,23.0666667 34.32,23.12 C34.32,23.1733333 34.3466667,23.2 34.4,23.2266667 C34.4533333,23.2533333 34.48,23.2266667 34.5333333,23.2 C34.56,23.1733333 36.4533333,21.5466667 39.7066667,21.5466667 C41.6,21.5466667 42.2666667,21.9466667 42.2933333,21.9466667 C42.3466667,21.9733333 42.4,21.9733333 42.4266667,21.9466667 C42.4533333,21.92 42.48,21.8933333 42.48,21.84 L42.48,21.7866667 C42.4533333,21.7333333 41.68,19.3866667 41.68,15.92 C41.68,12.9066667 42.2666667,9.09333333 44.48,5.22666667 C44.9866667,4.34666667 45.5733333,3.6 45.6,3.6 C45.6266667,3.57333333 45.6266667,3.54666667 45.6266667,3.52 C45.6266667,3.49333333 45.6266667,3.46666667 45.6,3.44 C45.52,3.36 45.4666667,3.33333333 45.4133333,3.38666667" id="Shape" fill="#D8242B"></path>
                <g id="Group" fill="#1A1A1A">
                    <path d="M57.5733333,37.8666667 C56.4533333,37.52 54.88,36.6133333 53.28,35.44 C53.5733333,34.9333333 53.8666667,34.4 54.08,33.84 C54.5866667,32.6133333 54.8266667,32 55.9466667,31.8666667 L55.9466667,31.3333333 C55.3333333,31.36 54.6933333,31.36 54.0266667,31.36 C53.4133333,31.36 52.7733333,31.36 52.16,31.3333333 L52.16,31.8666667 C52.5866667,31.9733333 53.04,32 53.4666667,32.1333333 C53.4666667,32.6133333 53.2,33.4933333 52.96,34.08 C52.8266667,34.3733333 52.6933333,34.6133333 52.5333333,34.88 C51.0666667,33.7066667 49.68,32.3466667 48.72,30.9866667 C50.08,30.3466667 51.68,29.5733333 51.68,27.92 C51.68,26.3466667 50.5333333,25.52 48.9333333,25.52 C47.1733333,25.52 45.7333333,26.8 45.7333333,28.4533333 C45.7333333,29.28 45.9733333,30.1333333 46.4,30.96 C44.8266667,31.76 43.76,32.72 43.76,34.5333333 C43.76,37.1733333 45.8933333,38.48 48.2666667,38.48 C49.9733333,38.48 51.28,37.7866667 52.2933333,36.72 C54.08,37.76 55.9466667,38.4533333 57.44,38.5066667 L57.5733333,37.8666667 M48.7466667,26.4533333 C49.68,26.4533333 50,27.2 50,28.0533333 C50,29.1466667 49.0933333,29.7333333 48.1866667,30.1333333 C47.7333333,29.3333333 47.4666667,28.56 47.4666667,27.8666667 C47.4666667,27.1733333 48,26.4533333 48.7466667,26.4533333 M51.2266667,36.3466667 C50.6133333,36.8266667 49.7066667,37.0666667 48.9866667,37.0666667 C47.3866667,37.0666667 46,35.84 46,34 C46,33.0666667 46.3733333,32.4533333 46.9866667,31.9466667 C48.0533333,33.52 49.68,35.0133333 51.44,36.16 C51.3866667,36.24 51.3066667,36.2933333 51.2266667,36.3466667" id="Shape"></path>
                    <path d="M50.96,46.7466667 C50.8266667,46.24 50.5866667,45.6533333 49.9733333,45.6533333 C49.52,45.6533333 48.96,46.0533333 48.6133333,46.3466667 L48.6133333,50.64 C48.6133333,52.0266667 49.2266667,51.84 50.32,51.9733333 L50.32,52.5333333 C49.3333333,52.5333333 48.3466667,52.48 47.36,52.48 C46.6133333,52.48 45.8933333,52.48 45.1733333,52.5333333 L45.1733333,51.9733333 L46.3466667,51.7866667 L46.3466667,46.5866667 C46.3466667,45.9733333 46.2933333,45.4666667 45.52,45.4666667 C45.36,45.4666667 45.2266667,45.4666667 45.0666667,45.4933333 L45.0666667,44.96 C45.6266667,44.8266667 46.2133333,44.6666667 46.7733333,44.5333333 C47.1733333,44.4266667 47.68,44.24 48.0533333,44.24 C48.6133333,44.24 48.6133333,44.9866667 48.6133333,45.3866667 L48.6133333,45.5733333 C49.1466667,44.96 50.0266667,44.1866667 50.88,44.1866667 C51.68,44.1866667 52.2933333,44.6133333 52.2933333,45.4666667 C52.2933333,46.16 51.6266667,46.7466667 50.96,46.7466667" id="Shape"></path>
                    <path d="M34.56,52.48 C33.7866667,52.48 33.0133333,52.48 32.24,52.5333333 L32.24,51.9733333 L33.3866667,51.7866667 L33.3866667,47.7066667 C33.3866667,46.8 33.36,45.6266667 32.1333333,45.6266667 C31.52,45.6266667 30.5866667,45.9466667 30.0533333,46.24 L30.0533333,50.9333333 C30.0533333,51.8133333 30.3733333,51.8933333 31.1733333,51.9733333 L31.1733333,52.5333333 C30.3733333,52.5333333 29.6,52.48 28.8266667,52.48 C28.08,52.48 27.36,52.48 26.6133333,52.5333333 L26.6133333,51.9733333 L27.7866667,51.7866667 L27.7866667,46.6666667 C27.7866667,46.0266667 27.7866667,45.44 26.96,45.44 C26.8,45.44 26.6666667,45.44 26.5066667,45.4666667 L26.5066667,44.9333333 C27.0666667,44.8 27.6533333,44.64 28.2133333,44.5066667 C28.72,44.3733333 29.1733333,44.2133333 29.4933333,44.2133333 C30.16,44.2133333 30.0533333,45.0666667 30.0533333,45.52 C30.96,44.9866667 32.4,44.2133333 33.4666667,44.2133333 C34.16,44.2133333 34.6666667,44.3733333 35.12,44.9066667 C35.68,45.5466667 35.6266667,46.56 35.6266667,47.36 L35.6266667,50.9066667 C35.6266667,52.0266667 36.2133333,51.84 37.0666667,51.9733333 L37.0666667,52.5333333 C36.2666667,52.5066667 35.4133333,52.48 34.56,52.48" id="Shape"></path>
                    <path d="M10.3733333,38.1066667 L0,38.1066667 L0,37.5466667 L1.92,37.2 L1.92,27.7066667 C1.92,26.5866667 1.57333333,26.2933333 0.133333333,26.24 L0.133333333,25.7066667 L6.26666667,25.7066667 L6.26666667,26.24 L4.50666667,26.5333333 L4.50666667,36.0533333 C4.50666667,37.0933333 4.74666667,37.2266667 6.26666667,37.2266667 C8.69333333,37.2266667 9.49333333,37.0133333 10.08,34.5866667 L10.6933333,34.5866667 L10.3733333,38.1066667" id="Shape"></path>
                    <path d="M17.9733333,47.2 C17.12,47.2 16.8,47.44 16.8,48.32 L16.8,51.84 C15.52,52.3733333 14,52.7733333 12.1333333,52.7733333 C8.37333333,52.7733333 5.89333333,50.16 5.89333333,46.5066667 C5.89333333,42.9066667 8.74666667,40 12.4266667,40 C14.24,40 15.68,40.4266667 16.7466667,40.8266667 L16.72,43.9466667 L16.1866667,43.9466667 C16,42.9866667 15.68,42.1866667 15.0666667,41.6266667 C14.48,41.12 13.7066667,40.8266667 12.7733333,40.8266667 C9.54666667,40.8 8.8,44.48 8.8,46.5866667 C8.8,48.7466667 9.57333333,51.9466667 12.4,51.9466667 C13.92,51.9466667 14.3466667,51.4666667 14.3466667,49.8666667 L14.3466667,47.4133333 L12.8,47.2 L12.8,46.5866667 L18.2133333,46.5866667 L18.2133333,47.2 L17.9733333,47.2 L17.9733333,47.2 Z" id="Shape"></path>
                    <path d="M58.4,52.6133333 C57.5466667,52.6133333 56.96,52.4533333 56.64,51.5733333 C56.0533333,52.4533333 54.9066667,52.6933333 54.08,52.6933333 C52.56,52.6933333 51.1466667,52.0533333 51.1466667,50.3466667 C51.1466667,47.6533333 54.64,47.6266667 56.5866667,47.6266667 L56.5866667,46.5866667 C56.5866667,45.5733333 56.1066667,45.1733333 55.04,45.1733333 C54.3466667,45.1733333 53.5733333,45.3866667 52.9333333,45.6266667 L52.9333333,44.6133333 C53.84,44.3466667 54.72,44.1866667 55.8133333,44.1866667 C56.5866667,44.1866667 57.68,44.3466667 58.24,44.9066667 C58.88,45.52 58.8533333,46.2666667 58.8533333,47.0666667 L58.8533333,50.7733333 C58.8533333,51.4133333 59.04,51.9466667 59.7066667,51.9466667 C60.2666667,51.9466667 60.88,51.8933333 61.44,51.84 L61.44,42.48 C61.44,41.8133333 61.44,41.2533333 60.6133333,41.2533333 C60.48,41.2533333 60.32,41.2533333 60.16,41.28 L60.16,40.7466667 C60.72,40.6133333 61.3066667,40.4533333 61.8933333,40.32 C62.4,40.1866667 62.8533333,40.0266667 63.1466667,40.0266667 C63.8133333,40.0266667 63.7066667,40.8533333 63.7066667,41.3333333 L63.7066667,50.9333333 C63.7066667,51.8133333 64.2133333,51.8666667 65.5733333,51.9733333 L65.5733333,52.5333333 C63.1733333,52.5066667 60.8266667,52.6133333 58.4,52.6133333 L58.4,52.6133333 Z M56.56,48.4266667 C55.3333333,48.4266667 53.6,48.64 53.6,50.32 C53.6,51.1733333 53.9733333,51.7066667 54.88,51.7066667 C55.6,51.7066667 56.16,51.2 56.4,50.6133333 C56.56,50.1866667 56.5866667,49.8133333 56.5866667,49.3333333 L56.56,48.4266667 L56.56,48.4266667 Z" id="Shape"></path>
                    <path d="M34.64,38.2133333 C33.76,38.2133333 33.2,38.0533333 32.88,37.1733333 C32.2933333,38.0533333 31.1466667,38.32 30.2933333,38.32 C28.7733333,38.32 27.3333333,37.6533333 27.3333333,35.9733333 C27.3333333,33.28 30.8533333,33.2266667 32.7733333,33.2266667 L32.7733333,32.1866667 C32.7733333,31.1733333 32.2933333,30.8 31.2266667,30.8 C30.5333333,30.8 29.76,31.0133333 29.12,31.2266667 L29.12,30.2133333 C30.0266667,29.9733333 30.88,29.7866667 32.0266667,29.7866667 C32.7733333,29.7866667 33.8666667,29.9466667 34.4533333,30.5066667 C35.0666667,31.12 35.04,31.8666667 35.04,32.6933333 L35.04,36.4 C35.04,37.0666667 35.2266667,37.5733333 35.8933333,37.5733333 C36.4533333,37.5733333 37.0666667,37.52 37.6266667,37.44 L37.6266667,28.08 C37.6266667,27.4133333 37.6,26.8533333 36.8,26.8533333 C36.64,26.8533333 36.5066667,26.88 36.3466667,26.9066667 L36.3466667,26.3466667 C36.9066667,26.2133333 37.4933333,26.0533333 38.0533333,25.92 C38.56,25.7866667 39.0133333,25.6266667 39.3333333,25.6266667 C39.9733333,25.6266667 39.8933333,26.48 39.8933333,26.9333333 L39.8933333,36.5333333 C39.8933333,37.4133333 40.4,37.4666667 41.7866667,37.5733333 L41.7866667,38.1066667 C39.3866667,38.1066667 37.04,38.2133333 34.64,38.2133333 L34.64,38.2133333 Z M32.8,34.0266667 C31.5733333,34.0266667 29.8133333,34.24 29.8133333,35.92 C29.8133333,36.7733333 30.1866667,37.3066667 31.0666667,37.3066667 C31.8133333,37.3066667 32.3733333,36.7733333 32.5866667,36.2133333 C32.7466667,35.7866667 32.8,35.4133333 32.8,34.9333333 L32.8,34.0266667 L32.8,34.0266667 Z" id="Shape"></path>
                    <path d="M44.7466667,48.24 L39.2533333,48.32 C39.3066667,50.3466667 40.16,51.6533333 42.32,51.6533333 C42.9066667,51.6533333 43.6,51.52 44.1066667,51.36 L44.1066667,52.08 C43.1733333,52.5066667 42.3466667,52.6666667 41.28,52.6666667 C38.72,52.6666667 36.7466667,50.9866667 36.7466667,48.3733333 C36.7466667,45.7866667 38.6933333,44.1866667 41.2,44.1866667 C43.2,44.1866667 44.8,45.5733333 44.8,47.6 C44.7733333,47.8133333 44.7733333,48.0533333 44.7466667,48.24 M41.12,45.0133333 C39.84,45.0133333 39.3333333,46.5066667 39.28,47.6 L41.4666667,47.3866667 C42.0533333,47.3333333 42.4,47.2533333 42.4,46.5866667 C42.4,45.7866667 41.9466667,45.0133333 41.12,45.0133333" id="Shape"></path>
                    <path d="M28.1066667,30.6133333 C27.7333333,30.32 27.3066667,30.1066667 26.8266667,30.1066667 C26.4533333,30.1066667 26.2666667,30.48 26.16,30.7733333 C26.6933333,31.2 27.0133333,32 27.0133333,32.6666667 C27.0133333,34.64 25.4133333,35.7866667 23.52,35.7866667 C23.12,35.7866667 22.7466667,35.7866667 22.3733333,35.68 C22.16,35.9466667 21.8666667,36.1866667 21.5466667,36.32 C21.5733333,36.72 22.0266667,36.7466667 22.32,36.7466667 C22.96,36.7466667 23.6266667,36.6933333 24.2666667,36.6933333 C25.7066667,36.6933333 27.3066667,37.12 27.3066667,38.8533333 C27.3066667,41.28 24.88,42.2666667 22.8,42.2666667 C21.36,42.2666667 19.0666667,41.6 19.0666667,39.8133333 C19.0666667,38.9866667 19.7333333,38.4533333 20.4,38.1333333 C19.84,37.7866667 19.6533333,37.1466667 19.6533333,36.5333333 C19.6533333,36.4266667 19.6533333,36.32 19.68,36.2133333 C20.24,36.1333333 21.28,35.8666667 21.6533333,35.44 C20.5333333,35.0133333 19.8933333,34.1333333 19.8933333,32.9066667 C19.8933333,30.8533333 21.68,29.84 23.5466667,29.84 C24.24,29.84 25.0666667,30 25.6533333,30.4 C25.8666667,29.5466667 26.5333333,28.9333333 27.44,28.9333333 C27.8133333,28.9333333 28.5866667,29.04 28.5866667,29.5466667 C28.5866667,29.92 28.3466667,30.2933333 28.1066667,30.6133333 M23.3866667,30.6666667 C22.4,30.6666667 21.9733333,31.4666667 21.9733333,32.5066667 C21.9733333,33.7333333 22.2933333,34.9333333 23.4933333,34.9333333 C24.48,34.9333333 24.88,34.16 24.88,33.0933333 C24.9066667,31.9733333 24.5866667,30.6666667 23.3866667,30.6666667 M24,38.5066667 C23.28,38.5066667 22.96,38.5866667 22.24,38.5866667 C21.7866667,38.5866667 21.3333333,38.5333333 21.0133333,38.4266667 C20.7733333,38.6133333 20.56,39.0133333 20.56,39.3066667 C20.56,40.4266667 21.6533333,40.8533333 23.2266667,40.8533333 C25.0133333,40.8533333 26.08,40.2933333 26.08,39.4133333 C26.08,38.48 24.7733333,38.5066667 24,38.5066667" id="Shape"></path>
                    <path d="M19.12,33.92 L13.6,34 C13.6533333,36 14.5066667,37.3333333 16.6933333,37.3333333 C17.28,37.3333333 17.9733333,37.2 18.48,37.04 L18.48,37.7333333 C17.5466667,38.16 16.72,38.3466667 15.68,38.3466667 C13.12,38.3466667 11.1466667,36.6666667 11.1466667,34.0533333 C11.1466667,31.44 13.0666667,29.84 15.5733333,29.84 C17.6,29.84 19.1733333,31.2266667 19.1733333,33.2533333 C19.1466667,33.52 19.12,33.7333333 19.12,33.92 M15.4666667,30.6666667 C14.1866667,30.6666667 13.68,32.1866667 13.6266667,33.2533333 L15.84,33.04 C16.4,32.9866667 16.7733333,32.88 16.7733333,32.24 C16.7466667,31.4666667 16.32,30.6666667 15.4666667,30.6666667" id="Shape"></path>
                    <path d="M26.4266667,48.24 L20.9066667,48.32 C20.96,50.3466667 21.8133333,51.6533333 24,51.6533333 C24.5866667,51.6533333 25.2533333,51.52 25.76,51.36 L25.76,52.08 C24.8266667,52.5066667 24.0266667,52.6666667 22.96,52.6666667 C20.4,52.6666667 18.4266667,50.9866667 18.4266667,48.3733333 C18.4266667,45.7866667 20.3466667,44.1866667 22.8533333,44.1866667 C24.88,44.1866667 26.4266667,45.5733333 26.4266667,47.6 C26.4533333,47.8133333 26.4266667,48.0533333 26.4266667,48.24 M22.7733333,45.0133333 C21.4933333,45.0133333 20.9866667,46.5066667 20.9333333,47.6 L23.12,47.3866667 C23.68,47.3333333 24.0533333,47.2533333 24.0533333,46.5866667 C24.0533333,45.7866667 23.6,45.0133333 22.7733333,45.0133333" id="Shape"></path>
                    <path d="M66.3733333,30.72 C66.3733333,30.72 66.1333333,30.5866667 65.68,30.8533333 C65.28,31.0933333 65.3333333,31.36 65.3333333,31.36 C65.3333333,31.36 65.36,31.3866667 65.36,31.4133333 C65.4666667,31.6 65.9466667,32.4266667 66.1333333,32.88 C66.3466667,33.36 66.4,34 65.6533333,34.5066667 C65.2533333,34.7733333 64.5066667,34.96 63.8933333,34.6666667 C63.76,34.6133333 63.5466667,34.4533333 63.36,34.1866667 C63.0933333,33.84 60,28.0533333 60,28.0533333 L54.8266667,18.5066667 C54.8266667,18.5066667 54.6933333,18.2666667 54.72,18.16 C54.7466667,17.9733333 54.8,17.8933333 54.8533333,17.8133333 C58.2133333,12.4 64.4533333,12.9866667 64.4533333,12.9866667 C64.4533333,12.9866667 64.4266667,12.2933333 64.6133333,11.3333333 C65.6533333,6.08 71.9733333,4.93333333 71.9733333,4.93333333 C71.9733333,4.93333333 69.4933333,2.93333333 65.68,1.57333333 C62.9066667,0.586666667 60.64,0.0533333333 57.1733333,0.0533333333 C53.0933333,0.0533333333 49.4933333,1.28 49.0666667,1.41333333 C47.92,1.76 46.24,2.64 46.24,2.64 L44.6933333,0.24 C44.6933333,0.24 44.64,0.213333333 44.5333333,0.266666667 C44.4266667,0.32 44.4266667,0.4 44.4266667,0.4 L45.44,3.04 C45.44,3.04 45.0666667,3.22666667 44.6133333,3.49333333 C43.7866667,4 42.4266667,4.82666667 40.2933333,6.85333333 C39.0133333,8.08 37.1733333,10.3466667 35.76,12.9333333 C32.4533333,18.9866667 33.2266667,25.0933333 33.2266667,25.0933333 C33.2266667,25.0933333 35.8133333,22.3466667 39.7066667,22.4 C42.1333333,22.4266667 43.5466667,23.1733333 43.5466667,23.1733333 C43.5466667,23.1733333 44.1066667,22.16 45.2,21.2 C47.2,19.44 50.24,18.6933333 52.5066667,18.6933333 C53.0133333,18.6933333 53.28,18.72 53.44,18.7733333 C53.5733333,18.8266667 53.68,18.9333333 53.68,18.9333333 L62.1866667,34.56 C62.1866667,34.56 62.8533333,36.1066667 64.7466667,36.0266667 C66.5866667,35.9466667 67.52,34.6933333 67.52,33.44 C67.52,32.4 66.5866667,31.0666667 66.4,30.7733333 L66.3733333,30.72 M57.0133333,0.56 C63.6,0.613333333 69.3333333,4.72 69.3333333,4.72 C69.3333333,4.72 67.6,5.22666667 65.84,6.98666667 C64.08,8.74666667 63.76,10.64 63.76,10.64 C63.76,10.64 59.0133333,4.8 50.2666667,3.17333333 C48.0266667,2.74666667 46.6933333,2.90666667 46.6933333,2.90666667 C46.6933333,2.90666667 50.8533333,0.506666667 57.0133333,0.56 M39.68,21.3866667 C36.32,21.3866667 34.4266667,23.0666667 34.4266667,23.0666667 C34.4266667,23.0666667 33.6266667,18 37.2533333,11.7866667 C40.64,5.97333333 45.4666667,3.46666667 45.4666667,3.46666667 C45.4666667,3.46666667 44.8533333,4.21333333 44.3466667,5.12 C39.4933333,13.5733333 42.32,21.7866667 42.32,21.7866667 C42.32,21.7866667 41.6266667,21.3866667 39.68,21.3866667 M44.64,20.4 C43.8666667,21.0933333 43.6,21.5466667 43.6,21.5466667 C43.6,21.5466667 40.48,13.2 45.2266667,4.58666667 C45.5466667,4 45.9466667,3.52 45.9466667,3.52 C45.9466667,3.52 48.9066667,9.70666667 49.52,10.9066667 C50.1333333,12.1333333 53.0133333,17.7333333 53.0133333,17.7333333 C53.0133333,17.7333333 48.2133333,17.2266667 44.64,20.4 M49.76,9.6 C49.4933333,9.12 46.32,3.28 46.32,3.28 C46.32,3.28 50.32,2.8 56.0533333,5.92 C60.5066667,8.32 63.0933333,12.0266667 63.0933333,12.0266667 C63.0933333,12.0266667 58.5066667,11.76 55.04,15.8933333 C54.3466667,16.72 54.1866667,17.12 54.1866667,17.12 C54.1866667,17.12 50.3733333,10.6933333 49.76,9.6" id="Shape"></path>
                </g>
            </g>
        </g>
    </g>
</svg>