<?xml version="1.0" encoding="UTF-8"?>
<svg width="251px" height="45px" viewBox="0 0 251 45" version="1.1" xmlns="http://www.w3.org/2000/svg" xmlns:xlink="http://www.w3.org/1999/xlink">
    <!-- Generator: Sketch 48.2 (47327) - http://www.bohemiancoding.com/sketch -->
    <title>landscape_portfolio</title>
    <desc>Created with Sketch.</desc>
    <defs></defs>
    <g id="Page-1" stroke="none" stroke-width="1" fill="none" fill-rule="evenodd">
        <g id="landscape_portfolio" fill-rule="nonzero">
            <polygon id="Shape" fill="#000000" points="75.717672 33.6596986 75.717672 36.2314659 58.5443961 36.2314659 58.5443961 6.02500034 61.5084048 6.02500034 61.5084048 33.6596986"></polygon>
            <path d="M86.9980599,13.1734917 C88.4799565,13.1734917 89.736422,13.3844831 90.7683186,13.8056038 C91.799353,14.2271555 92.6349134,14.8079745 93.2747841,15.5489228 C93.9135772,16.2900866 94.3786634,17.1693969 94.6696117,18.1859917 C94.9594823,19.2032331 95.1053875,20.3075434 95.1053875,21.4984917 L95.1053875,35.70819 C94.8144392,35.795259 94.3928875,35.8900866 93.8411634,35.9915952 C93.2890082,36.0935348 92.649353,36.2025866 91.923491,36.3183193 C91.1967668,36.4340521 90.3907323,36.5288797 89.5045254,36.6017245 C88.617672,36.6737072 87.7101289,36.7105607 86.780172,36.7105607 C85.5885772,36.7105607 84.4915944,36.5799572 83.4892237,36.3183193 C82.4866375,36.0568969 81.6153013,35.6426728 80.8741375,35.0760779 C80.1331892,34.5094831 79.5517237,33.7834055 79.1308186,32.8969831 C78.7092668,32.0107762 78.4987065,30.9286641 78.4987065,29.6495693 C78.4987065,28.4290952 78.7310341,27.3829745 79.1961203,26.5112072 C79.6605599,25.63944 80.3144392,24.920259 81.1573272,24.3536641 C81.9997841,23.7870693 83.0023703,23.3728452 84.1650858,23.1112072 C85.3269392,22.8497848 86.5909479,22.7189659 87.9571117,22.7189659 C88.3635772,22.7189659 88.7920254,22.7409486 89.2428875,22.7844831 C89.693103,22.8282331 90.1288789,22.8868538 90.5504306,22.9588366 C90.9713358,23.0318969 91.3351289,23.1047417 91.6400858,23.17694 C91.9452582,23.2500003 92.155603,23.3153021 92.2721979,23.3730607 L92.2721979,21.9780176 C92.2721979,21.1933193 92.2135772,20.4306038 92.0978444,19.68944 C91.9812496,18.9484917 91.7273703,18.2803883 91.3351289,17.6846986 C90.9428875,17.0892245 90.3905168,16.6099141 89.6786634,16.246121 C88.9663789,15.8829745 88.0293099,15.7012934 86.8674565,15.7012934 C85.210991,15.7012934 83.9756461,15.8178883 83.1627151,16.0502159 C82.3487065,16.282759 81.7528013,16.4717676 81.3756461,16.6165952 L80.9834048,14.1321124 C81.4771548,13.9002159 82.2398703,13.6821124 83.2715513,13.4784486 C84.3023703,13.2754314 85.5446117,13.1734917 86.9980599,13.1734917 Z M87.2596979,34.1823279 C88.3635772,34.1823279 89.3299565,34.1463366 90.1581892,34.0734917 C90.9862065,34.0012934 91.6903013,33.9066814 92.2721979,33.7900866 L92.2721979,25.8573279 C91.9519392,25.7122848 91.4437496,25.5596986 90.7463358,25.3997848 C90.049353,25.2403021 89.0900858,25.1601297 87.8698272,25.1601297 C87.1724134,25.1601297 86.4456892,25.2109917 85.6903013,25.3125003 C84.9342668,25.4146555 84.236853,25.6323279 83.5980599,25.9661641 C82.9586203,26.3008624 82.4355599,26.7584055 82.0288789,27.33944 C81.6217668,27.9209055 81.4185341,28.6905176 81.4185341,29.6493538 C81.4185341,30.4924572 81.5562496,31.2043107 81.8327582,31.7851297 C82.1086203,32.3665952 82.5008617,32.8312503 83.0096979,33.1799572 C83.5174565,33.5286641 84.1278013,33.7834055 84.8403013,33.9426728 C85.5519392,34.1028021 86.3586203,34.1823279 87.2596979,34.1823279 Z" id="Shape" fill="#000000"></path>
            <path d="M101.232974,14.4810348 C102.075431,14.2487072 103.20862,13.9872848 104.632543,13.6963366 C106.055819,13.4058193 107.799569,13.2605607 109.863362,13.2605607 C111.57737,13.2605607 113.008189,13.507759 114.156465,14.001509 C115.304094,14.4959055 116.219396,15.2002159 116.902586,16.1157331 C117.584913,17.0310348 118.071982,18.1282331 118.362715,19.4064659 C118.652801,20.6855607 118.798275,22.0948279 118.798275,23.6349141 L118.798275,36.2316814 L115.965301,36.2316814 L115.965301,24.5502159 C115.965301,22.952371 115.856034,21.6008624 115.638146,20.4963366 C115.420258,19.3924572 115.056681,18.4911641 114.548275,17.7939659 C114.039655,17.0965521 113.371336,16.595259 112.543319,16.2903021 C111.715301,15.9851297 110.675646,15.8323279 109.427155,15.8323279 C108.08987,15.8323279 106.934913,15.9053883 105.961637,16.0506469 C104.987715,16.196121 104.355819,16.32694 104.065732,16.4428883 L104.065732,36.2316814 L101.232543,36.2316814 L101.232543,14.4810348 L101.232974,14.4810348 Z" id="Shape" fill="#000000"></path>
            <path d="M142.928017,35.5338366 C142.084913,35.8245693 141.010129,36.1002159 139.70237,36.3620693 C138.394827,36.6234917 136.738362,36.7543107 134.733189,36.7543107 C133.077155,36.7543107 131.573275,36.4851297 130.222198,35.9478452 C128.870689,35.4105607 127.70862,34.6334055 126.735344,33.6159486 C125.760991,32.5991383 125.006034,31.36444 124.468319,29.9109917 C123.930603,28.4584055 123.662284,26.8165952 123.662284,24.9857762 C123.662284,23.2715521 123.886853,21.6948279 124.337715,20.2562503 C124.788146,18.8178883 125.448922,17.5756469 126.320905,16.5293107 C127.193103,15.4834055 128.26056,14.670259 129.524569,14.0887934 C130.788362,13.5079745 132.23362,13.2168107 133.861637,13.2168107 C135.343319,13.2168107 136.62931,13.4278021 137.718965,13.8489228 C138.80862,14.27069 139.6,14.6704745 140.094181,15.0476297 L140.094181,2.93017276 L142.92737,2.40711241 L142.92737,35.5338366 L142.928017,35.5338366 Z M140.094827,17.7935348 C139.833405,17.5905176 139.506681,17.3726297 139.114224,17.139871 C138.721982,16.9075434 138.264224,16.6896555 137.741379,16.4859917 C137.217887,16.2829745 136.651508,16.1155176 136.040948,15.9849141 C135.430819,15.8540952 134.791379,15.7885779 134.123275,15.7885779 C132.728448,15.7885779 131.558836,16.0357762 130.61487,16.5295262 C129.669827,17.0243538 128.907112,17.6849141 128.326293,18.5129314 C127.745258,19.3411641 127.324353,20.314871 127.0625,21.4334055 C126.801293,22.5525866 126.670258,23.7368538 126.670258,24.9859917 C126.670258,27.9500003 127.411422,30.2239228 128.893103,31.8073279 C130.375215,33.3913797 132.336422,34.1825434 134.77737,34.1825434 C136.172413,34.1825434 137.297844,34.1172417 138.155387,33.9864228 C139.012069,33.8558193 139.659482,33.7183193 140.095043,33.5724141 L140.095043,17.7935348 L140.094827,17.7935348 Z" id="Shape" fill="#000000"></path>
            <path d="M153.854741,34.2262934 C155.481896,34.2262934 156.825431,33.9579745 157.886638,33.4198279 C158.946982,32.8825434 159.47737,31.9745693 159.47737,30.6954745 C159.47737,30.0853452 159.382974,29.5622848 159.194396,29.1262934 C159.005172,28.6907331 158.693319,28.2982762 158.257112,27.9497848 C157.821551,27.6008624 157.247198,27.2672417 156.535344,26.9474141 C155.82306,26.6278021 154.944612,26.2500003 153.898491,25.8137934 C153.055603,25.4653021 152.256465,25.1096986 151.501077,24.746121 C150.745043,24.3829745 150.077155,23.9614228 149.49612,23.4821124 C148.914655,23.0025866 148.45,22.4293107 148.101293,21.7603452 C147.752801,21.0922417 147.578232,20.2784486 147.578232,19.3191814 C147.578232,17.4885779 148.268103,16.0066814 149.648491,14.8734917 C151.028232,13.739871 152.924138,13.1734917 155.336853,13.1734917 C156.876939,13.1734917 158.148275,13.3040952 159.150646,13.5657331 C160.153232,13.82694 160.857327,14.0601297 161.264655,14.2629314 L160.610991,16.7909486 C160.262069,16.6163797 159.673706,16.3842676 158.845905,16.0935348 C158.017457,15.8034486 156.803663,15.6579745 155.20625,15.6579745 C154.566379,15.6579745 153.964008,15.7239228 153.397198,15.8545262 C152.830388,15.9853452 152.32931,16.1896555 151.893103,16.4661641 C151.457543,16.7428883 151.108405,17.0920262 150.847198,17.5142245 C150.585344,17.9366383 150.454957,18.4528021 150.454957,19.0642245 C150.454957,19.6758624 150.570689,20.2002159 150.803448,20.6368538 C151.035775,21.0739228 151.376724,21.4594831 151.827801,21.7948279 C152.278017,22.1299572 152.830172,22.4418107 153.484267,22.7308193 C154.137931,23.020259 154.885775,23.3383624 155.729094,23.6855607 C156.600862,24.0329745 157.435775,24.3870693 158.235129,24.7487072 C159.034267,25.1105607 159.739224,25.54569 160.349353,26.0536641 C160.959482,26.5625003 161.453448,27.1726297 161.83125,27.8844831 C162.208836,28.5969831 162.39806,29.4900866 162.39806,30.5650866 C162.39806,32.5991383 161.635344,34.1392245 160.109698,35.1853452 C158.584267,36.2314659 156.498707,36.7545262 153.854957,36.7545262 C151.878663,36.7545262 150.367887,36.5870693 149.322198,36.2530176 C148.275862,35.9193969 147.578448,35.664871 147.229957,35.4903021 L147.970905,32.9187503 C148.057974,32.9771555 148.246551,33.0713366 148.537715,33.20194 C148.827586,33.3325434 149.219827,33.4784486 149.714224,33.6377159 C150.208189,33.7976297 150.796336,33.9359917 151.479741,34.05194 C152.161638,34.1681038 152.953879,34.2262934 153.854741,34.2262934 Z" id="Shape" fill="#000000"></path>
            <path d="M176.454525,36.7105607 C174.710991,36.7105607 173.170689,36.4340521 171.834267,35.8823279 C170.497198,35.3306038 169.385991,34.5387934 168.499784,33.5071124 C167.612931,32.4760779 166.937284,31.2403021 166.47306,29.8021555 C166.007758,28.3635779 165.775646,26.7728452 165.775646,25.0293107 C165.775646,23.2571124 166.015301,21.6443969 166.494612,20.1907331 C166.974353,18.7381469 167.664224,17.4883624 168.565301,16.4424572 C169.465301,15.396121 170.554956,14.589871 171.834267,14.0230607 C173.112715,13.4562503 174.550862,13.1732762 176.149353,13.1732762 C177.369612,13.1732762 178.509913,13.2754314 179.570905,13.4782331 C180.631465,13.6818969 181.452155,13.9433193 182.03362,14.2629314 L181.292672,16.7036641 C180.710991,16.4137934 180.057543,16.1806038 179.33125,16.0064659 C178.604525,15.8318969 177.63125,15.7450434 176.41056,15.7450434 C173.911206,15.7450434 172.015086,16.5510779 170.722629,18.164009 C169.429094,19.776509 168.782974,22.0653021 168.782974,25.0293107 C168.782974,26.3661641 168.928017,27.5939659 169.218534,28.7125003 C169.508836,29.8312503 169.98125,30.7903021 170.635129,31.5892245 C171.289224,32.3887934 172.13125,33.0131469 173.163146,33.4633624 C174.194181,33.9142245 175.451508,34.1392245 176.93362,34.1392245 C178.153879,34.1392245 179.178232,34.001509 180.006465,33.7250003 C180.834482,33.4493538 181.437284,33.2092676 181.815517,33.0056038 L182.425646,35.4467676 C181.902586,35.7375003 181.081465,36.0209055 179.962931,36.2965521 C178.844396,36.5724141 177.675,36.7105607 176.454525,36.7105607 Z" id="Shape" fill="#000000"></path>
            <path d="M193.518319,13.1734917 C195.000431,13.1734917 196.257112,13.3844831 197.288793,13.8056038 C198.320043,14.2271555 199.155388,14.8079745 199.795043,15.5489228 C200.433836,16.2900866 200.899138,17.1693969 201.18987,18.1859917 C201.480172,19.2032331 201.625862,20.3075434 201.625862,21.4984917 L201.625862,35.70819 C201.334698,35.795259 200.913146,35.8900866 200.361638,35.9915952 C199.809482,36.0935348 199.170043,36.2025866 198.443965,36.3183193 C197.717456,36.4340521 196.910991,36.5288797 196.024784,36.6017245 C195.138146,36.6737072 194.230388,36.7105607 193.300431,36.7105607 C192.108836,36.7105607 191.012284,36.5799572 190.009267,36.3183193 C189.006896,36.0568969 188.135344,35.6426728 187.394181,35.0760779 C186.653232,34.5094831 186.071551,33.7834055 185.650646,32.8969831 C185.229094,32.0107762 185.018534,30.9286641 185.018534,29.6495693 C185.018534,28.4290952 185.250862,27.3829745 185.715948,26.5112072 C186.180172,25.63944 186.834051,24.920259 187.677586,24.3536641 C188.519612,23.7870693 189.522413,23.3728452 190.684913,23.1112072 C191.846767,22.8497848 193.110991,22.7189659 194.477155,22.7189659 C194.88362,22.7189659 195.311853,22.7409486 195.762931,22.7844831 C196.213146,22.8282331 196.648706,22.8868538 197.070474,22.9588366 C197.491379,23.0318969 197.855172,23.1047417 198.160129,23.17694 C198.465301,23.2500003 198.675862,23.3153021 198.792241,23.3730607 L198.792241,21.9780176 C198.792241,21.1933193 198.733836,20.4306038 198.617888,19.68944 C198.501724,18.9484917 198.247413,18.2803883 197.855172,17.6846986 C197.462931,17.0892245 196.91056,16.6099141 196.198922,16.246121 C195.486206,15.8829745 194.549138,15.7012934 193.387284,15.7012934 C191.730819,15.7012934 190.495689,15.8178883 189.682543,16.0502159 C188.86875,16.282759 188.272629,16.4717676 187.895474,16.6165952 L187.503232,14.1321124 C187.996982,13.9002159 188.759698,13.6821124 189.791379,13.4784486 C190.822629,13.2754314 192.065086,13.1734917 193.518319,13.1734917 Z M193.779956,34.1823279 C194.883836,34.1823279 195.850215,34.1463366 196.678448,34.0734917 C197.506896,34.0012934 198.210775,33.9066814 198.792456,33.7900866 L198.792456,25.8573279 C198.472629,25.7122848 197.964439,25.5596986 197.267025,25.3997848 C196.569827,25.2403021 195.61056,25.1601297 194.390301,25.1601297 C193.692888,25.1601297 192.966163,25.2109917 192.210775,25.3125003 C191.454741,25.4146555 190.757543,25.6323279 190.11875,25.9661641 C189.479094,26.3008624 188.956034,26.7584055 188.549569,27.33944 C188.142241,27.9209055 187.939224,28.6905176 187.939224,29.6493538 C187.939224,30.4924572 188.077155,31.2043107 188.353448,31.7851297 C188.62931,32.3665952 189.021767,32.8312503 189.530388,33.1799572 C190.038146,33.5286641 190.648706,33.7834055 191.360991,33.9426728 C192.072629,34.1028021 192.878879,34.1823279 193.779956,34.1823279 Z" id="Shape" fill="#000000"></path>
            <path d="M210.586853,44.2946124 L207.753663,44.2946124 L207.753663,14.4810348 C208.595905,14.1905176 209.671336,13.9142245 210.979094,13.6528021 C212.286638,13.3911641 213.943103,13.2605607 215.94806,13.2605607 C217.604741,13.2605607 219.108189,13.5297417 220.459698,14.0668107 C221.810775,14.6047417 222.972629,15.3821124 223.946336,16.3987072 C224.919612,17.4163797 225.675,18.6506469 226.213146,20.1034486 C226.750431,21.5568969 227.019612,23.1984917 227.019612,25.0290952 C227.019612,26.7439659 226.793965,28.3200434 226.343534,29.75819 C225.892672,31.1965521 225.232327,32.4318969 224.36056,33.4629314 C223.489008,34.4948279 222.420905,35.3010779 221.157112,35.8821124 C219.893103,36.4629314 218.446982,36.7540952 216.820258,36.7540952 C215.338146,36.7540952 214.052155,36.5428883 212.9625,36.1217676 C211.87306,35.7008624 211.080819,35.3010779 210.587284,34.9230607 L210.587284,44.2946124 L210.586853,44.2946124 Z M210.586853,32.1775866 C210.848491,32.3812503 211.175431,32.5991383 211.567456,32.8312503 C211.959698,33.0642245 212.417672,33.2823279 212.940732,33.4851297 C213.463793,33.6887934 214.030388,33.8556038 214.640732,33.9862072 C215.250862,34.1170262 215.889655,34.1823279 216.558405,34.1823279 C217.953232,34.1823279 219.122629,33.9426728 220.067241,33.4631469 C221.010991,32.983621 221.773706,32.3299572 222.355388,31.5017245 C222.936206,30.6732762 223.357758,29.7002159 223.619396,28.5812503 C223.880819,27.4631469 224.011206,26.2786641 224.011206,25.0290952 C224.011206,22.0650866 223.270258,19.7915952 221.788793,18.2075434 C220.306896,16.6241383 218.345258,15.8318969 215.904525,15.8318969 C214.509698,15.8318969 213.382974,15.8976297 212.526293,16.0282331 C211.66875,16.158621 211.022629,16.2971986 210.586638,16.4424572 L210.586638,32.1775866 L210.586853,32.1775866 Z" id="Shape" fill="#000000"></path>
            <path d="M230.902155,24.9420262 C230.902155,22.9661641 231.18556,21.2443969 231.752155,19.776509 C232.31875,18.3096986 233.059482,17.0818969 233.975215,16.0935348 C234.890517,15.1062503 235.936422,14.3717676 237.113362,13.8924572 C238.290301,13.4129314 239.503232,13.1732762 240.753017,13.1732762 C243.513362,13.1732762 245.714439,14.0743538 247.35625,15.8756469 C248.997844,17.677371 249.819396,20.4521555 249.819396,24.2008624 C249.819396,24.4338366 249.811638,24.6659486 249.797413,24.8980607 C249.782327,25.1312503 249.76056,25.3491383 249.731896,25.5521555 L233.909698,25.5521555 C233.996767,28.3129314 234.67931,30.433621 235.958405,31.9155176 C237.236853,33.3974141 239.270905,34.1385779 242.06056,34.1385779 C243.600646,34.1385779 244.820905,33.9933193 245.721551,33.7025866 C246.621982,33.4125003 247.276077,33.1653021 247.683189,32.9616383 L248.20625,35.402371 C247.798922,35.6353452 247.036206,35.9109917 245.918103,36.2308193 C244.799138,36.5500003 243.484051,36.7101297 241.973275,36.7101297 C239.996982,36.7101297 238.312284,36.4193969 236.917456,35.8385779 C235.522629,35.2575434 234.374353,34.4437503 233.473706,33.3974141 C232.572629,32.351509 231.918965,31.1092676 231.512069,29.67069 C231.105388,28.2329745 230.902155,26.6568969 230.902155,24.9420262 Z M246.898706,23.1549572 C246.840301,20.8008624 246.288577,18.970259 245.242456,17.6627159 C244.196336,16.3551728 242.714655,15.7010779 240.796767,15.7010779 C239.779094,15.7010779 238.87112,15.9047417 238.072413,16.3112072 C237.272629,16.7187503 236.575215,17.2635779 235.980172,17.9459055 C235.384051,18.6286641 234.919181,19.421121 234.585344,20.321121 C234.250862,21.2224141 234.054525,22.1670262 233.996767,23.1547417 L246.898706,23.1547417 L246.898706,23.1549572 Z" id="Shape" fill="#000000"></path>
            <path d="M42.7984914,21.5693966 C42.7984914,33.3767241 33.2267241,42.9512931 21.4165948,42.9512931 C9.60926724,42.9512931 0.0344827586,33.3767241 0.0344827586,21.5693966 C0.0344827586,9.75905172 9.60926724,0.187068966 21.4165948,0.187068966 C33.2267241,0.187068966 42.7984914,9.75905172 42.7984914,21.5693966 Z" id="Shape" fill="#E95420"></path>
            <path d="M32.412931,27.0676724 C32.412931,26.7303879 32.1394397,26.456681 31.8021552,26.456681 L20.1948276,26.456681 L20.1948276,7.51810345 C20.1948276,7.35603448 20.1306034,7.20064655 20.0159483,7.08599138 C19.9010776,6.97155172 19.7459052,6.90711207 19.5838362,6.90711207 L14.6965517,6.90711207 C14.3592672,6.90711207 14.0855603,7.18081897 14.0855603,7.51810345 L14.0855603,31.9547414 C14.0855603,32.2920259 14.3592672,32.5657328 14.6965517,32.5657328 L29.3586207,32.5657328 C29.5204741,32.5657328 29.6760776,32.5012931 29.7905172,32.3866379 C29.9051724,32.2721983 29.9693966,32.1165948 29.9693966,31.9547414 L29.9693966,29.5109914 C29.9693966,29.1737069 29.6956897,28.9002155 29.3584052,28.9002155 L17.7510776,28.9002155 L17.7510776,9.35086207 L16.5293103,9.35086207 L16.5293103,29.5109914 C16.5293103,29.8482759 16.8028017,30.1219828 17.1400862,30.1219828 L28.7474138,30.1219828 L28.7474138,31.34375 L15.3073276,31.34375 L15.3073276,8.12909483 L18.9728448,8.12909483 L18.9728448,27.0676724 C18.9728448,27.4049569 19.2463362,27.6784483 19.5836207,27.6784483 L31.1909483,27.6784483 L31.1909483,33.7877155 L12.8635776,33.7877155 L12.8635776,7.51831897 C12.8635776,7.18081897 12.5900862,6.90732759 12.2525862,6.90732759 C11.9153017,6.90732759 11.6415948,7.18081897 11.6415948,7.51831897 L11.6415948,34.3987069 C11.6415948,34.7359914 11.9155172,35.0094828 12.2525862,35.0094828 L31.8017241,35.0094828 C31.9640086,35.0094828 32.119181,34.9452586 32.2336207,34.8306034 C32.3482759,34.7161638 32.4127155,34.5605603 32.4127155,34.3987069 L32.412931,27.0676724 Z" id="Shape" fill="#FFFFFF"></path>
        </g>
    </g>
</svg>