<?xml version="1.0" encoding="UTF-8"?>
<svg width="145px" height="145px" viewBox="0 0 145 145" version="1.1" xmlns="http://www.w3.org/2000/svg" xmlns:xlink="http://www.w3.org/1999/xlink">
    <!-- Generator: Sketch 48.2 (47327) - http://www.bohemiancoding.com/sketch -->
    <title>default slice size</title>
    <desc>Created with Sketch.</desc>
    <defs></defs>
    <g id="Artboard" stroke="none" stroke-width="1" fill="none" fill-rule="evenodd">
        <g id="logo-template" transform="translate(-2.000000, 0.000000)" fill-rule="nonzero">
            <g id="landscape_black-orange_hex" transform="translate(2.000000, 58.000000)">
                <g id="Group" transform="translate(33.638203, 1.365388)" fill="#000000">
                    <polygon id="Shape" points="9.97105862 18.0207676 9.97105862 19.5019657 0.080185533 19.5019657 0.080185533 2.10468405 1.78729333 2.10468405 1.78729333 18.0207676 9.97105862 18.0207676"></polygon>
                    <path d="M16.4679487,6.22182638 C17.3214405,6.22182638 18.0450963,6.34334594 18.6394126,6.58588856 C19.2332324,6.82867943 19.7144698,7.16319957 20.0830005,7.58994549 C20.4509106,8.01681554 20.7187749,8.52325048 20.8863453,9.10875382 C21.0532951,9.69462954 21.1373285,10.3306523 21.1373285,11.0165737 L21.1373285,19.2005872 C20.9697581,19.2507342 20.7269673,19.3053498 20.4092042,19.3638132 C20.0911928,19.4225249 19.7227862,19.4853328 19.3047291,19.5519886 C18.8861756,19.6186443 18.4219435,19.6732599 17.9115365,19.7152145 C17.4007572,19.7566727 16.8780617,19.7778983 16.3424571,19.7778983 C15.6561633,19.7778983 15.0243608,19.7026778 14.4470498,19.5519886 C13.8696147,19.4014235 13.3677724,19.1628529 12.9409024,18.8365251 C12.5141565,18.5101973 12.1792639,18.092016 11.9368454,17.5814849 C11.6940546,17.071078 11.5727833,16.4478402 11.5727833,15.7111512 C11.5727833,15.0082244 11.7065913,14.4057158 11.9744557,13.9036253 C12.2419477,13.4015347 12.6185466,12.9873256 13.1040042,12.6609978 C13.5892136,12.3346699 14.1666487,12.0960994 14.8363096,11.9454101 C15.505474,11.7948451 16.2334743,11.7195004 17.0203103,11.7195004 C17.2544124,11.7195004 17.5011753,11.7321613 17.7608473,11.7572348 C18.020147,11.7824324 18.2711302,11.8161948 18.513921,11.8576529 C18.7563395,11.8997317 18.9658646,11.9416864 19.1415032,11.9832686 C19.3172659,12.0253474 19.4384131,12.0629577 19.5055653,12.0962235 L19.5055653,11.2927545 C19.5055653,10.840811 19.471803,10.4015283 19.4051472,9.97465828 C19.337995,9.54791236 19.1917743,9.1631211 18.9658646,8.82003625 C18.7399549,8.47707553 18.4218194,8.20101883 18.0118305,7.99149379 C17.6015934,7.78234112 17.0618926,7.67770272 16.3927282,7.67770272 C15.4386941,7.67770272 14.7272027,7.744855 14.2589986,7.87866306 C13.7901739,8.01259524 13.4469649,8.12145393 13.2297441,8.20486675 L13.0038344,6.77393977 C13.2882075,6.64037997 13.7274902,6.51476424 14.3216824,6.39746497 C14.915378,6.28053808 15.6308415,6.22182638 16.4679487,6.22182638 Z M16.6186379,18.3217737 C17.2544124,18.3217737 17.8109943,18.3010446 18.2880113,18.2590899 C18.7649042,18.2175076 19.1704246,18.1630162 19.5055653,18.095864 L19.5055653,13.5270263 C19.3211138,13.4434894 19.0284242,13.355608 18.6267518,13.2635064 C18.2253276,13.171653 17.6728418,13.125478 16.9700392,13.125478 C16.5683668,13.125478 16.1498132,13.1547718 15.7147508,13.2132353 C15.2793161,13.2720711 14.8776437,13.3974386 14.5097336,13.5897101 C14.1414511,13.7824781 13.8401968,14.045998 13.6059706,14.3806423 C13.3714962,14.7155348 13.2544452,15.1587895 13.2544452,15.711027 C13.2544452,16.1966088 13.3337618,16.6065977 13.4930158,16.9411178 C13.6518973,17.2760103 13.877807,17.5436264 14.170869,17.7444627 C14.4633104,17.9452989 14.8148358,18.092016 15.2251971,18.1837453 C15.6350618,18.2759711 16.0996662,18.3217737 16.6186379,18.3217737 Z" id="Shape"></path>
                    <path d="M24.666485,6.97490011 C25.1516944,6.84109205 25.80435,6.69052696 26.6244519,6.52295657 C27.4441814,6.35563444 28.4484866,6.27197337 29.6371192,6.27197337 C30.6242949,6.27197337 31.4483688,6.41434614 32.1097133,6.69871929 C32.7706854,6.98346482 33.2978494,7.38910928 33.6913295,7.91639743 C34.0843131,8.44356145 34.3648383,9.075488 34.5322846,9.81168056 C34.6993585,10.5483696 34.7831437,11.3600309 34.7831437,12.2470368 L34.7831437,19.5020898 L33.1515046,19.5020898 L33.1515046,12.7742009 C33.1515046,11.8539291 33.0885726,11.0755337 32.963081,10.4393868 C32.8375894,9.80361236 32.6281885,9.28451654 32.3353748,8.88296824 C32.0424369,8.48129582 31.6575215,8.19257825 31.1806286,8.01693966 C30.7037357,7.84117695 30.1049509,7.75317146 29.3858877,7.75317146 C28.6156846,7.75317146 27.9504922,7.79525025 27.3899382,7.87891131 C26.8290119,7.96269651 26.4650738,8.03804112 26.2979999,8.10482102 L26.2979999,19.5020898 L24.6662367,19.5020898 L24.6662367,6.97490011 L24.666485,6.97490011 Z" id="Shape"></path>
                    <path d="M48.6805626,19.1001691 C48.1949809,19.2676154 47.5759635,19.4263728 46.8227656,19.5771862 C46.0696919,19.7277513 45.1156578,19.8030959 43.9607875,19.8030959 C43.0070017,19.8030959 42.140849,19.6480622 41.3627018,19.3386156 C40.5843063,19.0291689 39.9150178,18.5815698 39.3544638,17.99557 C38.7932892,17.4099425 38.3584751,16.6988234 38.0487802,15.8617163 C37.7390853,15.0251056 37.5845481,14.0795121 37.5845481,13.0250599 C37.5845481,12.0377601 37.7138877,11.1296527 37.9735597,10.3011102 C38.2329835,9.47269188 38.6135544,8.75722839 39.1157691,8.15459563 C39.6181079,7.55221112 40.232905,7.08388293 40.9609052,6.7489904 C41.6887813,6.41447026 42.5211717,6.24677575 43.4588211,6.24677575 C44.3121888,6.24677575 45.0528499,6.36829531 45.6804321,6.61083793 C46.3080142,6.85375293 46.7638057,7.08400705 47.0484271,7.30122792 L47.0484271,0.322231647 L48.6801902,0.0209773298 L48.6801902,19.1001691 L48.6805626,19.1001691 Z M47.0487994,8.88271999 C46.8982343,8.7657931 46.710059,8.6403015 46.4840252,8.50624519 C46.2581155,8.37243713 45.9944714,8.24694553 45.6933412,8.12964626 C45.3918386,8.01271937 45.0656349,7.9162733 44.7139854,7.84105282 C44.3625841,7.76570821 43.9943016,7.72797384 43.6095104,7.72797384 C42.8061655,7.72797384 42.1325326,7.87034661 41.5888597,8.15471976 C41.0445663,8.43971354 40.6052836,8.82016038 40.2707635,9.29705329 C39.9361192,9.77407032 39.6937007,10.3348725 39.5428874,10.9790876 C39.3924464,11.623675 39.3169777,12.3057485 39.3169777,13.0251841 C39.3169777,14.7322919 39.7438477,16.0419475 40.5972154,16.9539028 C41.4508314,17.8662305 42.5803799,18.3218978 43.9862334,18.3218978 C44.7897024,18.3218978 45.4378895,18.2842875 45.9317877,18.2089429 C46.4251893,18.1337225 46.7980645,18.0545299 47.0489236,17.9704965 L47.0489236,8.88271999 L47.0487994,8.88271999 Z" id="Shape"></path>
                    <path d="M54.9737616,18.3470954 C55.9109145,18.3470954 56.6847173,18.1925583 57.2959148,17.8826151 C57.9066157,17.5731685 58.2120903,17.0502247 58.2120903,16.3135357 C58.2120903,15.9621344 58.157723,15.6608801 58.0491126,15.4097727 C57.9401298,15.1589137 57.7605192,14.9328798 57.5092877,14.7321677 C57.2584286,14.5312074 56.9276323,14.33906 56.5176434,14.1548567 C56.1074063,13.9707776 55.6014678,13.7531843 54.9989592,13.5019528 C54.5135016,13.3012408 54.0532416,13.0964325 53.6181792,12.8870316 C53.1827445,12.6778789 52.7980773,12.4350881 52.4634331,12.1590314 C52.1285405,11.8828505 51.8609244,11.5526748 51.6600882,11.1673871 C51.4593761,10.7825958 51.3588339,10.3138952 51.3588339,9.76140945 C51.3588339,8.7070814 51.7561619,7.85358957 52.5511903,7.20093394 C53.3458463,6.54803007 54.4377846,6.22182638 55.8273775,6.22182638 C56.7143834,6.22182638 57.446604,6.29704687 58.023915,6.44773609 C58.6013501,6.59817706 59.0068705,6.73248162 59.241469,6.84928438 L58.8649942,8.30528485 C58.6640339,8.20474262 58.3251693,8.07105869 57.8484005,7.90361243 C57.3712594,7.73653855 56.6721805,7.65275336 55.7521571,7.65275336 C55.3836263,7.65275336 55.0366936,7.69073598 54.7102416,7.76595646 C54.3837897,7.84130107 54.0951962,7.95897272 53.8439648,8.11822665 C53.5931057,8.27760471 53.3920213,8.47868917 53.2415803,8.72185242 C53.0907669,8.9651398 53.0156706,9.26242207 53.0156706,9.61456814 C53.0156706,9.96683833 53.0823264,10.2688374 53.2163827,10.5203171 C53.3501907,10.7720451 53.5465584,10.9941069 53.8063546,11.1872472 C54.0656542,11.3802635 54.3836656,11.5598741 54.7603886,11.7263274 C55.1368634,11.8930289 55.5675814,12.0762392 56.0532872,12.2762065 C56.5553778,12.476298 57.0362427,12.6802373 57.4966268,12.8885211 C57.9568868,13.096929 58.3629037,13.3475398 58.714305,13.6401053 C59.0657063,13.9331673 59.3502036,14.2845686 59.5677968,14.6945575 C59.7852659,15.1049188 59.8942488,15.6192978 59.8942488,16.2384393 C59.8942488,17.4099425 59.4549661,18.2969484 58.5762766,18.8994571 C57.6977113,19.5019657 56.4965419,19.80322 54.9738857,19.80322 C53.8356483,19.80322 52.9655236,19.7067739 52.3632632,19.5143783 C51.7606305,19.3222309 51.358958,19.1756379 51.1582459,19.0750956 L51.5849919,17.5940217 C51.6351388,17.6276599 51.7437493,17.681903 51.9114438,17.7571235 C52.0783936,17.832344 52.3043033,17.9163775 52.5890488,18.0081067 C52.8735461,18.1002084 53.2122865,18.1798974 53.6058907,18.2466773 C53.9986261,18.3135813 54.454914,18.3470954 54.9737616,18.3470954 Z" id="Shape"></path>
                    <path d="M67.9900086,19.7778983 C66.9858275,19.7778983 66.0986975,19.6186443 65.3289908,19.3008812 C64.5589118,18.9831181 63.9189171,18.5270784 63.4085101,17.9328862 C62.8977307,17.3390664 62.508595,16.6273267 62.2412272,15.7990325 C61.9732387,14.9704901 61.8395547,14.0543145 61.8395547,13.0501334 C61.8395547,12.0294436 61.9775831,11.1006071 62.2536398,10.2633758 C62.5299447,9.42676518 62.9272727,8.70695727 63.4462444,8.10457277 C63.9645955,7.50194001 64.5921776,7.03758385 65.3289908,6.71113191 C66.0653075,6.38467997 66.8936017,6.22170226 67.8142458,6.22170226 C68.5170485,6.22170226 69.1738002,6.28053808 69.7848736,6.39734085 C70.3956987,6.51464012 70.8683713,6.66520521 71.2032638,6.84928438 L70.7765179,8.25501374 C70.4415012,8.08806398 70.0651506,7.95375942 69.6468452,7.85346544 C69.2282916,7.75292321 68.6677377,7.70290034 67.9646868,7.70290034 C66.5251951,7.70290034 65.4331327,8.16713238 64.6887478,9.09609295 C63.9437423,10.0248053 63.5716119,11.3430256 63.5716119,13.0501334 C63.5716119,13.8200883 63.6551489,14.5272354 63.822471,15.1714504 C63.989669,15.8157896 64.2617537,16.3681512 64.6383526,16.8282871 C65.0150756,17.2887953 65.5000367,17.648389 66.094353,17.9076886 C66.6881728,18.1673607 67.4123252,18.2969484 68.2659411,18.2969484 C68.9687437,18.2969484 69.5587156,18.2176318 70.0357327,18.0583778 C70.5126256,17.8996204 70.8598066,17.7613438 71.0776481,17.6440445 L71.4290494,19.0500222 C71.1277951,19.2174684 70.6548742,19.3806944 70.0106592,19.5394518 C69.3664441,19.6983334 68.6929353,19.7778983 67.9900086,19.7778983 Z" id="Shape"></path>
                    <path d="M77.8178255,6.22182638 C78.6714415,6.22182638 79.3952214,6.34334594 79.9894136,6.58588856 C80.5833575,6.82867943 81.0644707,7.16319957 81.4328773,7.58994549 C81.8007874,8.01681554 82.0687759,8.52325048 82.2362222,9.10875382 C82.4034202,9.69462954 82.4873295,10.3306523 82.4873295,11.0165737 L82.4873295,19.2005872 C82.319635,19.2507342 82.0768441,19.3053498 81.7592051,19.3638132 C81.4411938,19.4225249 81.0729113,19.4853328 80.6547301,19.5519886 C80.2363006,19.6186443 79.7718204,19.6732599 79.2614134,19.7152145 C78.7507581,19.7566727 78.2279385,19.7778983 77.6923339,19.7778983 C77.0060401,19.7778983 76.3744859,19.7026778 75.7968025,19.5519886 C75.2194915,19.4014235 74.7175251,19.1628529 74.2906551,18.8365251 C73.8639092,18.5101973 73.5288925,18.092016 73.286474,17.5814849 C73.0436832,17.071078 72.9224118,16.4478402 72.9224118,15.7111512 C72.9224118,15.0082244 73.0562199,14.4057158 73.3240843,13.9036253 C73.5914521,13.4015347 73.9680511,12.9873256 74.4538811,12.6609978 C74.9388422,12.3346699 75.5164014,12.0960994 76.1859382,11.9454101 C76.8551026,11.7948451 77.583227,11.7195004 78.370063,11.7195004 C78.6041651,11.7195004 78.8508039,11.7321613 79.1106,11.7572348 C79.3698997,11.7824324 79.6207588,11.8161948 79.8636738,11.8576529 C80.1060922,11.8997317 80.3156173,11.9416864 80.4912559,11.9832686 C80.6670186,12.0253474 80.7882899,12.0629577 80.8553181,12.0962235 L80.8553181,11.2927545 C80.8553181,10.840811 80.8216799,10.4015283 80.7549,9.97465828 C80.6879959,9.54791236 80.541527,9.1631211 80.3156173,8.82003625 C80.0897076,8.47707553 79.7715721,8.20101883 79.3617074,7.99149379 C78.951222,7.78234112 78.4115212,7.67770272 77.7423568,7.67770272 C76.7883227,7.67770272 76.0769554,7.744855 75.6086272,7.87866306 C75.1399266,8.01259524 74.7965935,8.12145393 74.5793727,8.20486675 L74.3534629,6.77393977 C74.6378361,6.64037997 75.0771188,6.51476424 75.6713109,6.39746497 C76.2652549,6.28053808 76.9808425,6.22182638 77.8178255,6.22182638 Z M77.9685147,18.3217737 C78.6042892,18.3217737 79.1608711,18.3010446 79.6378882,18.2590899 C80.1150293,18.2175076 80.5204255,18.1630162 80.8554422,18.095864 L80.8554422,13.5270263 C80.6712389,13.4434894 80.3785493,13.355608 79.9768769,13.2635064 C79.5753286,13.171653 79.0228428,13.125478 78.3200402,13.125478 C77.9183678,13.125478 77.4998142,13.1547718 77.0647518,13.2132353 C76.629317,13.2720711 76.2277688,13.3974386 75.8598587,13.5897101 C75.4914521,13.7824781 75.1901977,14.045998 74.9560957,14.3806423 C74.7214972,14.7155348 74.6045703,15.1587895 74.6045703,15.711027 C74.6045703,16.1966088 74.6840111,16.6065977 74.8431409,16.9411178 C75.0020224,17.2760103 75.2280562,17.5436264 75.5209941,17.7444627 C75.8134355,17.9452989 76.165085,18.092016 76.5753221,18.1837453 C76.9851869,18.2759711 77.4495431,18.3217737 77.9685147,18.3217737 Z" id="Shape"></path>
                    <path d="M87.6483733,24.1458997 L86.0166101,24.1458997 L86.0166101,6.97490011 C86.5016953,6.80757798 87.1210851,6.64844817 87.874283,6.49788308 C88.6273567,6.34719386 89.5813908,6.27197337 90.7361369,6.27197337 C91.6902951,6.27197337 92.5561996,6.42700701 93.3345951,6.73632953 C94.1127423,7.04614856 94.7819067,7.4938718 95.3427089,8.07937515 C95.9032629,8.66549912 96.3383253,9.37636994 96.6482684,10.2131047 C96.9577151,11.0502119 97.1127487,11.9956813 97.1127487,13.0500093 C97.1127487,14.0376816 96.9827886,14.9454166 96.7233648,15.7737108 C96.4636927,16.6021291 96.08337,17.3136206 95.5812795,17.9074404 C95.0793131,18.5017567 94.4641436,18.9661128 93.7362675,19.3007571 C93.0082672,19.6352772 92.1753804,19.8029718 91.2384757,19.8029718 C90.3848597,19.8029718 89.6441986,19.6813281 89.0166165,19.4387854 C88.3891585,19.196367 87.9328706,18.9661128 87.6486215,18.7483955 L87.6486215,24.1458997 L87.6483733,24.1458997 Z M87.6483733,17.1671516 C87.7990625,17.2844509 87.987362,17.4099425 88.2131475,17.5436264 C88.4390572,17.6778069 88.7028254,17.8034226 89.0040798,17.9202254 C89.3053341,18.0375246 89.6316619,18.1335983 89.9831873,18.2088188 C90.3345886,18.2841634 90.7024987,18.3217737 91.0876624,18.3217737 C91.8910072,18.3217737 92.564516,18.1837453 93.1085612,17.9075645 C93.6521099,17.6313837 94.0913926,17.2549089 94.4264092,16.7778918 C94.7609294,16.3007507 95.0037202,15.7403208 95.1544094,15.0958575 C95.3049745,14.4518907 95.3800709,13.7696931 95.3800709,13.0500093 C95.3800709,11.3429015 94.953325,10.0334941 94.1000814,9.12116644 C93.2465896,8.20921116 92.1167928,7.75292321 90.7110634,7.75292321 C89.9077186,7.75292321 89.2587868,7.7907817 88.7653851,7.86600219 C88.2714869,7.94109855 87.8993565,8.0209117 87.6482491,8.10457277 L87.6482491,17.1671516 L87.6483733,17.1671516 Z" id="Shape"></path>
                    <path d="M99.3488824,12.9998623 C99.3488824,11.8618732 99.5121084,10.8702289 99.8384362,10.0248053 C100.164764,9.18000227 100.591386,8.47285524 101.118798,7.90361243 C101.645962,7.33499025 102.248347,6.91196812 102.9262,6.63591143 C103.604053,6.3597306 104.302635,6.22170226 105.022443,6.22170226 C106.612252,6.22170226 107.879953,6.74067395 108.825546,7.77812083 C109.771016,8.81581596 110.244185,10.4139409 110.244185,12.5729923 C110.244185,12.7071727 110.239716,12.8408566 110.231524,12.9745406 C110.222835,13.1088451 110.210298,13.2343367 110.19379,13.3512636 L101.081064,13.3512636 C101.131211,14.9413204 101.524318,16.1627223 102.261007,17.0162142 C102.997324,17.869706 104.168827,18.296576 105.775517,18.296576 C106.662523,18.296576 107.365326,18.212915 107.884049,18.0454687 C108.402648,17.8783948 108.779371,17.7360221 109.013846,17.6187228 L109.3151,19.0244522 C109.080502,19.1586326 108.641219,19.31739 107.997252,19.5015933 C107.352789,19.6854242 106.595371,19.77765 105.725246,19.77765 C104.587009,19.77765 103.616714,19.6102037 102.813369,19.2756836 C102.010024,18.9410393 101.34868,18.4723388 100.829956,17.869706 C100.310985,17.2673215 99.9345099,16.551858 99.7001596,15.7233155 C99.4659334,14.8952696 99.3488824,13.9875346 99.3488824,12.9998623 Z M108.562026,11.9706078 C108.528388,10.6147772 108.210625,9.56044911 107.608116,8.80737538 C107.005608,8.05430165 106.15224,7.6775786 105.047641,7.6775786 C104.461517,7.6775786 103.938573,7.79487787 103.478561,8.0289799 C103.017929,8.26370257 102.616257,8.57749364 102.273544,8.97047722 C101.930211,9.36370906 101.662471,9.82012114 101.470199,10.3384722 C101.277555,10.857568 101.164477,11.4016132 101.131211,11.9704836 L108.562026,11.9704836 L108.562026,11.9706078 Z" id="Shape"></path>
                </g>
                <g id="Group">
                    <path d="M24.6496038,12.4227996 C24.6496038,19.2231782 19.1367864,24.7376093 12.3347941,24.7376093 C5.53441542,24.7376093 0.0198601939,19.2231782 0.0198601939,12.4227996 C0.0198601939,5.62068314 5.53441542,0.107741552 12.3347941,0.107741552 C19.1367864,0.107741552 24.6496038,5.62068314 24.6496038,12.4227996 Z" id="Shape" fill="#E95420"></path>
                    <path d="M18.6680858,15.5895075 C18.6680858,15.39525 18.5105696,15.2376097 18.3163121,15.2376097 L11.6311226,15.2376097 L11.6311226,4.33001878 C11.6311226,4.23667587 11.594133,4.14718087 11.5280978,4.08114573 C11.4619386,4.01523471 11.3725677,3.97812097 11.2792248,3.97812097 L8.46441466,3.97812097 C8.27015713,3.97812097 8.11251684,4.13576126 8.11251684,4.33001878 L8.11251684,18.4041935 C8.11251684,18.598451 8.27015713,18.7560913 8.46441466,18.7560913 L16.9089691,18.7560913 C17.0021879,18.7560913 17.091807,18.7189775 17.157718,18.6529424 C17.2237532,18.5870314 17.2607428,18.4974123 17.2607428,18.4041935 L17.2607428,16.9967264 C17.2607428,16.8024688 17.1031025,16.6449527 16.908845,16.6449527 L10.2236555,16.6449527 L10.2236555,5.38558809 L9.51998396,5.38558809 L9.51998396,16.9967264 C9.51998396,17.1909839 9.67750013,17.3486242 9.87175765,17.3486242 L16.5569472,17.3486242 L16.5569472,18.0522957 L8.81618834,18.0522957 L8.81618834,4.68191659 L10.927327,4.68191659 L10.927327,15.5895075 C10.927327,15.783765 11.0848431,15.9412812 11.2791006,15.9412812 L17.9642902,15.9412812 L17.9642902,19.4598869 L7.40872122,19.4598869 L7.40872122,4.33014291 C7.40872122,4.13576126 7.25120506,3.9782451 7.05682341,3.9782451 C6.86256589,3.9782451 6.7049256,4.13576126 6.7049256,4.33014291 L6.7049256,19.8117847 C6.7049256,20.0060422 6.86269002,20.1635584 7.05682341,20.1635584 L18.3160639,20.1635584 C18.4095309,20.1635584 18.4989018,20.1265688 18.5648128,20.0605336 C18.6308479,19.9946226 18.6679617,19.9050035 18.6679617,19.8117847 L18.6680858,15.5895075 Z" id="Shape" fill="#FFFFFF"></path>
                </g>
            </g>
        </g>
    </g>
</svg>