<?xml version="1.0" encoding="UTF-8"?>
<svg width="199px" height="36px" viewBox="0 0 199 36" version="1.1" xmlns="http://www.w3.org/2000/svg" xmlns:xlink="http://www.w3.org/1999/xlink">
    <!-- Generator: Sketch 48.1 (47250) - http://www.bohemiancoding.com/sketch -->
    <title>landscape_portfolio</title>
    <desc>Created with Sketch.</desc>
    <defs></defs>
    <g id="Page-1" stroke="none" stroke-width="1" fill="none" fill-rule="evenodd">
        <g id="landscape_portfolio" fill-rule="nonzero">
            <g id="Group" transform="translate(46.442667, 1.885127)" fill="#000000">
                <polygon id="Shape" points="13.7665663 24.8804165 13.7665663 26.9254363 0.110708351 26.9254363 0.110708351 2.90583714 2.46763087 2.90583714 2.46763087 24.8804165"></polygon>
                <path d="M22.7365133,8.59017969 C23.9148889,8.59017969 24.914006,8.75795596 25.7345502,9.09282301 C26.554409,9.42803282 27.2188305,9.88988887 27.7276434,10.4790767 C28.2355993,11.0684358 28.6054269,11.7676464 28.8367834,12.576023 C29.0672829,13.3849137 29.1833039,14.2630401 29.1833039,15.2100592 L29.1833039,26.5093373 C28.9519475,26.5785729 28.6167376,26.653978 28.1780172,26.7346957 C27.7389541,26.8157561 27.2303127,26.9024719 26.6531211,26.9945004 C26.0752441,27.0865289 25.434301,27.161934 24.7296064,27.2198588 C24.0243976,27.2770981 23.3027369,27.3064033 22.563253,27.3064033 C21.6157198,27.3064033 20.7434202,27.2025499 19.9463543,26.9945004 C19.1491171,26.7866224 18.4562473,26.4572393 17.8668882,26.006694 C17.2777005,25.5561487 16.8153302,24.9787858 16.4806346,24.2739198 C16.1454248,23.5692252 15.9779913,22.7087505 15.9779913,21.6916389 C15.9779913,20.7211414 16.1627337,19.8892865 16.5325613,19.196074 C16.9018747,18.5028614 17.421827,17.9309825 18.0920752,17.4804372 C18.7619807,17.0298919 19.559218,16.7005089 20.4837869,16.4924595 C21.4076704,16.2845814 22.4127857,16.1805567 23.4991328,16.1805567 C23.8223463,16.1805567 24.1630401,16.198037 24.5215569,16.2326547 C24.8795596,16.2674439 25.2260802,16.314058 25.56129,16.3712972 C25.8959857,16.4293935 26.185267,16.4873182 26.4277628,16.5447289 C26.67043,16.6028251 26.8376922,16.6547518 26.9304061,16.7006804 L26.9304061,15.5913689 C26.9304061,14.9673919 26.883792,14.3608953 26.7917636,13.7715361 C26.6990496,13.1823483 26.4971698,12.6510854 26.185267,12.1774045 C25.8733641,11.7038949 25.4341296,11.3227565 24.8680775,11.0334753 C24.3016827,10.7447081 23.5565434,10.6002389 22.63266,10.6002389 C21.3154705,10.6002389 20.3331481,10.6929528 19.686721,10.8776953 C19.0394371,11.0626091 18.5655847,11.2129051 18.2656782,11.3280692 L17.9537754,9.35245637 C18.3463959,9.16805671 18.9528927,8.99462505 19.7732654,8.83267553 C20.5929529,8.67124013 21.5807593,8.59017969 22.7365133,8.59017969 Z M22.9445628,25.2960012 C23.8223463,25.2960012 24.5907925,25.2673816 25.2493872,25.2094567 C25.9078106,25.1520461 26.4676931,25.0768124 26.9304061,24.9840984 L26.9304061,18.6761217 C26.6757427,18.5607863 26.27164,18.4394527 25.71707,18.3122923 C25.1628428,18.1854747 24.4000519,18.1217231 23.4297258,18.1217231 C22.8751558,18.1217231 22.2972788,18.1621676 21.6966088,18.2428853 C21.0954248,18.3241171 20.5408548,18.497206 20.0328988,18.7626661 C19.5244288,19.0288118 19.1085012,19.3926412 18.7851164,19.8546687 C18.4613887,20.3170388 18.2997819,20.9290195 18.2997819,21.6914676 C18.2997819,22.3618872 18.4092906,22.9279394 18.6291649,23.3897954 C18.8485252,23.8521655 19.160428,24.2216504 19.5650447,24.4989354 C19.9688046,24.7762204 20.4541389,24.9787858 21.0207052,25.105432 C21.586586,25.2327639 22.2280433,25.2960012 22.9445628,25.2960012 Z" id="Shape"></path>
                <path d="M34.0558423,9.62991276 C34.7257478,9.44517034 35.6268384,9.23729228 36.7591141,9.00593581 C37.8908755,8.7749221 39.2774719,8.65941525 40.9185605,8.65941525 C42.2815071,8.65941525 43.4192667,8.85598255 44.3323535,9.24860304 C45.2449263,9.64173764 45.9727565,10.2017917 46.5160158,10.9297933 C47.0585895,11.6576236 47.4458973,12.5300945 47.6770824,13.5465206 C47.9077534,14.5636322 48.0234317,15.6842542 48.0234317,16.9089011 L48.0234317,26.9256076 L45.7707052,26.9256076 L45.7707052,17.6367314 C45.7707052,16.366156 45.6838181,15.2914624 45.5105577,14.4131647 C45.3372975,13.5353812 45.0481876,12.8186902 44.6439136,12.2642917 C44.2394682,11.7097217 43.7080339,11.311103 43.0496105,11.0686072 C42.3911871,10.82594 41.5644734,10.704435 40.5716971,10.704435 C39.5083143,10.704435 38.5899148,10.7625312 37.8159846,10.878038 C37.0415402,10.9937162 36.5390683,11.097741 36.3083973,11.1899408 L36.3083973,26.9256076 L34.0554996,26.9256076 L34.0554996,9.62991276 L34.0558423,9.62991276 Z" id="Shape"></path>
                <path d="M67.2109369,26.3706948 C66.5405172,26.6018799 65.6858694,26.8210688 64.6459649,27.0292895 C63.6062318,27.2371676 62.2890424,27.3411924 60.694568,27.3411924 C59.3777212,27.3411924 58.1818654,27.1271448 57.1075146,26.6999065 C56.032821,26.2726683 55.1087661,25.6546894 54.3348359,24.8456273 C53.5600488,24.0370794 52.9597217,23.0552711 52.5321406,21.899517 C52.1045596,20.7444484 51.8911976,19.4389125 51.8911976,17.9830806 C51.8911976,16.6199627 52.0697705,15.3661819 52.4282872,14.2222528 C52.7864613,13.0784951 53.3118976,12.0906887 54.0052814,11.2586622 C54.6988367,10.4269786 55.5476578,9.78038014 56.5527731,9.31800998 C57.5577171,8.85615393 58.7069589,8.6246261 60.0015267,8.6246261 C61.179731,8.6246261 62.2023265,8.79240237 63.0687993,9.12726942 C63.9352722,9.4626506 64.5645617,9.78055152 64.9575249,10.080458 L64.9575249,0.444889905 L67.2104228,0.0289624013 L67.2104228,26.3706948 L67.2109369,26.3706948 Z M64.958039,12.2639489 C64.750161,12.1025135 64.4903563,11.9292532 64.178282,11.744168 C63.8663793,11.5594256 63.5023784,11.3861653 63.0866224,11.2242158 C62.670352,11.0627804 62.2199782,10.9296219 61.7344724,10.8257686 C61.2493093,10.7217439 60.7408393,10.6696458 60.2095763,10.6696458 C59.1004363,10.6696458 58.1703833,10.8662131 57.4197601,11.2588336 C56.66828,11.652311 56.0617834,12.1775758 55.5999273,12.8359992 C55.1378999,13.4945939 54.8032042,14.2688669 54.5949834,15.1583039 C54.3872767,16.0482551 54.2830806,16.9899616 54.2830806,17.9832519 C54.2830806,20.3401745 54.8724398,22.1483537 56.050644,23.407447 C57.2291908,24.6670545 58.7887048,25.2961727 60.7296999,25.2961727 C61.8390112,25.2961727 62.7339323,25.2442459 63.415834,25.1402212 C64.0970502,25.0363678 64.6118612,24.9270305 64.9582105,24.8110095 L64.9582105,12.2639489 L64.958039,12.2639489 Z" id="Shape"></path>
                <path d="M75.8996572,25.3309618 C77.1935396,25.3309618 78.2618924,25.1175998 79.1057436,24.6896759 C79.9489094,24.2624377 80.3706637,23.5404341 80.3706637,22.5233227 C80.3706637,22.0381595 80.2956013,21.622232 80.1456481,21.2755401 C79.9951807,20.9291908 79.7472008,20.6171167 79.4003376,20.3400031 C79.0539883,20.0625467 78.5972736,19.797258 78.0312214,19.5429372 C77.4648265,19.288788 76.7663014,18.9883672 75.9344464,18.641504 C75.2641982,18.3643904 74.628739,18.0816213 74.0280692,17.7925114 C73.4268852,17.5037443 72.8957935,17.1685345 72.4337661,16.7873961 C71.9713959,16.4060864 71.6019111,15.9502286 71.3246261,15.41828 C71.0475124,14.887017 70.9086986,14.2399045 70.9086986,13.4771136 C70.9086986,12.021453 71.4572705,10.8430775 72.5549283,9.94198692 C73.652072,9.04055359 75.1596593,8.59017969 77.0782042,8.59017969 C78.3028511,8.59017969 79.3137931,8.69403302 80.1108589,8.90208247 C80.9080961,9.10978916 81.4679788,9.29521707 81.7918778,9.4564811 L81.272097,11.4667117 C80.9946406,11.3278978 80.5267865,11.1433268 79.8685345,10.9121417 C79.2097684,10.6814707 78.2445835,10.5657925 76.9743508,10.5657925 C76.4655381,10.5657925 75.9865445,10.6182333 75.5358278,10.7220866 C75.0851111,10.8261113 74.6866639,10.988575 74.3398006,11.2084493 C73.9934514,11.428495 73.7158236,11.7061228 73.508117,12.0418467 C73.2998961,12.377742 73.1962142,12.7881855 73.1962142,13.2743769 C73.1962142,13.7607395 73.2882427,14.1776953 73.4733278,14.5249013 C73.6580702,14.8724501 73.9291857,15.1790402 74.2878739,15.4457 C74.6458766,15.7121884 75.0849398,15.9601683 75.6050634,16.1899823 C76.1248442,16.4201392 76.719516,16.6730889 77.390107,16.9491743 C78.0833195,17.2254311 78.7472269,17.5070004 79.3828573,17.794568 C80.0183164,18.0823069 80.5788845,18.4283133 81.0640476,18.8322445 C81.5492106,19.2368612 81.9420025,19.7220243 82.2424231,20.2880764 C82.5426724,20.8546427 82.6931398,21.5648213 82.6931398,22.4196406 C82.6931398,24.0370794 82.0866431,25.2617263 80.8734784,26.0935812 C79.6604851,26.9254363 78.0020877,27.3413637 75.8998287,27.3413637 C74.3283184,27.3413637 73.1269786,27.2082052 72.2954664,26.9425737 C71.46344,26.6772851 70.90887,26.474891 70.6317564,26.3360771 L71.2209441,24.2912287 C71.2901796,24.3376713 71.4401329,24.4125623 71.6716607,24.5164157 C71.9021604,24.620269 72.2140631,24.73629 72.6071977,24.8629363 C72.9999896,24.9900966 73.4676724,25.1001194 74.011103,25.1923193 C74.553334,25.2846905 75.1833092,25.3309618 75.8996572,25.3309618 Z" id="Shape"></path>
                <path d="M93.8705702,27.3064033 C92.4841452,27.3064033 91.259327,27.0865289 90.1966296,26.6478084 C89.1334182,26.2090881 88.2498078,25.5794558 87.5451133,24.7590829 C86.8399045,23.9392241 86.3026434,22.956559 85.9335012,21.8129725 C85.5635023,20.6690434 85.3789312,19.4041234 85.3789312,18.0176984 C85.3789312,16.6084805 85.5695004,15.3260802 85.9506388,14.1701547 C86.3321199,13.0150863 86.8806917,12.0212817 87.5972112,11.189598 C88.3128739,10.3575717 89.1793467,9.7164572 90.1966296,9.26574055 C91.213227,8.81502389 92.3568135,8.59000831 93.627903,8.59000831 C94.5982292,8.59000831 95.5049751,8.67124013 96.3486549,8.83250416 C97.191992,8.99445367 97.8445887,9.20233173 98.3069589,9.4564811 L97.7177711,11.3973047 C97.2552295,11.1668052 96.7356201,10.9813772 96.1580858,10.8429061 C95.5802088,10.7040922 94.8062786,10.635028 93.8356096,10.635028 C91.848172,10.635028 90.3404134,11.2759711 89.3126766,12.5585428 C88.2840829,13.8407717 87.7703001,15.6607759 87.7703001,18.0176984 C87.7703001,19.0807384 87.8856357,20.0570628 88.1166494,20.9464998 C88.3474917,21.8361082 88.723146,22.5987277 89.2430983,23.2340154 C89.7632218,23.8698172 90.4327846,24.3662911 91.2533288,24.7242937 C92.0731876,25.0828106 93.0729902,25.2617263 94.2515372,25.2617263 C95.2218634,25.2617263 96.0364094,25.1522175 96.6950041,24.9323431 C97.3534275,24.7131543 97.8327639,24.5222424 98.1335272,24.3602929 L98.6186902,26.3014593 C98.2027628,26.5326443 97.5498234,26.7580027 96.6603864,26.9771916 C95.7709493,27.1965517 94.8410677,27.3064033 93.8705702,27.3064033 Z" id="Shape"></path>
                <path d="M107.43937,8.59017969 C108.617917,8.59017969 109.617205,8.75795596 110.437578,9.09282301 C111.257608,9.42803282 111.921858,9.88988887 112.4305,10.4790767 C112.938456,11.0684358 113.308454,11.7676464 113.53964,12.576023 C113.770482,13.3849137 113.886332,14.2630401 113.886332,15.2100592 L113.886332,26.5093373 C113.654804,26.5785729 113.319594,26.653978 112.881045,26.7346957 C112.441982,26.8157561 111.933512,26.9024719 111.356149,26.9945004 C110.778443,27.0865289 110.137157,27.161934 109.432463,27.2198588 C108.727425,27.2770981 108.005593,27.3064033 107.266109,27.3064033 C106.318576,27.3064033 105.446619,27.2025499 104.649039,26.9945004 C103.851973,26.7866224 103.158932,26.4572393 102.569573,26.006694 C101.980385,25.5561487 101.517844,24.9787858 101.183148,24.2739198 C100.847938,23.5692252 100.680505,22.7087505 100.680505,21.6916389 C100.680505,20.7211414 100.865247,19.8892865 101.235075,19.196074 C101.604217,18.5028614 102.124169,17.9309825 102.794931,17.4804372 C103.464494,17.0298919 104.261903,16.7005089 105.1863,16.4924595 C106.110184,16.2845814 107.11547,16.1805567 108.201818,16.1805567 C108.525031,16.1805567 108.865554,16.198037 109.224242,16.2326547 C109.582244,16.2674439 109.928594,16.314058 110.263975,16.3712972 C110.598671,16.4293935 110.887952,16.4873182 111.130448,16.5447289 C111.373115,16.6028251 111.540548,16.6547518 111.633091,16.7006804 L111.633091,15.5913689 C111.633091,14.9673919 111.586648,14.3608953 111.494448,13.7715361 C111.402077,13.1823483 111.199855,12.6510854 110.887952,12.1774045 C110.576049,11.7038949 110.136814,11.3227565 109.570934,11.0334753 C109.004196,10.7447081 108.259057,10.6002389 107.335173,10.6002389 C106.017984,10.6002389 105.035833,10.6929528 104.389235,10.8776953 C103.742122,11.0626091 103.268098,11.2129051 102.968192,11.3280692 L102.656289,9.35245637 C103.048909,9.16805671 103.655406,8.99462505 104.475779,8.83267553 C105.295809,8.67124013 106.283787,8.59017969 107.43937,8.59017969 Z M107.647419,25.2960012 C108.525203,25.2960012 109.293649,25.2673816 109.952243,25.2094567 C110.61101,25.1520461 111.170721,25.0768124 111.633262,24.9840984 L111.633262,18.6761217 C111.378942,18.5607863 110.974839,18.4394527 110.420269,18.3122923 C109.86587,18.1854747 109.10308,18.1217231 108.132753,18.1217231 C107.578183,18.1217231 107.000306,18.1621676 106.399637,18.2428853 C105.798452,18.3241171 105.244054,18.497206 104.736098,18.7626661 C104.227456,19.0288118 103.811529,19.3926412 103.488315,19.8546687 C103.164416,20.3170388 103.002981,20.9290195 103.002981,21.6914676 C103.002981,22.3618872 103.112661,22.9279394 103.332364,23.3897954 C103.551724,23.8521655 103.863798,24.2216504 104.268244,24.4989354 C104.672003,24.7762204 105.157509,24.9787858 105.723904,25.105432 C106.289785,25.2327639 106.9309,25.2960012 107.647419,25.2960012 Z" id="Shape"></path>
                <path d="M121.011939,33.3370949 L118.759041,33.3370949 L118.759041,9.62991276 C119.428775,9.39889905 120.283937,9.1791961 121.323842,8.97131804 C122.363575,8.76326859 123.680764,8.65941525 125.275067,8.65941525 C126.592429,8.65941525 127.787941,8.87346282 128.862635,9.30052971 C129.936986,9.7282821 130.86087,10.3464323 131.635142,11.1548089 C132.409072,11.9640424 133.009742,12.945508 133.437666,14.1007478 C133.864905,15.2565019 134.078952,16.5618664 134.078952,18.017527 C134.078952,19.3811592 133.899522,20.6344257 133.541348,21.778012 C133.182831,22.9217699 132.657737,23.9040923 131.964525,24.723951 C131.271484,25.5444952 130.422149,26.1856096 129.417205,26.6476371 C128.412089,27.1094931 127.262163,27.341021 125.968623,27.341021 C124.790076,27.341021 123.767481,27.1730734 122.901007,26.8382063 C122.034706,26.5035106 121.404731,26.1856096 121.012282,25.8850177 L121.012282,33.3370949 L121.011939,33.3370949 Z M121.011939,23.7018695 C121.219989,23.863819 121.479965,24.0370794 121.791696,24.2216504 C122.103599,24.406907 122.467771,24.5803386 122.883699,24.7416027 C123.299627,24.9035522 123.750171,25.0361965 124.235506,25.1400499 C124.720669,25.2440746 125.228625,25.2960012 125.760402,25.2960012 C126.869542,25.2960012 127.799424,25.105432 128.550561,24.7241224 C129.301013,24.3428127 129.90751,23.8230318 130.370051,23.1644371 C130.831907,22.505671 131.167117,21.7319122 131.375166,20.8421323 C131.583045,19.9530381 131.686727,19.0111601 131.686727,18.017527 C131.686727,15.6606045 131.097539,13.852768 129.919506,12.5931606 C128.74113,11.3340673 127.181273,10.7040922 125.240449,10.7040922 C124.13131,10.7040922 123.23536,10.7563617 122.554145,10.860215 C121.872242,10.963897 121.35846,11.0740912 121.011767,11.189598 L121.011767,23.7018695 L121.011939,23.7018695 Z" id="Shape"></path>
                <path d="M137.166276,17.9482914 C137.166276,16.377124 137.391634,15.008008 137.84218,13.8407717 C138.292724,12.6743924 138.881741,11.6980681 139.609913,10.9121417 C140.337745,10.1270721 141.169428,9.54302555 142.105307,9.1618872 C143.041187,8.78057748 144.005687,8.59000831 144.999492,8.59000831 C147.194464,8.59000831 148.944718,9.30652783 150.250254,10.7388814 C151.555619,12.1715777 152.208901,14.3780328 152.208901,17.3589323 C152.208901,17.5441888 152.202731,17.7287599 152.19142,17.913331 C152.179424,18.0987588 152.162116,18.2720192 152.139323,18.4334545 L139.557816,18.4334545 C139.627052,20.6287702 140.169796,22.3151018 141.186908,23.4934773 C142.203505,24.6718529 143.820945,25.261212 146.039224,25.261212 C147.263871,25.261212 148.234198,25.1457052 148.950373,24.9145201 C149.66638,24.6838492 150.186502,24.4872819 150.51023,24.3253324 L150.926158,26.266156 C150.602259,26.4514125 149.995763,26.6706013 149.106667,26.924922 C148.216888,27.1787287 147.171157,27.3060605 145.969817,27.3060605 C144.398307,27.3060605 143.058667,27.0748754 141.949528,26.6130193 C140.840388,26.1509919 139.9273,25.5038793 139.211124,24.6718529 C138.494605,23.8401693 137.974823,22.8523629 137.651267,21.7084337 C137.327882,20.5651901 137.166276,19.3119236 137.166276,17.9482914 Z M149.886425,16.5272487 C149.839982,14.6553178 149.401261,13.1996572 148.569407,12.1599242 C147.737552,11.1201911 146.559348,10.6000675 145.034281,10.6000675 C144.225047,10.6000675 143.503043,10.762017 142.867927,11.0852306 C142.231954,11.409301 141.677383,11.8425374 141.204217,12.3851111 C140.730193,12.9280276 140.360537,13.5581741 140.095077,14.2738367 C139.829102,14.9905276 139.67298,15.7416649 139.627052,16.5270772 L149.886425,16.5270772 L149.886425,16.5272487 Z" id="Shape"></path>
            </g>
            <g id="Group">
                <path d="M34.0325353,17.1515683 C34.0325353,26.5405276 26.4212505,34.1540402 17.0300634,34.1540402 C7.64110407,34.1540402 0.0274200249,26.5405276 0.0274200249,17.1515683 C0.0274200249,7.76020981 7.64110407,0.148753635 17.0300634,0.148753635 C26.4212505,0.148753635 34.0325353,7.76020981 34.0325353,17.1515683 Z" id="Shape" fill="#E95420"></path>
                <path d="M25.774138,21.5236913 C25.774138,21.2554892 25.5566629,21.0378428 25.2884607,21.0378428 L16.0585376,21.0378428 L16.0585376,5.97825094 C16.0585376,5.84937682 16.0074678,5.72581533 15.9162963,5.63464375 C15.8249533,5.54364354 15.7015631,5.49240237 15.572689,5.49240237 L11.6864146,5.49240237 C11.4182125,5.49240237 11.2005661,5.71004882 11.2005661,5.97825094 L11.2005661,25.4097943 C11.2005661,25.6779965 11.4182125,25.8956429 11.6864146,25.8956429 L23.3454093,25.8956429 C23.4741119,25.8956429 23.5978448,25.8444017 23.6888451,25.7532301 C23.7800166,25.66223 23.8310864,25.5384971 23.8310864,25.4097943 L23.8310864,23.4665714 C23.8310864,23.1983694 23.61344,22.9808942 23.3452378,22.9808942 L14.1153147,22.9808942 L14.1153147,7.43562527 L13.1437889,7.43562527 L13.1437889,23.4665714 C13.1437889,23.7347736 13.361264,23.95242 13.6294661,23.95242 L22.8593893,23.95242 L22.8593893,24.9239458 L12.1720918,24.9239458 L12.1720918,6.46409951 L15.0868405,6.46409951 L15.0868405,21.5236913 C15.0868405,21.7918935 15.3043155,22.0093686 15.5725177,22.0093686 L24.8024408,22.0093686 L24.8024408,26.86734 L10.2288689,26.86734 L10.2288689,5.97842231 C10.2288689,5.71004882 10.0113939,5.49257375 9.74302036,5.49257375 C9.47481824,5.49257375 9.2571718,5.71004882 9.2571718,5.97842231 L9.2571718,27.3531887 C9.2571718,27.6213907 9.47498961,27.8388658 9.74302036,27.8388658 L25.288118,27.8388658 C25.4171635,27.8388658 25.5405536,27.787796 25.6315539,27.6966245 C25.7227254,27.6056242 25.7739665,27.4818913 25.7739665,27.3531887 L25.774138,21.5236913 Z" id="Shape" fill="#FFFFFF"></path>
            </g>
        </g>
    </g>
</svg>