<svg xmlns="http://www.w3.org/2000/svg" width="225" height="83" viewBox="0 0 225 83">
  <path d="M23.7272727 53.4763636C23.6947849 49.5535264 25.2387707 45.7819179 28.0127307 43.0079579 30.7866906 40.233998 34.5582991 38.6900122 38.4811364 38.7225 40.8028631 38.713547 43.091736 39.271021 45.1493182 40.3465909 47.1608719 41.3675455 48.9158896 42.8295942 50.2834091 44.6236364L50.2834091 33.4125 53.2329545 33.4125 53.2329545 53.4763636C53.2955048 58.7884412 50.4973895 63.7239893 45.9071372 66.3982488 41.3168849 69.0725083 35.6433424 69.0725083 31.0530901 66.3982488 26.4628378 63.7239893 23.6647225 58.7884412 23.7272727 53.4763636zM26.6768182 53.4763636C26.6658427 55.0496441 26.9849863 56.6077341 27.6136364 58.05 28.8247886 60.8736148 31.0753093 63.1234032 33.8993182 64.3336364 36.8182428 65.5936185 40.1276662 65.5936185 43.0465909 64.3336364 45.8706688 63.1242125 48.1208034 60.8740779 49.3302273 58.05 50.5902094 55.1310753 50.5902094 51.8216519 49.3302273 48.9027273 48.1199941 46.0787184 45.8702057 43.8281977 43.0465909 42.6170455 40.1271152 41.3597331 36.8187939 41.3597331 33.8993182 42.6170455 31.0756513 43.8288277 28.8254187 46.0790604 27.6136364 48.9027273 26.9849863 50.3449932 26.6658427 51.9030832 26.6768182 53.4763636zM86.2815896 54.9511364L86.2815896 53.4763636C86.3144469 47.4611279 82.7120319 42.0212909 77.1609459 39.7040512 71.60986 37.3868115 65.2089733 38.6508803 60.955495 42.9043586 56.7020167 47.1578369 55.4379479 53.5587236 57.7551876 59.1098096 60.0724273 64.6608955 65.5122643 68.2633106 71.5275 68.2304532 73.1156726 68.2343246 74.6926525 67.9644597 76.1890909 67.4325 77.6499883 66.9167904 79.0280639 66.1912335 80.28 65.2786364 81.5232709 64.3708157 82.6183157 63.2757709 83.5261364 62.0325 84.4509197 60.774069 85.1773118 59.3813 85.68 57.9027273L82.4440909 57.9027273C81.5940521 60.0755237 80.1147608 61.9451143 78.1956818 63.2720455 76.2688636 64.6097727 74.0461364 65.2786364 71.5275 65.2786364 70.0827659 65.2879366 68.6498668 65.0177486 67.3077273 64.4829545 66.0093118 63.9627352 64.8038834 63.2353334 63.7384091 62.3290909 62.6701839 61.4183435 61.7797348 60.317765 61.1120455 59.0829545 61.0547727 58.9765909 60.9975 58.8784091 60.9443182 58.7659091 60.1271243 57.1361366 59.7066078 55.3363262 59.7170455 53.5131818L59.7170455 53.4865909C59.7065427 51.6719157 60.1190404 49.8797568 60.9218182 48.2522727 60.9790909 48.1336364 61.0404545 48.0170455 61.1038636 47.9004545 61.7665599 46.6546441 62.6574759 45.5444684 63.7302273 44.6277273 64.7957015 43.7214848 66.00113 42.994083 67.2995455 42.4738636 70.0021049 41.4129152 73.0058497 41.4129152 75.7084091 42.4738636 77.0186596 42.9890221 78.2349804 43.7167413 79.3084091 44.6277273 80.3805666 45.5450441 81.2713859 46.6550993 81.9347727 47.9004545 82.6225347 49.1769552 83.0913111 50.5597765 83.3215909 51.9913636L71.7013636 51.9913636 71.7013636 54.9409091 86.2815896 54.9511364zM122.868409 36.3620455L122.868409 33.4125 125.82 33.4125 125.82 36.3620455 122.868409 36.3620455zM122.868409 68.2302273L122.868409 38.7225 125.82 38.7225 125.82 68.2302273 122.868409 68.2302273zM158.866622 53.7709091L158.866622 68.2302273C158.878151 70.1774889 158.486033 72.1060405 157.714773 73.8940909 156.966802 75.6356326 155.906895 77.2258397 154.587273 78.5863636 153.249391 79.9557731 151.654979 81.0483698 149.895 81.8018182 148.070227 82.592052 146.100998 82.9939783 144.1125 82.9823036 142.161631 82.9939586 140.230447 82.5916868 138.446591 81.8018182 134.919193 80.2407534 132.099928 77.4214889 130.538864 73.8940909 129.748802 72.1110179 129.346515 70.1804579 129.35837 68.2302273L132.310227 68.2302273C132.301732 69.8038915 132.622947 71.3618876 133.253182 72.8038636 134.464334 75.6274785 136.714855 77.8772668 139.538864 79.0875 140.980521 79.7189603 142.538636 80.0408962 144.1125 80.0325 145.724751 80.048538 147.32248 79.7266233 148.802727 79.0875 150.200115 78.4839481 151.471881 77.6236154 152.552045 76.5511364 153.619078 75.4795011 154.461244 74.2054735 155.029091 72.8038636 155.622596 71.35251 155.923584 69.7982192 155.914773 68.2302273L155.914773 62.3290909C154.573275 64.1019693 152.861809 65.5614624 150.899318 66.6061364 148.893409 67.6875 146.631136 68.2288636 144.1125 68.2302273 142.164631 68.2414684 140.235522 67.8493788 138.446591 67.0786364 136.705269 66.3313825 135.11561 65.2713787 133.756364 63.9511364 132.390376 62.6217557 131.297387 61.038207 130.538864 59.2895455 128.965296 55.5844715 128.965296 51.3989376 130.538864 47.6938636 131.292307 45.9333764 132.385684 44.3388381 133.756364 43.0015909 135.116104 41.6819604 136.705644 40.6220362 138.446591 39.8740909 140.235522 39.1033484 142.164631 38.7112589 144.1125 38.7222586 148.032314 38.7000269 151.798089 40.2472297 154.569861 43.0190024 157.341634 45.7907751 158.888837 49.5565495 158.866622 53.4763636L158.866622 53.7709091zM144.1125 65.2786364C145.724751 65.2946744 147.32248 64.9727597 148.802727 64.3336364 150.200513 63.7308117 151.472408 62.8703921 152.552045 61.7972727 153.619938 60.7263385 154.462226 59.4521265 155.029091 58.05 156.209962 55.1152429 156.209962 51.8374844 155.029091 48.9027273 154.462226 47.5006008 153.619938 46.2263888 152.552045 45.1554545 151.471963 44.0823557 150.200208 43.2213368 148.802727 42.6170455 147.322039 41.9795508 145.724515 41.6583739 144.1125 41.6740909 142.538896 41.6662 140.981024 41.9873892 139.538864 42.6170455 136.715197 43.8288277 134.464964 46.0790604 133.253182 48.9027273 131.995869 51.822203 131.995869 55.1305243 133.253182 58.05 134.464334 60.8736148 136.714855 63.1234032 139.538864 64.3336364 140.980521 64.9650966 142.538636 65.2870326 144.1125 65.2786364L144.1125 65.2786364zM177.158864 38.7225C179.109634 38.7115792 181.040612 39.1138082 182.824773 39.9027273 186.351042 41.4654385 189.169789 44.2841857 190.7325 47.8104545 191.521419 49.5946155 191.923648 51.5255935 191.912944 53.4763636L191.912944 68.2302273 188.961136 68.2302273 188.961136 53.4763636C188.969027 51.9027595 188.647838 50.3448872 188.018182 48.9027273 186.8064 46.0790604 184.556167 43.8288277 181.7325 42.6170455 178.813024 41.3597331 175.504703 41.3597331 172.585227 42.6170455 169.761612 43.8281977 167.511824 46.0787184 166.301591 48.9027273 165.670131 50.3443851 165.348195 51.9024993 165.356591 53.4763636L165.356591 68.2302273 162.408856 68.2302273 162.408856 53.4763636C162.39785 51.5284946 162.789939 49.5993861 163.560682 47.8104545 164.308627 46.0695075 165.368551 44.4799677 166.688182 43.1202273 168.017562 41.7542397 169.601111 40.6612506 171.349773 39.9027273 173.182481 39.1080009 175.161331 38.7059599 177.158864 38.7225L177.158864 38.7225z"/>
  <polygon points="71.229 5.373 53.229 23.079 53.229 .063 50.281 .063 50.281 34.881 53.231 34.881 53.231 27.205 73.297 7.435"/>
  <path d="M90.9409091 5.37314326C94.8608729 5.34982227 98.6270867 6.89673341 101.398778 9.6688087 104.170469 12.440884 105.716858 16.2073123 105.693005 20.1272727L105.693005 34.8812425 102.743182 34.8812425 102.743182 28.98C101.375662 30.7740422 99.6206446 32.2360908 97.6090909 33.2570455 95.5515087 34.3326154 93.2626358 34.8900893 90.9409091 34.8812425 82.7925752 34.8812425 76.1870455 28.2756066 76.1870455 20.1272727 76.1870455 11.9789388 82.7925752 5.37314326 90.9409091 5.37314326L90.9409091 5.37314326zM90.9409091 31.9297141C92.5172255 31.9381557 94.0779152 31.6169602 95.5227273 30.9865909 98.3463421 29.7754387 100.59613 27.524918 101.806364 24.7009091 103.066346 21.7819844 103.066346 18.472561 101.806364 15.5536364 100.59613 12.7296275 98.3463421 10.4791068 95.5227273 9.26795455 92.6032516 8.01064216 89.2949302 8.01064216 86.3754545 9.26795455 83.5502097 10.4760605 81.2970478 12.7233644 80.0815909 15.5454545 78.8242785 18.4649302 78.8242785 21.7732516 80.0815909 24.6927273 81.2933732 27.5163942 83.5436058 29.7666268 86.3672727 30.9784091 87.8088262 31.610876 89.3667227 31.9348572 90.9409091 31.9297141L90.9409091 31.9297141zM123.987273 5.37340909C125.935142 5.36216795 127.86425 5.75425753 129.653182 6.525 131.394129 7.27294526 132.983669 8.33286953 134.343409 9.6525 135.714088 10.9897472 136.807466 12.5842855 137.560909 14.3447727 138.3504 16.1697792 138.752294 18.1388511 138.741362 20.1272727L135.789545 20.1272727C135.797256 18.5536866 135.476074 16.9958513 134.846591 15.5536364 133.634809 12.7299695 131.384576 10.4797368 128.560909 9.26795455 125.641433 8.01064216 122.333112 8.01064216 119.413636 9.26795455 116.591527 10.4771544 114.341957 12.7245284 113.13 15.5454545 112.498888 16.9872234 112.176968 18.5452628 112.185 20.1190909L112.185 34.8729545 109.227273 34.8729545 109.227273 20.1272727C109.194785 16.2044355 110.738771 12.4328269 113.512731 9.65886702 116.286691 6.88490709 120.058299 5.34092129 123.981136 5.37340909L123.987273 5.37340909z"/>
  <polygon points="142.282 34.881 142.282 .063 145.227 .063 145.227 34.881"/>
  <rect width="6.664" height="3.733" x="51.574" y="51.611"/>
  <polygon points="82.73 43.783 80.662 45.851 59.369 24.903 61.468 22.835"/>
  <path d="M27.8181818 47.6181818L3.58772727 23.6413636C3.19739205 23.2564634 2.67136933 23.0404708 2.12318182 23.04L2.12318182 23.04C.972842999 23.04.0399925263 23.9719345.0388636364 25.1222727L.0388636364 28.3643182C.0388636364 29.174294.695478752 29.8309091 1.50545455 29.8309091L1.50545455 29.8309091C2.31463221 29.8309099 2.97091689 29.1755405 2.97204545 28.3663636L2.97204545 28.3663636C2.97315217 28.1832582 3.08364723 28.0185626 3.25265755 27.9481045 3.42166787 27.8776463 3.61642972 27.9150844 3.74727273 28.0431818L25.7481818 49.6861364 27.8181818 47.6181818zM119.327727 59.9665909C119.329376 62.1240825 118.493373 64.1979546 116.995909 65.7511364 116.265568 66.4996838 115.405512 67.1095548 114.4575 67.5511364 113.488321 68.004013 112.430427 68.2352965 111.360682 68.2283411L98.0775 68.2283411C94.1368683 68.2283411 90.9420385 65.0342679 90.9409091 61.0936364L93.8863636 61.0936364C93.8863636 63.404948 95.760052 65.2786364 98.0713636 65.2786364L111.354545 65.2786364C112.687552 65.2804124 113.960434 64.7240829 114.864545 63.7445455 115.860086 62.7429044 116.403814 61.3784132 116.37 59.9665909 116.37 58.4665909 115.868182 57.2570455 114.864545 56.3379545 113.91961 55.4365073 112.660441 54.9390032 111.354545 54.9511364L98.0815909 54.9511364C96.9546759 54.9613678 95.8386722 54.729797 94.8088636 54.2720455 93.8307429 53.8376273 92.9405689 53.2275392 92.1825 52.4720455 91.4329184 51.7214445 90.8410773 50.8284668 90.4418182 49.8456818 90.0311629 48.8443905 89.8226155 47.7717613 89.8279778 46.6895455 89.8128212 44.567685 90.6656079 42.5317862 92.1886364 41.0543182 92.9457406 40.3199175 93.8375146 39.7385976 94.815 39.3422727 95.8549275 38.9244533 96.9670753 38.7159256 98.0877273 38.7286364L112.201364 38.7286364C115.678498 38.7286364 118.497273 41.5474109 118.497273 45.0245455L115.545682 45.0245455C115.545682 43.1775295 114.04838 41.6802273 112.201364 41.6802273L98.0877273 41.6802273C96.6982531 41.6415761 95.3468525 42.1371873 94.3118182 43.065 93.2877273 43.9909091 92.7763636 45.2011364 92.7777273 46.6956818 92.7559788 48.1127067 93.309299 49.4780801 94.3114049 50.480186 95.3135108 51.4822919 96.6788842 52.0356121 98.0959091 52.0138636L111.375 52.0138636C112.438381 52.0044103 113.492392 52.2132631 114.471818 52.6275 116.385959 53.4399048 117.909868 54.9638135 118.722273 56.8779545 119.132608 57.8554384 119.338649 58.9065295 119.327727 59.9665909L119.327727 59.9665909zM224.961136 59.9665909C224.962785 62.1240825 224.126782 64.1979546 222.629318 65.7511364 221.898978 66.4996838 221.038921 67.1095548 220.090909 67.5511364 219.12173 68.004013 218.063836 68.2352965 216.994091 68.2283411L203.708864 68.2283411C199.768232 68.2283411 196.573402 65.0342679 196.572273 61.0936364L199.523864 61.0936364C199.523864 63.404948 201.397552 65.2786364 203.708864 65.2786364L216.994091 65.2786364C218.327098 65.2804124 219.59998 64.7240829 220.504091 63.7445455 221.499631 62.7429044 222.043359 61.3784132 222.009545 59.9665909 222.009545 58.4665909 221.507727 57.2570455 220.504091 56.3379545 219.559156 55.4365073 218.299986 54.9390032 216.994091 54.9511364L203.715 54.9511364C202.588085 54.9613678 201.472081 54.729797 200.442273 54.2720455 199.464152 53.8376273 198.573978 53.2275392 197.815909 52.4720455 197.066328 51.7214445 196.474486 50.8284668 196.075227 49.8456818 195.664572 48.8443905 195.456025 47.7717613 195.461387 46.6895455 195.44623 44.567685 196.299017 42.5317862 197.822045 41.0543182 198.57915 40.3199175 199.470924 39.7385976 200.448409 39.3422727 201.488337 38.9244533 202.600484 38.7159256 203.721136 38.7286364L217.834773 38.7286364C221.31144 38.7297653 224.129553 41.5478786 224.130682 45.0245455L221.179091 45.0245455C221.179091 43.1775295 219.681789 41.6802273 217.834773 41.6802273L203.721136 41.6802273C202.331662 41.6415761 200.980262 42.1371873 199.945227 43.065 198.921136 43.9909091 198.409773 45.2011364 198.411136 46.6956818 198.389388 48.1127067 198.942708 49.4780801 199.944814 50.480186 200.94692 51.4822919 202.312293 52.0356121 203.729318 52.0138636L217.008409 52.0138636C218.07179 52.0044103 219.125801 52.2132631 220.105227 52.6275 222.019368 53.4399048 223.543277 54.9638135 224.355682 56.8779545 224.766017 57.8554384 224.972059 58.9065295 224.961136 59.9665909z"/>
</svg>
