<?xml version="1.0" encoding="UTF-8"?>
<svg width="145px" height="145px" viewBox="0 0 145 145" version="1.1" xmlns="http://www.w3.org/2000/svg" xmlns:xlink="http://www.w3.org/1999/xlink">
    <!-- Generator: Sketch 52.2 (67145) - http://www.bohemiancoding.com/sketch -->
    <title>logo-nec copy 49</title>
    <desc>Created with Sketch.</desc>
    <g id="001" stroke="none" stroke-width="1" fill="none" fill-rule="evenodd">
        <g id="karldesigns.co.uk" fill="#231F20">
            <g id="logos" transform="translate(-1.000000, -1.000000)">
                <g id="London-Evening-Standard" transform="translate(0.252978, 0.268764)">
                    <g id="evening_standard_portfolio" transform="translate(29.747022, 44.731236)">
                        <path d="M69.1975838,14.4849129 C68.4615528,14.4849129 68.22249,14.0077187 68.22249,11.6801029 C68.22249,9.35248624 68.4220276,8.93458816 69.1975838,8.93458816 C69.9138434,8.93458816 70.1726776,9.35248624 70.1726776,11.739399 C70.1726776,14.0472495 69.9731404,14.4849129 69.1975838,14.4849129 M69.117578,22.6367471 C67.3273934,22.6367471 66.7701994,21.937427 66.7701994,20.8427975 C66.7701994,20.0672391 66.9094936,19.5373372 67.1278562,19.299211 L70.5905774,19.299211 C71.864031,19.299211 72.4617052,19.6766366 72.4617052,20.6714975 C72.4617052,21.9044847 71.3670714,22.6367471 69.117578,22.6367471 M68.6601526,23.21371 C72.2019336,23.21371 74.8090838,21.5468236 74.8090838,18.7617789 C74.8090838,16.6139341 73.276796,15.9964988 71.3265998,15.9964988 L67.267159,15.9964988 C66.6101878,15.9964988 66.4115966,15.7781379 66.4115966,15.4600084 C66.4115966,15.0816411 66.5904254,14.783277 66.7099564,14.6242123 C67.3076306,14.8632802 68.281787,15.0421104 69.1975838,15.0421104 C71.7840338,15.0421104 73.7144586,13.788417 73.7144586,11.5605689 C73.7144586,10.5864142 73.0377246,9.80991508 72.262168,9.2931901 L72.262168,9.25365934 C72.7393648,8.91482278 73.2965592,8.75575804 73.5158588,9.37319246 C73.6937502,9.87015292 73.8537532,10.1487516 74.509778,10.1487516 C75.2862806,10.1487516 75.565824,9.61131958 75.565824,9.03435676 C75.565824,8.1985606 74.9879122,7.82019328 74.232127,7.82019328 C73.317268,7.82019328 72.5210026,8.37833242 71.9035656,8.97506062 C71.2277776,8.63622406 70.2526834,8.37833242 69.1975842,8.37833242 C66.6101882,8.37833242 64.6807094,9.65085034 64.6807094,11.8598739 C64.6807094,13.0523894 65.2774376,13.8684193 66.3118284,14.4058514 L66.3118284,14.4444035 C65.5757974,14.8820669 64.7004722,15.7583347 64.7004722,16.9517911 C64.7004722,18.0454789 65.2774376,18.7815065 66.690194,19.1401084 L66.690194,19.1796392 C64.9593064,19.3782347 64.0642184,20.2065007 64.0642184,21.1618308 C64.0642184,22.5538827 65.5362718,23.2136721 68.660153,23.2136721" id="path5349" fill-rule="nonzero"></path>
                        <path d="M51.7738724,19.0996738 L57.902103,19.0996738 L57.902103,18.7617789 L57.603735,18.6827174 C56.927947,18.5029456 56.887475,18.484121 56.887475,17.4685539 L56.887475,10.5459426 C57.2263154,10.4668811 57.6432688,10.4273495 58.2004628,10.4273495 C58.9374316,10.4273495 59.3750938,10.7247728 59.3750938,11.799636 L59.3750938,17.4685539 C59.3750938,18.4634148 59.3552966,18.5029456 58.6578968,18.6827174 L58.3595284,18.7617789 L58.3595284,19.0996738 L64.5094056,19.0996738 L64.5094056,18.7617789 L64.1498658,18.6620103 C63.3545374,18.4436494 63.2952408,18.4041187 63.2952408,17.4685539 L63.2952408,11.0438431 C63.2952408,9.27342472 62.2410872,8.37833242 60.7276162,8.37833242 C59.1567398,8.37833242 57.942575,9.17365612 56.8677126,10.0094523 L56.8083726,10.0094523 L56.8083726,8.4969247 L56.6493156,8.37833242 L51.6938318,8.8950574 L51.6938318,9.0936529 L52.3300942,9.55108174 C52.9475226,9.98968604 52.9672944,10.0687484 52.9672944,10.9440753 L52.9672944,17.4685539 C52.9672944,18.3843533 52.9277598,18.4436494 52.1314948,18.6620103 L51.773838,18.7617789 L51.773838,19.0996738 L51.7738724,19.0996738 Z" id="path5351"></path>
                        <path d="M48.207624,7.73077822 C49.3568424,7.73077822 50.2349884,7.02016366 50.2349884,5.87188564 C50.2349884,4.743373 49.3568424,4.01299306 48.207624,4.01299306 C47.0800522,4.01299306 46.1811974,4.743373 46.1811974,5.87188564 C46.1811974,7.02016366 47.0800522,7.73077822 48.207624,7.73077822" id="path5353"></path>
                        <path d="M45.0875096,19.0996738 L51.3955064,19.0996738 L51.3955064,18.7617789 L51.0378496,18.6620103 C50.2415842,18.4436494 50.2020504,18.3843533 50.2020504,17.4685539 L50.2020504,11.0438431 C50.2020504,10.168517 50.2218558,9.47202022 50.2811102,8.4969247 L50.1220446,8.37833242 L44.96797,8.8950574 L44.96797,9.07388752 L45.6051698,9.53131636 C46.2216694,9.96897982 46.280966,10.048983 46.280966,10.9233683 L46.280966,17.4685539 C46.280966,18.3843533 46.2414318,18.4436494 45.4451668,18.6620103 L45.08751,18.7617789 L45.08751,19.0996738 L45.0875096,19.0996738 Z" id="path5355"></path>
                        <path d="M31.9943108,19.0996738 L38.123479,19.0996738 L38.123479,18.7617789 L37.8251192,18.6827174 C37.1483852,18.5029456 37.108851,18.484121 37.108851,17.4685539 L37.108851,10.5459426 C37.4467536,10.4668811 37.8646448,10.4273495 38.4218474,10.4273495 C39.1578698,10.4273495 39.5964784,10.7247728 39.5964784,11.799636 L39.5964784,17.4685539 C39.5964784,18.4634148 39.5757696,18.5029456 38.8802188,18.6827174 L38.580913,18.7617789 L38.580913,19.0996738 L44.7298442,19.0996738 L44.7298442,18.7617789 L44.3712414,18.6620103 C43.574976,18.4436494 43.515679,18.4041187 43.515679,17.4685539 L43.515679,11.0438431 C43.515679,9.27342472 42.4615254,8.37833242 40.9490004,8.37833242 C39.3771784,8.37833242 38.1630132,9.17365612 37.0890882,10.0094523 L37.0288538,10.0094523 L37.0288538,8.4969247 L36.8697882,8.37833242 L31.914305,8.8950574 L31.914305,9.0936529 L32.5515048,9.55108174 C33.1680044,9.98968604 33.1887046,10.0687484 33.1887046,10.9440753 L33.1887046,17.4685539 C33.1887046,18.3843533 33.148276,18.4436494 32.3529136,18.6620103 L31.9943108,18.7617789 L31.9943108,19.0996738 Z" id="path5357"></path>
                        <path d="M27.2590734,8.93458816 C28.213467,8.93458816 28.4723012,9.67155656 28.4723012,12.4961328 L25.8058454,12.6947283 C25.8265542,9.65085034 26.4430452,8.93458816 27.2590734,8.93458816 M27.3381332,19.3387417 C29.6064606,19.3387417 31.1782826,18.0850475 31.855008,17.1306591 L31.855008,16.7522917 C31.2996974,17.1636014 30.3358954,17.4487885 29.261033,17.4487885 C27.1320084,17.4487885 25.8660798,16.6929956 25.8058454,13.2321604 L32.2729078,13.2321604 C32.1740852,9.77038432 30.342483,8.37833242 27.418139,8.37833242 C24.7912174,8.37833242 21.9459332,10.0800428 21.9459332,13.8392421 C21.9459332,17.3010182 23.7558892,19.3387417 27.3381332,19.3387417" id="path5359" fill-rule="nonzero"></path>
                        <path d="M16.752333,19.0996738 L18.602752,19.0996738 L21.746396,11.0033715 C22.2838272,9.61131958 22.5624328,9.2931901 23.1393896,9.07388752 L23.3982238,8.97506062 L23.3982238,8.63622406 L19.895977,8.63622406 L19.895977,8.97506062 L20.3336396,9.11435998 C20.8305992,9.27342472 21.1101422,9.49272644 21.1101422,9.8889766 C21.1101422,10.2278132 20.9708394,10.7652452 20.7515394,11.3817388 L19.338783,15.5193046 L19.27854,15.5193046 L17.6276582,11.1229055 C17.4488298,10.6654766 17.3481152,10.3275818 17.3481152,9.94921444 C17.3481152,9.45225484 17.588124,9.27342472 18.1246178,9.11435998 L18.5820432,8.97506062 L18.5820432,8.63622406 L11.6575554,8.63622406 L11.6575554,8.97506062 L11.9559152,9.07388752 C12.4735836,9.25365934 12.652412,9.47202022 13.209606,10.7850106 L16.752333,19.0996738 Z" id="path5361"></path>
                        <path d="M0.043,19.0996738 L11.664143,19.0996738 L11.94274,13.8081824 L11.544603,13.8081824 C10.9676462,15.2802366 10.5497464,16.1357982 9.97278102,17.0911283 C9.31581842,18.1452853 9.03721798,18.4238841 7.52469126,18.4238841 C6.11193228,18.4238841 5.9923983,18.1650507 5.9923983,17.0911283 L5.9923983,12.2768311 L6.51006498,12.2768311 C7.8239962,12.2768311 8.04235794,12.4358958 8.28142504,12.8933247 C8.57978914,13.4900529 8.79815088,14.1865488 8.93745024,14.8030424 L9.29605562,14.8030424 L9.29605562,9.21318688 L8.93745024,9.21318688 C8.77838464,9.87015292 8.56002376,10.5064119 8.28142504,11.0438431 C8.06212332,11.4617412 7.86352696,11.6405713 6.52983036,11.6405713 L5.9923983,11.6405713 L5.9923983,6.1100119 C6.21170088,6.05067792 6.5571259,5.99141962 7.35339044,5.99141962 C8.50731608,5.99141962 9.02498276,6.22954588 9.62171182,7.18393432 C10.0593744,7.88043112 10.43774,8.61645868 10.9544624,9.8306213 L11.3328366,9.8306213 L11.1539996,5.3146882 L0.043,5.3146882 L0.043,5.65258306 L0.58043206,5.79188242 C1.31645962,5.99141962 1.45575898,6.03095038 1.45575898,7.4032369 L1.45575898,17.0120668 C1.45575898,18.3843533 1.31645962,18.4238841 0.58043206,18.6224796 L0.043,18.7617789 L0.043,19.0996738 Z" id="path5363"></path>
                        <path d="M79.8398778,33.3486767 C78.3866322,33.3486767 77.6778976,32.3340504 77.6778976,29.2299346 C77.6778976,25.7512165 78.4741634,24.7375311 79.5876312,24.7375311 C80.2643222,24.7375311 80.5824534,25.0754259 80.8620308,25.5921518 L80.8620308,33.1105495 C80.622968,33.2103181 80.2379718,33.3486767 79.8398778,33.3486767 M77.6976608,35.1200367 C79.0708912,35.1200367 80.0459682,34.444247 80.8422336,33.6875124 L80.9017112,33.6875124 L80.9017112,34.9412066 L81.1605884,35.1200367 L85.9569976,34.4235399 L85.9569976,34.1647066 L85.4788634,33.9858765 C84.8219004,33.7468094 84.802095,33.6282162 84.802095,32.5731183 L84.802095,22.3506183 C84.802095,21.0178634 84.8811548,19.9439409 84.8811548,19.9439409 L84.7221322,19.824407 L79.4089748,20.2818358 L79.4089748,20.5604345 L80.2043114,20.998098 C80.7822228,21.3162275 80.862263,21.395289 80.862263,22.3703845 L80.862263,24.3601054 C80.4847918,24.2405715 80.1657662,24.1615099 79.5680576,24.1615099 C76.3848966,24.1615099 73.6779778,25.8509851 73.6779778,30.2257363 C73.6779778,33.548213 75.4098028,35.1200367 77.697893,35.1200367" id="path5365" fill-rule="nonzero"></path>
                        <path d="M64.553644,34.8809688 L70.9416466,34.8809688 L70.9416466,34.5233085 L70.503984,34.444247 C69.7670156,34.3049476 69.6681848,34.2447098 69.6681848,33.2498489 L69.6681848,26.4863024 C69.8667842,26.3084139 70.2056246,26.2086453 70.4842216,26.2086453 C70.722347,26.2086453 70.8221156,26.3084139 70.9614098,26.606778 C71.2400154,27.2223299 71.5986096,27.6590525 72.5530032,27.6590525 C73.528097,27.6590525 74.2245938,27.0030273 74.2245938,25.8509851 C74.2245938,24.7375311 73.5478598,24.1803345 72.5934748,24.1803345 C71.2993124,24.1803345 70.2253874,25.1544883 69.648422,25.8707505 L69.5881876,25.8707505 L69.5881876,24.2801022 L69.429122,24.1615099 L64.4745846,24.6772941 L64.4745846,24.8768304 L65.1108384,25.3333184 C65.7282754,25.7709819 65.7480382,25.8509851 65.7480382,26.7056049 L65.7480382,33.2498489 C65.7480382,34.1647066 65.7076096,34.2249444 64.9122472,34.444247 L64.5536444,34.5430741 L64.5536444,34.8809688 L64.553644,34.8809688 Z" id="path5367"></path>
                        <path d="M47.7323106,33.3486767 C46.279083,33.3486767 45.570348,32.3340504 45.570348,29.2299346 C45.570348,25.7512165 46.3666134,24.7375311 47.48101,24.7375311 C48.156798,24.7375311 48.4758666,25.0754259 48.754464,25.5921518 L48.754464,33.1105495 C48.5154008,33.2103181 48.1295016,33.3486767 47.7323106,33.3486767 M45.5901112,35.1200367 C46.9633416,35.1200367 47.9384358,34.444247 48.7337638,33.6875124 L48.7949012,33.6875124 L48.7949012,34.9412066 L49.0527894,35.1200367 L53.8482698,34.4235399 L53.8482698,34.1647066 L53.371073,33.9858765 C52.7141018,33.7468094 52.694339,33.6282162 52.694339,32.5731183 L52.694339,22.3506183 C52.694339,21.0178634 52.7733988,19.9439409 52.7733988,19.9439409 L52.6152792,19.824407 L47.3012016,20.2818358 L47.3012016,20.5604345 L48.097467,20.998098 C48.6744238,21.3162275 48.7544296,21.395289 48.7544296,22.3703845 L48.7544296,24.3601054 C48.376064,24.2405715 48.0579328,24.1615099 47.4612046,24.1615099 C44.277089,24.1615099 41.5701616,25.8509851 41.5701616,30.2257363 C41.5701616,33.548213 43.3019866,35.1200367 45.5900768,35.1200367" id="path5369" fill-rule="nonzero"></path>
                        <path d="M28.9297266,34.8809688 L35.0588952,34.8809688 L35.0588952,34.5430741 L34.7605354,34.4630707 C34.0828552,34.2842406 34.044267,34.2644752 34.044267,33.2498489 L34.044267,26.3272376 C34.382161,26.2481761 34.800061,26.2086453 35.3572636,26.2086453 C36.0932856,26.2086453 36.5309486,26.5070094 36.5309486,27.5799902 L36.5309486,33.2498489 C36.5309486,34.2447098 36.5111514,34.2842406 35.814689,34.4630707 L35.5163292,34.5430741 L35.5163292,34.8809688 L41.6652604,34.8809688 L41.6652604,34.5430741 L41.3066576,34.444247 C40.5113382,34.2249444 40.4510952,34.1854137 40.4510952,33.2498489 L40.4510952,26.8251389 C40.4510952,25.0556605 39.3969416,24.1615099 37.8844166,24.1615099 C36.312586,24.1615099 35.0984294,24.9558928 34.0235668,25.7907473 L33.9643042,25.7907473 L33.9643042,24.2801022 L33.8052386,24.1615099 L28.8507012,24.6772941 L28.8507012,24.8768304 L29.4869636,25.3333184 C30.1034546,25.7709819 30.1241634,25.8509851 30.1241634,26.7253703 L30.1241634,33.2498489 C30.1241634,34.1647066 30.0837262,34.2249444 29.2883638,34.444247 L28.929761,34.5430741 L28.929761,34.8809688 L28.9297266,34.8809688 Z" id="path5371"></path>
                        <path d="M23.0593924,33.6282162 C22.5219612,33.6282162 22.08429,33.2103181 22.08429,31.8370908 C22.08429,30.4450389 22.4428928,30.0469062 23.3379894,29.9866683 L23.7963608,29.9471376 L23.7963608,33.2696143 C23.657058,33.5086822 23.3982238,33.6282162 23.0593924,33.6282162 M21.1496678,35.1200367 C22.6414926,35.1200367 23.3982238,34.4630707 23.935655,33.8268117 L24.0147148,33.8268117 C24.3130832,34.6626079 25.1093486,35.1200367 26.3630394,35.1200367 C27.7955672,35.1200367 28.6294834,34.6183712 29.049258,34.1920021 L29.049258,33.8945789 C28.8704296,33.8945789 28.4130042,33.8333632 28.15417,33.6950425 C27.7758044,33.496447 27.7165074,33.2169066 27.7165074,32.3415797 L27.7165074,27.0030273 C27.7165074,24.8965958 26.0646796,24.1615099 23.5168178,24.1615099 C20.1143396,24.1615099 18.662049,25.0754259 18.662049,26.4270062 C18.662049,27.2618607 19.1994802,27.7192895 20.2743426,27.7192895 C21.467799,27.7192895 21.8856988,27.2816261 21.9854674,25.5723864 C22.0250016,24.857065 22.2838272,24.7572964 22.7807868,24.7572964 C23.5968236,24.7572964 23.7963608,25.3935563 23.7963608,27.2223299 L23.7963608,29.1311068 L21.527096,29.7476004 C19.8357426,30.2059709 18.263912,30.7226959 18.263912,32.6324145 C18.263912,34.1854137 19.3783086,35.1200367 21.1496678,35.1200367" id="path5373" fill-rule="nonzero"></path>
                        <path d="M58.6833102,33.6282162 C58.145879,33.6282162 57.7091538,33.2103181 57.7091538,31.8370908 C57.7091538,30.4450389 58.0668106,30.0469062 58.9628446,29.9866683 L59.4202786,29.9471376 L59.4202786,33.2696143 C59.2800384,33.5086822 59.0221416,33.6282162 58.6833102,33.6282162 M56.7735852,35.1200367 C58.2663478,35.1200367 59.0221412,34.4630707 59.5595724,33.8268117 L59.6386408,33.8268117 C59.9370006,34.6626079 60.733266,35.1200367 61.9869568,35.1200367 C63.419485,35.1200367 64.2534008,34.6183712 64.6731758,34.1920021 L64.6731758,33.8945789 C64.494347,33.8945789 64.0369216,33.8333632 63.7780878,33.6950425 C63.3997222,33.496447 63.3404252,33.2169066 63.3404252,32.3415797 L63.3404252,27.0030273 C63.3404252,24.8965958 61.6885974,24.1615099 59.1416816,24.1615099 C55.7391948,24.1615099 54.2859668,25.0754259 54.2859668,26.4270062 C54.2859668,27.2618607 54.823398,27.7192895 55.8982604,27.7192895 C57.0917168,27.7192895 57.5096166,27.2816261 57.6093852,25.5723864 C57.6489194,24.857065 57.9077536,24.7572964 58.4047132,24.7572964 C59.2207414,24.7572964 59.4202786,25.3935563 59.4202786,27.2223299 L59.4202786,29.1311068 L57.1510138,29.7476004 C55.4605978,30.2059709 53.8878384,30.7226959 53.8878384,32.6324145 C53.8878384,34.1854137 55.0022264,35.1200367 56.7735856,35.1200367" id="path5375" fill-rule="nonzero"></path>
                        <path d="M14.7023682,35.1200367 C16.5725586,35.1200367 17.5278896,34.2644752 18.0653208,33.6282162 L18.0653208,33.2893805 C17.7669524,33.3693829 17.2295212,33.4484453 16.7711584,33.4484453 C15.6972334,33.4484453 15.4779334,33.1500812 15.4779334,31.9763901 L15.4779334,25.4923832 L17.8657836,25.4923832 L18.0248492,24.4194016 L15.4779334,24.4194016 L15.4779334,21.6343569 L14.4830682,21.6343569 C13.8261056,23.1064112 12.2505168,24.3939894 10.5196292,25.0302484 L10.5196292,25.4923832 L11.5577868,25.4923832 L11.5577868,31.9566248 C11.5577868,34.1854137 12.4735836,35.1200367 14.7023682,35.1200367" id="path5377"></path>
                        <path d="M4.90341642,35.1200367 C8.40566494,35.1200367 10.5318584,32.8997188 10.5318584,30.2737381 C10.5318584,28.1051861 9.15675282,26.7846665 5.9923983,25.6919195 C3.863378,24.9361266 3.30618056,24.319633 3.30618056,23.2654759 C3.30618056,22.1313165 4.09868088,21.4357606 5.29213728,21.4357606 C6.06863644,21.4357606 6.68795426,21.6145916 7.42398182,22.4099153 C8.14024314,23.1864144 8.5364933,24.2198652 9.01368838,25.2542569 L9.43158302,25.2542569 L9.23299182,21.4752922 C8.51672792,21.1373965 7.26303454,20.8587986 5.6112076,20.8587986 C2.4468548,20.8587986 0.22183012,22.6960433 0.22183012,25.3210823 C0.22183012,27.5272825 1.1376295,28.8525089 4.08268058,29.847369 C6.21170088,30.5636312 7.37315582,30.9128204 7.37315582,32.7020642 C7.37315582,33.9350513 6.39617862,34.5430737 5.122719,34.5430737 C4.02809036,34.5430737 3.12735044,34.1251758 2.39132288,33.2103181 C1.77388846,32.433819 1.25622178,31.4991959 0.6397282,30.2455017 L0.22183012,30.2455017 L0.48066346,34.503543 C1.43034598,34.8094367 2.91369548,35.1200367 4.90341642,35.1200367" id="path5379"></path>
                        <path d="M38.3390212,6.6069715 L41.0101812,6.6069715 L41.0101812,6.40367008 L40.8802868,6.36888308 C40.5856938,6.2907624 40.5678058,6.2822914 40.5678058,5.83992202 L40.5678058,2.87887064 C40.7155796,2.84408278 40.8972288,2.8261621 41.140067,2.8261621 C41.461019,2.8261621 41.6520852,2.95604962 41.6520852,3.42477284 L41.6520852,5.83992202 C41.6520852,6.27287956 41.6435712,6.2907624 41.3396042,6.36888308 L41.2087724,6.40367008 L41.2087724,6.6069715 L43.8902868,6.6069715 L43.8902868,6.40367008 L43.734042,6.36037424 C43.3867396,6.26437072 43.3613266,6.24742872 43.3613266,5.83988418 L43.3613266,3.09531114 C43.3613266,2.3235179 42.9010718,1.93291536 42.2422258,1.93291536 C41.5560834,1.93291536 41.0271228,2.28022206 40.5593344,2.64447076 L40.5329844,2.64447076 L40.5329844,1.98562304 L40.4642356,1.93291536 L38.3041568,2.15880554 L38.3041568,2.30186998 L38.581816,2.50140718 C38.8500586,2.69153168 38.859467,2.72635652 38.859467,3.10848806 L38.859467,5.83988418 C38.859467,6.23895858 38.8415532,6.26437072 38.4952226,6.36037424 L38.3389778,6.40367008 L38.3389778,6.6069715 L38.3390212,6.6069715 Z" id="path5381"></path>
                        <path d="M35.8946944,6.40367008 C35.3920846,6.40367008 35.174668,6.21636896 35.174668,4.22288294 C35.174668,2.47975926 35.4438484,2.2406913 35.8513934,2.2406913 C36.2852978,2.2406913 36.5798908,2.40163858 36.5798908,4.3781826 C36.5798908,6.2596648 36.34647,6.40367008 35.8946944,6.40367008 M35.8777528,6.71050518 C37.1173224,6.71050518 38.3493756,6.0601276 38.3493756,4.30947462 C38.3493756,2.6877666 37.1521524,1.93291536 35.8777528,1.93291536 C34.6626498,1.93291536 33.4051838,2.58329208 33.4051838,4.34335776 C33.4051838,5.95659478 34.5939358,6.71050518 35.8777528,6.71050518" id="path5383" fill-rule="nonzero"></path>
                        <path d="M30.6747354,5.93965278 C30.0422398,5.93965278 29.7824596,5.4972834 29.7824596,4.14476226 C29.7824596,2.62658792 30.1288332,2.2406913 30.6144924,2.2406913 C30.909094,2.2406913 31.0483968,2.38846166 31.1698116,2.613411 L31.1698116,5.83517826 C31.0653388,5.8784741 30.8488596,5.93965278 30.6747354,5.93965278 M29.7909306,6.71050518 C30.3886048,6.71050518 30.8140296,6.41590616 31.1613406,6.08648144 L31.1867106,6.08648144 L31.1867106,6.6333262 L31.299663,6.71050518 L33.3900908,6.40743516 L33.3900908,6.23895858 L33.1820826,6.1608379 C32.895952,6.05730422 32.887481,6.00459654 32.887481,5.54528516 L32.887481,1.14417926 C32.887481,0.56345222 32.921365,0.094729 32.921365,0.094729 L32.8526166,0.043 L30.5363012,0.24253634 L30.5363012,0.41948478 L30.8836036,0.61055012 C31.1349128,0.74984948 31.1697342,0.78373348 31.1697342,1.20916086 L31.1697342,2.01954402 C31.0050184,1.96871888 30.8657242,1.93295234 30.6059526,1.93295234 C29.2186006,1.93295234 28.0383194,2.6699216 28.0383194,4.57775764 C28.0383194,6.0262823 28.7931758,6.71054302 29.7908618,6.71054302" id="path5385" fill-rule="nonzero"></path>
                        <path d="M22.4541932,6.6069715 L25.1262906,6.6069715 L25.1262906,6.40367008 L24.9964048,6.36888308 C24.7008658,6.2907624 24.6839238,6.2822914 24.6839238,5.83992202 L24.6839238,2.87887064 C24.831689,2.84408278 25.0133468,2.8261621 25.2561764,2.8261621 C25.5771284,2.8261621 25.7681946,2.95604962 25.7681946,3.42477284 L25.7681946,5.83992202 C25.7681946,6.27287956 25.7587862,6.2907624 25.4557136,6.36888308 L25.3258278,6.40367008 L25.3258278,6.6069715 L28.0054588,6.6069715 L28.0054588,6.40367008 L27.85016,6.36037424 C27.502849,6.26437072 27.4764986,6.24742872 27.4764986,5.83988418 L27.4764986,3.09531114 C27.4764986,2.3235179 27.0171812,1.93291536 26.3573978,1.93291536 C25.6731302,1.93291536 25.1432326,2.28022206 24.6754528,2.64447076 L24.6490938,2.64447076 L24.6490938,1.98562304 L24.5794424,1.93291536 L22.4193632,2.15880554 L22.4193632,2.30186998 L22.6979602,2.50140718 C22.9662114,2.69153168 22.9746824,2.72635652 22.9746824,3.10848806 L22.9746824,5.83988418 C22.9746824,6.23895858 22.9577404,6.26437072 22.6104294,6.36037424 L22.4541932,6.40367008 L22.4541932,6.6069715 Z" id="path5387"></path>
                        <path d="M19.9844538,6.40367008 C19.481844,6.40367008 19.2644274,6.21636896 19.2644274,4.22288294 C19.2644274,2.47975926 19.5336074,2.2406913 19.9411528,2.2406913 C20.3750572,2.2406913 20.6696502,2.40163858 20.6696502,4.3781826 C20.6696502,6.2596648 20.4352916,6.40367008 19.9844538,6.40367008 M19.9675118,6.71050518 C21.2080274,6.71050518 22.4391346,6.0601276 22.4391346,4.30947462 C22.4391346,2.6877666 21.2419114,1.93291536 19.9675118,1.93291536 C18.7533466,1.93291536 17.494943,2.58329208 17.494943,4.34335776 C17.494943,5.95659478 18.6836952,6.71050518 19.9675118,6.71050518" id="path5389" fill-rule="nonzero"></path>
                        <path d="M12.1055724,6.6069715 L17.0582264,6.6069715 L17.2314046,4.1880581 L17.0026962,4.1880581 C16.7419786,4.84690582 16.489732,5.41916272 16.2826612,5.76552858 C15.9955932,6.2427228 15.957005,6.31990264 15.305684,6.31990264 C14.7597818,6.31990264 14.69861,6.21636896 14.69861,5.75705758 L14.69861,1.56395988 C14.69861,0.96629084 14.7419024,0.931466 15.0807338,0.86181632 L15.3668644,0.80157848 L15.3668644,0.59827706 L12.1055724,0.59827706 L12.1055724,0.80157848 L12.338985,0.86181632 C12.660883,0.948408 12.7211174,0.96629084 12.7211174,1.56395988 L12.7211174,5.64034784 C12.7211174,6.23895858 12.660883,6.25589972 12.338985,6.34343224 L12.1055724,6.40367008 L12.1055724,6.6069715 Z" id="path5391"></path>
                    </g>
                </g>
            </g>
        </g>
    </g>
</svg>