<svg xmlns="http://www.w3.org/2000/svg" width="601" height="77" viewBox="0 0 601 77">
  <path d="M261.3,75 C255.9,76.6 244.1,77.1 240,75.9 C232.7,73.7 229.7,67.7 234.2,64.6 C236.9,62.7 244.1,62.3 242.2,64.2 C240.2,66.2 240.9,69.7 243.6,71.9 C247.1,74.6 256.9,74.8 262,72.2 C264.8,70.8 265.5,69.9 265.5,67.5 C265.5,63.4 262.3,62 253,62 C239.8,62 234.6,59.2 234.6,52.3 C234.6,49.5 235.3,48.1 238,45.7 L241.3,42.7 L238.7,40.8 C235.5,38.5 233.6,33 234.4,28.5 C235.9,20.7 247.4,15.7 258.7,18 C264.1,19.2 270.5,18.9 274.3,17.4 C275.7,16.9 276,17.4 276,19.9 C276,22.4 275.6,23 273.9,23 C272.8,23 271,22.5 269.8,21.9 C267.1,20.4 266.3,21.6 268.5,24 C271.2,27 271.5,33.9 269,37.8 C265.7,43.1 259.4,45.4 249.8,44.7 C242.6,44.2 242,44.3 242,46.1 C242,47.8 242.8,48 250.4,48 C266.2,48 273.1,50.6 274.5,57.1 C276,63.7 269.4,72.6 261.3,75 Z M108.7,57.9 C102.8,60.7 95.6,60.7 89.9,57.7 C86.5,56 84.9,54.2 82.8,50 C79.7,44 79.3,39.5 81.4,32.7 C84.4,22.6 91.1,17.7 101.7,17.6 C106.8,17.6 108.4,18.1 111.4,20.4 C115.9,23.8 118,27.8 118,33 L118,37 L107,37 C96.6,37 96,37.1 96,39 C96,42.5 98.7,47.8 101.4,49.6 C105,51.9 112.3,51 115.6,47.9 C117.3,46.3 118,46.1 118,47.1 C118,50 113,55.8 108.7,57.9 Z M313.2,56.6 C309.4,58.8 307.1,59.4 301,59.6 C293.6,59.9 287.7,59 283.9,57 C282.3,56.1 282,54.8 282,48.5 C282,40.5 283,39.1 285,44 C288.6,52.7 296,58.8 301.4,57.4 C306.5,56.1 308.8,50.2 306.1,45.2 C305.4,43.9 300.7,39.9 295.6,36.1 C284.9,28.2 282.5,24.4 283.3,17.2 C284.1,10 289.8,4.2 298.4,1.9 C302.9,0.7 313.9,1.2 318.3,2.9 C320.9,3.9 321,4.3 321,10.5 C321,14.1 320.6,17 320.1,17 C319.6,17 317.8,14.5 316.1,11.5 C312.6,5.4 310.7,4 305.6,4 C301.1,4 298,6.9 298,11.1 C298,15.7 299.2,17.2 309,24.5 C320.2,32.8 322.2,35.5 322.2,42 C322.2,48.3 319.3,53 313.2,56.6 Z M339.9,59 C338,59.6 335.8,60 335,60 C332.4,59.9 327.3,57.3 326.7,55.7 C326.4,54.9 326,46.9 325.9,37.9 C325.7,22.3 325.6,21.5 323.6,21 C321.9,20.5 322.9,19.8 328,17.3 C331.6,15.6 335.5,13.3 336.7,12.1 C339.7,9.2 340,9.4 340,14 L340,18 L344,18 C346.9,18 348,18.4 348,19.5 C348,20.6 346.9,21 344,21 L340,21 L340,35.9 C340,52.1 340.5,53.7 345.5,52.8 C346.9,52.5 348,52.6 348,53 C348,54.5 343.1,58.1 339.9,59 Z M367.1,57.7 C359.1,63.1 349.1,58.5 349,49.3 C349,44.2 353,40.4 361,38 C368.6,35.7 369.9,34.7 370.7,29.8 C371.4,25.1 368,21.2 362.5,20.3 L358.5,19.7 L361.4,22.2 C368.8,28.6 360.6,39.3 352.9,33.2 C350.3,31.1 349.9,26.1 352,23.5 C355.1,19.8 361.3,17.7 369,17.6 C377,17.6 382.1,19.4 384,22.9 C384.5,24 385,30.9 385,38.4 C385,45.8 385.3,52.5 385.6,53.4 C385.9,54.3 387.4,55 388.9,55 C391.4,55.1 391.3,55.2 387.5,57.5 C382.2,60.8 375.8,60.9 372.7,57.7 L370.4,55.5 L367.1,57.7 Z M455.3,59.1 C454,59.6 451.2,60 449.2,60 C440.8,59.9 435.9,53.9 435.2,42.6 C434.6,32.7 436.2,27.4 441.5,22.4 C446.6,17.5 451.8,16.2 458,18.4 L462.1,19.8 L461.8,11.7 C461.5,4 461.4,3.5 459,2.9 C457.6,2.5 461,2.2 466.8,2.1 L477,2 L477,29.5 C477,54.5 477.2,57 478.8,57.9 C480,58.7 478,58.9 471.3,59 L462,59 L462,56.3 L462,53.6 L459.9,55.9 C458.8,57.1 456.7,58.5 455.3,59.1 Z M498,58.5 C494.8,60.1 489.7,60.4 486.4,59 C483.1,57.7 481,54 481,49.4 C481,43.9 484.2,40.8 492.5,38 C499.7,35.6 502.1,33.4 502.2,29.3 C502.4,23.7 498.6,20 492.8,20 C490.8,20 490.9,20.1 493.4,22.5 C496.9,25.7 496.9,30.1 493.4,32.9 C489.9,35.6 486.9,35.6 484.2,32.7 C481.4,29.8 481.4,27 484.1,23.6 C489.8,16.4 508.1,15.2 514.1,21.6 C516.4,24 516.5,25.1 517,39.3 L517.5,54.4 L520,55 L522.5,55.6 L519.7,57.5 C518.1,58.5 514.5,59.5 511.6,59.8 C506.7,60.2 506.1,60 504,57.4 C502.5,55.5 501.6,54.9 501.3,55.8 C501,56.5 499.5,57.7 498,58.5 Z M579.3,57.2 C577.7,58.7 575.4,59.5 571.8,59.7 C561.4,60.5 556,53.7 556,40 C556,28.4 560.8,20.3 568.9,18 C573.5,16.7 574.7,16.8 579.3,18.4 L583.1,19.8 L582.8,11.7 C582.5,4 582.4,3.5 580,2.9 C578.6,2.5 582,2.2 587.8,2.1 L598,2 L598,29.5 C598,54.5 598.2,57 599.8,57.9 C601,58.7 599,58.9 592.3,59 C583.7,59 583,58.9 583,57 C583,54.4 582.2,54.5 579.3,57.2 Z M46.4,57.3 C45.9,58.9 43.9,59 22.2,59 C1.4,58.9 -1.1,58.8 1.6,57.6 C3.4,56.8 5,55.2 5.3,53.9 C6.4,49.9 6.1,9 5,7 C4.4,5.9 2.7,4.4 1.2,3.6 C-1.2,2.2 0.7,2.1 21.8,2 L45,2 L45,8.9 C45,12.8 44.7,16.1 44.2,16.4 C43.8,16.6 42,14.4 40.1,11.5 C36.3,5.5 33.8,4 27.5,4 L23,4 L23,16.5 L23,29 L26.9,29 C31,29 34.1,26.4 35.5,21.9 C37,17.3 38,20.8 38,30.5 C38,36.3 37.6,41 37.1,41 C36.6,41 35.7,39.6 35,38 C33.3,34 30.4,32 26,32 L22.5,32 L22.8,43.7 C23,51.4 23.5,55.7 24.3,56.2 C26.2,57.4 31.8,57.1 35.5,55.6 C37.9,54.5 40.1,52.3 42.7,48.1 C44.8,44.8 46.9,42.1 47.3,42 C48.1,42 47.4,53.6 46.4,57.3 Z M75.3,40.9 L69.6,59 L63.5,59 L57.4,59 L51.6,41.3 C48.4,31.5 45,22.3 43.9,20.8 L41.9,18 L54.7,18 C66.6,18.1 67.3,18.2 64.8,19.6 C63.2,20.4 62,21.8 62,22.7 C62,24.9 69.3,49 70,49 C70.8,49 77,25.7 77,22.7 C77,21.2 76.6,20 76,20 C75.5,20 75,19.6 75,19 C75,18.5 77.5,18 80.6,18 L86.3,18 L83.7,20.4 C81.8,22.2 79.7,27.3 75.3,40.9 Z M139.8,58.3 C140.7,58.6 136.4,58.8 130.2,58.9 C119.9,59 119,58.9 120.4,57.4 C122.8,55 122.7,22.5 120.3,19.8 C118.8,18.1 119,18 127.8,18 L137,18 L137,21.7 L137,25.5 L139.6,22.6 C145.5,16.3 153.9,15.7 158.5,21.2 C160.9,24.1 161,24.6 161,40 C161,53.1 161.3,56.1 162.6,57.4 C164,58.9 163.2,59 153.3,59 C145.5,58.9 143,58.7 144.3,57.9 C145.8,57 146,55.2 146,42.6 C146,26.9 145.6,25.6 140.3,26.2 L137.5,26.5 L137.2,40 C136.9,55.1 137.2,57.7 139.8,58.3 Z M185.4,57.6 C187.2,58.8 186.1,59 176.2,59 L165,59 L167,57 C168.8,55.2 169,53.7 169,38.7 C169,25.6 168.7,22 167.4,20.2 L165.9,18 L174.4,18 L182.9,18 L183.2,37.1 C183.5,54.6 183.7,56.3 185.4,57.6 Z M207.7,57.7 C209.1,58.8 207.5,59 198.6,59 C188.8,59 188,58.9 189.4,57.4 C191.8,55 191.7,22.5 189.3,19.8 C187.8,18.1 188,18 196.8,18 L206,18 L206,21.4 L206,24.7 L209.4,21.5 C215,16.3 222.7,15.9 227.2,20.7 C229.4,23 229.5,24 229.8,39.8 C230,53.9 230.4,56.7 231.7,57.8 C233.1,58.8 231.4,59 222.4,59 C214.5,58.9 212,58.7 213.3,57.9 C214.8,57 215,55.2 215,42.6 C215,26.9 214.6,25.6 209.3,26.2 L206.5,26.5 L206.2,41.5 C206,54.7 206.1,56.6 207.7,57.7 Z M409.7,57.7 C411.1,58.8 409.5,59 400.5,59 C390.1,59 389.8,58.9 391.3,57.2 C392.7,55.6 393,52.7 393,38.2 C393,21.7 392.9,21.1 390.8,19.6 C388.7,18.1 389.2,18 398.3,18 L408,18 L408,21.4 L408,24.7 L411.4,21.5 C417.5,15.8 425.7,16 429.8,22 C431.8,25.1 432,26.4 432,41.1 C432,55.1 432.2,57 433.8,57.9 C435,58.7 432.5,58.9 424.7,59 C414.8,59 414,58.9 415.4,57.4 C416.7,56.2 417,53.3 417,42.1 C417,26.9 416.5,25.6 411.3,26.2 L408.5,26.5 L408.2,41.5 C408,54.7 408.1,56.6 409.7,57.7 Z M542.8,58.3 C543.8,58.6 539.2,58.8 532.8,58.9 L521,59 L523.1,56.9 C525,55 525.1,53.9 524.8,38 C524.5,22.5 524.3,21 522.5,19.6 C520.7,18.2 521.3,18.1 530,18 L539.5,18 L539.2,35.1 C538.8,52.8 539.5,57.5 542.8,58.3 Z M554.1,30.1 C548.7,35.5 541,32.3 541,24.7 C541,17.8 550,14.9 554.6,20.4 C557.8,24 557.6,26.5 554.1,30.1 Z M181.9,12.4 C180.3,14.4 179,15 176,15 C171.6,15 168,11.5 168,7.3 C168,3.9 172.2,0 176,0 C179.8,0 184,3.9 184,7.3 C184,8.6 183.1,10.9 181.9,12.4 Z M250,41.1 C251.2,43.3 253,43.6 254.8,41.8 C256.5,40.1 256.4,22.9 254.7,20.6 C253.1,18.5 250.4,19.4 249.6,22.3 C248.6,26 248.9,39 250,41.1 Z M96.3,29 L95.7,34 L100.4,34 L105,34 L105,28.9 C105,23 103.7,20 101,20 C98.5,20 97,22.8 96.3,29 Z M365.1,51.7 C365.7,52.4 367.1,53 368.1,53 C369.8,53 370,52.2 370,44.3 L369.9,35.5 L367,39 C363.4,43.2 362.6,48.6 365.1,51.7 Z M452.7,52.2 C454.7,54.4 458.3,54.5 460.4,52.4 C462.8,50.1 462.7,24.5 460.3,21.8 C458.3,19.6 454.7,19.5 452.6,21.6 C450.2,23.9 450.3,49.5 452.7,52.2 Z M496.6,50.8 C497.4,52 499,53 500.1,53 C501.8,53 502,52.2 502,44.3 L502,35.7 L499.9,37.6 C497.3,39.9 495,44.3 495,46.7 C495,47.7 495.7,49.6 496.6,50.8 Z M573.6,52.5 C575.8,54.7 579.6,54.4 581.4,51.8 C582.7,50.1 583,46.7 583,37 C583,27.3 582.7,23.9 581.4,22.2 C579.7,19.7 576.3,19.3 573.4,21.4 C571.8,22.6 571.5,24.3 571.2,33.5 C570.8,45.5 571.4,50.2 573.6,52.5 Z"/>
</svg>
