<?xml version="1.0" encoding="UTF-8"?>
<svg width="145px" height="145px" viewBox="0 0 145 145" version="1.1" xmlns="http://www.w3.org/2000/svg" xmlns:xlink="http://www.w3.org/1999/xlink">
    <!-- Generator: Sketch 48.2 (47327) - http://www.bohemiancoding.com/sketch -->
    <title>default slice size</title>
    <desc>Created with Sketch.</desc>
    <defs></defs>
    <g id="Artboard" stroke="none" stroke-width="1" fill="none" fill-rule="evenodd">
        <g id="logo-template" transform="translate(-2.000000, 0.000000)" fill-rule="nonzero">
            <g id="maas_white-orange_hex" transform="translate(24.000000, 58.000000)">
                <g id="Group">
                    <path d="M12.617217,0.124885243 C5.67415594,0.124885243 0.0253831795,5.77403876 0.0253831795,12.7162114 C0.0253831795,19.6592725 5.67415594,25.3082991 12.617217,25.3082991 C19.5609127,25.3082991 25.2087971,19.6592725 25.2087971,12.7162114 C25.2086701,5.77403876 19.5609127,0.124885243 12.617217,0.124885243 Z" id="Shape" fill="#E95420"></path>
                    <g transform="translate(6.091963, 6.599627)" fill="#FFFFFF" id="Shape">
                        <path d="M12.4609836,0.0909986985 L12.4609836,0.0909986985 L0.588889764,0.0909986985 L0.588889764,0.0909986985 C0.290891237,0.0909986985 0.0492433682,0.332519651 0.0492433682,0.63077201 L0.0492433682,1.35025823 C0.0492433682,1.64825676 0.290891237,1.88977771 0.588889764,1.88977771 L0.58965126,1.88977771 L12.4600951,1.88977771 L12.4608566,1.88977771 C12.7588552,1.88977771 13.000503,1.64825676 13.000503,1.35025823 L13.000503,0.63077201 C13.00063,0.332519651 12.759109,0.0909986985 12.4609836,0.0909986985 Z"></path>
                        <path d="M12.4609836,3.50884382 L12.4609836,3.50858999 L0.588889764,3.50858999 L0.588889764,3.50884382 C0.290891237,3.50884382 0.0492433682,3.75036477 0.0492433682,4.0483633 L0.0492433682,4.7677226 C0.0492433682,5.06584805 0.290891237,5.30749592 0.588889764,5.30749592 C0.58901668,5.30749592 0.589397428,5.307369 0.58965126,5.307369 L12.4600951,5.307369 C12.460349,5.307369 12.4606028,5.30749592 12.4608566,5.30749592 C12.7588552,5.30749592 13.000503,5.06572113 13.000503,4.7677226 L13.000503,4.0483633 C13.00063,3.75036477 12.759109,3.50884382 12.4609836,3.50884382 Z"></path>
                        <path d="M12.4609836,6.9264351 L12.4609836,6.9264351 L0.588889764,6.9264351 L0.588889764,6.9264351 C0.290891237,6.9264351 0.0492433682,7.16820989 0.0492433682,7.46620842 L0.0492433682,8.18569464 C0.0492433682,8.48382008 0.290891237,8.72534104 0.588889764,8.72534104 L12.4609836,8.72534104 L12.4609836,8.72534104 C12.759109,8.72534104 13.000503,8.48382008 13.000503,8.18569464 L13.000503,7.46620842 C13.00063,7.16820989 12.759109,6.92668894 12.4609836,6.9264351 Z"></path>
                        <path d="M12.4609836,10.3442802 L12.4609836,10.3442802 L0.588889764,10.3442802 L0.588889764,10.3442802 C0.290891237,10.3442802 0.0492433682,10.5858012 0.0492433682,10.8839266 L0.0492433682,11.6035398 C0.0492433682,11.9014114 0.290891237,12.1431862 0.588889764,12.1431862 L12.4609836,12.1431862 L12.4609836,12.1431862 C12.759109,12.1431862 13.000503,11.9014114 13.000503,11.6035398 L13.000503,10.8839266 C13.00063,10.5858012 12.759109,10.3442802 12.4609836,10.3442802 Z"></path>
                    </g>
                </g>
                <g id="Group" transform="translate(33.378881, 3.299813)" fill="#000000">
                    <path d="M8.3961212,15.5079804 C8.22554623,15.0840813 7.9826292,14.5245091 7.66800469,13.82901 C7.35287252,13.1336378 6.99953866,12.3750615 6.60762237,11.5523927 C6.21557916,10.7301046 5.81541334,9.88230636 5.40687106,9.0084904 C4.99782113,8.13543594 4.60590484,7.31695532 4.23150294,6.55393695 C3.85672029,5.79066474 3.52432756,5.12092955 3.23495931,4.54435062 C2.94521032,3.96802553 2.73224544,3.56087934 2.59644543,3.32341969 C2.37573868,5.44354976 2.20199082,7.74542339 2.07494801,10.2296752 C1.94765136,12.7143077 1.83317322,15.3216679 1.73151359,18.0518827 L0.027286918,18.0518827 C0.179839827,14.8467486 0.353460774,11.7774145 0.548657425,8.84337282 C0.743346411,5.90983877 0.985121196,3.10309369 1.27360103,0.423645266 L2.79989161,0.423645266 C3.30933203,1.27182421 3.85303973,2.25098036 4.43101473,3.36149446 C5.00873589,4.47238931 5.58214192,5.62554716 6.15135972,6.82109491 C6.7204506,8.01651575 7.2729155,9.19543752 7.80824676,10.356718 C8.34332418,11.5185061 8.81532441,12.5660699 9.22297827,13.4982672 C9.62987064,12.5660699 10.1007286,11.5185061 10.6347907,10.356718 C11.1689797,9.19543752 11.7199216,8.01651575 12.288251,6.82109491 C12.8564535,5.62554716 13.4284634,4.47238931 14.0051693,3.36149446 C14.5816213,2.25098036 15.1244406,1.27169729 15.6332464,0.423645266 L17.0832605,0.423645266 C17.3714866,3.10309369 17.6131344,5.90983877 17.8082042,8.84337282 C18.0030201,11.7774145 18.1770218,14.8467486 18.3297016,18.0518827 L16.574074,18.0518827 C16.4725412,15.3216679 16.3580631,12.7143077 16.2307665,10.2296752 C16.1037237,7.74542339 15.929722,5.44354976 15.709269,3.32341969 C15.5738498,3.56100625 15.3624079,3.96815245 15.0746896,4.54435062 C14.7869712,5.12105646 14.4569899,5.79066474 14.0851263,6.55393695 C13.7125012,7.31695532 13.323504,8.13543594 12.9172462,9.0084904 C12.5108615,9.88230636 12.1134878,10.7301046 11.7244906,11.5523927 C11.3349857,12.3749346 10.9840633,13.1336378 10.6713425,13.82901 C10.3579871,14.5243822 10.1171008,15.0840813 9.94792188,15.5079804 L8.3961212,15.5079804 Z" id="Shape"></path>
                    <path d="M34.3521991,18.0517558 C34.0180295,17.1883469 33.7098777,16.3570478 33.4281244,15.5570969 C33.1459904,14.7579075 32.8765479,13.9785169 32.6190356,13.2185446 L24.0147723,13.2185446 C23.7208351,13.9800399 23.4324821,14.7606996 23.1508558,15.5602698 C22.8694832,16.3602207 22.5716116,17.1907583 22.2572409,18.0517558 L20.4509739,18.0517558 C21.1204552,16.2166788 21.7528772,14.506614 22.3482396,12.9215614 C22.9436021,11.3370164 23.5279229,9.83737813 24.1003136,8.42315428 C24.6727043,7.00880352 25.2412875,5.65004192 25.8058094,4.34598108 C26.3702044,3.04230098 26.9634093,1.73468649 27.5855511,0.42351835 L29.1112071,0.42351835 C29.7324604,1.72859452 30.3213501,3.03481294 30.8786379,4.34166594 C31.4359256,5.64851893 32.0013359,7.00867661 32.5743612,8.42239279 C33.1475134,9.83661663 33.729042,11.3370164 34.3181856,12.9244804 C34.9072023,14.5119445 35.5546003,16.2211209 36.2603796,18.0517558 L34.3521991,18.0517558 L34.3521991,18.0517558 Z M28.2986915,2.40759457 C27.6604314,3.8719502 27.0391781,5.35800844 26.4345508,6.86513473 C25.8299235,8.37276867 25.204355,9.99881515 24.5573377,11.7432742 L32.0748202,11.7432742 C31.4251377,9.9967845 30.792335,8.36870736 30.1770468,6.85916968 C29.5616316,5.34963199 28.9355555,3.86573132 28.2986915,2.40759457 Z" id="Shape"></path>
                    <path d="M51.5632639,18.0517558 C51.2290943,17.1883469 50.9209426,16.3570478 50.6391893,15.5570969 C50.3570552,14.7579075 50.0876128,13.9785169 49.8298466,13.2185446 L41.2255833,13.2185446 C40.9316461,13.9800399 40.643547,14.7606996 40.3619206,15.5602698 C40.0802943,16.3602207 39.7824226,17.1907583 39.4677981,18.0517558 L37.6619118,18.0517558 C38.3311394,16.2166788 38.9635613,14.506614 39.5589237,12.9215614 C40.1542862,11.3370164 40.738607,9.83737813 41.3109977,8.42315428 C41.8831346,7.00880352 42.4519716,5.65004192 43.0164935,4.34598108 C43.5811424,3.04230098 44.1740934,1.73468649 44.7962352,0.42351835 L46.322145,0.42351835 C46.9428907,1.72859452 47.5317804,3.03481294 48.089322,4.34166594 C48.6466097,5.64851893 49.2122738,7.00867661 49.7852991,8.42239279 C50.3584513,9.83661663 50.9399799,11.3370164 51.5288697,12.9244804 C52.1181402,14.5119445 52.7652844,16.2211209 53.4713175,18.0517558 L51.5632639,18.0517558 L51.5632639,18.0517558 Z M45.5092487,2.40759457 C44.8712425,3.8719502 44.2497353,5.35800844 43.6453618,6.86513473 C43.0407345,8.37276867 42.4154198,9.99881515 41.7681488,11.7432742 L49.2856312,11.7432742 C48.6359487,9.9967845 48.0031461,8.36870736 47.3878578,6.85916968 C46.7726964,5.34963199 46.1462396,3.86573132 45.5092487,2.40759457 Z" id="Shape"></path>
                    <path d="M60.2656332,16.9326114 C61.639117,16.9326114 62.707495,16.6819525 63.4707672,16.1803809 C64.2340394,15.6789361 64.6155486,14.8671821 64.6155486,13.7454994 C64.6155486,13.0996244 64.4923133,12.559851 64.246731,12.126814 C64.0006411,11.6935231 63.6743403,11.3277515 63.2673211,11.0302606 C62.8603018,10.7331505 62.3937589,10.4785572 61.8683271,10.2681307 C61.3425146,10.0574503 60.7913188,9.83407832 60.2149937,9.59814166 C59.485735,9.31194631 58.832245,9.01686685 58.2561738,8.71328402 C57.679341,8.40982811 57.1880496,8.06740902 56.7807765,7.68577292 C56.3737572,7.30426373 56.0639555,6.86779996 55.8525136,6.37574703 C55.6400564,5.88394792 55.5344623,5.307369 55.5344623,4.64601026 C55.5344623,3.13685332 56.0343841,1.99207193 57.0351159,1.2119199 C58.0358478,0.431894799 59.4262114,0.0417553303 61.2069684,0.0417553303 C61.6816338,0.0417553303 62.1479228,0.0760226226 62.6059623,0.143668796 C63.063748,0.211441885 63.4918353,0.300536845 63.8904781,0.410699844 C64.2886133,0.521116675 64.6537503,0.643844348 64.9843662,0.779517442 C65.3149821,0.915317453 65.5903896,1.059367 65.8110964,1.21179299 L65.200504,2.66180712 C64.7087049,2.32268784 64.1108041,2.05121473 63.4070555,1.84776855 C62.703053,1.64419545 61.9446036,1.5424089 61.1304381,1.5424089 C60.570739,1.5424089 60.057618,1.59774423 59.5915828,1.70803415 C59.1245323,1.81845098 58.7222089,1.99626015 58.3832166,2.24209624 C58.0438435,2.48818617 57.7769393,2.79773404 57.5818696,3.17061295 C57.3867999,3.54374569 57.2893285,3.9932818 57.2893285,4.51884053 C57.2893285,5.06178674 57.3912419,5.51957238 57.5946881,5.8925782 C57.7980074,6.26571094 58.0817913,6.58795041 58.4469284,6.85916968 C58.8113039,7.13064278 59.2393912,7.37647888 59.7314442,7.59680487 C60.2232433,7.81725779 60.7574323,8.04634098 61.3340112,8.2835468 C62.0291296,8.57202663 62.6861732,8.86037955 63.3053958,9.14860555 C63.9241108,9.43708539 64.4627419,9.77595083 64.9206545,10.1660903 C65.3786939,10.5563567 65.7430695,11.0306414 66.0147964,11.5905943 C66.2857618,12.1501665 66.4215619,12.8369084 66.4215619,13.650947 C66.4215619,15.2452645 65.866051,16.4406854 64.755283,17.2377172 C63.6445151,18.0348759 62.1391656,18.433138 60.2401231,18.433138 C59.5616307,18.433138 58.9426619,18.3907481 58.3832166,18.3060952 C57.8237713,18.2211885 57.3229612,18.1154675 56.882563,17.9879171 C56.4412764,17.8608743 56.0685244,17.7297701 55.7631648,17.5939701 C55.458059,17.4584239 55.2203455,17.3395037 55.0507859,17.2377172 L55.6107388,15.7370636 C55.7800446,15.8385963 56.0091278,15.9572627 56.2973538,16.0930627 C56.5854529,16.2289896 56.9244452,16.3602207 57.3152193,16.4873904 C57.7048511,16.6145601 58.14563,16.7206618 58.6379368,16.8053147 C59.1293551,16.8903484 59.6719206,16.9326114 60.2656332,16.9326114 Z" id="Shape"></path>
                </g>
            </g>
        </g>
    </g>
</svg>