<?xml version="1.0" encoding="UTF-8"?>
<svg width="200px" height="51px" viewBox="0 0 200 51" version="1.1" xmlns="http://www.w3.org/2000/svg" xmlns:xlink="http://www.w3.org/1999/xlink">
    <!-- Generator: Sketch 48.1 (47250) - http://www.bohemiancoding.com/sketch -->
    <title>maas_portfolio</title>
    <desc>Created with Sketch.</desc>
    <defs></defs>
    <g id="Page-1" stroke="none" stroke-width="1" fill="none" fill-rule="evenodd">
        <g id="maas_portfolio" fill-rule="nonzero">
            <g id="Group">
                <path d="M25.2163588,0.249591577 C11.3401832,0.249591577 0.0507299954,11.5398057 0.0507299954,25.4142059 C0.0507299954,39.2903815 11.3401832,50.580342 25.2163588,50.580342 C39.0938027,50.580342 50.3814804,39.2903815 50.3814804,25.4142059 C50.3812267,11.5398057 39.0938027,0.249591577 25.2163588,0.249591577 Z" id="Shape" fill="#E95420"></path>
                <g id="Shape" transform="translate(12.175199, 13.189799)" fill="#FFFFFF">
                    <path d="M24.9041157,0.181867034 L1.17693589,0.181867034 C0.581365748,0.181867034 0.0984161911,0.66456294 0.0984161911,1.26064039 L0.0984161911,2.69858211 C0.0984161911,3.29415226 0.581365748,3.77684816 1.17693589,3.77684816 L1.17845779,3.77684816 L24.9023401,3.77684816 L24.9038621,3.77684816 C25.4994322,3.77684816 25.9823817,3.29415226 25.9823817,2.69858211 L25.9823817,1.26064039 C25.9826354,0.66456294 25.4999395,0.181867034 24.9041157,0.181867034 Z"></path>
                    <path d="M24.9041157,7.01266091 L24.9041157,7.01215361 L1.17693589,7.01215361 L1.17693589,7.01266091 C0.581365748,7.01266091 0.0984161911,7.49535682 0.0984161911,8.09092696 L0.0984161911,9.52861504 C0.0984161911,10.1244388 0.581365748,10.6073884 1.17693589,10.6073884 C1.17718954,10.6073884 1.17795049,10.6071347 1.17845779,10.6071347 L24.9023401,10.6071347 C24.9028474,10.6071347 24.9033548,10.6073884 24.9038621,10.6073884 C25.4994322,10.6073884 25.9823817,10.1241852 25.9823817,9.52861504 L25.9823817,8.09092696 C25.9826354,7.49535682 25.4999395,7.01266091 24.9041157,7.01266091 Z"></path>
                    <path d="M24.9041157,13.8429474 L1.17693589,13.8429474 C0.581365748,13.8429474 0.0984161911,14.3261507 0.0984161911,14.9217209 L0.0984161911,16.3596626 C0.0984161911,16.9554863 0.581365748,17.4381823 1.17693589,17.4381823 L24.9041157,17.4381823 C25.4999395,17.4381823 25.9823817,16.9554863 25.9823817,16.3596626 L25.9823817,14.9217209 C25.9826354,14.3261507 25.4999395,13.8434548 24.9041157,13.8429474 Z"></path>
                    <path d="M24.9041157,20.6737413 L1.17693589,20.6737413 C0.581365748,20.6737413 0.0984161911,21.1564373 0.0984161911,21.7522611 L0.0984161911,23.1904565 C0.0984161911,23.7857729 0.581365748,24.2689761 1.17693589,24.2689761 L24.9041157,24.2689761 C25.4999395,24.2689761 25.9823817,23.7857729 25.9823817,23.1904565 L25.9823817,21.7522611 C25.9826354,21.1564373 25.4999395,20.6737413 24.9041157,20.6737413 Z"></path>
                </g>
            </g>
            <g id="Group" transform="translate(66.709944, 6.594900)" fill="#000000">
                <path d="M16.7802143,30.9937444 C16.4393087,30.1465534 15.9538226,29.0282107 15.3250243,27.6382088 C14.6952115,26.2484606 13.9890499,24.7323946 13.2057788,23.0882355 C12.422254,21.4448373 11.6224956,19.7504555 10.8059963,18.0040754 C9.98848245,16.2592172 9.20521132,14.6234285 8.45694389,13.0984848 C7.7079155,11.5730339 7.04360621,10.2345229 6.46528427,9.08219107 C5.88620137,7.93036654 5.46057671,7.1166574 5.18917123,6.6420783 C4.74807391,10.8793012 4.4008271,15.4797509 4.14692348,20.4446955 C3.89251255,25.4104011 3.66372027,30.6213862 3.46054663,36.0779045 L0.0545347451,36.0779045 C0.359422017,29.6722279 0.706415187,23.537957 1.09652885,17.6740767 C1.48562791,11.8112112 1.96883112,6.20174194 2.54537752,0.846683623 L5.59577215,0.846683623 C6.61392315,2.54182641 7.70055966,4.49873599 8.85568165,6.71817329 C10.0102963,8.93837154 11.1562869,11.2430352 12.2939071,13.632418 C13.4312735,16.0215472 14.535412,18.3777018 15.6053076,20.698599 C16.6746959,23.020511 17.6180201,25.1141379 18.4327438,26.977197 C19.2459456,25.1141379 20.1869871,23.020511 21.2543462,20.698599 C22.3219589,18.3777018 23.4230535,16.0215472 24.558898,13.632418 C25.694489,11.2430352 26.8376895,8.93837154 27.990275,6.71817329 C29.1423532,4.49873599 30.2272141,2.54157277 31.2440968,0.846683623 L34.1420478,0.846683623 C34.718087,6.20174194 35.2010365,11.8112112 35.5908966,17.6740767 C35.9802493,23.537957 36.3280034,29.6722279 36.6331443,36.0779045 L33.1244041,36.0779045 C32.9214841,30.6213862 32.692692,25.4104011 32.438281,20.4446955 C32.1843773,15.4797509 31.8366232,10.8793012 31.3960332,6.6420783 C31.1253887,7.11691106 30.7028078,7.93062018 30.1277833,9.08219107 C29.5527588,10.2347766 28.8932689,11.5730339 28.1500745,13.0984848 C27.4053582,14.6234285 26.627921,16.2592172 25.8159873,18.0040754 C25.0038001,19.7504555 24.2096221,21.4448373 23.4321849,23.0882355 C22.653733,24.732141 21.9523909,26.2484606 21.3273973,27.6382088 C20.7011356,29.0279571 20.2197079,30.1465534 19.8815926,30.9937444 L16.7802143,30.9937444 Z" id="Shape"></path>
                <path d="M68.6551856,36.0776509 C67.9873252,34.35207 67.371463,32.6906627 66.8083601,31.0919068 C66.2444962,29.4946729 65.7059973,27.9370084 65.1913416,26.4181524 L47.9951413,26.4181524 C47.407688,27.9400523 46.8313952,29.5002533 46.268546,31.0982482 C45.706204,32.6970039 45.1108874,34.3568894 44.4825965,36.0776509 L40.87265,36.0776509 C42.2106537,32.4101259 43.4745915,28.992446 44.6644635,25.8246115 C45.8543356,22.6577915 47.02214,19.6606634 48.1661015,16.8342417 C49.3100628,14.0075663 50.4464148,11.2919897 51.5746499,8.68573616 C52.7026313,6.0802436 53.8881912,3.46688789 55.1315834,0.846429973 L58.1807099,0.846429973 C59.4223265,3.45471268 60.5992623,6.06527826 61.7130394,8.67711206 C62.8268165,11.2889459 63.9568271,14.0073127 65.1020567,16.8327198 C66.24754,19.6591415 67.4097643,22.6577915 68.5872074,25.8304454 C69.764397,29.0030993 71.0582655,32.4190035 72.468813,36.0776509 L68.6551856,36.0776509 Z M56.5568427,4.81174006 C55.281237,7.7383535 54.0396204,10.7083411 52.8312318,13.7204345 C51.6228433,16.7335427 50.3726026,19.9833061 49.079495,23.4697251 L64.1036905,23.4697251 C62.8052562,19.9792477 61.5405574,16.7254259 60.3108623,13.708513 C59.0809137,10.6916002 57.8296583,7.72592465 56.5568427,4.81174006 Z" id="Shape"></path>
                <path d="M103.052659,36.0776509 C102.384799,34.35207 101.768936,32.6906627 101.205834,31.0919068 C100.64197,29.4946729 100.103471,27.9370084 99.5883077,26.4181524 L82.3921074,26.4181524 C81.8046541,27.9400523 81.2288687,29.5002533 80.6660194,31.0982482 C80.10317,32.6970039 79.5078535,34.3568894 78.8790552,36.0776509 L75.2698698,36.0776509 C76.6073661,32.4101259 77.8713039,28.992446 79.061176,25.8246115 C80.251048,22.6577915 81.4188524,19.6606634 82.5628139,16.8342417 C83.7062679,14.0075663 84.8431272,11.2919897 85.9713623,8.68573616 C87.099851,6.0802436 88.2849037,3.46688789 89.5282959,0.846429973 L92.5779296,0.846429973 C93.8185316,3.45471268 94.9954676,6.06527826 96.1097518,8.67711206 C97.2235289,11.2889459 98.3540468,14.0073127 99.4992765,16.8327198 C100.64476,19.6591415 101.806984,22.6577915 102.98392,25.8304454 C104.161617,29.0030993 105.454978,32.4190035 106.866033,36.0776509 L103.052659,36.0776509 Z M90.9533015,4.81174006 C89.678203,7.7383535 88.4360791,10.7083411 87.2281979,13.7204345 C86.0198094,16.7335427 84.770076,19.9833061 83.4764611,23.4697251 L98.5006566,23.4697251 C97.2022223,19.9792477 95.9375235,16.7254259 94.7078284,13.708513 C93.478387,10.6916002 92.2263707,7.72592465 90.9533015,4.81174006 Z" id="Shape"></path>
                <path d="M120.444931,33.8409654 C123.18993,33.8409654 125.325156,33.3400066 126.850607,32.337582 C128.376059,31.3354109 129.13853,29.7130656 129.13853,27.4713071 C129.13853,26.1804824 128.892235,25.101709 128.401423,24.2362554 C127.909596,23.3702943 127.257462,22.639275 126.444006,22.0447195 C125.630551,21.4509249 124.698133,20.942103 123.648023,20.5215513 C122.597151,20.1004924 121.495549,19.6540684 120.343724,19.1825332 C118.886252,18.6105524 117.580208,18.0208162 116.428891,17.4140855 C115.276051,16.8076084 114.294172,16.1232607 113.48021,15.3605354 C112.666754,14.5980635 112.047595,13.7257612 111.625014,12.7423602 C111.200404,11.7594666 110.989367,10.6071347 110.989367,9.28536471 C110.989367,6.26921283 111.988494,3.98129004 113.988524,2.42210363 C115.988554,0.863170872 118.76729,0.0834508424 122.326252,0.0834508424 C123.274904,0.0834508424 124.206813,0.151936337 125.122237,0.287131774 C126.037151,0.422580862 126.892713,0.600643145 127.689428,0.820811326 C128.485128,1.04148681 129.214878,1.28676633 129.875637,1.55791816 C130.536395,1.82932363 131.086816,2.11721635 131.527912,2.42184998 L130.307602,5.31980096 C129.324709,4.64204823 128.129763,4.09949093 126.723274,3.69289001 C125.316278,3.28603545 123.800466,3.08260817 122.173301,3.08260817 C121.054705,3.08260817 120.029198,3.19319956 119.097796,3.41362139 C118.164364,3.63429687 117.360293,3.98966049 116.682794,4.4809805 C116.004534,4.9728078 115.471108,5.5914601 115.081248,6.33668373 C114.691388,7.08241466 114.496585,7.98084288 114.496585,9.03120743 C114.496585,10.116322 114.700266,11.0312375 115.106867,11.7767148 C115.513214,12.5224457 116.080375,13.166463 116.810126,13.708513 C117.538356,14.2510704 118.393917,14.7423904 119.377318,15.1827267 C120.360212,15.6233167 121.427824,16.0811549 122.580156,16.5552267 C123.969398,17.131773 125.282543,17.7080659 126.520101,18.284105 C127.756645,18.8606513 128.833135,19.5378968 129.748305,20.3176168 C130.663727,21.0975905 131.391956,22.0454805 131.935021,23.1645841 C132.476563,24.282927 132.74797,25.655427 132.74797,27.2823379 C132.74797,30.4686889 131.637743,32.857818 129.417799,34.4507399 C127.197854,36.0439154 124.189312,36.839869 120.393947,36.839869 C119.037934,36.839869 117.800883,36.7551499 116.682794,36.5859654 C115.564705,36.4162735 114.563802,36.2049832 113.683637,35.9500649 C112.801696,35.6961612 112.056726,35.4341409 111.446444,35.1627354 C110.83667,34.8918372 110.361583,34.6541672 110.022707,34.4507399 L111.14181,31.4515826 C111.48018,31.6545026 111.938018,31.8916652 112.514057,32.1630707 C113.089842,32.4347299 113.767341,32.6970039 114.54833,32.9511612 C115.327035,33.2053185 116.207961,33.4173699 117.19187,33.5865544 C118.174002,33.7564999 119.258356,33.8409654 120.444931,33.8409654 Z" id="Shape"></path>
            </g>
        </g>
    </g>
</svg>