<?xml version="1.0" encoding="UTF-8"?>
<svg width="249px" height="64px" viewBox="0 0 249 64" version="1.1" xmlns="http://www.w3.org/2000/svg" xmlns:xlink="http://www.w3.org/1999/xlink">
    <!-- Generator: Sketch 48.2 (47327) - http://www.bohemiancoding.com/sketch -->
    <title>maas_portfolio</title>
    <desc>Created with Sketch.</desc>
    <defs></defs>
    <g id="Page-1" stroke="none" stroke-width="1" fill="none" fill-rule="evenodd">
        <g id="maas_portfolio" fill-rule="nonzero">
            <path d="M31.3294155,0.310098626 C14.0893185,0.310098626 0.0630281761,14.3373344 0.0630281761,31.5752254 C0.0630281761,48.8153224 14.0893185,62.842243 31.3294155,62.842243 C48.5710882,62.842243 62.5951725,48.8153224 62.5951725,31.5752254 C62.5948574,14.3373344 48.5710882,0.310098626 31.3294155,0.310098626 Z" id="Shape" fill="#E95420"></path>
            <g id="Shape" transform="translate(15.126762, 16.387326)" fill="#FFFFFF">
                <path d="M30.9414771,0.225956011 L1.46225369,0.225956011 C0.722302898,0.225956011 0.122274662,0.825669107 0.122274662,1.56625018 L0.122274662,3.35278383 C0.122274662,4.09273462 0.722302898,4.69244771 1.46225369,4.69244771 L1.46414453,4.69244771 L30.9392711,4.69244771 L30.9411619,4.69244771 C31.6811127,4.69244771 32.281141,4.09273462 32.281141,3.35278383 L32.281141,1.56625018 C32.2814561,0.825669107 31.681743,0.225956011 30.9414771,0.225956011 Z"></path>
                <path d="M30.9414771,8.71269993 L30.9414771,8.71206964 L1.46225369,8.71206964 L1.46225369,8.71269993 C0.722302898,8.71269993 0.122274662,9.31241302 0.122274662,10.0523638 L0.122274662,11.8385823 C0.122274662,12.5788482 0.722302898,13.1788765 1.46225369,13.1788765 C1.46256883,13.1788765 1.46351425,13.1785613 1.46414453,13.1785613 L30.9392711,13.1785613 C30.9399014,13.1785613 30.9405317,13.1788765 30.9411619,13.1788765 C31.6811127,13.1788765 32.281141,12.5785331 32.281141,11.8385823 L32.281141,10.0523638 C32.2814561,9.31241302 31.681743,8.71269993 30.9414771,8.71269993 Z"></path>
                <path d="M30.9414771,17.1988136 L1.46225369,17.1988136 C0.722302898,17.1988136 0.122274662,17.7991569 0.122274662,18.5391077 L0.122274662,20.3256414 C0.122274662,21.0659073 0.722302898,21.6656204 1.46225369,21.6656204 L30.9414771,21.6656204 C31.681743,21.6656204 32.281141,21.0659073 32.281141,20.3256414 L32.281141,18.5391077 C32.2814561,17.7991569 31.681743,17.1994438 30.9414771,17.1988136 Z"></path>
                <path d="M30.9414771,25.6855575 L1.46225369,25.6855575 C0.722302898,25.6855575 0.122274662,26.2852706 0.122274662,27.0255365 L0.122274662,28.8123853 C0.122274662,29.5520209 0.722302898,30.1523643 1.46225369,30.1523643 L30.9414771,30.1523643 C31.681743,30.1523643 32.281141,29.5520209 32.281141,28.8123853 L32.281141,27.0255365 C32.2814561,26.2852706 31.681743,25.6855575 30.9414771,25.6855575 Z"></path>
            </g>
            <path d="M103.730197,46.7010423 C103.306648,45.6484718 102.703468,44.2590157 101.922234,42.5320436 C101.139739,40.8053867 100.262387,38.9217897 99.2892317,36.8790465 C98.3157615,34.8372487 97.3221223,32.7321077 96.3076838,30.5623627 C95.2919847,28.3945086 94.3188297,26.362165 93.3891641,24.4675381 C92.4585531,22.5722808 91.6331991,20.9092824 90.9146779,19.4775974 C90.1952113,18.0465426 89.6664049,17.0355707 89.3292041,16.4459421 C88.7811741,21.7103705 88.3497463,27.4260807 88.0342903,33.5946483 C87.7182039,39.7641613 87.4339469,46.2384155 87.181519,53.0177261 L82.9498073,53.0177261 C83.3286066,45.0591584 83.7597194,37.4377913 84.244406,30.1523644 C84.7278321,22.8681981 85.3281755,15.8988575 86.0444907,9.24560326 L89.834375,9.24560326 C91.0993505,11.3516898 92.449414,13.7830017 93.8845656,16.5404844 C95.3190869,19.2989125 96.7428934,22.1622825 98.1563002,25.1309096 C99.5693919,28.0992216 100.9412,31.0265652 102.270464,33.9101043 C103.599098,36.7949039 104.771107,39.3960767 105.78334,41.7107865 C106.793681,39.3960767 107.962854,36.7949039 109.288967,33.9101043 C110.615395,31.0265652 111.983421,28.0992216 113.394622,25.1309096 C114.805508,22.1622825 116.225848,19.2989125 117.657848,16.5404844 C119.089218,13.7830017 120.437076,11.3513746 121.700475,9.24560326 L125.30096,9.24560326 C126.016645,15.8988575 126.616673,22.8681981 127.101045,30.1523644 C127.584786,37.4377913 128.016844,45.0591584 128.395958,53.0177261 L124.036615,53.0177261 C123.784502,46.2384155 123.500245,39.7641613 123.184159,33.5946483 C122.868703,27.4260807 122.436644,21.7103705 121.889245,16.4459421 C121.552989,17.0358858 121.027965,18.0468578 120.31354,19.4775974 C119.599116,20.9095975 118.77975,22.5722808 117.856387,24.4675381 C116.931133,26.362165 115.965226,28.3945086 114.95646,30.5623627 C113.947379,32.7321077 112.960673,34.8372487 111.994766,36.8790465 C111.027599,38.9214746 110.156235,40.8053867 109.379727,42.5320436 C108.601645,44.2587005 108.003507,45.6484718 107.583424,46.7010423 L103.730197,46.7010423 Z" id="Shape" fill="#000000"></path>
            <path d="M168.180919,53.017411 C167.351153,50.8735076 166.585991,48.8093348 165.886378,46.8230019 C165.18582,44.8385597 164.516776,42.9032796 163.877355,41.016216 L142.512379,41.016216 C141.782513,42.9070613 141.066513,44.8454928 140.367215,46.8308804 C139.668548,48.8172134 138.928912,50.8794953 138.148308,53.017411 L133.663223,53.017411 C135.325591,48.460789 136.895938,44.2145808 138.374264,40.2787863 C139.85259,36.3442524 141.303499,32.6205478 142.724784,29.108933 C144.146069,25.597003 145.557901,22.2231047 146.959647,18.9850322 C148.361079,15.747905 149.834047,12.5010086 151.378868,9.24528812 L155.167176,9.24528812 C156.709791,12.4858818 158.172045,15.7293117 159.555828,18.9743174 C160.939612,22.219323 162.343564,25.5966878 163.766426,29.1070421 C165.189602,32.6186569 166.633577,36.3442524 168.096461,40.2860346 C169.55903,44.2278167 171.166564,48.4718189 172.919062,53.017411 L168.180919,53.017411 Z M153.149644,14.1718855 C151.564801,17.807981 150.022186,21.4979656 148.520855,25.2402635 C147.019524,28.983822 145.466195,33.021407 143.859606,37.3530184 L162.526031,37.3530184 C160.912825,33.0163647 159.341532,28.9737375 157.813729,25.2254519 C156.285611,21.4771663 154.731021,17.7925391 153.149644,14.1718855 Z" id="Shape" fill="#000000"></path>
            <path d="M210.917174,53.017411 C210.087408,50.8735076 209.322246,48.8093348 208.622633,46.8230019 C207.922075,44.8385597 207.253031,42.9032796 206.61298,41.016216 L185.248004,41.016216 C184.518137,42.9070613 183.802768,44.8454928 183.10347,46.8308804 C182.404172,48.8172134 181.664537,50.8794953 180.883302,53.017411 L176.399163,53.017411 C178.060901,48.460789 179.631248,44.2145808 181.109574,40.2787863 C182.587899,36.3442524 184.038808,32.6205478 185.460093,29.108933 C186.880749,25.597003 188.29321,22.2231047 189.694957,18.9850322 C191.097018,15.747905 192.569357,12.5010086 194.114177,9.24528812 L197.903116,9.24528812 C199.44447,12.4858818 200.906724,15.7293117 202.291138,18.9743174 C203.674921,22.219323 205.079504,25.5966878 206.502365,29.1070421 C207.925541,32.6186569 209.369517,36.3442524 210.831771,40.2860346 C212.29497,44.2278167 213.901873,48.4718189 215.655002,53.017411 L210.917174,53.017411 Z M195.884639,14.1718855 C194.300425,17.807981 192.757181,21.4979656 191.25648,25.2402635 C189.755149,28.983822 188.202449,33.021407 186.595231,37.3530184 L205.261656,37.3530184 C203.648449,33.0163647 202.077157,28.9737375 200.549354,25.2254519 C199.021866,21.4771663 197.466331,17.7925391 195.884639,14.1718855 Z" id="Shape" fill="#000000"></path>
            <path d="M232.525754,50.2384987 C235.936208,50.2384987 238.589064,49.6160955 240.484322,48.3706587 C242.379579,47.1255371 243.326892,45.109896 243.326892,42.3246809 C243.326892,40.720929 243.02089,39.3806348 242.411093,38.3053741 C241.800035,37.2294832 240.989807,36.3212472 239.979151,35.5825569 C238.968494,34.8448121 237.810036,34.2126395 236.505353,33.6901359 C235.199724,33.1670021 233.831067,32.6123541 232.400013,32.0265072 C230.589213,31.3158645 228.966553,30.583162 227.536128,29.829345 C226.103813,29.0758432 224.883903,28.2255931 223.872615,27.2779644 C222.861959,26.330651 222.0927,25.2468815 221.567675,24.0250803 C221.040129,22.8039094 220.777932,21.3722243 220.777932,19.7300252 C220.777932,15.982685 222.019272,13.1401143 224.504158,11.2029433 C226.989044,9.26608742 230.441412,8.29734435 234.863154,8.29734435 C236.041781,8.29734435 237.199608,8.38243239 238.336952,8.55040248 C239.473665,8.71868771 240.536635,8.9399166 241.526492,9.21345889 C242.515089,9.48763146 243.42175,9.79237269 244.242692,10.1292583 C245.063634,10.466459 245.747489,10.8241439 246.295519,11.2026281 L244.779377,14.8031127 C243.558206,13.9610563 242.073577,13.2869699 240.326121,12.7817991 C238.578034,12.2763131 236.694752,12.0235701 234.673124,12.0235701 C233.283352,12.0235701 232.009238,12.1609715 230.852041,12.434829 C229.692322,12.7090015 228.693325,13.1505139 227.851584,13.7609418 C227.008897,14.372 226.346156,15.1406286 225.861785,16.0665125 C225.377413,16.9930267 225.135385,18.1092557 225.135385,19.4142541 C225.135385,20.7624267 225.388443,21.8991399 225.893614,22.8253389 C226.39847,23.7518531 227.103125,24.5519958 228.009785,25.2254519 C228.914554,25.8995382 229.977525,26.5099661 231.199326,27.0570507 C232.420497,27.6044504 233.746925,28.1732797 235.17861,28.762278 C236.904636,29.4785932 238.536121,30.1945933 240.073693,30.9102782 C241.610005,31.6265935 242.947463,32.4680196 244.084491,33.4367627 C245.221834,34.4058209 246.126604,35.5835024 246.80132,36.9739039 C247.474146,38.3633601 247.811347,40.0685874 247.811347,42.089901 C247.811347,46.0487007 246.431975,49.0170127 243.673862,50.9960974 C240.915749,52.9754973 237.177863,53.9644094 232.46241,53.9644094 C230.777667,53.9644094 229.240725,53.8591523 227.851584,53.6489533 C226.462443,53.4381241 225.218897,53.1756117 224.125358,52.8588951 C223.029614,52.5434391 222.104045,52.2178986 221.345816,51.8806979 C220.588217,51.5441274 219.997958,51.2488404 219.57693,50.9960974 L220.967332,47.2698716 C221.38773,47.5219843 221.956559,47.8166411 222.672244,48.1538418 C223.387614,48.4913577 224.229355,48.8172134 225.199674,49.1329845 C226.167156,49.4487557 227.26164,49.7122135 228.484072,49.9224124 C229.704297,50.1335568 231.051525,50.2384987 232.525754,50.2384987 Z" id="Shape" fill="#000000"></path>
        </g>
    </g>
</svg>