<svg xmlns="http://www.w3.org/2000/svg" width="23" height="23" viewBox="0 0 23 23">
  <g fill="none" fill-rule="evenodd" transform="translate(0 -1)">
    <g transform="translate(0 1)">
      <polygon fill="#FFFAE4" fill-rule="nonzero" points="16.498 9.5 19.5 8.5 19.5 11.973 22.5 10.313 17.21 .754 8.835 17.878 15.492 14.193"/>
      <polygon stroke="#FED52E" stroke-linecap="round" stroke-linejoin="round" points="14.5 6 13 7 11.5 6 11.5 .5 14.5 .5"/>
      <polygon stroke="#FED52E" stroke-linecap="round" stroke-linejoin="round" points="11.5 7.5 10 8.5 8.5 7.5 8.5 1.5 11.5 1.5"/>
      <polygon stroke="#FED52E" stroke-linecap="round" stroke-linejoin="round" points="8.5 9 7 10 5.5 9 5.5 2.5 8.5 2.5"/>
      <polygon stroke="#FED52E" stroke-linecap="round" stroke-linejoin="round" points="5.5 10.5 4 11.5 2.509 10.5 2.5 4.5 5.5 4.5"/>
      <polyline stroke="#FED52E" stroke-linecap="round" stroke-linejoin="round" points="8.5 22.5 8.5 21 7.071 18.852"/>
      <path stroke="#FED52E" stroke-linecap="round" stroke-linejoin="round" d="M8.835,17.878 L4.936,10.876"/>
      <polyline stroke="#FED52E" stroke-linecap="round" stroke-linejoin="round" points="14.503 2.273 17.21 .754 22.5 10.313 19.5 11.99"/>
      <polyline stroke="#FED52E" stroke-linecap="round" stroke-linejoin="round" points="15.489 14.204 5.791 19.559 .5 10 2.494 8.91"/>
      <path stroke="#FED52E" stroke-linecap="round" stroke-linejoin="round" d="M4.875,14.25 L4.617,13.788"/>
      <polyline stroke="#FED52E" stroke-linecap="round" stroke-linejoin="round" points="14.997 16.5 16.498 9.5 19.5 8.5 19.5 16.5 17.499 19.5 17.499 22.5"/>
    </g>
    <rect width="24" height="24"/>
  </g>
</svg>
