<svg xmlns="http://www.w3.org/2000/svg" width="24" height="24" viewBox="0 0 24 24">
  <g fill="none">
    <path fill="#5C6FFD" d="M8.86956522,8.86956522 L17.2173913,8.86956522 C17.2173913,13.4799423 13.4799423,17.2173913 8.86956522,17.2173913 L8.86956522,8.86956522 Z"/>
    <path fill="#FED52E" d="M17.2173913,8.86956522 L8.86956522,8.86956522 L8.86956522,17.2173913 C4.25918818,17.2173913 0.52173913,13.4799423 0.52173913,8.86956522 C0.52173913,4.25918818 4.25918818,0.52173913 8.86956522,0.52173913 C13.4799423,0.52173913 17.2173913,4.25918818 17.2173913,8.86956522 Z"/>
    <path fill="#FFF" d="M8.86956522,17.7391304 C3.97103961,17.7391304 -3.55271368e-15,13.7680908 -3.55271368e-15,8.86956522 C-3.55271368e-15,3.97103961 3.97103961,-3.55271368e-15 8.86956522,-3.55271368e-15 C13.7680908,-3.55271368e-15 17.7391304,3.97103961 17.7391304,8.86956522 C17.7391304,13.7680908 13.7680908,17.7391304 8.86956522,17.7391304 Z M8.86956522,1.04347826 C4.54733674,1.04347826 1.04347826,4.54733674 1.04347826,8.86956522 C1.04347826,13.1917937 4.54733674,16.6956522 8.86956522,16.6956522 C13.1917937,16.6956522 16.6956522,13.1917937 16.6956522,8.86956522 C16.6956522,6.79395791 15.8711204,4.80336207 14.4034444,3.33568606 C12.9357684,1.86801006 10.9451725,1.04347826 8.86956522,1.04347826 Z"/>
    <path fill="#FFF" d="M8.86956522,17.7391304 C8.58141665,17.7391304 8.34782609,17.5055399 8.34782609,17.2173913 L8.34782609,8.86956522 C8.34782609,8.58141665 8.58141665,8.34782609 8.86956522,8.34782609 L17.2173913,8.34782609 C17.5055399,8.34782609 17.7391304,8.58141665 17.7391304,8.86956522 C17.7391304,9.15771378 17.5055399,9.39130435 17.2173913,9.39130435 L9.39130435,9.39130435 L9.39130435,17.2173913 C9.39130435,17.5055399 9.15771378,17.7391304 8.86956522,17.7391304 Z"/>
    <path fill="#FFF" d="M23.4782609,24 L21.3913043,24 C21.1031558,24 20.8695652,23.7664094 20.8695652,23.4782609 C20.8695652,23.1901123 21.1031558,22.9565217 21.3913043,22.9565217 L23.4782609,22.9565217 C23.7664094,22.9565217 24,23.1901123 24,23.4782609 C24,23.7664094 23.7664094,24 23.4782609,24 Z M19.3043478,24 L17.2173913,24 C16.9292427,24 16.6956522,23.7664094 16.6956522,23.4782609 C16.6956522,23.1901123 16.9292427,22.9565217 17.2173913,22.9565217 L19.3043478,22.9565217 C19.5924964,22.9565217 19.826087,23.1901123 19.826087,23.4782609 C19.826087,23.7664094 19.5924964,24 19.3043478,24 Z M15.1304348,24 L13.0434783,24 C12.7553297,24 12.5217391,23.7664094 12.5217391,23.4782609 C12.5217391,23.1901123 12.7553297,22.9565217 13.0434783,22.9565217 L15.1304348,22.9565217 C15.4185833,22.9565217 15.6521739,23.1901123 15.6521739,23.4782609 C15.6521739,23.7664094 15.4185833,24 15.1304348,24 Z M10.9565217,24 L8.86956522,24 C8.58141665,24 8.34782609,23.7664094 8.34782609,23.4782609 C8.34782609,23.1901123 8.58141665,22.9565217 8.86956522,22.9565217 L10.9565217,22.9565217 C11.2446703,22.9565217 11.4782609,23.1901123 11.4782609,23.4782609 C11.4782609,23.7664094 11.2446703,24 10.9565217,24 Z M23.4782609,21.9130435 C23.1901123,21.9130435 22.9565217,21.6794529 22.9565217,21.3913043 L22.9565217,19.3043478 C22.9565217,19.0161993 23.1901123,18.7826087 23.4782609,18.7826087 C23.7664094,18.7826087 24,19.0161993 24,19.3043478 L24,21.3913043 C24,21.6794529 23.7664094,21.9130435 23.4782609,21.9130435 Z M8.86956522,21.9130435 C8.58141665,21.9130435 8.34782609,21.6794529 8.34782609,21.3913043 L8.34782609,19.3043478 C8.34782609,19.0161993 8.58141665,18.7826087 8.86956522,18.7826087 C9.15771378,18.7826087 9.39130435,19.0161993 9.39130435,19.3043478 L9.39130435,21.3913043 C9.39130435,21.6794529 9.15771378,21.9130435 8.86956522,21.9130435 Z M23.4782609,17.7391304 C23.1901123,17.7391304 22.9565217,17.5055399 22.9565217,17.2173913 L22.9565217,15.1304348 C22.9565217,14.8422862 23.1901123,14.6086957 23.4782609,14.6086957 C23.7664094,14.6086957 24,14.8422862 24,15.1304348 L24,17.2173913 C24,17.5055399 23.7664094,17.7391304 23.4782609,17.7391304 Z M23.4782609,13.5652174 C23.1901123,13.5652174 22.9565217,13.3316268 22.9565217,13.0434783 L22.9565217,10.9565217 C22.9565217,10.6683732 23.1901123,10.4347826 23.4782609,10.4347826 C23.7664094,10.4347826 24,10.6683732 24,10.9565217 L24,13.0434783 C24,13.3316268 23.7664094,13.5652174 23.4782609,13.5652174 Z M23.4782609,9.39130435 L21.3913043,9.39130435 C21.1031558,9.39130435 20.8695652,9.15771378 20.8695652,8.86956522 C20.8695652,8.58141665 21.1031558,8.34782609 21.3913043,8.34782609 L23.4782609,8.34782609 C23.7664094,8.34782609 24,8.58141665 24,8.86956522 C24,9.15771378 23.7664094,9.39130435 23.4782609,9.39130435 Z M19.3043478,9.39130435 L17.2173913,9.39130435 C16.9292427,9.39130435 16.6956522,9.15771378 16.6956522,8.86956522 C16.6956522,8.58141665 16.9292427,8.34782609 17.2173913,8.34782609 L19.3043478,8.34782609 C19.5924964,8.34782609 19.826087,8.58141665 19.826087,8.86956522 C19.826087,9.15771378 19.5924964,9.39130435 19.3043478,9.39130435 Z"/>
  </g>
</svg>
