<?xml version="1.0" encoding="UTF-8"?>
<svg width="144px" height="18px" viewBox="0 0 144 18" version="1.1" xmlns="http://www.w3.org/2000/svg" xmlns:xlink="http://www.w3.org/1999/xlink">
    <!-- Generator: Sketch 48.2 (47327) - http://www.bohemiancoding.com/sketch -->
    <title>riverisland_portfolio</title>
    <desc>Created with Sketch.</desc>
    <defs></defs>
    <g id="Page-1" stroke="none" stroke-width="1" fill="none" fill-rule="evenodd">
        <g id="riverisland_portfolio" fill="#000000" fill-rule="nonzero">
            <path d="M50.5894737,8.58947368 C51.7263158,8.58947368 52.5473684,8.43157895 53.1473684,8.02105263 C54,7.45263158 54.3789474,6.50526316 54.3789474,5.30526316 C54.3789474,4.01052632 53.9368421,3.15789474 53.2421053,2.65263158 C52.6421053,2.21052632 51.7894737,2.02105263 50.5263158,2.02105263 L49.0421053,2.02105263 L49.0421053,17.4 L46.5473684,17.4 L46.5473684,0.347368421 L50.9368421,0.347368421 C52.6105263,0.347368421 53.9684211,0.536842105 55.1368421,1.32631579 C56.9368421,2.55789474 57,4.54736842 57,4.98947368 C57,7.13684211 55.8947368,8.71578947 53.9684211,9.41052632 C53.8105263,9.47368421 53.5894737,9.53684211 53.4,9.56842105 L58.5473684,17.4 L55.7052632,17.4 L50.0526316,8.58947368 L50.5894737,8.58947368 Z" id="Shape"></path>
            <path d="M4.04210526,8.58947368 C5.17894737,8.58947368 6,8.43157895 6.6,8.02105263 C7.45263158,7.45263158 7.83157895,6.50526316 7.83157895,5.30526316 C7.83157895,4.01052632 7.38947368,3.15789474 6.69473684,2.65263158 C6.09473684,2.21052632 5.24210526,1.98947368 3.94736842,1.98947368 L2.49473684,1.98947368 L2.49473684,17.3684211 L0,17.3684211 L0,0.315789474 L4.38947368,0.315789474 C6.06315789,0.315789474 7.42105263,0.505263158 8.58947368,1.29473684 C10.3894737,2.52631579 10.4526316,4.51578947 10.4526316,4.95789474 C10.4526316,7.10526316 9.34736842,8.68421053 7.42105263,9.37894737 C7.26315789,9.44210526 7.04210526,9.50526316 6.85263158,9.53684211 L12,17.4 L9.15789474,17.4 L3.47368421,8.58947368 L4.04210526,8.58947368 Z" id="Shape"></path>
            <rect id="Rectangle-path" x="13.8631579" y="0.347368421" width="2.52631579" height="17.0526316"></rect>
            <polygon id="Shape" points="32.6842105 0.347368421 26.6526316 17.4 24.6631579 17.4 18.5368421 0.347368421 21.2842105 0.347368421 26.0210526 13.8315789 30.6631579 0.347368421"></polygon>
            <polygon id="Shape" points="37.1052632 15.7263158 44.4 15.7263158 44.4 17.4 34.6105263 17.4 34.6105263 0.347368421 43.8 0.347368421 43.8 2.02105263 37.1052632 2.02105263 37.1052632 7.67368421 43.5473684 7.67368421 43.5473684 9.34736842 37.1052632 9.34736842"></polygon>
            <rect id="Rectangle-path" x="69.0315789" y="0.347368421" width="2.52631579" height="17.0526316"></rect>
            <path d="M79.9263158,0 C81.2842105,0 82.7368421,0.315789474 84.0315789,0.884210526 L84.0315789,3.15789474 C82.5473684,2.24210526 81,1.76842105 79.7052632,1.76842105 C78.1263158,1.76842105 76.9263158,2.55789474 76.9263158,4.01052632 C76.9263158,7.8 85.0736842,7.13684211 85.0736842,12.8210526 C85.0736842,15.5684211 83.1789474,17.7473684 79.3263158,17.7473684 C77.6526316,17.7473684 75.9789474,17.3368421 74.6210526,16.6105263 L74.6210526,14.1789474 C75.7263158,15.2210526 77.7473684,15.9789474 79.5157895,15.9789474 C81.3789474,15.9789474 82.8315789,15.1263158 82.8315789,13.3894737 C82.8315789,9.34736842 74.6842105,10.0736842 74.6842105,4.42105263 C74.7157895,1.32631579 77.1157895,0 79.9263158,0" id="Shape"></path>
            <polygon id="Shape" points="90.5368421 0.347368421 90.5368421 15.7263158 97.3894737 15.7263158 96.7894737 17.4 88.0105263 17.4 88.0105263 0.347368421"></polygon>
            <path d="M112.926316,17.4 L110.178947,17.4 L108.536842,12.8842105 L101.968421,12.8842105 L100.357895,17.4 L98.3368421,17.4 L104.557895,0.347368421 L106.578947,0.347368421 L112.926316,17.4 Z M102.568421,11.2105263 L107.936842,11.2105263 L105.221053,3.69473684 L102.568421,11.2105263 Z" id="Shape"></path>
            <polygon id="Shape" points="127.547368 0.347368421 127.547368 17.4 125.873684 17.4 116.715789 4.67368421 116.715789 17.4 114.789474 17.4 114.789474 0.347368421 116.810526 0.347368421 125.621053 12.6315789 125.621053 0.347368421"></polygon>
            <path d="M141.347368,15.5052632 C139.926316,16.8 137.842105,17.4315789 135.347368,17.4315789 L130.421053,17.4315789 L130.421053,0.378947368 L135.347368,0.378947368 C137.842105,0.378947368 139.926316,0.978947368 141.347368,2.27368421 C142.957895,3.75789474 143.715789,6.09473684 143.715789,8.90526316 C143.715789,11.6842105 142.957895,14.0210526 141.347368,15.5052632 M138.757895,3.06315789 C137.778947,2.4 136.484211,2.05263158 134.526316,2.05263158 L132.947368,2.05263158 L132.947368,15.6631579 L134.526316,15.6631579 C136.294737,15.6631579 137.715789,15.3789474 138.757895,14.6526316 C140.336842,13.5789474 141.094737,11.5263158 141.094737,8.84210526 C141.063158,6.15789474 140.336842,4.16842105 138.757895,3.06315789" id="Shape"></path>
        </g>
    </g>
</svg>