<?xml version="1.0" encoding="UTF-8"?>
<svg width="200px" height="25px" viewBox="0 0 200 25" version="1.1" xmlns="http://www.w3.org/2000/svg" xmlns:xlink="http://www.w3.org/1999/xlink">
    <!-- Generator: Sketch 48.1 (47250) - http://www.bohemiancoding.com/sketch -->
    <title>RiverIsland</title>
    <desc>Created with Sketch.</desc>
    <defs></defs>
    <g id="Page-1" stroke="none" stroke-width="1" fill="none" fill-rule="evenodd">
        <g id="RiverIsland" fill="#000000" fill-rule="nonzero">
            <path d="M70.2631579,11.9298246 C71.8421053,11.9298246 72.9824561,11.7105263 73.8157895,11.1403509 C75,10.3508772 75.5263158,9.03508772 75.5263158,7.36842105 C75.5263158,5.57017544 74.9122807,4.38596491 73.9473684,3.68421053 C73.1140351,3.07017544 71.9298246,2.80701754 70.1754386,2.80701754 L68.1140351,2.80701754 L68.1140351,24.1666667 L64.6491228,24.1666667 L64.6491228,0.48245614 L70.745614,0.48245614 C73.0701754,0.48245614 74.9561404,0.745614035 76.5789474,1.84210526 C79.0789474,3.55263158 79.1666667,6.31578947 79.1666667,6.92982456 C79.1666667,9.9122807 77.6315789,12.1052632 74.9561404,13.0701754 C74.7368421,13.1578947 74.4298246,13.245614 74.1666667,13.2894737 L81.3157895,24.1666667 L77.3684211,24.1666667 L69.5175439,11.9298246 L70.2631579,11.9298246 Z" id="Shape"></path>
            <path d="M5.61403509,11.9298246 C7.19298246,11.9298246 8.33333333,11.7105263 9.16666667,11.1403509 C10.3508772,10.3508772 10.877193,9.03508772 10.877193,7.36842105 C10.877193,5.57017544 10.2631579,4.38596491 9.29824561,3.68421053 C8.46491228,3.07017544 7.28070175,2.76315789 5.48245614,2.76315789 L3.46491228,2.76315789 L3.46491228,24.122807 L0,24.122807 L0,0.438596491 L6.09649123,0.438596491 C8.42105263,0.438596491 10.3070175,0.701754386 11.9298246,1.79824561 C14.4298246,3.50877193 14.5175439,6.27192982 14.5175439,6.88596491 C14.5175439,9.86842105 12.9824561,12.0614035 10.3070175,13.0263158 C10.0877193,13.1140351 9.78070175,13.2017544 9.51754386,13.245614 L16.6666667,24.1666667 L12.7192982,24.1666667 L4.8245614,11.9298246 L5.61403509,11.9298246 Z" id="Shape"></path>
            <rect id="Rectangle-path" x="19.254386" y="0.48245614" width="3.50877193" height="23.6842105"></rect>
            <polygon id="Shape" points="45.3947368 0.48245614 37.0175439 24.1666667 34.254386 24.1666667 25.745614 0.48245614 29.5614035 0.48245614 36.1403509 19.2105263 42.5877193 0.48245614"></polygon>
            <polygon id="Shape" points="51.5350877 21.8421053 61.6666667 21.8421053 61.6666667 24.1666667 48.0701754 24.1666667 48.0701754 0.48245614 60.8333333 0.48245614 60.8333333 2.80701754 51.5350877 2.80701754 51.5350877 10.6578947 60.4824561 10.6578947 60.4824561 12.9824561 51.5350877 12.9824561"></polygon>
            <rect id="Rectangle-path" x="95.877193" y="0.48245614" width="3.50877193" height="23.6842105"></rect>
            <path d="M111.008772,0 C112.894737,0 114.912281,0.438596491 116.710526,1.22807018 L116.710526,4.38596491 C114.649123,3.11403509 112.5,2.45614035 110.701754,2.45614035 C108.508772,2.45614035 106.842105,3.55263158 106.842105,5.57017544 C106.842105,10.8333333 118.157895,9.9122807 118.157895,17.8070175 C118.157895,21.622807 115.526316,24.6491228 110.175439,24.6491228 C107.850877,24.6491228 105.526316,24.0789474 103.640351,23.0701754 L103.640351,19.6929825 C105.175439,21.1403509 107.982456,22.1929825 110.438596,22.1929825 C113.026316,22.1929825 115.04386,21.0087719 115.04386,18.5964912 C115.04386,12.9824561 103.72807,13.9912281 103.72807,6.14035088 C103.77193,1.84210526 107.105263,0 111.008772,0" id="Shape"></path>
            <polygon id="Shape" points="125.745614 0.48245614 125.745614 21.8421053 135.263158 21.8421053 134.429825 24.1666667 122.236842 24.1666667 122.236842 0.48245614"></polygon>
            <path d="M156.842105,24.1666667 L153.026316,24.1666667 L150.745614,17.8947368 L141.622807,17.8947368 L139.385965,24.1666667 L136.578947,24.1666667 L145.219298,0.48245614 L148.026316,0.48245614 L156.842105,24.1666667 Z M142.45614,15.5701754 L149.912281,15.5701754 L146.140351,5.13157895 L142.45614,15.5701754 Z" id="Shape"></path>
            <polygon id="Shape" points="177.149123 0.48245614 177.149123 24.1666667 174.824561 24.1666667 162.105263 6.49122807 162.105263 24.1666667 159.429825 24.1666667 159.429825 0.48245614 162.236842 0.48245614 174.473684 17.5438596 174.473684 0.48245614"></polygon>
            <path d="M196.315789,21.5350877 C194.342105,23.3333333 191.447368,24.2105263 187.982456,24.2105263 L181.140351,24.2105263 L181.140351,0.526315789 L187.982456,0.526315789 C191.447368,0.526315789 194.342105,1.35964912 196.315789,3.15789474 C198.552632,5.21929825 199.605263,8.46491228 199.605263,12.3684211 C199.605263,16.2280702 198.552632,19.4736842 196.315789,21.5350877 M192.719298,4.25438596 C191.359649,3.33333333 189.561404,2.85087719 186.842105,2.85087719 L184.649123,2.85087719 L184.649123,21.754386 L186.842105,21.754386 C189.298246,21.754386 191.27193,21.3596491 192.719298,20.3508772 C194.912281,18.8596491 195.964912,16.0087719 195.964912,12.2807018 C195.921053,8.55263158 194.912281,5.78947368 192.719298,4.25438596" id="Shape"></path>
        </g>
    </g>
</svg>