<?xml version="1.0" encoding="UTF-8"?>
<svg width="145px" height="145px" viewBox="0 0 145 145" version="1.1" xmlns="http://www.w3.org/2000/svg" xmlns:xlink="http://www.w3.org/1999/xlink">
    <!-- Generator: Sketch 52.2 (67145) - http://www.bohemiancoding.com/sketch -->
    <title>logo-nec copy 45</title>
    <desc>Created with Sketch.</desc>
    <g id="001" stroke="none" stroke-width="1" fill="none" fill-rule="evenodd">
        <g id="karldesigns.co.uk" fill="#000000" fill-rule="nonzero">
            <g id="logos" transform="translate(-1.000000, -1.000000)">
                <g id="Subiquity" transform="translate(0.252978, 0.268764)">
                    <g id="subiquity-portfolio" transform="translate(6.747022, 53.231236)">
                        <path d="M5.62625,25.73375 C6.93292316,25.73375 8.01207903,25.5179188 8.86375,25.08625 C9.71542097,24.6545812 10.14125,23.9254218 10.14125,22.89875 C10.14125,22.4087476 10.0654175,21.9887518 9.91375,21.63875 C9.76208253,21.2887483 9.51125175,20.9737514 9.16125,20.69375 C8.81124825,20.4137486 8.35041955,20.1454179 7.77875,19.88875 C7.20708045,19.6320821 6.50125416,19.3287518 5.66125,18.97875 C4.98457991,18.6987486 4.34291966,18.4129181 3.73625,18.12125 C3.12958034,17.8295819 2.592919,17.491252 2.12625,17.10625 C1.659581,16.721248 1.28625142,16.2604193 1.00625,15.72375 C0.726248578,15.1870807 0.58625,14.5337538 0.58625,13.76375 C0.58625,12.2937427 1.14041112,11.1037546 2.24875,10.19375 C3.35708887,9.28374541 4.87957367,8.82875 6.81625,8.82875 C8.05292283,8.82875 9.07374595,8.93374891 9.87875,9.14375 C10.683754,9.35375109 11.2495817,9.54041583 11.57625,9.70375 L11.05125,11.73375 C10.7712486,11.5937493 10.2987533,11.4070845 9.63375,11.17375 C8.96874672,10.9404155 7.99458975,10.82375 6.71125,10.82375 C6.19791408,10.82375 5.7137523,10.8762495 5.25875,10.98125 C4.8037477,11.0862505 4.40125175,11.2495822 4.05125,11.47125 C3.70124825,11.6929178 3.42125109,11.972915 3.21125,12.31125 C3.00124891,12.649585 2.89625,13.0637476 2.89625,13.55375 C2.89625,14.0437524 2.98958242,14.4637483 3.17625,14.81375 C3.36291758,15.1637518 3.63708155,15.4729153 3.99875,15.74125 C4.36041845,16.0095847 4.80374737,16.2604155 5.32875,16.49375 C5.85375262,16.7270845 6.45457991,16.9837486 7.13125,17.26375 C7.8312535,17.5437514 8.50208012,17.8295819 9.14375,18.12125 C9.78541987,18.4129181 10.3512476,18.7629146 10.84125,19.17125 C11.3312524,19.5795854 11.7279152,20.0695805 12.03125,20.64125 C12.3345848,21.2129195 12.48625,21.9304123 12.48625,22.79375 C12.48625,24.4270915 11.8737561,25.6637458 10.64875,26.50375 C9.42374387,27.3437542 7.74959391,27.76375 5.62625,27.76375 C4.03957542,27.76375 2.82625416,27.6295847 1.98625,27.36125 C1.14624584,27.0929153 0.586251422,26.8887507 0.30625,26.74875 L0.90125,24.68375 C0.971250328,24.7304169 1.1229155,24.8062495 1.35625,24.91125 C1.5895845,25.0162505 1.90458133,25.132916 2.30125,25.26125 C2.69791867,25.389584 3.17041397,25.5004162 3.71875,25.59375 C4.26708603,25.6870838 4.90291309,25.73375 5.62625,25.73375 Z M29.5553125,26.71375 C28.8786424,26.9004176 27.9686516,27.1104155 26.8253125,27.34375 C25.6819734,27.5770845 24.2819874,27.69375 22.6253125,27.69375 C21.2719724,27.69375 20.1403171,27.4954187 19.2303125,27.09875 C18.3203079,26.7020813 17.5853153,26.1420869 17.0253125,25.41875 C16.4653097,24.6954131 16.0628137,23.8204218 15.8178125,22.79375 C15.5728113,21.7670782 15.4503125,20.6354228 15.4503125,19.39875 L15.4503125,9.24875 L17.7253125,9.24875 L17.7253125,18.66375 C17.7253125,19.9470898 17.8186449,21.0320789 18.0053125,21.91875 C18.1919801,22.8054211 18.4953104,23.522914 18.9153125,24.07125 C19.3353146,24.619586 19.8778092,25.0162488 20.5428125,25.26125 C21.2078158,25.5062512 22.0186411,25.62875 22.9753125,25.62875 C24.0486512,25.62875 24.9819752,25.5704173 25.7753125,25.45375 C26.5686498,25.3370828 27.0703114,25.2320838 27.2803125,25.13875 L27.2803125,9.24875 L29.5553125,9.24875 L29.5553125,26.71375 Z M36.614375,10.33375 C37.0110437,10.0304152 37.6468706,9.70958505 38.521875,9.37125 C39.3968794,9.03291495 40.4293691,8.86375 41.619375,8.86375 C42.9260482,8.86375 44.08687,9.097081 45.101875,9.56375 C46.11688,10.030419 46.9743715,10.6837458 47.674375,11.52375 C48.3743785,12.3637542 48.9052065,13.3612442 49.266875,14.51625 C49.6285435,15.6712558 49.809375,16.9370764 49.809375,18.31375 C49.809375,19.7837573 49.5935438,21.1020775 49.161875,22.26875 C48.7302062,23.4354225 48.1235455,24.4270792 47.341875,25.24375 C46.5602045,26.0604207 45.6268805,26.6845812 44.541875,27.11625 C43.4568695,27.5479188 42.2493817,27.76375 40.919375,27.76375 C39.3093669,27.76375 37.9793802,27.6587511 36.929375,27.44875 C35.8793697,27.2387489 35.0160451,27.0170845 34.339375,26.78375 L34.339375,0.60375 L36.614375,0.18375 L36.614375,10.33375 Z M36.614375,25.20875 C36.9643767,25.3254172 37.4835382,25.4362495 38.171875,25.54125 C38.8602118,25.6462505 39.7643694,25.69875 40.884375,25.69875 C42.8443848,25.69875 44.4193691,25.062923 45.609375,23.79125 C46.7993809,22.519577 47.394375,20.6937619 47.394375,18.31375 C47.394375,17.3104117 47.2893761,16.3595878 47.079375,15.46125 C46.8693739,14.5629122 46.531044,13.7812533 46.064375,13.11625 C45.597706,12.4512467 44.9852121,11.9204187 44.226875,11.52375 C43.4685379,11.1270813 42.5293806,10.92875 41.409375,10.92875 C40.8727057,10.92875 40.3593774,10.9812495 39.869375,11.08625 C39.3793726,11.1912505 38.9243771,11.3254158 38.504375,11.48875 C38.0843729,11.6520842 37.7168765,11.8270824 37.401875,12.01375 C37.0868735,12.2004176 36.8243761,12.3754158 36.614375,12.53875 L36.614375,25.20875 Z M55.7834375,27.34375 L53.5084375,27.34375 L53.5084375,9.24875 L55.7834375,9.24875 L55.7834375,27.34375 Z M56.3084375,3.78875 C56.3084375,4.32541933 56.1451058,4.75124847 55.8184375,5.06625 C55.4917693,5.38125153 55.0951065,5.53875 54.6284375,5.53875 C54.1617685,5.53875 53.7651058,5.38125153 53.4384375,5.06625 C53.1117693,4.75124847 52.9484375,4.32541933 52.9484375,3.78875 C52.9484375,3.25208067 53.1117693,2.82625153 53.4384375,2.51125 C53.7651058,2.19624847 54.1617685,2.03875 54.6284375,2.03875 C55.0951065,2.03875 55.4917693,2.19624847 55.8184375,2.51125 C56.1451058,2.82625153 56.3084375,3.25208067 56.3084375,3.78875 Z M72.6775,11.45375 C72.3274982,11.3370828 71.8083368,11.2262505 71.12,11.12125 C70.4316632,11.0162495 69.5275056,10.96375 68.4075,10.96375 C66.4474903,10.96375 64.872506,11.599577 63.6825,12.87125 C62.4924941,14.142923 61.8975,15.9687381 61.8975,18.34875 C61.8975,19.3520883 62.002499,20.3029122 62.2125,21.20125 C62.4225011,22.0995878 62.760831,22.8812467 63.2275,23.54625 C63.694169,24.2112533 64.3066629,24.736248 65.065,25.12125 C65.8233371,25.506252 66.7624944,25.69875 67.8825,25.69875 C68.4191693,25.69875 68.9324976,25.6462505 69.4225,25.54125 C69.9125025,25.4362495 70.3674979,25.3020842 70.7875,25.13875 C71.2075021,24.9754158 71.5749985,24.8004176 71.89,24.61375 C72.2050016,24.4270824 72.467499,24.2520842 72.6775,24.08875 L72.6775,11.45375 Z M72.6775,26.29375 C72.2808313,26.5970848 71.6450044,26.917915 70.77,27.25625 C69.8949956,27.594585 68.862506,27.76375 67.6725,27.76375 C66.3658268,27.76375 65.2050051,27.530419 64.19,27.06375 C63.174995,26.597081 62.3175035,25.9495875 61.6175,25.12125 C60.9174965,24.2929125 60.3866685,23.3012558 60.025,22.14625 C59.6633315,20.9912442 59.4825,19.7254236 59.4825,18.34875 C59.4825,16.8787427 59.6983312,15.5604225 60.13,14.39375 C60.5616689,13.2270775 61.1683295,12.2354207 61.95,11.41875 C62.7316706,10.6020792 63.6649946,9.97791878 64.75,9.54625 C65.8350055,9.11458122 67.0424933,8.89875 68.3725,8.89875 C69.9825081,8.89875 71.3124947,9.00374891 72.3625,9.21375 C73.4125052,9.42375109 74.27583,9.6454155 74.9525,9.87875 L74.9525,33.81875 L72.6775,33.81875 L72.6775,26.29375 Z M93.6315625,26.71375 C92.9548922,26.9004176 92.044902,27.1104155 90.9015625,27.34375 C89.758223,27.5770845 88.3582372,27.69375 86.7015625,27.69375 C85.3482224,27.69375 84.2165671,27.4954187 83.3065625,27.09875 C82.396558,26.7020813 81.6615653,26.1420869 81.1015625,25.41875 C80.5415598,24.6954131 80.1390637,23.8204218 79.8940625,22.79375 C79.6490613,21.7670782 79.5265625,20.6354228 79.5265625,19.39875 L79.5265625,9.24875 L81.8015625,9.24875 L81.8015625,18.66375 C81.8015625,19.9470898 81.8948949,21.0320789 82.0815625,21.91875 C82.2682301,22.8054211 82.5715604,23.522914 82.9915625,24.07125 C83.4115646,24.619586 83.9540592,25.0162488 84.6190625,25.26125 C85.2840659,25.5062512 86.0948911,25.62875 87.0515625,25.62875 C88.1249009,25.62875 89.0582252,25.5704173 89.8515625,25.45375 C90.6448998,25.3370828 91.1465614,25.2320838 91.3565625,25.13875 L91.3565625,9.24875 L93.6315625,9.24875 L93.6315625,26.71375 Z M100.690625,27.34375 L98.415625,27.34375 L98.415625,9.24875 L100.690625,9.24875 L100.690625,27.34375 Z M101.215625,3.78875 C101.215625,4.32541933 101.052293,4.75124847 100.725625,5.06625 C100.398957,5.38125153 100.002294,5.53875 99.535625,5.53875 C99.0689558,5.53875 98.6722931,5.38125153 98.345625,5.06625 C98.0189569,4.75124847 97.855625,4.32541933 97.855625,3.78875 C97.855625,3.25208067 98.0189569,2.82625153 98.345625,2.51125 C98.6722931,2.19624847 99.0689558,2.03875 99.535625,2.03875 C100.002294,2.03875 100.398957,2.19624847 100.725625,2.51125 C101.052293,2.82625153 101.215625,3.25208067 101.215625,3.78875 Z M107.609688,9.24875 L114.819688,9.24875 L114.819688,11.17375 L107.609688,11.17375 L107.609688,20.79875 C107.609688,21.8254218 107.697186,22.6595801 107.872188,23.30125 C108.047189,23.9429199 108.298019,24.4387482 108.624687,24.78875 C108.951356,25.1387517 109.348018,25.3720827 109.814688,25.48875 C110.281357,25.6054172 110.794684,25.66375 111.354688,25.66375 C112.311359,25.66375 113.081351,25.5529178 113.664687,25.33125 C114.248024,25.1095822 114.703019,24.9054176 115.029688,24.71875 L115.589688,26.60875 C115.263019,26.8187511 114.691358,27.0579153 113.874688,27.32625 C113.058017,27.5945847 112.171359,27.72875 111.214688,27.72875 C110.094682,27.72875 109.155525,27.5829181 108.397188,27.29125 C107.63885,26.9995819 107.03219,26.556253 106.577187,25.96125 C106.122185,25.366247 105.801356,24.6254211 105.614688,23.73875 C105.42802,22.8520789 105.334688,21.8020894 105.334688,20.58875 L105.334688,3.92875 L107.609688,3.50875 L107.609688,9.24875 Z M122.71875,27.72875 C121.948747,26.3054096 121.20792,24.8237577 120.49625,23.28375 C119.78458,21.7437423 119.119586,20.1862579 118.50125,18.61125 C117.882914,17.0362421 117.317086,15.4612579 116.80375,13.88625 C116.290414,12.3112421 115.847085,10.7654243 115.47375,9.24875 L117.88875,9.24875 C118.145418,10.3687556 118.472082,11.5762435 118.86875,12.87125 C119.265419,14.1662565 119.714581,15.5020764 120.21625,16.87875 C120.717919,18.2554236 121.272081,19.6670761 121.87875,21.11375 C122.485419,22.5604239 123.138747,23.983743 123.83875,25.38375 C124.352086,23.9370761 124.807082,22.5720898 125.20375,21.28875 C125.600419,20.0054103 125.967915,18.727923 126.30625,17.45625 C126.644585,16.184577 126.971249,14.8837567 127.28625,13.55375 C127.601251,12.2237433 127.933748,10.7887577 128.28375,9.24875 L130.55875,9.24875 C129.81208,12.6321003 128.960421,15.9220673 128.00375,19.11875 C127.047079,22.3154327 126.008755,25.2437367 124.88875,27.90375 C124.445415,28.9537553 123.990419,29.8579129 123.52375,30.61625 C123.057081,31.3745871 122.537919,31.9987476 121.96625,32.48875 C121.394581,32.9787524 120.729587,33.3404155 119.97125,33.57375 C119.212913,33.8070845 118.320421,33.92375 117.29375,33.92375 C116.710414,33.92375 116.179586,33.8537507 115.70125,33.71375 C115.222915,33.5737493 114.925417,33.4687503 114.80875,33.39875 L115.26375,31.50875 C115.357084,31.5787503 115.619581,31.677916 116.05125,31.80625 C116.482919,31.934584 116.932081,31.99875 117.39875,31.99875 C118.052086,31.99875 118.641248,31.9287507 119.16625,31.78875 C119.691252,31.6487493 120.163748,31.409585 120.58375,31.07125 C121.003752,30.732915 121.382915,30.2954193 121.72125,29.75875 C122.059585,29.2220807 122.392082,28.5454208 122.71875,27.72875 Z" id="subiquity"></path>
                    </g>
                </g>
            </g>
        </g>
    </g>
</svg>