<svg xmlns="http://www.w3.org/2000/svg" width="120" height="31" viewBox="0 0 120 31">
  <path d="M26.144,41.528 C27.3386726,41.528 28.3253294,41.3306686 29.104,40.936 C29.8826706,40.5413314 30.272,39.8746714 30.272,38.936 C30.272,38.4879978 30.2026674,38.1040016 30.064,37.784 C29.9253326,37.4639984 29.6960016,37.1760013 29.376,36.92 C29.0559984,36.6639987 28.6346693,36.4186678 28.112,36.184 C27.5893307,35.9493322 26.9440038,35.6720016 26.176,35.352 C25.5573302,35.0959987 24.9706694,34.834668 24.416,34.568 C23.8613306,34.301332 23.3706688,33.9920018 22.944,33.64 C22.5173312,33.2879982 22.1760013,32.8666691 21.92,32.376 C21.6639987,31.8853309 21.536,31.2880035 21.536,30.584 C21.536,29.2399933 22.0426616,28.1520042 23.056,27.32 C24.0693384,26.4879958 25.4613245,26.072 27.232,26.072 C28.3626723,26.072 29.2959963,26.167999 30.032,26.36 C30.7680037,26.552001 31.2853318,26.7226659 31.584,26.872 L31.104,28.728 C30.8479987,28.5999994 30.416003,28.4293344 29.808,28.216 C29.199997,28.0026656 28.3093392,27.896 27.136,27.896 C26.6666643,27.896 26.2240021,27.9439995 25.808,28.04 C25.3919979,28.1360005 25.0240016,28.2853323 24.704,28.488 C24.3839984,28.6906677 24.128001,28.9466651 23.936,29.256 C23.743999,29.5653349 23.648,29.9439978 23.648,30.392 C23.648,30.8400022 23.7333325,31.2239984 23.904,31.544 C24.0746675,31.8640016 24.3253317,32.1466654 24.656,32.392 C24.9866683,32.6373346 25.3919976,32.8666656 25.872,33.08 C26.3520024,33.2933344 26.9013302,33.5279987 27.52,33.784 C28.1600032,34.0400013 28.7733304,34.301332 29.36,34.568 C29.9466696,34.834668 30.4639978,35.1546648 30.912,35.528 C31.3600022,35.9013352 31.7226653,36.3493307 32,36.872 C32.2773347,37.3946693 32.416,38.0506627 32.416,38.84 C32.416,40.3333408 31.8560056,41.4639962 30.736,42.232 C29.6159944,43.0000038 28.085343,43.384 26.144,43.384 C24.6933261,43.384 23.5840038,43.2613346 22.816,43.016 C22.0479962,42.7706654 21.5360013,42.5840006 21.28,42.456 L21.824,40.568 C21.8880003,40.6106669 22.0266656,40.6799995 22.24,40.776 C22.4533344,40.8720005 22.7413315,40.9786661 23.104,41.096 C23.4666685,41.2133339 23.8986642,41.3146662 24.4,41.4 C24.9013358,41.4853338 25.4826634,41.528 26.144,41.528 Z M48.022,42.424 C47.4033302,42.5946675 46.5713386,42.7866656 45.526,43 C44.4806614,43.2133344 43.2006742,43.32 41.686,43.32 C40.4486605,43.32 39.4140042,43.1386685 38.582,42.776 C37.7499958,42.4133315 37.0780026,41.9013366 36.566,41.24 C36.0539974,40.5786634 35.6860011,39.7786714 35.462,38.84 C35.2379989,37.9013286 35.126,36.8666723 35.126,35.736 L35.126,26.456 L37.206,26.456 L37.206,35.064 C37.206,36.2373392 37.2913325,37.2293293 37.462,38.04 C37.6326675,38.8506707 37.9099981,39.5066642 38.294,40.008 C38.6780019,40.5093358 39.173997,40.8719989 39.782,41.096 C40.390003,41.3200011 41.131329,41.432 42.006,41.432 C42.9873382,41.432 43.840663,41.3786672 44.566,41.272 C45.291337,41.1653328 45.749999,41.0693338 45.942,40.984 L45.942,26.456 L48.022,26.456 L48.022,42.424 Z M54.476,27.448 C54.8386685,27.1706653 55.419996,26.8773349 56.22,26.568 C57.020004,26.2586651 57.9639946,26.104 59.052,26.104 C60.2466726,26.104 61.3079954,26.3173312 62.236,26.744 C63.1640046,27.1706688 63.9479968,27.7679962 64.588,28.536 C65.2280032,29.3040038 65.7133317,30.2159947 66.044,31.272 C66.3746683,32.3280053 66.54,33.485327 66.54,34.744 C66.54,36.0880067 66.3426686,37.293328 65.948,38.36 C65.5533314,39.426672 64.9986702,40.3333296 64.284,41.08 C63.5693298,41.8266704 62.716005,42.3973314 61.724,42.792 C60.731995,43.1866686 59.6280061,43.384 58.412,43.384 C56.9399926,43.384 55.7240048,43.288001 54.764,43.096 C53.8039952,42.903999 53.0146698,42.7013344 52.396,42.488 L52.396,18.552 L54.476,18.168 L54.476,27.448 Z M54.476,41.048 C54.7960016,41.1546672 55.2706635,41.2559995 55.9,41.352 C56.5293365,41.4480005 57.3559949,41.496 58.38,41.496 C60.172009,41.496 61.6119946,40.9146725 62.7,39.752 C63.7880054,38.5893275 64.332,36.9200109 64.332,34.744 C64.332,33.8266621 64.236001,32.9573374 64.044,32.136 C63.851999,31.3146626 63.5426688,30.600003 63.116,29.992 C62.6893312,29.383997 62.1293368,28.8986685 61.436,28.536 C60.7426632,28.1733315 59.8840051,27.992 58.86,27.992 C58.3693309,27.992 57.9000022,28.0399995 57.452,28.136 C57.0039978,28.2320005 56.5880019,28.3546659 56.204,28.504 C55.8199981,28.6533341 55.4840014,28.8133325 55.196,28.984 C54.9079986,29.1546675 54.668001,29.3146659 54.476,29.464 L54.476,41.048 Z M72.002,43 L69.922,43 L69.922,26.456 L72.002,26.456 L72.002,43 Z M72.482,21.464 C72.482,21.9546691 72.3326682,22.3439986 72.034,22.632 C71.7353319,22.9200014 71.3726688,23.064 70.946,23.064 C70.5193312,23.064 70.1566682,22.9200014 69.858,22.632 C69.5593319,22.3439986 69.41,21.9546691 69.41,21.464 C69.41,20.9733309 69.5593319,20.5840014 69.858,20.296 C70.1566682,20.0079986 70.5193312,19.864 70.946,19.864 C71.3726688,19.864 71.7353319,20.0079986 72.034,20.296 C72.3326682,20.5840014 72.482,20.9733309 72.482,21.464 Z M87.448,28.472 C87.1279984,28.3653328 86.6533365,28.2640005 86.024,28.168 C85.3946635,28.0719995 84.5680051,28.024 83.544,28.024 C81.7519911,28.024 80.3120055,28.6053275 79.224,29.768 C78.1359946,30.9306725 77.592,32.5999891 77.592,34.776 C77.592,35.6933379 77.6879991,36.5626626 77.88,37.384 C78.072001,38.2053374 78.3813312,38.919997 78.808,39.528 C79.2346688,40.136003 79.7946632,40.6159982 80.488,40.968 C81.1813368,41.3200018 82.0399949,41.496 83.064,41.496 C83.5546691,41.496 84.0239978,41.4480005 84.472,41.352 C84.9200023,41.2559995 85.3359981,41.1333341 85.72,40.984 C86.1040019,40.8346659 86.4399986,40.6746675 86.728,40.504 C87.0160015,40.3333325 87.2559991,40.1733341 87.448,40.024 L87.448,28.472 Z M87.448,42.04 C87.0853315,42.3173347 86.504004,42.6106651 85.704,42.92 C84.903996,43.2293349 83.9600055,43.384 82.872,43.384 C81.6773274,43.384 80.6160047,43.1706688 79.688,42.744 C78.7599954,42.3173312 77.9760032,41.7253371 77.336,40.968 C76.6959968,40.2106629 76.2106683,39.3040053 75.88,38.248 C75.5493317,37.1919947 75.384,36.034673 75.384,34.776 C75.384,33.4319933 75.5813314,32.226672 75.976,31.16 C76.3706687,30.093328 76.9253298,29.1866704 77.64,28.44 C78.3546703,27.6933296 79.2079951,27.1226686 80.2,26.728 C81.192005,26.3333314 82.2959939,26.136 83.512,26.136 C84.9840074,26.136 86.1999952,26.231999 87.16,26.424 C88.1200048,26.616001 88.9093303,26.8186656 89.528,27.032 L89.528,48.92 L87.448,48.92 L87.448,42.04 Z M106.606,42.424 C105.98733,42.5946675 105.155339,42.7866656 104.11,43 C103.064661,43.2133344 101.784674,43.32 100.27,43.32 C99.0326605,43.32 97.9980042,43.1386685 97.166,42.776 C96.3339959,42.4133315 95.6620026,41.9013366 95.15,41.24 C94.6379975,40.5786634 94.2700011,39.7786714 94.046,38.84 C93.8219989,37.9013286 93.71,36.8666723 93.71,35.736 L93.71,26.456 L95.79,26.456 L95.79,35.064 C95.79,36.2373392 95.8753325,37.2293293 96.046,38.04 C96.2166675,38.8506707 96.4939981,39.5066642 96.878,40.008 C97.2620019,40.5093358 97.757997,40.8719989 98.366,41.096 C98.9740031,41.3200011 99.715329,41.432 100.59,41.432 C101.571338,41.432 102.424663,41.3786672 103.15,41.272 C103.875337,41.1653328 104.333999,41.0693338 104.526,40.984 L104.526,26.456 L106.606,26.456 L106.606,42.424 Z M113.06,43 L110.98,43 L110.98,26.456 L113.06,26.456 L113.06,43 Z M113.54,21.464 C113.54,21.9546691 113.390668,22.3439986 113.092,22.632 C112.793332,22.9200014 112.430669,23.064 112.004,23.064 C111.577331,23.064 111.214668,22.9200014 110.916,22.632 C110.617332,22.3439986 110.468,21.9546691 110.468,21.464 C110.468,20.9733309 110.617332,20.5840014 110.916,20.296 C111.214668,20.0079986 111.577331,19.864 112.004,19.864 C112.430669,19.864 112.793332,20.0079986 113.092,20.296 C113.390668,20.5840014 113.54,20.9733309 113.54,21.464 Z M119.386,26.456 L125.978,26.456 L125.978,28.216 L119.386,28.216 L119.386,37.016 C119.386,37.9546714 119.465999,38.7173304 119.626,39.304 C119.786001,39.8906696 120.015332,40.3439984 120.314,40.664 C120.612668,40.9840016 120.975331,41.1973328 121.402,41.304 C121.828669,41.4106672 122.297997,41.464 122.81,41.464 C123.684671,41.464 124.388664,41.3626677 124.922,41.16 C125.455336,40.9573323 125.871332,40.7706675 126.17,40.6 L126.682,42.328 C126.383332,42.520001 125.86067,42.7386654 125.114,42.984 C124.36733,43.2293346 123.556671,43.352 122.682,43.352 C121.657995,43.352 120.799337,43.218668 120.106,42.952 C119.412663,42.685332 118.858002,42.2800027 118.442,41.736 C118.025998,41.1919973 117.732668,40.5146707 117.562,39.704 C117.391333,38.8933293 117.306,37.9333389 117.306,36.824 L117.306,21.592 L119.386,21.208 L119.386,26.456 Z M133.2,43.352 C132.495997,42.0506602 131.81867,40.696007 131.168,39.288 C130.51733,37.879993 129.909336,36.456 129.344,35.016 C128.778664,33.5759928 128.261336,32.1360072 127.792,30.696 C127.322664,29.2559928 126.917335,27.8426736 126.576,26.456 L128.784,26.456 C129.018668,27.4800051 129.317332,28.5839941 129.68,29.768 C130.042669,30.9520059 130.453331,32.173327 130.912,33.432 C131.370669,34.690673 131.877331,35.9813267 132.432,37.304 C132.986669,38.6266733 133.583997,39.9279936 134.224,41.208 C134.693336,39.8853267 135.109332,38.6373392 135.472,37.464 C135.834669,36.2906608 136.170665,35.1226725 136.48,33.96 C136.789335,32.7973275 137.087999,31.6080061 137.376,30.392 C137.664001,29.1759939 137.968,27.864007 138.288,26.456 L140.368,26.456 C139.68533,29.5493488 138.906671,32.5573187 138.032,35.48 C137.157329,38.4026813 136.208005,41.0799878 135.184,43.512 C134.778665,44.4720048 134.362669,45.2986632 133.936,45.992 C133.509331,46.6853368 133.034669,47.2559978 132.512,47.704 C131.989331,48.1520022 131.381337,48.4826656 130.688,48.696 C129.994663,48.9093344 129.178671,49.016 128.24,49.016 C127.706664,49.016 127.221336,48.9520006 126.784,48.824 C126.346665,48.6959994 126.074667,48.6000003 125.968,48.536 L126.384,46.808 C126.469334,46.8720003 126.709331,46.9626661 127.104,47.08 C127.498669,47.1973339 127.909331,47.256 128.336,47.256 C128.933336,47.256 129.471998,47.1920006 129.952,47.064 C130.432002,46.9359994 130.863998,46.7173349 131.248,46.408 C131.632002,46.0986651 131.978665,45.6986691 132.288,45.208 C132.597335,44.7173309 132.901332,44.0986704 133.2,43.352 Z" transform="translate(-21 -18)"/>
</svg>
