<?xml version="1.0" encoding="UTF-8"?>
<svg width="251px" height="64px" viewBox="0 0 251 64" version="1.1" xmlns="http://www.w3.org/2000/svg" xmlns:xlink="http://www.w3.org/1999/xlink">
    <!-- Generator: Sketch 48.2 (47327) - http://www.bohemiancoding.com/sketch -->
    <title>vanilla_portfolio</title>
    <desc>Created with Sketch.</desc>
    <defs></defs>
    <g id="Page-1" stroke="none" stroke-width="1" fill="none" fill-rule="evenodd">
        <g id="vanilla_portfolio" fill-rule="nonzero">
            <path d="M83.7220812,9.09263999 C84.9917512,12.8664344 86.2223984,16.4365486 87.4152918,19.8052034 C88.6075507,23.173541 89.7776015,26.4362314 90.9270304,29.5929573 C92.0767766,32.7496831 93.2401649,35.8442263 94.4168781,38.8791248 C95.5935913,41.9140232 96.8718274,44.9781095 98.2515862,48.0720182 C99.5640862,45.0282364 100.81948,41.9882618 102.015546,38.9530461 C103.211612,35.9181476 104.395939,32.8217009 105.568211,29.6652923 C106.740799,26.5095182 107.912437,23.2369928 109.084391,19.8483507 C110.25698,16.459074 111.477792,12.8746831 112.748731,9.09327451 L117.328046,9.09327451 C115.390863,14.6598989 113.641497,19.5390232 112.079632,23.7303304 C110.517449,27.9210029 109.076777,31.7160537 107.755076,35.1126273 C106.433376,38.5095182 105.172272,41.6383253 103.967957,44.503173 C102.763325,47.3661172 101.504759,50.2515867 100.192893,53.1602161 L96.1303934,53.1602161 C94.8448604,50.2214471 93.5853426,47.3226527 92.3527918,44.4625639 C91.1202411,41.6018405 89.8299492,38.4790613 88.4809644,35.0932745 C87.1329314,31.7065359 85.6836928,27.9152923 84.1332487,23.7195435 C82.5824873,19.5247466 80.8350253,14.6491121 78.8892766,9.09327451 L83.7220812,9.09327451 L83.7220812,9.09263999 Z" id="Shape" fill="#000000"></path>
            <path d="M129.987627,19.5212567 C132.149429,19.5212567 133.982551,19.8289979 135.488261,20.4428938 C136.992069,21.0580588 138.211612,21.9057745 139.144036,22.986041 C140.076142,24.0675765 140.755076,25.3496197 141.179569,26.8331222 C141.602792,28.3175765 141.814721,29.9282999 141.814721,31.6668786 L141.814721,52.3956222 C141.390228,52.5222085 140.775063,52.6618024 139.970812,52.8096451 C139.164657,52.9574877 138.232234,53.1180207 137.173223,53.2868024 C136.112944,53.4539979 134.936865,53.593909 133.644353,53.6995562 C132.351205,53.8042517 131.026332,53.8581857 129.670051,53.8581857 C127.931472,53.8581857 126.33217,53.6671958 124.869924,53.2868024 C123.407043,52.9045055 122.134835,52.3001273 121.054569,51.4733507 C119.97335,50.6472085 119.125,49.5885156 118.510469,48.2940994 C117.895622,47.0022212 117.588515,45.4229065 117.588515,43.5574243 C117.588515,41.7769674 117.927348,40.2496831 118.606282,38.9787441 C119.283629,37.7065359 120.237627,36.6576781 121.46764,35.8318532 C122.696383,35.0047593 124.159264,34.4006984 125.855013,34.0184014 C127.550444,33.6376908 129.394353,33.4463836 131.387373,33.4463836 C131.98033,33.4463836 132.605647,33.4784268 133.263008,33.5412441 C133.919734,33.6050131 134.556155,33.690673 135.171003,33.7960029 C135.784581,33.9019674 136.314721,34.0095182 136.760469,34.1148481 C137.205266,34.2195435 137.51269,34.3163075 137.682424,34.4006984 L137.682424,32.3661172 C137.682424,31.2198608 137.596764,30.1078684 137.428299,29.0269674 C137.258566,27.9460664 136.888008,26.9717644 136.314721,26.102475 C135.742703,25.2338202 134.937183,24.5339471 133.898794,24.0034902 C132.859771,23.4739852 131.492703,23.209074 129.796637,23.209074 C127.380711,23.209074 125.57868,23.3791248 124.392767,23.71764 C123.205267,24.0574243 122.335977,24.332805 121.784898,24.5437821 L121.212881,20.9200512 C121.933376,20.5815359 123.046003,20.263008 124.551079,19.9657364 C126.05552,19.6700512 127.867386,19.5212567 129.987627,19.5212567 Z M130.369289,50.1710029 C131.979695,50.1710029 133.389911,50.1173862 134.597716,50.0123735 C135.80552,49.9067263 136.833439,49.7674496 137.681789,49.5973989 L137.681789,38.0256984 C137.214467,37.8128177 136.47335,37.5910537 135.456536,37.3572339 C134.439086,37.1243659 133.03934,37.0079319 131.259518,37.0079319 C130.241434,37.0079319 129.181789,37.0818532 128.080266,37.2303304 C126.976523,37.3788075 125.959708,37.6976527 125.027602,38.1846451 C124.094543,38.672272 123.33217,39.3391501 122.738579,40.1875004 C122.144353,41.0368024 121.84835,42.1579953 121.84835,43.5574243 C121.84835,44.7880715 122.049492,45.8251908 122.452728,46.6732238 C122.855013,47.5218913 123.427348,48.1982872 124.169416,48.7071705 C124.910216,49.216371 125.801079,49.5881984 126.840102,49.8207491 C127.87849,50.0545689 129.055203,50.1710029 130.369289,50.1710029 Z" id="Shape" fill="#000000"></path>
            <path d="M150.755076,21.4289344 C151.98382,21.0894674 153.637056,20.707805 155.714784,20.2842644 C157.791878,19.861041 160.335343,19.6484776 163.345178,19.6484776 C165.846129,19.6484776 167.933693,20.0088836 169.607868,20.7290613 C171.283312,21.450508 172.61802,22.477475 173.615165,23.8134522 C174.609772,25.1484776 175.321066,26.7480968 175.744924,28.6132618 C176.168147,30.4800131 176.381345,32.5358507 176.381345,34.7810918 L176.381345,53.1595816 L172.247779,53.1595816 L172.247779,36.1177034 C172.247779,33.7855334 172.08915,31.815673 171.771256,30.2036806 C171.453363,28.5929573 170.922272,27.2785537 170.181155,26.2607872 C169.438135,25.2436552 168.46415,24.5120562 167.255711,24.0672593 C166.047906,23.6221451 164.531091,23.3994293 162.709391,23.3994293 C160.758883,23.3994293 159.073921,23.5053938 157.653553,23.7173227 C156.233185,23.9298862 155.311865,24.1205588 154.888008,24.2896578 L154.888008,53.1592644 L150.755076,53.1595816 L150.755076,21.4289344 Z" id="Shape" fill="#000000"></path>
            <path d="M190.236041,10.3645309 C190.236041,11.3401019 189.938452,12.1129446 189.345495,12.6849623 C188.751269,13.2569801 188.031091,13.5440994 187.183693,13.5440994 C186.335343,13.5440994 185.614848,13.2572974 185.021891,12.6849623 C184.427665,12.1129446 184.13198,11.3397847 184.13198,10.3645309 C184.13198,9.38959431 184.427665,8.61548263 185.021891,8.04314761 C185.614848,7.47176436 186.33566,7.18527959 187.183693,7.18527959 C188.031409,7.18527959 188.751269,7.47176436 189.345495,8.04314761 C189.938452,8.61548263 190.236041,9.38959431 190.236041,10.3645309 Z M189.281726,53.1598989 L185.148794,53.1598989 L185.148794,20.2842644 L189.281726,20.2842644 L189.281726,53.1598989 Z" id="Shape" fill="#000000"></path>
            <path d="M206.749365,53.7312821 C205.350888,53.6881349 204.131345,53.5085664 203.093591,53.1909902 C202.053934,52.8727796 201.185596,52.3864217 200.486675,51.7293786 C199.78585,51.0717009 199.256028,50.2230334 198.895305,49.1846451 C198.535216,48.1472085 198.355013,46.84264 198.355013,45.2741121 L198.355013,4.57772883 L202.488579,3.81472121 L202.488579,45.1468913 C202.488579,46.1640232 202.583439,46.9809649 202.774746,47.5948608 C202.966688,48.210343 203.251904,48.6979699 203.633566,49.0580588 C204.013959,49.4187821 204.511739,49.6836933 205.128173,49.852475 C205.741751,50.0225258 206.472716,50.1710029 207.321066,50.2988583 L206.749365,53.7312821 Z" id="Shape" fill="#000000"></path>
            <path d="M221.221447,53.7312821 C219.822335,53.6881349 218.603426,53.5085664 217.565038,53.1909902 C216.526015,52.8727796 215.657678,52.3864217 214.958122,51.7293786 C214.2592,51.0717009 213.728109,50.2230334 213.368655,49.1846451 C213.007931,48.1472085 212.827728,46.84264 212.827728,45.2741121 L212.827728,4.57772883 L216.96066,3.81472121 L216.96066,45.1468913 C216.96066,46.1640232 217.056789,46.9809649 217.247462,47.5948608 C217.437817,48.210343 217.724619,48.6979699 218.105647,49.0580588 C218.487944,49.4187821 218.984772,49.6836933 219.600254,49.852475 C220.213832,50.0225258 220.945431,50.1710029 221.793782,50.2988583 L221.221447,53.7312821 Z" id="Shape" fill="#000000"></path>
            <path d="M238.14816,19.5212567 C240.309327,19.5212567 242.143084,19.8289979 243.64816,20.4428938 C245.152601,21.0580588 246.372145,21.9057745 247.305203,22.986041 C248.236675,24.0675765 248.915609,25.3496197 249.338832,26.8331222 C249.76269,28.3175765 249.975888,29.9282999 249.975888,31.6668786 L249.975888,52.3956222 C249.550761,52.5222085 248.936231,52.6618024 248.131345,52.8096451 C247.325825,52.9574877 246.393084,53.1180207 245.333756,53.2868024 C244.274112,53.4539979 243.096764,53.593909 241.804251,53.6995562 C240.510469,53.8042517 239.186231,53.8581857 237.831218,53.8581857 C236.091371,53.8581857 234.492068,53.6671958 233.029505,53.2868024 C231.567259,52.9045055 230.294416,52.3001273 229.213832,51.4733507 C228.133883,50.6472085 227.284264,49.5885156 226.670685,48.2940994 C226.05552,47.0022212 225.748096,45.4229065 225.748096,43.5574243 C225.748096,41.7769674 226.086929,40.2496831 226.76618,38.9787441 C227.444162,37.7065359 228.397843,36.6576781 229.627221,35.8318532 C230.856599,35.0047593 232.31948,34.4006984 234.015546,34.0184014 C235.710343,33.6376908 237.554886,33.4463836 239.547906,33.4463836 C240.139594,33.4463836 240.764911,33.4784268 241.423541,33.5412441 C242.080266,33.6050131 242.716053,33.690673 243.331535,33.7960029 C243.945114,33.9019674 244.475254,34.0095182 244.921002,34.1148481 C245.365799,34.2195435 245.671954,34.3163075 245.842322,34.4006984 L245.842322,32.3661172 C245.842322,31.2198608 245.756662,30.1078684 245.588198,29.0269674 C245.418464,27.9460664 245.047272,26.9717644 244.475254,26.102475 C243.903871,25.2338202 243.097081,24.5339471 242.059327,24.0034902 C241.01967,23.4739852 239.653236,23.209074 237.957805,23.209074 C235.541244,23.209074 233.739213,23.3791248 232.553299,23.71764 C231.366117,24.0574243 230.496193,24.332805 229.945749,24.5437821 L229.373096,20.9197339 C230.093274,20.5809014 231.205266,20.2626908 232.711612,19.9657364 C234.215419,19.6700512 236.027601,19.5212567 238.14816,19.5212567 Z M238.528553,50.1710029 C240.138959,50.1710029 241.549175,50.1173862 242.757614,50.0123735 C243.966688,49.9067263 244.993338,49.7674496 245.841688,49.5973989 L245.841688,38.0256984 C245.375634,37.8128177 244.633883,37.5910537 243.615799,37.3572339 C242.598985,37.1243659 241.199873,37.0079319 239.419416,37.0079319 C238.401967,37.0079319 237.341688,37.0818532 236.23953,37.2303304 C235.137373,37.3788075 234.120241,37.6976527 233.188452,38.1846451 C232.255393,38.672272 231.491117,39.3391501 230.89816,40.1875004 C230.304568,41.0368024 230.008249,42.1579953 230.008249,43.5574243 C230.008249,44.7880715 230.208439,45.8251908 230.612944,46.6732238 C231.014594,47.5218913 231.586929,48.1982872 232.32868,48.7071705 C233.069797,49.216371 233.960343,49.5881984 234.999365,49.8207491 C236.039023,50.0545689 237.215101,50.1710029 238.528553,50.1710029 Z" id="Shape" fill="#000000"></path>
            <path d="M63.1510152,31.5770939 C63.1510152,48.9571701 49.0605964,63.0520305 31.6751269,63.0520305 C14.2928299,63.0520305 0.198604061,48.9568528 0.198604061,31.5770939 C0.198604061,14.1906726 14.2928299,0.100253807 31.6751269,0.100253807 C49.0605964,0.0999365482 63.1510152,14.1906726 63.1510152,31.5770939 Z" id="Shape" fill="#E95420"></path>
            <g id="Shape" transform="translate(13.007614, 16.180203)" fill="#FFFFFF">
                <polygon points="0.0164974619 0.10786802 18.6665609 39.2722081 20.6586294 35.089467 4.00095178 0.10786802"></polygon>
                <polygon points="14.4060914 0.10786802 25.9067259 24.0669416 27.8940355 19.8956218 18.3962563 0.10786802"></polygon>
                <polygon points="32.8191624 0.10786802 28.7972716 0.10786802 33.1516497 8.81662437 33.1757614 8.80393401 35.1224619 4.71478426"></polygon>
            </g>
        </g>
    </g>
</svg>