<?xml version="1.0" encoding="UTF-8"?>
<svg width="145px" height="145px" viewBox="0 0 145 145" version="1.1" xmlns="http://www.w3.org/2000/svg" xmlns:xlink="http://www.w3.org/1999/xlink">
    <!-- Generator: Sketch 48.2 (47327) - http://www.bohemiancoding.com/sketch -->
    <title>default slice size</title>
    <desc>Created with Sketch.</desc>
    <defs></defs>
    <g id="Artboard" stroke="none" stroke-width="1" fill="none" fill-rule="evenodd">
        <g id="logo-template" transform="translate(-2.000000, 0.000000)" fill-rule="nonzero">
            <g id="vanilla_black-orange_hex" transform="translate(24.000000, 58.000000)">
                <g id="Group" transform="translate(31.866130, 1.541910)" fill="#000000">
                    <path d="M2.04200219,2.1406844 C2.55622901,3.66910222 3.05465127,5.11502788 3.53778292,6.47936083 C4.02065759,7.84356528 4.49453779,9.16498175 4.96006597,10.4434817 C5.42572265,11.7219817 5.8969045,12.9752972 6.37348304,14.2044561 C6.85006158,15.4336149 7.3677577,16.6745951 7.92657141,17.9276536 C8.45814472,16.6948969 8.96658939,15.4636822 9.45100597,14.2343948 C9.93542254,13.0052359 10.4150849,11.7511495 10.8898645,10.472778 C11.3647727,9.19466351 11.8392953,7.86926378 12.3139465,6.4968358 C12.7888546,5.12415084 13.2832936,3.67244302 13.7980344,2.14094138 L15.6526946,2.14094138 C14.8681196,4.3954701 14.1596122,6.37155565 13.5270438,8.06906955 C12.8943469,9.76632647 12.3108627,11.3033533 11.7755631,12.6789936 C11.2402635,14.0547623 10.729506,15.321955 10.2417486,16.4822419 C9.7538627,17.6417579 9.24413311,18.8103968 8.71281678,19.9884157 L7.06747082,19.9884157 C6.54681937,18.79819 6.0367043,17.6241544 5.53751109,16.4657949 C5.03831788,15.3071784 4.51573904,14.0424271 3.9693891,12.6711555 C3.42342463,11.2994985 2.83647107,9.7640136 2.20852842,8.06470081 C1.58045727,6.36577349 0.872720794,4.39110135 0.0846765317,2.14094138 L2.04200219,2.14094138 L2.04200219,2.1406844 Z" id="Shape"></path>
                    <path d="M20.7799292,6.36436007 C21.6554769,6.36436007 22.3979063,6.48899776 23.0077315,6.73763067 C23.6167858,6.98677755 24.1107108,7.33010941 24.4883502,7.76762624 C24.865861,8.20565704 25.1408349,8.72489507 25.3127578,9.32572582 C25.4841667,9.92694204 25.5699997,10.5792983 25.5699997,11.283437 L25.5699997,19.6787489 C25.3980768,19.7300174 25.1489299,19.786554 24.8232015,19.8464315 C24.4967022,19.906309 24.1190628,19.9713262 23.690155,20.0396842 C23.2607332,20.1073997 22.7844116,20.1640649 22.2609334,20.2068529 C21.7371981,20.2492554 21.2006136,20.2710991 20.6513083,20.2710991 C19.9471696,20.2710991 19.2994391,20.1937466 18.7072174,20.0396842 C18.1147386,19.8848508 17.5994839,19.6400726 17.161967,19.3052213 C16.7240647,18.9706269 16.3804759,18.5418476 16.131586,18.0175983 C15.8825676,17.494377 15.7581869,16.8547416 15.7581869,16.0992059 C15.7581869,15.3781062 15.8954168,14.7595435 16.1703907,14.2448027 C16.4447221,13.7295479 16.8310989,13.3047519 17.3292642,12.970286 C17.8269155,12.6353061 18.4193943,12.3906565 19.1061865,12.2358231 C19.7928502,12.0816321 20.5396483,12.0041512 21.346838,12.0041512 C21.5869904,12.0041512 21.840249,12.0171289 22.1064854,12.0425704 C22.3724648,12.0683974 22.6302207,12.1030904 22.8792391,12.1457499 C23.1277435,12.1886663 23.3424544,12.2322253 23.5229863,12.2748848 C23.7031327,12.3172873 23.8276419,12.3564775 23.8963854,12.3906565 L23.8963854,11.5666343 C23.8963854,11.1023911 23.8616924,10.652025 23.7934629,10.2142512 C23.7247195,9.77647737 23.5746403,9.38187702 23.3424544,9.02980768 C23.1107825,8.67799532 22.7845401,8.39454096 22.3639843,8.17970156 C21.9431715,7.96524764 21.3894975,7.85795644 20.7025768,7.85795644 C19.7241067,7.85795644 18.9942695,7.9268284 18.5139647,8.06392985 C18.0330174,8.20154528 17.6809481,8.31307673 17.4577567,8.39852422 L17.2260848,6.93088333 C17.5178911,6.79378188 17.9685142,6.66477545 18.5780824,6.54437801 C19.1873937,6.42462304 19.9212141,6.36436007 20.7799292,6.36436007 Z M20.9345057,18.7777597 C21.5867334,18.7777597 22.1578824,18.7560445 22.6470532,18.7135135 C23.136224,18.6707255 23.5525396,18.6143173 23.8961284,18.5454454 L23.8961284,13.8588113 C23.706859,13.7725929 23.4067006,13.6827767 22.9948823,13.5880777 C22.582807,13.4937643 22.0158982,13.4466075 21.2950555,13.4466075 C20.8827232,13.4466075 20.4535584,13.4765463 20.0074326,13.5366807 C19.5604073,13.5968152 19.148589,13.7259501 18.7710781,13.9231861 C18.3931818,14.120679 18.0844144,14.3907701 17.844005,14.734359 C17.6033386,15.0783333 17.4834552,15.5324256 17.4834552,16.0992059 C17.4834552,16.5976281 17.5649194,17.01767 17.7282333,17.3611303 C17.8911617,17.7048477 18.1229621,17.9787936 18.423506,18.1848955 C18.7235359,18.3911259 19.0843427,18.5417191 19.5051555,18.635904 C19.9257114,18.730603 20.4022899,18.7777597 20.9345057,18.7777597 Z" id="Shape"></path>
                    <path d="M29.1909172,7.13698524 C29.6885685,6.99949831 30.3581428,6.84492188 31.1996399,6.67338444 C32.04088,6.5019755 33.0710041,6.41588555 34.2900121,6.41588555 C35.3029181,6.41588555 36.1483985,6.56185299 36.8264532,6.85353087 C37.5050219,7.14572273 38.0455897,7.56165282 38.4494415,8.10273458 C38.8522654,8.64343085 39.1403455,9.29128984 39.3120114,10.046697 C39.4834203,10.8027467 39.5697673,11.6353778 39.5697673,12.5447189 L39.5697673,19.9881587 L37.895639,19.9881587 L37.895639,13.0860577 C37.895639,12.1415096 37.8313928,11.3436999 37.7026433,10.6908297 C37.5738939,10.0384735 37.3587975,9.50612923 37.0586391,9.09392542 C36.7577098,8.68197859 36.3632379,8.38567498 35.8738101,8.20552855 C35.3846393,8.02525362 34.7703169,7.93505192 34.0325132,7.93505192 C33.2425415,7.93505192 32.5601181,7.9779684 31.9848573,8.06380136 C31.4095966,8.14989131 31.0364545,8.22711528 30.8647885,8.29560176 L30.8647885,19.9880302 L29.1909172,19.9881587 L29.1909172,7.13698524 Z" id="Shape"></path>
                    <path d="M45.181033,2.65581067 C45.181033,3.05092499 45.0605071,3.36393262 44.8203547,3.59560453 C44.5796883,3.82727644 44.2880104,3.94356211 43.9448071,3.94356211 C43.6012182,3.94356211 43.3094118,3.82740493 43.0692594,3.59560453 C42.8285931,3.36393262 42.7088381,3.0507965 42.7088381,2.65581067 C42.7088381,2.26095334 42.8285931,1.94743174 43.0692594,1.71563134 C43.3094118,1.48421641 43.6013467,1.36818772 43.9448071,1.36818772 C44.2881389,1.36818772 44.5796883,1.48421641 44.8203547,1.71563134 C45.0605071,1.94743174 45.181033,2.26095334 45.181033,2.65581067 Z M44.7945277,19.9882872 L43.1206564,19.9882872 L43.1206564,6.67338444 L44.7945277,6.67338444 L44.7945277,19.9882872 Z" id="Shape"></path>
                    <path d="M51.8690656,20.2197021 C51.3026708,20.2022271 50.8087458,20.1295004 50.388447,20.0008795 C49.9673772,19.8720015 49.6156933,19.6750226 49.3326244,19.4089147 C49.0487846,19.1425498 48.8342022,18.7988325 48.6881063,18.3782767 C48.5422673,17.9581063 48.4692836,17.4297453 48.4692836,16.7944786 L48.4692836,0.312108187 L50.1434119,0.00308381906 L50.1434119,16.7429531 C50.1434119,17.1548999 50.1818311,17.485768 50.2593121,17.7344009 C50.33705,17.9836763 50.4525647,18.1811692 50.6071412,18.3270082 C50.7612036,18.4731041 50.9628083,18.5803953 51.2124691,18.6487533 C51.4609736,18.7176253 51.7570202,18.7777597 52.100609,18.8295422 L51.8690656,20.2197021 Z" id="Shape"></path>
                    <path d="M57.7303777,20.2197021 C57.163726,20.2022271 56.6700579,20.1295004 56.2495021,20.0008795 C55.8286893,19.8720015 55.4770054,19.6750226 55.1936795,19.4089147 C54.9106107,19.1425498 54.6955143,18.7988325 54.5499323,18.3782767 C54.4038364,17.9581063 54.3308527,17.4297453 54.3308527,16.7944786 L54.3308527,0.312108187 L56.004724,0.00308381906 L56.004724,16.7429531 C56.004724,17.1548999 56.0436572,17.485768 56.1208811,17.7344009 C56.1979766,17.9836763 56.3141338,18.1811692 56.4684532,18.3270082 C56.6232867,18.4731041 56.8245059,18.5803953 57.0737812,18.6487533 C57.3222856,18.7176253 57.6185893,18.7777597 57.9621781,18.8295422 L57.7303777,20.2197021 Z" id="Shape"></path>
                    <path d="M64.585836,6.36436007 C65.4611266,6.36436007 66.203813,6.48899776 66.8133813,6.73763067 C67.4226925,6.98677755 67.9166175,7.33010941 68.2945139,7.76762624 C68.6717677,8.20565704 68.9467416,8.72489507 69.1181505,9.32572582 C69.2898165,9.92694204 69.3761634,10.5792983 69.3761634,11.283437 L69.3761634,19.6787489 C69.2039835,19.7300174 68.9550936,19.786554 68.6291082,19.8464315 C68.3028659,19.906309 67.925098,19.9713262 67.4960617,20.0396842 C67.0668969,20.1073997 66.5900614,20.1640649 66.0665831,20.2068529 C65.5425908,20.2492554 65.0062633,20.2710991 64.457472,20.2710991 C63.7528193,20.2710991 63.1050888,20.1937466 62.5127386,20.0396842 C61.9205168,19.8848508 61.4050051,19.6400726 60.9673598,19.3052213 C60.5299714,18.9706269 60.1858686,18.5418476 59.9373642,18.0175983 C59.6882173,17.494377 59.5637081,16.8547416 59.5637081,16.0992059 C59.5637081,15.3781062 59.7009381,14.7595435 59.9760404,14.2448027 C60.2506288,13.7295479 60.6368772,13.3047519 61.1347855,12.970286 C61.6326937,12.6353061 62.2251725,12.3906565 62.9120932,12.2358231 C63.5984999,12.0816321 64.3455551,12.0041512 65.1527447,12.0041512 C65.3923831,12.0041512 65.6456418,12.0171289 65.9123921,12.0425704 C66.1783715,12.0683974 66.4358704,12.1030904 66.6851458,12.1457499 C66.9336502,12.1886663 67.1483611,12.2322253 67.328893,12.2748848 C67.5090394,12.3172873 67.6330347,12.3564775 67.7020351,12.3906565 L67.7020351,11.5666343 C67.7020351,11.1023911 67.6673422,10.652025 67.5991127,10.2142512 C67.5303692,9.77647737 67.380033,9.38187702 67.1483611,9.02980768 C66.9169462,8.67799532 66.5901899,8.39454096 66.169891,8.17970156 C65.7488212,7.96524764 65.1954042,7.85795644 64.5087405,7.85795644 C63.5300134,7.85795644 62.8001762,7.9268284 62.3198714,8.06392985 C61.8390526,8.20154528 61.4867263,8.31307673 61.2637919,8.39852422 L61.031863,6.93075484 C61.3235409,6.79352489 61.773907,6.66464696 62.3839892,6.54437801 C62.9930434,6.42462304 63.7269924,6.36436007 64.585836,6.36436007 Z M64.7398984,18.7777597 C65.3921262,18.7777597 65.9632751,18.7560445 66.4527029,18.7135135 C66.9423877,18.6707255 67.3581893,18.6143173 67.7017781,18.5454454 L67.7017781,13.8588113 C67.5130227,13.7725929 67.2126073,13.6827767 66.800275,13.5880777 C66.3884567,13.4937643 65.8218049,13.4466075 65.1007053,13.4466075 C64.6886299,13.4466075 64.2592081,13.4765463 63.8128253,13.5366807 C63.3664425,13.5968152 62.9544957,13.7259501 62.5771133,13.9231861 C62.199217,14.120679 61.8896787,14.3907701 61.6495262,14.734359 C61.4091169,15.0783333 61.2891049,15.5324256 61.2891049,16.0992059 C61.2891049,16.5976281 61.3701836,17.01767 61.5340115,17.3611303 C61.696683,17.7048477 61.9284834,17.9787936 62.2288988,18.1848955 C62.5290571,18.3911259 62.8897355,18.5417191 63.3105483,18.635904 C63.7316181,18.730603 64.2079396,18.7777597 64.7398984,18.7777597 Z" id="Shape"></path>
                </g>
                <g id="Group">
                    <path d="M25.5766813,12.7889831 C25.5766813,19.8280571 19.8699456,25.5365917 12.8286873,25.5365917 C5.78871385,25.5365917 0.0804362804,19.8279286 0.0804362804,12.7889831 C0.0804362804,5.74733928 5.78871385,0.0406036176 12.8286873,0.0406036176 C19.8699456,0.0404751251 25.5766813,5.74733928 25.5766813,12.7889831 Z" id="Shape" fill="#E95420"></path>
                    <g transform="translate(5.268191, 6.553115)" fill="#FFFFFF" id="Shape">
                        <polygon points="0.00668160796 0.0436874367 7.56011091 15.9055677 8.36691508 14.2115231 1.62041842 0.0436874367"></polygon>
                        <polygon points="5.83458566 0.0436874367 10.4924374 9.74730958 11.2973141 8.05789071 7.45063534 0.0436874367"></polygon>
                        <polygon points="13.2920311 0.0436874367 11.6631322 0.0436874367 13.4266912 3.57080549 13.4364566 3.56566579 14.2248864 1.90952646"></polygon>
                    </g>
                </g>
            </g>
        </g>
    </g>
</svg>