<?xml version="1.0" encoding="UTF-8"?>
<svg width="200px" height="51px" viewBox="0 0 200 51" version="1.1" xmlns="http://www.w3.org/2000/svg" xmlns:xlink="http://www.w3.org/1999/xlink">
    <!-- Generator: Sketch 48.1 (47250) - http://www.bohemiancoding.com/sketch -->
    <title>vanilla_black-orange_hex</title>
    <desc>Created with Sketch.</desc>
    <defs></defs>
    <g id="Page-1" stroke="none" stroke-width="1" fill="none" fill-rule="evenodd">
        <g id="vanilla_black-orange_hex" fill-rule="nonzero">
            <g id="Group" transform="translate(62.944162, 3.045685)" fill="#000000">
                <path d="M4.03350254,4.2284264 C5.04923858,7.24746193 6.03375635,10.1035533 6.98807107,12.7984772 C7.94187817,15.4931472 8.87791878,18.1032995 9.79746193,20.6286802 C10.7172589,23.1540609 11.6479695,25.6296954 12.5893401,28.0576142 C13.5307107,30.485533 14.5532995,32.936802 15.6571066,35.4119289 C16.7071066,32.9769036 17.7114213,30.5449239 18.6682741,28.1167513 C19.6251269,25.6888325 20.5725888,23.2116751 21.5104061,20.6865482 C22.4484772,18.1619289 23.3857868,15.5439086 24.3233503,12.8329949 C25.2614213,10.1215736 26.2380711,7.25406091 27.2548223,4.22893401 L30.9182741,4.22893401 C29.3685279,8.6822335 27.9690355,12.585533 26.7195431,15.9385787 C25.469797,19.2911168 24.3172589,22.3271574 23.2598985,25.0444162 C22.2025381,27.7619289 21.1936548,30.2649746 20.230203,32.5568528 C19.2664975,34.8472081 18.2596447,37.1555838 17.2101523,39.4824873 L13.9601523,39.4824873 C12.9317259,37.1314721 11.9241117,34.8124365 10.9380711,32.5243655 C9.95203046,30.2357868 8.91979695,27.7375635 7.84060914,25.028934 C6.76218274,22.3195431 5.60279188,19.2865482 4.36243655,15.9299492 C3.12182741,12.5741117 1.72385787,8.67360406 0.167258883,4.22893401 L4.03350254,4.22893401 L4.03350254,4.2284264 Z" id="Shape"></path>
                <path d="M41.0459391,12.5713198 C42.7753807,12.5713198 44.2418782,12.8175127 45.4464467,13.3086294 C46.6494924,13.8007614 47.6251269,14.478934 48.371066,15.3431472 C49.1167513,16.2083756 49.6598985,17.2340102 49.9994924,18.4208122 C50.3380711,19.6083756 50.5076142,20.8969543 50.5076142,22.2878173 L50.5076142,38.8708122 C50.1680203,38.9720812 49.6758883,39.0837563 49.0324873,39.2020305 C48.3875635,39.3203046 47.6416244,39.448731 46.7944162,39.5837563 C45.9461929,39.7175127 45.0053299,39.8294416 43.9713198,39.9139594 C42.936802,39.9977157 41.8769036,40.0408629 40.7918782,40.0408629 C39.4010152,40.0408629 38.1215736,39.8880711 36.9517766,39.5837563 C35.7814721,39.2779188 34.7637056,38.7944162 33.8994924,38.1329949 C33.0345178,37.4720812 32.3558376,36.6251269 31.8642132,35.5895939 C31.372335,34.5560914 31.1266497,33.2926396 31.1266497,31.8002538 C31.1266497,30.3758883 31.3977157,29.1540609 31.9408629,28.1373096 C32.4827411,27.1195431 33.2459391,26.2804569 34.2299492,25.619797 C35.2129442,24.9581218 36.3832487,24.4748731 37.7398477,24.1690355 C39.0961929,23.864467 40.5713198,23.7114213 42.165736,23.7114213 C42.6401015,23.7114213 43.1403553,23.7370558 43.6662437,23.7873096 C44.1916244,23.8383249 44.7007614,23.9068528 45.1926396,23.9911168 C45.6835025,24.0758883 46.1076142,24.1619289 46.4642132,24.2461929 C46.8200508,24.3299492 47.0659898,24.4073604 47.2017766,24.4748731 L47.2017766,22.8472081 C47.2017766,21.930203 47.1332487,21.0406091 46.9984772,20.1758883 C46.8626904,19.3111675 46.5662437,18.5317259 46.1076142,17.8362944 C45.65,17.1413706 45.0055838,16.5814721 44.1748731,16.1571066 C43.3436548,15.7335025 42.25,15.5215736 40.8931472,15.5215736 C38.9604061,15.5215736 37.5187817,15.6576142 36.5700508,15.9284264 C35.6200508,16.2002538 34.9246193,16.4205584 34.4837563,16.5893401 L34.0261421,13.6903553 C34.6025381,13.4195431 35.4926396,13.1647208 36.6967005,12.9269036 C37.9002538,12.6903553 39.3497462,12.5713198 41.0459391,12.5713198 Z M41.351269,37.0911168 C42.6395939,37.0911168 43.7677665,37.0482234 44.7340102,36.9642132 C45.7002538,36.8796954 46.5225888,36.7682741 47.201269,36.6322335 L47.201269,27.3748731 C46.8274112,27.2045685 46.2345178,27.0271574 45.421066,26.8401015 C44.6071066,26.6538071 43.4873096,26.5606599 42.0634518,26.5606599 C41.2489848,26.5606599 40.401269,26.619797 39.5200508,26.7385787 C38.6370558,26.8573604 37.8236041,27.1124365 37.0779188,27.5020305 C36.3314721,27.892132 35.7215736,28.4256345 35.2467005,29.1043147 C34.7713198,29.7837563 34.5345178,30.6807107 34.5345178,31.8002538 C34.5345178,32.7847716 34.6954315,33.614467 35.0180203,34.2928934 C35.3398477,34.9718274 35.7977157,35.5129442 36.3913706,35.9200508 C36.9840102,36.3274112 37.6967005,36.6248731 38.5279188,36.8109137 C39.3586294,36.9979695 40.3,37.0911168 41.351269,37.0911168 Z" id="Shape"></path>
                <path d="M57.6598985,14.0974619 C58.6428934,13.8258883 59.9654822,13.5205584 61.627665,13.1817259 C63.2893401,12.8431472 65.3241117,12.6730964 67.7319797,12.6730964 C69.7327411,12.6730964 71.4027919,12.9614213 72.742132,13.5375635 C74.0824873,14.1147208 75.1502538,14.9362944 75.9479695,16.0050761 C76.7436548,17.0730964 77.3126904,18.3527919 77.6517766,19.8449239 C77.9903553,21.3383249 78.1609137,22.9829949 78.1609137,24.7791878 L78.1609137,39.4819797 L74.8540609,39.4819797 L74.8540609,25.8484772 C74.8540609,23.9827411 74.7271574,22.4068528 74.4728426,21.1172589 C74.2185279,19.8286802 73.7936548,18.7771574 73.2007614,17.9629442 C72.6063452,17.1492386 71.8271574,16.5639594 70.8604061,16.2081218 C69.8941624,15.8520305 68.6807107,15.6738579 67.2233503,15.6738579 C65.6629442,15.6738579 64.3149746,15.7586294 63.1786802,15.9281726 C62.0423858,16.0982234 61.3053299,16.2507614 60.9662437,16.3860406 L60.9662437,39.4817259 L57.6598985,39.4819797 L57.6598985,14.0974619 Z" id="Shape"></path>
                <path d="M89.2446701,5.24593909 C89.2446701,6.02639594 89.006599,6.64467005 88.5322335,7.10228426 C88.0568528,7.55989848 87.4807107,7.78959391 86.8027919,7.78959391 C86.1241117,7.78959391 85.5477157,7.56015228 85.0733503,7.10228426 C84.5979695,6.64467005 84.3614213,6.02614213 84.3614213,5.24593909 C84.3614213,4.46598985 84.5979695,3.84670051 85.0733503,3.38883249 C85.5477157,2.93172589 86.1243655,2.70253807 86.8027919,2.70253807 C87.4809645,2.70253807 88.0568528,2.93172589 88.5322335,3.38883249 C89.006599,3.84670051 89.2446701,4.46598985 89.2446701,5.24593909 Z M88.4812183,39.4822335 L85.1748731,39.4822335 L85.1748731,13.1817259 L88.4812183,13.1817259 L88.4812183,39.4822335 Z" id="Shape"></path>
                <path d="M102.45533,39.9393401 C101.336548,39.9048223 100.360914,39.7611675 99.5307107,39.5071066 C98.6989848,39.2525381 98.0043147,38.8634518 97.4451777,38.3378173 C96.8845178,37.8116751 96.4606599,37.1327411 96.1720812,36.3020305 C95.8840102,35.4720812 95.7398477,34.4284264 95.7398477,33.1736041 L95.7398477,0.616497462 L99.0467005,0.00609137056 L99.0467005,33.0718274 C99.0467005,33.885533 99.1225888,34.5390863 99.2756345,35.030203 C99.4291878,35.5225888 99.6573604,35.9126904 99.9626904,36.2007614 C100.267005,36.4893401 100.665228,36.701269 101.158376,36.8362944 C101.649239,36.972335 102.23401,37.0911168 102.91269,37.193401 L102.45533,39.9393401 Z" id="Shape"></path>
                <path d="M114.032995,39.9393401 C112.913706,39.9048223 111.938579,39.7611675 111.107868,39.5071066 C110.27665,39.2525381 109.58198,38.8634518 109.022335,38.3378173 C108.463198,37.8116751 108.038325,37.1327411 107.750761,36.3020305 C107.462183,35.4720812 107.31802,34.4284264 107.31802,33.1736041 L107.31802,0.616497462 L110.624365,0.00609137056 L110.624365,33.0718274 C110.624365,33.885533 110.701269,34.5390863 110.853807,35.030203 C111.006091,35.5225888 111.235533,35.9126904 111.540355,36.2007614 C111.846193,36.4893401 112.243655,36.701269 112.736041,36.8362944 C113.226904,36.972335 113.812183,37.0911168 114.490863,37.193401 L114.032995,39.9393401 Z" id="Shape"></path>
                <path d="M127.574365,12.5713198 C129.303299,12.5713198 130.770305,12.8175127 131.974365,13.3086294 C133.177919,13.8007614 134.153553,14.478934 134.9,15.3431472 C135.645178,16.2083756 136.188325,17.2340102 136.526904,18.4208122 C136.86599,19.6083756 137.036548,20.8969543 137.036548,22.2878173 L137.036548,38.8708122 C136.696447,38.9720812 136.204822,39.0837563 135.560914,39.2020305 C134.916497,39.3203046 134.170305,39.448731 133.322843,39.5837563 C132.475127,39.7175127 131.533249,39.8294416 130.499239,39.9139594 C129.464213,39.9977157 128.404822,40.0408629 127.320812,40.0408629 C125.928934,40.0408629 124.649492,39.8880711 123.479442,39.5837563 C122.309645,39.2779188 121.291371,38.7944162 120.426904,38.1329949 C119.562944,37.4720812 118.883249,36.6251269 118.392386,35.5895939 C117.900254,34.5560914 117.654315,33.2926396 117.654315,31.8002538 C117.654315,30.3758883 117.925381,29.1540609 118.468782,28.1373096 C119.011168,27.1195431 119.774112,26.2804569 120.757614,25.619797 C121.741117,24.9581218 122.911421,24.4748731 124.268274,24.1690355 C125.624112,23.864467 127.099746,23.7114213 128.694162,23.7114213 C129.167513,23.7114213 129.667766,23.7370558 130.19467,23.7873096 C130.720051,23.8383249 131.22868,23.9068528 131.721066,23.9911168 C132.211929,24.0758883 132.636041,24.1619289 132.99264,24.2461929 C133.348477,24.3299492 133.593401,24.4073604 133.729695,24.4748731 L133.729695,22.8472081 C133.729695,21.930203 133.661168,21.0406091 133.526396,20.1758883 C133.390609,19.3111675 133.093655,18.5317259 132.636041,17.8362944 C132.178934,17.1413706 131.533503,16.5814721 130.703299,16.1571066 C129.871574,15.7335025 128.778426,15.5215736 127.422081,15.5215736 C125.488832,15.5215736 124.047208,15.6576142 123.098477,15.9284264 C122.148731,16.2002538 121.452792,16.4205584 121.012437,16.5893401 L120.554315,13.6901015 C121.130457,13.4190355 122.020051,13.164467 123.225127,12.9269036 C124.428173,12.6903553 125.877919,12.5713198 127.574365,12.5713198 Z M127.87868,37.0911168 C129.167005,37.0911168 130.295178,37.0482234 131.261929,36.9642132 C132.229188,36.8796954 133.050508,36.7682741 133.729188,36.6322335 L133.729188,27.3748731 C133.356345,27.2045685 132.762944,27.0271574 131.948477,26.8401015 C131.135025,26.6538071 130.015736,26.5606599 128.591371,26.5606599 C127.777411,26.5606599 126.929188,26.619797 126.047462,26.7385787 C125.165736,26.8573604 124.35203,27.1124365 123.606599,27.5020305 C122.860152,27.892132 122.248731,28.4256345 121.774365,29.1043147 C121.299492,29.7837563 121.062437,30.6807107 121.062437,31.8002538 C121.062437,32.7847716 121.222589,33.614467 121.546193,34.2928934 C121.867513,34.9718274 122.325381,35.5129442 122.918782,35.9200508 C123.511675,36.3274112 124.224112,36.6248731 125.05533,36.8109137 C125.887056,36.9979695 126.827919,37.0911168 127.87868,37.0911168 Z" id="Shape"></path>
            </g>
            <g id="Group">
                <path d="M50.5208122,25.2616751 C50.5208122,39.165736 39.2484772,50.4416244 25.3401015,50.4416244 C11.434264,50.4416244 0.158883249,39.1654822 0.158883249,25.2616751 C0.158883249,11.3525381 11.434264,0.0802030457 25.3401015,0.0802030457 C39.2484772,0.0799492386 50.5208122,11.3525381 50.5208122,25.2616751 Z" id="Shape" fill="#E95420"></path>
                <g transform="translate(10.406091, 12.944162)" fill="#FFFFFF" id="Shape">
                    <polygon points="0.0131979695 0.0862944162 14.9332487 31.4177665 16.5269036 28.0715736 3.20076142 0.0862944162"></polygon>
                    <polygon points="11.5248731 0.0862944162 20.7253807 19.2535533 22.3152284 15.9164975 14.7170051 0.0862944162"></polygon>
                    <polygon points="26.2553299 0.0862944162 23.0378173 0.0862944162 26.5213198 7.05329949 26.5406091 7.04314721 28.0979695 3.77182741"></polygon>
                </g>
            </g>
        </g>
    </g>
</svg>