<?xml version="1.0" encoding="UTF-8"?>
<svg width="199px" height="40px" viewBox="0 0 199 40" version="1.1" xmlns="http://www.w3.org/2000/svg" xmlns:xlink="http://www.w3.org/1999/xlink">
    <!-- Generator: Sketch 48.1 (47250) - http://www.bohemiancoding.com/sketch -->
    <title>whitbread_portfolio</title>
    <desc>Created with Sketch.</desc>
    <defs></defs>
    <g id="Page-1" stroke="none" stroke-width="1" fill="none" fill-rule="evenodd">
        <g id="whitbread_portfolio" transform="translate(0.000000, -1.000000)" fill-rule="nonzero">
            <g id="g25953" transform="translate(17.059835, 28.305839) scale(-1, 1) rotate(-180.000000) translate(-17.059835, -28.305839) translate(0.090138, 15.578566)" fill="#18468B">
                <path d="M7.5381175,2.51270583 C7.93009961,1.46742021 8.64998983,0.845525513 9.62868875,0.845525513 L10.0231836,0.845525513 C11.0031388,0.845525513 11.7556942,1.46742021 12.1162675,2.51270583 L17.215804,17.4570238 L22.3165968,2.51270583 C22.6771702,1.46742021 23.395804,0.845525513 24.378272,0.845525513 L24.7702541,0.845525513 C25.7514657,0.845525513 26.5040211,1.49882903 26.8645944,2.51270583 L33.6325676,21.4798658 C33.7305632,21.7097784 33.8285587,22.0364302 33.8285587,22.2977515 C33.8285587,23.3769587 32.9139337,24.2262533 31.8322138,24.2262533 C30.8535149,24.2262533 30.1662899,23.6056149 29.8723033,22.7877292 L24.6069282,7.02552552 L19.4408051,22.6909901 C19.1455621,23.6370238 18.4256719,24.2915836 17.4143078,24.2915836 L17.1190648,24.2915836 C16.1039316,24.2915836 15.417963,23.6370238 15.0913113,22.6909901 L9.92393168,7.02552552 L4.65855662,22.755064 C4.39849156,23.6056149 3.64467981,24.2262533 2.66472453,24.2262533 C1.55159585,24.2262533 0.604305753,23.3769587 0.604305753,22.2650864 C0.604305753,22.003765 0.670892457,21.7097784 0.767631632,21.4798658 L7.5381175,2.51270583 Z" id="path25955"></path>
            </g>
            <g id="g25957" transform="translate(46.918739, 28.421811) scale(-1, 1) rotate(-180.000000) translate(-46.918739, -28.421811) translate(37.221770, 16.300599)" fill="#18468B">
                <path d="M0,2.51270583 C0,1.40208985 0.884472453,0.518873755 2.02649726,0.518873755 C3.13836959,0.518873755 4.02158568,1.40208985 4.02158568,2.51270583 L4.02158568,10.3297337 L14.9430616,10.3297337 L14.9430616,2.51270583 C14.9430616,1.40208985 15.8287904,0.518873755 16.9394064,0.518873755 C18.0839439,0.518873755 18.96716,1.40208985 18.96716,2.51270583 L18.96716,21.7424436 C18.96716,22.8530595 18.0839439,23.7362756 16.9394064,23.7362756 C15.8287904,23.7362756 14.9430616,22.8530595 14.9430616,21.7424436 L14.9430616,14.0573327 L4.02158568,14.0573327 L4.02158568,21.7424436 C4.02158568,22.8530595 3.13836959,23.7362756 2.02649726,23.7362756 C0.884472453,23.7362756 0,22.8530595 0,21.7424436 L0,2.51270583 Z" id="path25959"></path>
            </g>
            <g id="g25961" transform="translate(63.747131, 28.421811) scale(-1, 1) rotate(-180.000000) translate(-63.747131, -28.421811) translate(61.322888, 16.300599)" fill="#18468B">
                <path d="M0,2.51270583 C0,1.40208985 0.881959748,0.518873755 2.02775361,0.518873755 C3.13836959,0.518873755 4.02032933,1.40208985 4.02032933,2.51270583 L4.02032933,21.7424436 C4.02032933,22.8530595 3.13836959,23.7362756 2.02775361,23.7362756 C0.881959748,23.7362756 0,22.8530595 0,21.7424436 L0,2.51270583 Z" id="path25963"></path>
            </g>
            <g id="g25965" transform="translate(78.261981, 28.421811) scale(-1, 1) rotate(-180.000000) translate(-78.261981, -28.421811) translate(68.565011, 16.300599)" fill="#18468B">
                <path d="M7.5381175,2.51270583 C7.5381175,1.40208985 8.45525513,0.518873755 9.5658711,0.518873755 C10.6777434,0.518873755 11.5923684,1.40208985 11.5923684,2.51270583 L11.5923684,19.8453507 L17.1843952,19.8453507 C18.1995284,19.8453507 19.0149013,20.6946452 19.0149013,21.7097784 C19.0149013,22.7236552 18.1995284,23.5729498 17.1843952,23.5729498 L1.97875584,23.5729498 C0.932213864,23.5729498 0.115584468,22.7236552 0.115584468,21.7097784 C0.115584468,20.6946452 0.932213864,19.8453507 1.97875584,19.8453507 L7.5381175,19.8453507 L7.5381175,2.51270583 Z" id="path25967"></path>
            </g>
            <g id="g25969" transform="translate(99.922004, 27.944005) scale(-1, 1) rotate(-180.000000) translate(-99.922004, -27.944005) translate(89.618973, 15.822793)" fill="#18468B">
                <path d="M5.02541167,3.76905875 L5.02541167,10.0470543 L11.4026591,10.0470543 C14.5762065,10.0470543 16.1114698,8.90377312 16.1114698,6.97401504 L16.1114698,6.90742834 C16.1114698,4.84952225 14.4442895,3.76905875 11.6966456,3.76905875 L5.02541167,3.76905875 Z M5.02541166,13.4492579 L5.02541166,19.5312624 L10.8134296,19.5312624 C13.3990039,19.5312624 14.8362716,18.4193901 14.8362716,16.6202927 L14.8362716,16.5549624 C14.8362716,14.4618784 13.1025046,13.4492579 10.519443,13.4492579 L5.02541166,13.4492579 Z M1.06789998,2.23253913 C1.06789998,1.08800163 1.95237244,0.203529172 3.09690994,0.203529172 L11.6639805,0.203529172 C16.7660297,0.203529172 20.1330555,2.39586501 20.1330555,6.48403741 L20.1330555,6.54811141 C20.1330555,9.65632852 18.2698841,11.1928481 15.5875707,12.1074731 C17.2886725,12.9906892 18.856601,14.4618784 18.856601,17.2095223 L18.856601,17.2748526 C18.856601,18.8126286 18.3352144,20.0551616 17.3200813,21.0677821 C16.0134743,22.3756455 13.9517992,23.0955356 11.3373287,23.0955356 L3.09690994,23.0955356 C1.95237244,23.0955356 1.06789998,22.2123195 1.06789998,21.0677821 L1.06789998,2.23253913 Z" id="path25971"></path>
            </g>
            <g id="g25973" transform="translate(122.616007, 28.759629) scale(-1, 1) rotate(-180.000000) translate(-122.616007, -28.759629) translate(112.312977, 16.638417)" fill="#18468B">
                <path d="M5.02541166,12.5635292 L5.02541166,20.2498964 L10.8787599,20.2498964 C13.85506,20.2498964 15.6214921,18.906855 15.6214921,16.4557105 L15.6214921,16.3903801 C15.6214921,14.06864 13.7897296,12.5635292 10.9126814,12.5635292 L5.02541166,12.5635292 Z M1.00256963,2.85066476 C1.00256963,1.74004879 1.88829844,0.85683269 3.03157959,0.85683269 C4.14219556,0.85683269 5.02541166,1.74004879 5.02541166,2.85066476 L5.02541166,8.99925594 L10.0947957,8.99925594 L15.6541573,1.90337467 C16.1114698,1.28147998 16.7019556,0.85683269 17.6153242,0.85683269 C18.5965359,0.85683269 19.5450823,1.60938808 19.5450823,2.72000406 C19.5450823,3.34189876 19.283761,3.76654605 18.8905224,4.25778004 L14.5096199,9.78447651 C17.582659,10.733023 19.7084082,12.958024 19.7084082,16.6190364 L19.7084082,16.6843668 C19.7084082,18.6794552 19.0224395,20.3793006 17.8113153,21.6218337 C16.3401261,23.0616142 14.0837162,23.9109087 11.206668,23.9109087 L3.03157959,23.9109087 C1.88829844,23.9109087 1.00256963,23.0276926 1.00256963,21.8831552 L1.00256963,2.85066476 Z" id="path25975"></path>
            </g>
            <g id="g25977" transform="translate(144.312347, 28.346285) scale(-1, 1) rotate(-180.000000) translate(-144.312347, -28.346285) translate(135.221438, 16.831133)" fill="#18468B">
                <path d="M2.51270583,0 L14.3513194,0 C15.3312747,0 16.1504167,0.785220573 16.1504167,1.79909738 C16.1504167,2.78030901 15.3312747,3.59819475 14.3513194,3.59819475 L4.50779427,3.59819475 L4.50779427,9.74678593 L14.350063,9.74678593 C15.3312747,9.74678593 16.1491604,10.5320065 16.1491604,11.5132181 C16.1491604,12.5245822 15.3312747,13.3437244 14.350063,13.3437244 L4.50779427,13.3437244 L4.50779427,19.2950681 L15.8225086,19.2950681 C16.8024639,19.2950681 17.6203497,20.0802887 17.6203497,21.0941655 C17.6203497,22.0741207 16.8024639,22.8920065 15.8225086,22.8920065 L2.51270583,22.8920065 C1.36691198,22.8920065 0.483695873,22.0087904 0.483695873,20.8642528 L0.483695873,2.02900996 C0.483695873,0.884472453 1.36691198,0 2.51270583,0" id="path25979"></path>
            </g>
            <g id="g25981" transform="translate(188.113062, 28.451697) scale(-1, 1) rotate(-180.000000) translate(-188.113062, -28.451697) translate(177.203971, 16.936545)" fill="#18468B">
                <path d="M5.02541166,3.76905875 L5.02541166,19.3352714 L9.5394877,19.3352714 C14.3462939,19.3352714 17.4846635,16.0335759 17.4846635,11.5534214 L17.4846635,11.4855784 C17.4846635,7.00668022 14.3462939,3.76905875 9.5394877,3.76905875 L5.02541166,3.76905875 Z M1.00382598,2.1345436 C1.00382598,0.990006098 1.88578573,0.105533645 3.03032324,0.105533645 L9.5394877,0.105533645 C16.7346208,0.105533645 21.704753,5.10958731 21.704753,11.5534214 L21.704753,11.6187518 C21.704753,18.0600732 16.7346208,22.9975401 9.5394877,22.9975401 L3.03032324,22.9975401 C1.88578573,22.9975401 1.00382598,22.114324 1.00382598,20.9697865 L1.00382598,2.1345436 Z" id="path25983"></path>
            </g>
            <g id="g25985" transform="translate(164.138600, 28.476446) scale(-1, 1) rotate(-180.000000) translate(-164.138600, -28.476446) translate(153.229509, 16.355234)" fill="#18468B">
                <path d="M17.5889408,2.51270583 L17.5889408,6.26417565 L6.329506,6.26417565 L4.07560886,1.64205326 C3.58814393,0.643252693 2.40717219,0.234937995 1.40962798,0.72365928 C0.379418581,1.2249441 -0.0263834113,2.40591583 0.459825167,3.4047164 L8.03060784,18.9269567 C8.34218337,19.6443342 10.1337426,23.6282293 16.0511648,23.6282293 L19.5840292,23.6508436 C20.615495,23.6508436 21.4396625,22.9296971 21.5891685,21.9472291 L21.6105265,21.6243464 L21.6105265,19.953397 L21.6105265,2.51270583 C21.6105265,1.40208985 20.7273104,0.517617401 19.6154381,0.517617401 C18.472157,0.517617401 17.5889408,1.40208985 17.5889408,2.51270583 Z M17.5889408,9.82844887 L17.5889408,19.953397 L15.9104533,19.953397 C13.9769262,19.8566578 12.616296,19.1480748 12.0031958,17.8967473 L8.06955479,9.82844887 L17.5889408,9.82844887 Z M17.5889408,19.953397 L16.3778166,19.9659606 L15.9104533,19.953397 L17.5889408,19.953397 Z" id="path25987"></path>
            </g>
            <g id="g25989" transform="translate(20.681354, 6.088202) scale(-1, 1) rotate(-180.000000) translate(-20.681354, -6.088202) translate(16.438930, 0.633657)" fill="#E51636">
                <path d="M3.76905875,8.79447041 L1.53400691,8.79447041 C1.11438504,8.79447041 0.785220573,9.13619841 0.785220573,9.5445131 C0.785220573,9.95282781 1.11438504,10.2920431 1.53400691,10.2920431 L7.6449075,10.2920431 C8.05322219,10.2920431 8.3811303,9.95282781 8.3811303,9.5445131 C8.3811303,9.13619841 8.05322219,8.79447041 7.6449075,8.79447041 L5.39980484,8.79447041 L5.39980484,1.83176256 C5.39980484,1.38450091 5.03043708,1.03020939 4.58317544,1.03020939 C4.13591381,1.03020939 3.76905875,1.38450091 3.76905875,1.83176256 L3.76905875,8.79447041 Z" id="path25991"></path>
            </g>
            <g id="g25993" transform="translate(31.837274, 5.830004) scale(-1, 1) rotate(-180.000000) translate(-31.837274, -5.830004) translate(27.594850, 0.981519)" fill="#E51636">
                <path d="M1.25635292,1.25635292 C1.07166904,1.38826998 0.941008335,1.61064444 0.941008335,1.87322219 C0.941008335,2.29410042 1.28273633,2.62200853 1.70361456,2.62200853 C1.92724537,2.62200853 2.07172596,2.55667818 2.17600325,2.47752795 C2.93860947,1.87322219 3.75398251,1.53149421 4.75278308,1.53149421 C5.74907095,1.53149421 6.38101646,2.00513926 6.38101646,2.68859524 L6.38101646,2.7137223 C6.38101646,3.37079487 6.01416141,3.72634275 4.30426509,4.12083756 C2.3481236,4.59322627 1.24378938,5.17114861 1.24378938,6.86722504 L1.24378938,6.8923521 C1.24378938,8.46907501 2.55793453,9.5608457 4.38467168,9.5608457 C5.54051636,9.5608457 6.47398658,9.25680829 7.29941045,8.70652571 C7.48409433,8.60099207 7.65621468,8.37736125 7.65621468,8.06201667 C7.65621468,7.64239479 7.31323033,7.31323033 6.89360845,7.31323033 C6.73530799,7.31323033 6.60590364,7.35343362 6.47398658,7.4313275 C5.76414718,7.89115267 5.07943484,8.12860337 4.35828827,8.12860337 C3.41099817,8.12860337 2.85945924,7.64239479 2.85945924,7.03683269 L2.85945924,7.01044927 C2.85945924,6.30186623 3.27908112,5.9852653 5.05430778,5.56564342 C6.99788575,5.09325473 7.99668632,4.39723521 7.99668632,2.87076641 L7.99668632,2.84563936 C7.99668632,1.12317951 6.64359422,0.100508233 4.71257979,0.100508233 C3.46376499,0.100508233 2.2815369,0.493746696 1.25635292,1.25635292" id="path25995"></path>
            </g>
            <g id="g25997" transform="translate(40.869812, 5.931147) scale(-1, 1) rotate(-180.000000) translate(-40.869812, -5.931147) translate(37.233448, 1.082662)" fill="#E51636">
                <path d="M0,8.79447041 C0,9.2404757 0.355547875,9.59602358 0.815373042,9.59602358 C1.26263468,9.59602358 1.61692621,9.2404757 1.61692621,8.79447041 L1.61692621,1.80412279 L5.78047977,1.80412279 C6.18879447,1.80412279 6.51670258,1.47495833 6.51670258,1.06789998 C6.51670258,0.660841634 6.18879447,0.332933522 5.78047977,0.332933522 L0.815373042,0.332933522 C0.355547875,0.332933522 0,0.687225045 0,1.14705021 L0,8.79447041 Z" id="path25999"></path>
            </g>
            <g id="g26001" transform="translate(48.476547, 6.040327) scale(-1, 1) rotate(-180.000000) translate(-48.476547, -6.040327) translate(44.840183, 1.191842)" fill="#E51636">
                <path d="M0,1.25635292 L0,8.82462288 C0,9.28444805 0.354291522,9.63873958 0.815373042,9.63873958 L6.16241105,9.63873958 C6.55690587,9.63873958 6.88607034,9.31083147 6.88607034,8.91759301 C6.88607034,8.5092783 6.55690587,8.19393372 6.16241105,8.19393372 L1.61692621,8.19393372 L1.61692621,5.80183777 L5.57192519,5.80183777 C5.96516365,5.80183777 6.29432811,5.47392966 6.29432811,5.06561496 C6.29432811,4.6723765 5.96516365,4.35703192 5.57192519,4.35703192 L1.61692621,4.35703192 L1.61692621,1.88704208 L6.22774141,1.88704208 C6.62223622,1.88704208 6.95140069,1.55913396 6.95140069,1.1633828 C6.95140069,0.757580808 6.62223622,0.440979874 6.22774141,0.440979874 L0.815373042,0.440979874 C0.354291522,0.440979874 0,0.796527749 0,1.25635292" id="path26003"></path>
            </g>
            <g id="g26005" transform="translate(57.279039, 6.040327) scale(-1, 1) rotate(-180.000000) translate(-57.279039, -6.040327) translate(53.642675, 1.191842)" fill="#E51636">
                <path d="M0,1.25635292 L0,8.82462288 C0,9.28444805 0.355547875,9.63873958 0.815373042,9.63873958 L6.16241105,9.63873958 C6.55690587,9.63873958 6.88481399,9.31083147 6.88481399,8.91759301 C6.88481399,8.5092783 6.55690587,8.19393372 6.16241105,8.19393372 L1.61692621,8.19393372 L1.61692621,5.80183777 L5.57192519,5.80183777 C5.96516365,5.80183777 6.29307176,5.47392966 6.29307176,5.06561496 C6.29307176,4.6723765 5.96516365,4.35703192 5.57192519,4.35703192 L1.61692621,4.35703192 L1.61692621,1.88704208 L6.22648505,1.88704208 C6.62349258,1.88704208 6.95140069,1.55913396 6.95140069,1.1633828 C6.95140069,0.757580808 6.62349258,0.440979874 6.22648505,0.440979874 L0.815373042,0.440979874 C0.355547875,0.440979874 0,0.796527749 0,1.25635292" id="path26007"></path>
            </g>
            <g id="g26009" transform="translate(66.414348, 5.603615) scale(-1, 1) rotate(-180.000000) translate(-66.414348, -5.603615) translate(62.171924, 0.149069)" fill="#E51636">
                <path d="M3.76905875,5.02541166 C4.98897743,5.02541166 5.75284,5.70886765 5.75284,6.66872128 L5.75284,6.69510469 C5.75284,7.77179914 4.9764139,8.33715795 3.76905875,8.33715795 L1.88829844,8.33715795 L1.88829844,5.02541166 L3.76905875,5.02541166 Z M0.272628583,8.99423053 C0.272628583,9.4540557 0.628176458,9.80709087 1.08800163,9.80709087 L3.89971945,9.80709087 C6.0543647,9.80709087 7.39363691,8.58591583 7.39363691,6.73405164 L7.39363691,6.70766822 C7.39363691,4.64599309 5.74027647,3.56678593 3.71629193,3.56678593 L1.88829844,3.56678593 L1.88829844,1.34681033 C1.88829844,0.899548688 1.53526326,0.545257166 1.08800163,0.545257166 C0.628176458,0.545257166 0.272628583,0.899548688 0.272628583,1.34681033 L0.272628583,8.99423053 Z" id="path26011"></path>
            </g>
            <g id="g26013" transform="translate(76.980657, 5.514172) scale(-1, 1) rotate(-180.000000) translate(-76.980657, -5.514172) translate(72.738233, 0.059627)" fill="#E51636">
                <path d="M5.02541167,7.5381175 L5.02541167,7.56324456 C5.02541167,8.18137019 4.59322627,8.60224842 3.98766416,8.60224842 C3.33310429,8.60224842 2.88458629,8.14242325 2.88458629,7.49917056 L2.88458629,7.4715308 C2.88458629,7.01170562 3.06801382,6.66997764 3.58060582,6.10587518 C4.52789592,6.44760316 5.02541167,6.86848139 5.02541167,7.5381175 M5.09199838,2.54411465 L3.04163041,4.63342955 C2.1747469,4.25275462 1.80789184,3.68739581 1.80789184,3.09690994 L1.80789184,3.07052653 C1.80789184,2.29535678 2.4524009,1.72999796 3.34566782,1.72999796 C3.98766416,1.72999796 4.56684285,2.04534255 5.09199838,2.54411465 M6.98532222,0.639483635 L6.02546859,1.61190079 C5.25029884,0.863114453 4.31682862,0.390725758 3.18736735,0.390725758 C1.4649075,0.390725758 0.179658467,1.42847326 0.179658467,3.01775971 L0.179658467,3.04414312 C0.179658467,4.22762756 0.87442163,5.0806912 2.13579996,5.61966659 C1.61064444,6.2893027 1.37319373,6.86848139 1.37319373,7.5381175 L1.37319373,7.56324456 C1.37319373,8.79949583 2.37325065,9.87744663 4.01530393,9.87744663 C5.47267331,9.87744663 6.45765399,8.89120959 6.45765399,7.65621468 L6.45765399,7.62857491 C6.45765399,6.42121976 5.65735719,5.69881682 4.44748932,5.23773531 L6.01290505,3.64844887 C6.28804635,4.04168733 6.53806058,4.49020532 6.77299857,4.96259402 C6.83958527,5.10581825 7.04939622,5.34326896 7.37981703,5.34326896 C7.75923561,5.34326896 8.07458019,5.02792438 8.07458019,4.65981297 C8.07458019,4.54171579 8.0343769,4.41105509 7.98286644,4.30552144 C7.68008538,3.74141898 7.33835738,3.1886237 6.98532222,2.6898516 L8.00924984,1.66466761 C8.16755032,1.5076235 8.25800772,1.34932303 8.25800772,1.11187233 C8.25800772,0.706070339 7.95773937,0.390725758 7.54816833,0.390725758 C7.31323033,0.390725758 7.1536735,0.468619638 6.98532222,0.639483635" id="path26015"></path>
            </g>
            <g id="g26017" transform="translate(89.866442, 6.033416) scale(-1, 1) rotate(-180.000000) translate(-89.866442, -6.033416) translate(85.017958, 0.578870)" fill="#E51636">
                <path d="M3.76905875,2.51270583 C5.70258589,2.51270583 6.96270787,3.81177475 6.96270787,5.61338484 L6.96270787,5.63976824 C6.96270787,7.44012198 5.70258589,8.76683065 3.76905875,8.76683065 L1.95614149,8.76683065 L1.95614149,2.51270583 L3.76905875,2.51270583 Z M0.339215287,9.42390322 C0.339215287,9.8837284 0.694763162,10.2367636 1.15458833,10.2367636 L3.76905875,10.2367636 C6.65992681,10.2367636 8.65752795,8.25549502 8.65752795,5.6648953 L8.65752795,5.63976824 C8.65752795,3.05168124 6.65992681,1.04026021 3.76905875,1.04026021 L1.15458833,1.04026021 C0.694763162,1.04026021 0.339215287,1.39580808 0.339215287,1.85563326 L0.339215287,9.42390322 Z" id="path26019"></path>
            </g>
            <g id="g26021" transform="translate(99.435198, 5.986173) scale(-1, 1) rotate(-180.000000) translate(-99.435198, -5.986173) translate(94.586713, 1.137688)" fill="#E51636">
                <path d="M5.02541167,5.02541166 C6.1825127,5.02541166 6.91873552,5.63097377 6.91873552,6.56193128 L6.91873552,6.58957104 C6.91873552,7.57455173 6.20763976,8.11352714 5.01284813,8.11352714 L2.66221183,8.11352714 L2.66221183,5.02541166 L5.02541167,5.02541166 Z M1.04528563,8.77059971 C1.04528563,9.23042487 1.39957715,9.58346005 1.85940232,9.58346005 L5.14350884,9.58346005 C6.30060988,9.58346005 7.20769668,9.24424476 7.79943891,8.66506606 C8.28439113,8.1650376 8.56078878,7.48283798 8.56078878,6.68002846 L8.56078878,6.65615776 C8.56078878,5.18245578 7.70521244,4.28918886 6.47273023,3.90851393 L8.23162432,1.68853832 C8.38866842,1.49129091 8.49420207,1.31917056 8.49420207,1.07041268 C8.49420207,0.623151047 8.11352714,0.321626347 7.72028868,0.321626347 C7.35092092,0.321626347 7.11723927,0.492490343 6.93129904,0.742504573 L4.69750355,3.59316935 L2.66221183,3.59316935 L2.66221183,1.12317951 C2.66221183,0.675917869 2.3054076,0.321626347 1.85940232,0.321626347 C1.39957715,0.321626347 1.04528563,0.675917869 1.04528563,1.12317951 L1.04528563,8.77059971 Z" id="path26023"></path>
            </g>
            <g id="g26025" transform="translate(106.171293, 5.931147) scale(-1, 1) rotate(-180.000000) translate(-106.171293, -5.931147) translate(104.959172, 1.082662)" fill="#E51636">
                <path d="M0,8.79447041 C0,9.2404757 0.355547875,9.59602358 0.815373042,9.59602358 C1.26137833,9.59602358 1.61692621,9.2404757 1.61692621,8.79447041 L1.61692621,1.06789998 C1.61692621,0.621894693 1.26137833,0.266346818 0.815373042,0.266346818 C0.355547875,0.266346818 0,0.621894693 0,1.06789998 L0,8.79447041 Z" id="path26027"></path>
            </g>
            <g id="g26029" transform="translate(113.275436, 5.958161) scale(-1, 1) rotate(-180.000000) translate(-113.275436, -5.958161) translate(109.033012, 1.109676)" fill="#E51636">
                <path d="M0,8.79447041 C0,9.24173206 0.355547875,9.60984345 0.812860337,9.60984345 L0.984980687,9.60984345 C1.37821915,9.60984345 1.60184996,9.4138524 1.82548079,9.13619841 L6.42498881,3.18359829 L6.42498881,8.83467371 C6.42498881,9.26811547 6.77802399,9.62240699 7.2127221,9.62240699 C7.65998373,9.62240699 8.0130189,9.26811547 8.0130189,8.83467371 L8.0130189,1.10810327 C8.0130189,0.662097987 7.67254726,0.306550112 7.22528562,0.306550112 L7.15995527,0.306550112 C6.77802399,0.306550112 6.54308599,0.505053873 6.31945518,0.792758691 L1.58928644,6.91622281 L1.58928644,1.08171986 C1.58928644,0.648278105 1.23499492,0.293986583 0.800296808,0.293986583 C0.355547875,0.293986583 0,0.648278105 0,1.08171986 L0,8.79447041 Z" id="path26031"></path>
            </g>
            <g id="g26033" transform="translate(123.391480, 5.931147) scale(-1, 1) rotate(-180.000000) translate(-123.391480, -5.931147) translate(119.149056, 1.082662)" fill="#E51636">
                <path d="M0,8.79447041 C0,9.2404757 0.355547875,9.59602358 0.81411669,9.59602358 C1.26137833,9.59602358 1.61566985,9.2404757 1.61566985,8.79447041 L1.61566985,4.90480178 L5.97647082,9.29324252 C6.16241105,9.48923358 6.35840211,9.59602358 6.64861964,9.59602358 C7.09588127,9.59602358 7.39614962,9.2404757 7.39614962,8.84598088 C7.39614962,8.59722301 7.29187233,8.41253913 7.1084448,8.24167513 L4.24270379,5.48272413 L7.34463915,1.63325879 C7.47655621,1.4623948 7.56826998,1.30409433 7.56826998,1.05533645 C7.56826998,0.609331165 7.21397845,0.266346818 6.75164057,0.266346818 C6.43755234,0.266346818 6.24156128,0.425903639 6.06944095,0.648278105 L3.11324253,4.41859321 L1.61566985,2.97253101 L1.61566985,1.06789998 C1.61566985,0.621894693 1.26137833,0.266346818 0.81411669,0.266346818 C0.355547875,0.266346818 0,0.621894693 0,1.06789998 L0,8.79447041 Z" id="path26035"></path>
            </g>
            <g id="g26037" transform="translate(4.493607, 5.579760) scale(-1, 1) rotate(-180.000000) translate(-4.493607, -5.579760) translate(0.251183, 0.731275)" fill="#E51636">
                <path d="M1.25635292,0 L6.00285423,0 C6.39483635,0 6.72274446,0.315344582 6.72274446,0.722402927 C6.72274446,1.11312868 6.39483635,1.44229315 6.00285423,1.44229315 L2.05539337,1.44229315 L2.05539337,3.90600121 L6.00285423,3.90600121 C6.39483635,3.90600121 6.72274446,4.22134581 6.72274446,4.61458427 C6.72274446,5.02164261 6.39483635,5.34829436 6.00285423,5.34829436 L2.05539337,5.34829436 L2.05539337,7.73536491 L6.59334011,7.73536491 C6.98532222,7.73536491 7.31323033,8.04945314 7.31323033,8.45651148 C7.31323033,8.84849359 6.98532222,9.17640171 6.59334011,9.17640171 L1.25635292,9.17640171 C0.797784102,9.17640171 0.443492579,8.82211018 0.443492579,8.36354137 L0.443492579,0.812860337 C0.443492579,0.354291522 0.797784102,0 1.25635292,0" id="path26039"></path>
            </g>
            <g id="g26041" transform="translate(12.079994, 5.517177) scale(-1, 1) rotate(-180.000000) translate(-12.079994, -5.517177) translate(7.231509, 0.062632)" fill="#E51636">
                <path d="M7.5381175,1.25635292 L7.5381175,2.75895101 L3.02529782,2.75895101 L2.12198007,0.905830453 C1.92598902,0.507566578 1.45234398,0.342984347 1.05282374,0.537719048 C0.640739988,0.739991868 0.477414108,1.21238057 0.672148811,1.6144135 L3.7062411,7.83587314 C3.83313275,8.12357796 4.55051027,9.72040252 6.92376092,9.72040252 L8.33715795,9.73045335 C8.75301078,9.73045335 9.08343159,9.44023582 9.14248017,9.04699736 L9.15127464,8.91633665 L9.15127464,8.24670055 L9.15127464,1.25635292 C9.15127464,0.810347632 8.79572676,0.456056109 8.35223419,0.456056109 C7.89240902,0.456056109 7.5381175,0.810347632 7.5381175,1.25635292 Z M7.5381175,4.18868062 L7.5381175,8.24670055 L6.86596869,8.24670055 C6.0920553,8.20900995 5.54428542,7.92507419 5.29929661,7.42253303 L3.7225737,4.18868062 L7.5381175,4.18868062 Z M7.5381175,8.24670055 L7.05190892,8.25298232 L6.86596869,8.24670055 L7.5381175,8.24670055 Z" id="path26043"></path>
            </g>
        </g>
    </g>
</svg>